<?xml version="1.0" encoding="UTF-8" standalone="no"?>
<!DOCTYPE svg PUBLIC "-//W3C//DTD SVG 1.1//EN" "http://www.w3.org/Graphics/SVG/1.1/DTD/svg11.dtd">
<!-- Generated by Microsoft Visio, SVG Export b1.svg Page-1 -->
<svg xmlns="http://www.w3.org/2000/svg" xmlns:xlink="http://www.w3.org/1999/xlink" xmlns:ev="http://www.w3.org/2001/xml-events"
		xmlns:v="http://schemas.microsoft.com/visio/2003/SVGExtensions/" width="1.51736in" height="0.694445in"
		viewBox="0 0 109.25 50" xml:space="preserve" color-interpolation-filters="sRGB" class="st12">
	<v:documentProperties v:langID="1033" v:viewMarkup="false"/>

	<style type="text/css">
	<![CDATA[
		.st1 {fill:#ffffff;stroke:none;stroke-width:0.25}
		.st2 {stroke:#d8d8d8;stroke-linecap:butt;stroke-width:1}
		.st3 {fill:#ffffff;stroke:none;stroke-linecap:butt;stroke-width:7.2}
		.st4 {fill:#d8d8d8;font-family:Microsoft Uighur;font-size:0.833336em}
		.st5 {stroke:#7030a0;stroke-linecap:round;stroke-linejoin:round;stroke-width:1}
		.st6 {fill:#000000;font-family:Microsoft Uighur;font-size:0.833336em}
		.st7 {stroke:#7f7f7f;stroke-dasharray:2,1;stroke-linecap:butt;stroke-width:1}
		.st8 {stroke:#00b050;stroke-linecap:round;stroke-linejoin:round;stroke-width:1}
		.st9 {fill:#7030a0;stroke:none;stroke-width:0.25}
		.st10 {fill:#ffffff;font-family:Microsoft Uighur;font-size:0.833336em}
		.st11 {fill:#00b050;stroke:none;stroke-width:0.25}
		.st12 {fill:none;fill-rule:evenodd;font-size:12px;overflow:visible;stroke-linecap:square;stroke-miterlimit:3}
	]]>
	</style>

	<g v:mID="0" v:index="1" v:groupContext="foregroundPage">
		<title>Page-1</title>
		<v:pageProperties v:drawingScale="1" v:pageScale="1" v:drawingUnits="0" v:shadowOffsetX="9" v:shadowOffsetY="-9"/>
		<g id="group138-1" transform="translate(0.25,-0.25)" v:mID="138" v:groupContext="group">
			<title>Sheet.138</title>
			<g id="shape133-2" v:mID="133" v:groupContext="shape" transform="translate(3.21865E-07,0)">
				<title>Rectangle</title>
				<v:userDefs>
					<v:ud v:nameU="visVersion" v:val="VT0(15):26"/>
				</v:userDefs>
				<rect x="0" y="0.500012" width="108" height="49.5" class="st1"/>
			</g>
			<g id="shape111-4" v:mID="111" v:groupContext="shape" transform="translate(54,-42.75)">
				<title>Sheet.111</title>
				<desc>1</desc>
				<v:textBlock v:margins="rect(0,0,0,0)"/>
				<v:textRect cx="27" cy="50" width="54" height="0"/>
				<path d="M0 50 L54 50" class="st2"/>
				<rect v:rectContext="textBkgnd" x="25.5619" y="44.9999" width="2.87595" height="10.6642" class="st3"/>
				<text x="25.56" y="52.5" class="st4" v:langID="1033"><v:paragraph v:spLine="-1" v:horizAlign="1"/><v:tabList/>1</text>			</g>
			<g id="shape92-9" v:mID="92" v:groupContext="shape" transform="translate(83.25,-24.75)">
				<title>Sheet.92</title>
				<desc>2</desc>
				<v:textBlock v:margins="rect(0,0,0,0)"/>
				<v:textRect cx="12.375" cy="50" width="24.76" height="0"/>
				<path d="M0 50 L24.75 50" class="st2"/>
				<rect v:rectContext="textBkgnd" x="10.5488" y="44.9999" width="3.6524" height="10.6642" class="st3"/>
				<text x="10.55" y="52.5" class="st4" v:langID="1033"><v:paragraph v:spLine="-1" v:horizAlign="1"/><v:tabList/>2</text>			</g>
			<g id="shape93-14" v:mID="93" v:groupContext="shape" transform="translate(54,-6.75)">
				<title>Sheet.93</title>
				<desc>3</desc>
				<v:textBlock v:margins="rect(0,0,0,0)"/>
				<v:textRect cx="27" cy="50" width="54" height="0"/>
				<path d="M0 50 L54 50" class="st2"/>
				<rect v:rectContext="textBkgnd" x="25.4229" y="44.9999" width="3.15417" height="10.6642" class="st3"/>
				<text x="25.42" y="52.5" class="st4" v:langID="1033"><v:paragraph v:spLine="-1" v:horizAlign="1"/><v:tabList/>3</text>			</g>
			<g id="shape101-19" v:mID="101" v:groupContext="shape" transform="translate(-11.0498,-21.4744) rotate(-20.8545)">
				<title>Sheet.101</title>
				<desc>7</desc>
				<v:textBlock v:margins="rect(0,0,0,0)"/>
				<v:textRect cx="25.2812" cy="50" width="50.57" height="0"/>
				<path d="M0 50 L50.56 50" class="st5"/>
				<rect v:rectContext="textBkgnd" x="23.6843" y="44.9999" width="3.19345" height="10.6642" class="st3"/>
				<text x="23.68" y="52.5" class="st6" v:langID="1033"><v:paragraph v:spLine="-1" v:horizAlign="1"/><v:tabList/>7</text>			</g>
			<g id="shape102-24" v:mID="102" v:groupContext="shape" transform="translate(6.75,-24.75)">
				<title>Sheet.102</title>
				<desc>8</desc>
				<v:textBlock v:margins="rect(0,0,0,0)"/>
				<v:textRect cx="38.25" cy="50" width="76.5" height="0"/>
				<path d="M0 50 L76.5 50" class="st7"/>
				<rect v:rectContext="textBkgnd" x="36.5826" y="44.9999" width="3.3349" height="10.6642" class="st3"/>
				<text x="36.58" y="52.5" class="st6" v:langID="1033"><v:paragraph v:spLine="-1" v:horizAlign="1"/><v:tabList/>8</text>			</g>
			<g id="shape103-29" v:mID="103" v:groupContext="shape" transform="translate(24.5498,-21.4744) rotate(20.8545)">
				<title>Sheet.103</title>
				<desc>9</desc>
				<v:textBlock v:margins="rect(0,0,0,0)"/>
				<v:textRect cx="25.2812" cy="50" width="50.57" height="0"/>
				<path d="M0 50 L50.56 50" class="st7"/>
				<rect v:rectContext="textBkgnd" x="23.6722" y="44.9999" width="3.2179" height="10.6642" class="st3"/>
				<text x="23.67" y="52.5" class="st6" v:langID="1033"><v:paragraph v:spLine="-1" v:horizAlign="1"/><v:tabList/>9</text>			</g>
			<g id="shape104-34" v:mID="104" v:groupContext="shape" transform="translate(3.99998,43.25) rotate(-90)">
				<title>Sheet.104</title>
				<desc>11</desc>
				<v:textBlock v:margins="rect(0,0,0,0)"/>
				<v:textRect cx="18" cy="50" width="36.01" height="0"/>
				<path d="M0 50 L36 50" class="st7"/>
				<rect v:rectContext="textBkgnd" x="15.1241" y="44.9999" width="5.75189" height="10.6642" class="st3"/>
				<text x="15.12" y="52.5" class="st6" v:langID="1033"><v:paragraph v:spLine="-1" v:horizAlign="1"/><v:tabList/>11</text>			</g>
			<g id="shape105-39" v:mID="105" v:groupContext="shape" transform="translate(80.2049,-35.3329) rotate(31.6075)">
				<title>Sheet.105</title>
				<desc>10</desc>
				<v:textBlock v:margins="rect(0,0,0,0)"/>
				<v:textRect cx="17.1724" cy="50" width="34.35" height="0"/>
				<path d="M0 50 L34.34 50" class="st7"/>
				<rect v:rectContext="textBkgnd" x="13.9936" y="44.9999" width="6.35751" height="10.6642" class="st3"/>
				<text x="13.99" y="52.5" class="st6" v:langID="1033"><v:paragraph v:spLine="-1" v:horizAlign="1"/><v:tabList/>10</text>			</g>
			<g id="shape106-44" v:mID="106" v:groupContext="shape" transform="translate(27.7951,0.6671) rotate(-31.6075)">
				<title>Sheet.106</title>
				<desc>12</desc>
				<v:textBlock v:margins="rect(0,0,0,0)"/>
				<v:textRect cx="17.1724" cy="50" width="34.35" height="0"/>
				<path d="M0 50 L34.34 50" class="st8"/>
				<rect v:rectContext="textBkgnd" x="13.9081" y="44.9999" width="6.52835" height="10.6642" class="st3"/>
				<text x="13.91" y="52.5" class="st6" v:langID="1033"><v:paragraph v:spLine="-1" v:horizAlign="1"/><v:tabList/>12</text>			</g>
			<g id="shape107-49" v:mID="107" v:groupContext="shape" transform="translate(47.25,-36)">
				<title>Circle.107</title>
				<desc>6</desc>
				<v:userDefs>
					<v:ud v:nameU="visVersion" v:val="VT0(15):26"/>
				</v:userDefs>
				<v:textBlock v:margins="rect(0,0,0,0)"/>
				<v:textRect cx="6.75" cy="43.25" width="11.82" height="10.125"/>
				<path d="M0 43.25 A6.75 6.75 0 0 1 13.5 43.25 A6.75 6.75 0 1 1 0 43.25 Z" class="st9"/>
				<text x="5.06" y="45.75" class="st10" v:langID="1033"><v:paragraph v:spLine="-1" v:horizAlign="1"/><v:tabList/>6</text>			</g>
			<g id="shape108-52" v:mID="108" v:groupContext="shape" transform="translate(0,-18)">
				<title>Circle.108</title>
				<desc>1</desc>
				<v:userDefs>
					<v:ud v:nameU="visVersion" v:val="VT0(15):26"/>
				</v:userDefs>
				<v:textBlock v:margins="rect(0,0,0,0)"/>
				<v:textRect cx="6.75" cy="43.25" width="11.82" height="10.125"/>
				<path d="M0 43.25 A6.75 6.75 0 0 1 13.5 43.25 A6.75 6.75 0 1 1 0 43.25 Z" class="st9"/>
				<text x="5.31" y="45.75" class="st10" v:langID="1033"><v:paragraph v:spLine="-1" v:horizAlign="1"/><v:tabList/>1</text>			</g>
			<g id="shape109-55" v:mID="109" v:groupContext="shape" transform="translate(76.5,-18)">
				<title>Circle.109</title>
				<desc>7</desc>
				<v:userDefs>
					<v:ud v:nameU="visVersion" v:val="VT0(15):26"/>
				</v:userDefs>
				<v:textBlock v:margins="rect(0,0,0,0)"/>
				<v:textRect cx="6.75" cy="43.25" width="11.82" height="10.125"/>
				<path d="M0 43.25 A6.75 6.75 0 0 1 13.5 43.25 A6.75 6.75 0 1 1 0 43.25 Z" class="st11"/>
				<text x="5.15" y="45.75" class="st10" v:langID="1033"><v:paragraph v:spLine="-1" v:horizAlign="1"/><v:tabList/>7</text>			</g>
			<g id="shape110-58" v:mID="110" v:groupContext="shape" transform="translate(47.25,0)">
				<title>Circle.110</title>
				<desc>8</desc>
				<v:userDefs>
					<v:ud v:nameU="visVersion" v:val="VT0(15):26"/>
				</v:userDefs>
				<v:textBlock v:margins="rect(0,0,0,0)"/>
				<v:textRect cx="6.75" cy="43.25" width="11.82" height="10.125"/>
				<path d="M0 43.25 A6.75 6.75 0 0 1 13.5 43.25 A6.75 6.75 0 1 1 0 43.25 Z" class="st11"/>
				<text x="5.08" y="45.75" class="st10" v:langID="1033"><v:paragraph v:spLine="-1" v:horizAlign="1"/><v:tabList/>8</text>			</g>
		</g>
	</g>
</svg>
