<?xml version="1.0" encoding="UTF-8" standalone="no"?>
<!DOCTYPE svg PUBLIC "-//W3C//DTD SVG 1.1//EN" "http://www.w3.org/Graphics/SVG/1.1/DTD/svg11.dtd">
<!-- Generiert durch Microsoft Visio, SVG Export b12.svg Zeichenblatt-1 -->
<svg xmlns="http://www.w3.org/2000/svg" xmlns:xlink="http://www.w3.org/1999/xlink" xmlns:ev="http://www.w3.org/2001/xml-events"
		xmlns:v="http://schemas.microsoft.com/visio/2003/SVGExtensions/" width="1.19444in" height="0.631944in"
		viewBox="0 0 86 45.5" xml:space="preserve" color-interpolation-filters="sRGB" class="st9">
	<v:documentProperties v:langID="1033" v:viewMarkup="false"/>

	<style type="text/css">
	<![CDATA[
		.st1 {stroke:#bfbfbf;stroke-linecap:round;stroke-linejoin:round;stroke-width:1}
		.st2 {fill:#ffffff;fill-opacity:0.75;stroke:none;stroke-linecap:butt}
		.st3 {fill:#bfbfbf;font-family:Microsoft Uighur;font-size:0.666664em}
		.st4 {stroke:#000000;stroke-linecap:round;stroke-linejoin:round;stroke-width:1}
		.st5 {fill:#ffffff;fill-opacity:0.75;stroke:none;stroke-linecap:butt;stroke-width:7.2}
		.st6 {fill:#000000;font-family:Microsoft Uighur;font-size:0.666664em}
		.st7 {fill:#000000;stroke:none;stroke-width:0.25}
		.st8 {fill:#ffffff;font-family:Microsoft Uighur;font-size:0.833336em}
		.st9 {fill:none;fill-rule:evenodd;font-size:12px;overflow:visible;stroke-linecap:square;stroke-miterlimit:3}
	]]>
	</style>

	<g v:mID="0" v:index="1" v:groupContext="foregroundPage">
		<title>Zeichenblatt-1</title>
		<v:pageProperties v:drawingScale="1" v:pageScale="1" v:drawingUnits="0" v:shadowOffsetX="9" v:shadowOffsetY="-9"/>
		<g id="group654-1" transform="translate(0.25,-0.25)" v:mID="654" v:groupContext="group">
			<title>Tabelle.654</title>
			<g id="shape616-2" v:mID="616" v:groupContext="shape" transform="translate(72.712,-26.9922) rotate(41.1859)">
				<title>Tabelle.616</title>
				<desc>16</desc>
				<v:textBlock v:margins="rect(0,0,0,0)"/>
				<v:textRect cx="23.9178" cy="45.5" width="47.84" height="0"/>
				<path d="M0 45.5 L47.84 45.5" class="st1"/>
				<rect v:rectContext="textBkgnd" x="21.4137" y="41.4999" width="5.00784" height="8.53116" class="st2"/>
				<text x="21.41" y="47.5" class="st3" v:langID="1033"><v:paragraph v:spLine="-1" v:horizAlign="1"/><v:tabList/>16</text>			</g>
			<g id="shape611-7" v:mID="611" v:groupContext="shape" transform="translate(-9.22612,-21.853) rotate(-20.556)">
				<title>Tabelle.611</title>
				<desc>19</desc>
				<v:textBlock v:margins="rect(0,0,0,0)"/>
				<v:textRect cx="19.224" cy="45.5" width="38.45" height="0"/>
				<path d="M0 45.5 L38.45 45.5" class="st1"/>
				<rect v:rectContext="textBkgnd" x="16.7866" y="41.4999" width="4.87491" height="8.53116" class="st2"/>
				<text x="16.79" y="47.5" class="st3" v:langID="1033"><v:paragraph v:spLine="-1" v:horizAlign="1"/><v:tabList/>19</text>			</g>
			<g id="shape612-12" v:mID="612" v:groupContext="shape" transform="translate(27.0982,-19.9464) rotate(26.5651)">
				<title>Tabelle.612</title>
				<desc>20</desc>
				<v:textBlock v:margins="rect(0,0,0,0)"/>
				<v:textRect cx="20.1246" cy="45.5" width="40.25" height="0"/>
				<path d="M0 45.5 L40.25 45.5" class="st4"/>
				<rect v:rectContext="textBkgnd" x="17.2711" y="41.4999" width="5.70685" height="8.53116" class="st5"/>
				<text x="17.27" y="47.5" class="st6" v:langID="1033"><v:paragraph v:spLine="-1" v:horizAlign="1"/><v:tabList/>20</text>			</g>
			<g id="shape613-17" v:mID="613" v:groupContext="shape" transform="translate(42.75,-6.75) rotate(5.12264E-07)">
				<title>Tabelle.613</title>
				<desc>18</desc>
				<v:textBlock v:margins="rect(0,0,0,0)"/>
				<v:textRect cx="18" cy="45.5" width="36" height="0"/>
				<path d="M0 45.5 L36 45.5" class="st4"/>
				<rect v:rectContext="textBkgnd" x="15.5154" y="41.4999" width="4.96884" height="8.53116" class="st2"/>
				<text x="15.52" y="47.5" class="st6" v:langID="1033"><v:paragraph v:spLine="-1" v:horizAlign="1"/><v:tabList/>18</text>			</g>
			<g id="shape614-22" v:mID="614" v:groupContext="shape" transform="translate(42.75,-38.25) rotate(5.12264E-07)">
				<title>Tabelle.614</title>
				<desc>15</desc>
				<v:textBlock v:margins="rect(0,0,0,0)"/>
				<v:textRect cx="18" cy="45.5" width="36.01" height="0"/>
				<path d="M0 45.5 L36 45.5" class="st1"/>
				<rect v:rectContext="textBkgnd" x="15.6075" y="41.4999" width="4.7851" height="8.53116" class="st2"/>
				<text x="15.61" y="47.5" class="st3" v:langID="1033"><v:paragraph v:spLine="-1" v:horizAlign="1"/><v:tabList/>15</text>			</g>
			<g id="shape615-27" v:mID="615" v:groupContext="shape" transform="translate(12.788,4.50776) rotate(-41.1859)">
				<title>Tabelle.615</title>
				<desc>17</desc>
				<v:textBlock v:margins="rect(0,0,0,0)"/>
				<v:textRect cx="23.9178" cy="45.5" width="47.84" height="0"/>
				<path d="M0 45.5 L47.84 45.5" class="st4"/>
				<rect v:rectContext="textBkgnd" x="21.4901" y="41.4999" width="4.85541" height="8.53116" class="st2"/>
				<text x="21.49" y="47.5" class="st6" v:langID="1033"><v:paragraph v:spLine="-1" v:horizAlign="1"/><v:tabList/>17</text>			</g>
			<g id="shape606-32" v:mID="606" v:groupContext="shape" transform="translate(1.27898E-13,-18)">
				<title>Circle.606</title>
				<desc>2</desc>
				<v:userDefs>
					<v:ud v:nameU="visVersion" v:val="VT0(15):26"/>
				</v:userDefs>
				<v:textBlock v:margins="rect(0,0,0,0)"/>
				<v:textRect cx="6.75" cy="38.75" width="11.82" height="10.125"/>
				<path d="M0 38.75 A6.75 6.75 0 0 1 13.5 38.75 A6.75 6.75 0 1 1 0 38.75 Z" class="st7"/>
				<text x="4.92" y="41.25" class="st8" v:langID="1033"><v:paragraph v:spLine="-1" v:horizAlign="1"/><v:tabList/>2</text>			</g>
			<g id="shape607-35" v:mID="607" v:groupContext="shape" transform="translate(36,-31.5)">
				<title>Circle.607</title>
				<desc>13</desc>
				<v:userDefs>
					<v:ud v:nameU="visVersion" v:val="VT0(15):26"/>
				</v:userDefs>
				<v:textBlock v:margins="rect(0,0,0,0)"/>
				<v:textRect cx="6.75" cy="38.75" width="11.82" height="10.125"/>
				<path d="M0 38.75 A6.75 6.75 0 0 1 13.5 38.75 A6.75 6.75 0 1 1 0 38.75 Z" class="st7"/>
				<text x="3.73" y="41.25" class="st8" v:langID="1033"><v:paragraph v:spLine="-1" v:horizAlign="1"/><v:tabList/>13</text>			</g>
			<g id="shape608-38" v:mID="608" v:groupContext="shape" transform="translate(36,-3.21865E-07)">
				<title>Circle.608</title>
				<desc>14</desc>
				<v:userDefs>
					<v:ud v:nameU="visVersion" v:val="VT0(15):26"/>
				</v:userDefs>
				<v:textBlock v:margins="rect(0,0,0,0)"/>
				<v:textRect cx="6.75" cy="38.75" width="11.82" height="10.125"/>
				<path d="M0 38.75 A6.75 6.75 0 0 1 13.5 38.75 A6.75 6.75 0 1 1 0 38.75 Z" class="st7"/>
				<text x="3.69" y="41.25" class="st8" v:langID="1033"><v:paragraph v:spLine="-1" v:horizAlign="1"/><v:tabList/>14</text>			</g>
			<g id="shape609-41" v:mID="609" v:groupContext="shape" transform="translate(72,-31.5)">
				<title>Circle.609</title>
				<desc>11</desc>
				<v:userDefs>
					<v:ud v:nameU="visVersion" v:val="VT0(15):26"/>
				</v:userDefs>
				<v:textBlock v:margins="rect(0,0,0,0)"/>
				<v:textRect cx="6.75" cy="38.75" width="11.82" height="10.125"/>
				<path d="M0 38.75 A6.75 6.75 0 0 1 13.5 38.75 A6.75 6.75 0 1 1 0 38.75 Z" class="st7"/>
				<text x="3.87" y="41.25" class="st8" v:langID="1033"><v:paragraph v:spLine="-1" v:horizAlign="1"/><v:tabList/>11</text>			</g>
			<g id="shape610-44" v:mID="610" v:groupContext="shape" transform="translate(72,-7.10543E-15)">
				<title>Circle.610</title>
				<desc>12</desc>
				<v:userDefs>
					<v:ud v:nameU="visVersion" v:val="VT0(15):26"/>
				</v:userDefs>
				<v:textBlock v:margins="rect(0,0,0,0)"/>
				<v:textRect cx="6.75" cy="38.75" width="11.82" height="10.125"/>
				<path d="M0 38.75 A6.75 6.75 0 0 1 13.5 38.75 A6.75 6.75 0 1 1 0 38.75 Z" class="st7"/>
				<text x="3.49" y="41.25" class="st8" v:langID="1033"><v:paragraph v:spLine="-1" v:horizAlign="1"/><v:tabList/>12</text>			</g>
		</g>
	</g>
</svg>
