<?xml version="1.0" encoding="UTF-8" standalone="no"?>
<!DOCTYPE svg PUBLIC "-//W3C//DTD SVG 1.1//EN" "http://www.w3.org/Graphics/SVG/1.1/DTD/svg11.dtd">
<!-- Generated by Microsoft Visio, SVG Export b2.svg Page-1 -->
<svg xmlns="http://www.w3.org/2000/svg" xmlns:xlink="http://www.w3.org/1999/xlink" xmlns:ev="http://www.w3.org/2001/xml-events"
		xmlns:v="http://schemas.microsoft.com/visio/2003/SVGExtensions/" width="1.52083in" height="0.694445in"
		viewBox="0 0 109.5 50" xml:space="preserve" color-interpolation-filters="sRGB" class="st11">
	<v:documentProperties v:langID="1033" v:viewMarkup="false"/>

	<style type="text/css">
	<![CDATA[
		.st1 {fill:#ffffff;stroke:none;stroke-width:0.25}
		.st2 {stroke:#00b050;stroke-linecap:butt;stroke-width:1}
		.st3 {fill:#ffffff;stroke:none;stroke-linecap:butt;stroke-width:7.2}
		.st4 {fill:#000000;font-family:Microsoft Uighur;font-size:0.833336em}
		.st5 {stroke:#bfbfbf;stroke-linecap:round;stroke-linejoin:round;stroke-width:1}
		.st6 {fill:#d8d8d8;font-family:Microsoft Uighur;font-size:0.833336em}
		.st7 {stroke:#bfbfbf;stroke-linecap:butt;stroke-width:1}
		.st8 {stroke:#7f7f7f;stroke-dasharray:2,1;stroke-linecap:butt;stroke-width:1}
		.st9 {fill:#00b050;stroke:none;stroke-width:0.25}
		.st10 {fill:#ffffff;font-family:Microsoft Uighur;font-size:0.833336em}
		.st11 {fill:none;fill-rule:evenodd;font-size:12px;overflow:visible;stroke-linecap:square;stroke-miterlimit:3}
	]]>
	</style>

	<g v:mID="0" v:index="1" v:groupContext="foregroundPage">
		<title>Page-1</title>
		<v:pageProperties v:drawingScale="1" v:pageScale="1" v:drawingUnits="0" v:shadowOffsetX="9" v:shadowOffsetY="-9"/>
		<g id="group139-1" transform="translate(0.999998,-0.25)" v:mID="139" v:groupContext="group">
			<title>Sheet.139</title>
			<g id="shape134-2" v:mID="134" v:groupContext="shape">
				<title>Rectangle.134</title>
				<v:userDefs>
					<v:ud v:nameU="visVersion" v:val="VT0(15):26"/>
				</v:userDefs>
				<rect x="0" y="0.500001" width="108" height="49.5" class="st1"/>
			</g>
			<g id="shape60-4" v:mID="60" v:groupContext="shape" transform="translate(80.2049,-26.3329) rotate(31.6075)">
				<title>Sheet.60</title>
				<desc>14</desc>
				<v:textBlock v:margins="rect(0,0,0,0)"/>
				<v:textRect cx="17.1724" cy="50" width="34.35" height="0"/>
				<path d="M0 50 L34.34 50" class="st2"/>
				<rect v:rectContext="textBkgnd" x="14.1133" y="44.9999" width="6.11801" height="10.6642" class="st3"/>
				<text x="14.11" y="52.5" class="st4" v:langID="1033"><v:paragraph v:spLine="-1" v:horizAlign="1"/><v:tabList/>14</text>			</g>
			<g id="shape62-9" v:mID="62" v:groupContext="shape" transform="translate(83.25,-15.75)">
				<title>Sheet.62</title>
				<desc>4</desc>
				<v:textBlock v:margins="rect(0,0,0,0)"/>
				<v:textRect cx="12.375" cy="50" width="24.76" height="0"/>
				<path d="M0 50 L24.75 50" class="st5"/>
				<rect v:rectContext="textBkgnd" x="10.754" y="44.9999" width="3.24207" height="10.6642" class="st3"/>
				<text x="10.75" y="52.5" class="st6" v:langID="1033"><v:paragraph v:spLine="-1" v:horizAlign="1"/><v:tabList/>4</text>			</g>
			<g id="shape76-14" v:mID="76" v:groupContext="shape" transform="translate(-1.45489,-8.33291) rotate(-31.6075)">
				<title>Sheet.76</title>
				<desc>13</desc>
				<v:textBlock v:margins="rect(0,0,0,0)"/>
				<v:textRect cx="17.1724" cy="50" width="34.35" height="0"/>
				<path d="M0 50 L34.34 50" class="st2"/>
				<rect v:rectContext="textBkgnd" x="14.1573" y="44.9999" width="6.03012" height="10.6642" class="st3"/>
				<text x="14.16" y="52.5" class="st4" v:langID="1033"><v:paragraph v:spLine="-1" v:horizAlign="1"/><v:tabList/>13</text>			</g>
			<g id="shape77-19" v:mID="77" v:groupContext="shape" transform="translate(2.25306E-06,-15.75)">
				<title>Sheet.77</title>
				<desc>1</desc>
				<v:textBlock v:margins="rect(0,0,0,0)"/>
				<v:textRect cx="12.375" cy="50" width="24.75" height="0"/>
				<path d="M0 50 L24.75 50" class="st7"/>
				<rect v:rectContext="textBkgnd" x="10.9369" y="44.9999" width="2.87595" height="10.6642" class="st3"/>
				<text x="10.94" y="52.5" class="st6" v:langID="1033"><v:paragraph v:spLine="-1" v:horizAlign="1"/><v:tabList/>1</text>			</g>
			<g id="shape79-24" v:mID="79" v:groupContext="shape" transform="translate(24.75,-15.75)">
				<title>Sheet.79</title>
				<desc>15</desc>
				<v:textBlock v:margins="rect(0,0,0,0)"/>
				<v:textRect cx="29.25" cy="50" width="58.5" height="0"/>
				<path d="M0 50 L58.5 50" class="st8"/>
				<rect v:rectContext="textBkgnd" x="26.2592" y="44.9999" width="5.98151" height="10.6642" class="st3"/>
				<text x="26.26" y="52.5" class="st4" v:langID="1033"><v:paragraph v:spLine="-1" v:horizAlign="1"/><v:tabList/>15</text>			</g>
			<g id="shape57-29" v:mID="57" v:groupContext="shape" transform="translate(47.25,-27)">
				<title>Circle.57</title>
				<desc>2</desc>
				<v:userDefs>
					<v:ud v:nameU="visVersion" v:val="VT0(15):26"/>
				</v:userDefs>
				<v:textBlock v:margins="rect(0,0,0,0)"/>
				<v:textRect cx="6.75" cy="43.25" width="11.82" height="10.125"/>
				<path d="M0 43.25 A6.75 6.75 0 0 1 13.5 43.25 A6.75 6.75 0 1 1 0 43.25 Z" class="st9"/>
				<text x="4.92" y="45.75" class="st10" v:langID="1033"><v:paragraph v:spLine="-1" v:horizAlign="1"/><v:tabList/>2</text>			</g>
			<g id="shape59-32" v:mID="59" v:groupContext="shape" transform="translate(18,-9)">
				<title>Circle.59</title>
				<desc>9</desc>
				<v:userDefs>
					<v:ud v:nameU="visVersion" v:val="VT0(15):26"/>
				</v:userDefs>
				<v:textBlock v:margins="rect(0,0,0,0)"/>
				<v:textRect cx="6.75" cy="43.25" width="11.82" height="10.125"/>
				<path d="M0 43.25 A6.75 6.75 0 0 1 13.5 43.25 A6.75 6.75 0 1 1 0 43.25 Z" class="st9"/>
				<text x="5.14" y="45.75" class="st10" v:langID="1033"><v:paragraph v:spLine="-1" v:horizAlign="1"/><v:tabList/>9</text>			</g>
			<g id="shape58-35" v:mID="58" v:groupContext="shape" transform="translate(76.5,-9)">
				<title>Circle.58</title>
				<desc>10</desc>
				<v:userDefs>
					<v:ud v:nameU="visVersion" v:val="VT0(15):26"/>
				</v:userDefs>
				<v:textBlock v:margins="rect(0,0,0,0)"/>
				<v:textRect cx="6.75" cy="43.25" width="11.82" height="10.125"/>
				<path d="M0 43.25 A6.75 6.75 0 0 1 13.5 43.25 A6.75 6.75 0 1 1 0 43.25 Z" class="st9"/>
				<text x="3.57" y="45.75" class="st10" v:langID="1033"><v:paragraph v:spLine="-1" v:horizAlign="1"/><v:tabList/>10</text>			</g>
		</g>
	</g>
</svg>
