<?xml version="1.0" encoding="UTF-8" standalone="no"?>
<!DOCTYPE svg PUBLIC "-//W3C//DTD SVG 1.1//EN" "http://www.w3.org/Graphics/SVG/1.1/DTD/svg11.dtd">
<!-- Generated by Microsoft Visio, SVG Export b4.svg Page-1 -->
<svg xmlns="http://www.w3.org/2000/svg" xmlns:xlink="http://www.w3.org/1999/xlink" xmlns:ev="http://www.w3.org/2001/xml-events"
		xmlns:v="http://schemas.microsoft.com/visio/2003/SVGExtensions/" width="1.51736in" height="0.694445in"
		viewBox="0 0 109.25 50" xml:space="preserve" color-interpolation-filters="sRGB" class="st12">
	<v:documentProperties v:langID="1033" v:viewMarkup="false"/>

	<style type="text/css">
	<![CDATA[
		.st1 {fill:#ffffff;stroke:none;stroke-width:0.25}
		.st2 {stroke:#d8d8d8;stroke-linecap:butt;stroke-width:1}
		.st3 {fill:#ffffff;stroke:none;stroke-linecap:butt;stroke-width:7.2}
		.st4 {fill:#d8d8d8;font-family:Microsoft Uighur;font-size:0.833336em}
		.st5 {stroke:#7f7f7f;stroke-dasharray:2,1;stroke-linecap:butt;stroke-width:1}
		.st6 {fill:#000000;font-family:Microsoft Uighur;font-size:0.833336em}
		.st7 {stroke:#7030a0;stroke-linecap:round;stroke-linejoin:round;stroke-width:1}
		.st8 {stroke:#00b050;stroke-linecap:round;stroke-linejoin:round;stroke-width:1}
		.st9 {fill:#00b050;stroke:none;stroke-width:0.25}
		.st10 {fill:#ffffff;font-family:Microsoft Uighur;font-size:0.833336em}
		.st11 {fill:#7030a0;stroke:none;stroke-width:0.25}
		.st12 {fill:none;fill-rule:evenodd;font-size:12px;overflow:visible;stroke-linecap:square;stroke-miterlimit:3}
	]]>
	</style>

	<g v:mID="0" v:index="1" v:groupContext="foregroundPage">
		<title>Page-1</title>
		<v:pageProperties v:drawingScale="1" v:pageScale="1" v:drawingUnits="0" v:shadowOffsetX="9" v:shadowOffsetY="-9"/>
		<g id="group142-1" transform="translate(1,-0.25)" v:mID="142" v:groupContext="group">
			<title>Sheet.142</title>
			<g id="shape136-2" v:mID="136" v:groupContext="shape" transform="translate(1.8239E-05,0)">
				<title>Rectangle.136</title>
				<v:userDefs>
					<v:ud v:nameU="visVersion" v:val="VT0(15):26"/>
				</v:userDefs>
				<rect x="0" y="0.500001" width="108" height="49.5" class="st1"/>
			</g>
			<g id="shape112-4" v:mID="112" v:groupContext="shape" transform="translate(3.21865E-07,-42.75)">
				<title>Sheet.112</title>
				<desc>5</desc>
				<v:textBlock v:margins="rect(0,0,0,0)"/>
				<v:textRect cx="27" cy="50" width="54.01" height="0"/>
				<path d="M0 50 L54 50" class="st2"/>
				<rect v:rectContext="textBkgnd" x="25.4471" y="44.9999" width="3.10556" height="10.6642" class="st3"/>
				<text x="25.45" y="52.5" class="st4" v:langID="1033"><v:paragraph v:spLine="-1" v:horizAlign="1"/><v:tabList/>5</text>			</g>
			<g id="shape113-9" v:mID="113" v:groupContext="shape" transform="translate(0,-24.75)">
				<title>Sheet.113</title>
				<desc>2</desc>
				<v:textBlock v:margins="rect(0,0,0,0)"/>
				<v:textRect cx="12.375" cy="50" width="24.76" height="0"/>
				<path d="M0 50 L24.75 50" class="st2"/>
				<rect v:rectContext="textBkgnd" x="10.5488" y="44.9999" width="3.6524" height="10.6642" class="st3"/>
				<text x="10.55" y="52.5" class="st4" v:langID="1033"><v:paragraph v:spLine="-1" v:horizAlign="1"/><v:tabList/>2</text>			</g>
			<g id="shape114-14" v:mID="114" v:groupContext="shape" transform="translate(3.21865E-07,-6.75001)">
				<title>Sheet.114</title>
				<desc>6</desc>
				<v:textBlock v:margins="rect(0,0,0,0)"/>
				<v:textRect cx="27" cy="50" width="54.01" height="0"/>
				<path d="M0 50 L54 50" class="st2"/>
				<rect v:rectContext="textBkgnd" x="25.3081" y="44.9999" width="3.38379" height="10.6642" class="st3"/>
				<text x="25.31" y="52.5" class="st4" v:langID="1033"><v:paragraph v:spLine="-1" v:horizAlign="1"/><v:tabList/>6</text>			</g>
			<g id="shape115-19" v:mID="115" v:groupContext="shape" transform="translate(-1.45485,-17.3329) rotate(-31.6075)">
				<title>Sheet.115</title>
				<desc>22</desc>
				<v:textBlock v:margins="rect(0,0,0,0)"/>
				<v:textRect cx="17.1724" cy="50" width="34.35" height="0"/>
				<path d="M0 50 L34.34 50" class="st5"/>
				<rect v:rectContext="textBkgnd" x="13.5198" y="44.9999" width="7.30481" height="10.6642" class="st3"/>
				<text x="13.52" y="52.5" class="st6" v:langID="1033"><v:paragraph v:spLine="-1" v:horizAlign="1"/><v:tabList/>22</text>			</g>
			<g id="shape116-24" v:mID="116" v:groupContext="shape" transform="translate(24.75,-24.75)">
				<title>Sheet.116</title>
				<desc>19</desc>
				<v:textBlock v:margins="rect(0,0,0,0)"/>
				<v:textRect cx="38.25" cy="50" width="76.5" height="0"/>
				<path d="M0 50 L76.5 50" class="st7"/>
				<rect v:rectContext="textBkgnd" x="35.2029" y="44.9999" width="6.09384" height="10.6642" class="st3"/>
				<text x="35.2" y="52.5" class="st6" v:langID="1033"><v:paragraph v:spLine="-1" v:horizAlign="1"/><v:tabList/>19</text>			</g>
			<g id="shape117-29" v:mID="117" v:groupContext="shape" transform="translate(50.9549,-17.3329) rotate(31.6075)">
				<title>Sheet.117</title>
				<desc>23</desc>
				<v:textBlock v:margins="rect(0,0,0,0)"/>
				<v:textRect cx="17.1724" cy="50" width="34.35" height="0"/>
				<path d="M0 50 L34.34 50" class="st5"/>
				<rect v:rectContext="textBkgnd" x="13.7689" y="44.9999" width="6.80658" height="10.6642" class="st3"/>
				<text x="13.77" y="52.5" class="st6" v:langID="1033"><v:paragraph v:spLine="-1" v:horizAlign="1"/><v:tabList/>23</text>			</g>
			<g id="shape118-34" v:mID="118" v:groupContext="shape" transform="translate(4.00001,43.25) rotate(-90)">
				<title>Sheet.118</title>
				<desc>24</desc>
				<v:textBlock v:margins="rect(0,0,0,0)"/>
				<v:textRect cx="18" cy="50" width="36.01" height="0"/>
				<path d="M0 50 L36 50" class="st8"/>
				<rect v:rectContext="textBkgnd" x="14.5528" y="44.9999" width="6.89447" height="10.6642" class="st3"/>
				<text x="14.55" y="52.5" class="st6" v:langID="1033"><v:paragraph v:spLine="-1" v:horizAlign="1"/><v:tabList/>24</text>			</g>
			<g id="shape119-39" v:mID="119" v:groupContext="shape" transform="translate(71.7998,-39.4744) rotate(20.8545)">
				<title>Sheet.119</title>
				<desc>20</desc>
				<v:textBlock v:margins="rect(0,0,0,0)"/>
				<v:textRect cx="25.2812" cy="50" width="50.57" height="0"/>
				<path d="M0 50 L50.56 50" class="st5"/>
				<rect v:rectContext="textBkgnd" x="21.7142" y="44.9999" width="7.13397" height="10.6642" class="st3"/>
				<text x="21.71" y="52.5" class="st6" v:langID="1033"><v:paragraph v:spLine="-1" v:horizAlign="1"/><v:tabList/>20</text>			</g>
			<g id="shape120-44" v:mID="120" v:groupContext="shape" transform="translate(36.2002,-3.47439) rotate(-20.8545)">
				<title>Sheet.120</title>
				<desc>21</desc>
				<v:textBlock v:margins="rect(0,0,0,0)"/>
				<v:textRect cx="25.2812" cy="50" width="50.57" height="0"/>
				<path d="M0 50 L50.56 50" class="st5"/>
				<rect v:rectContext="textBkgnd" x="22.0169" y="44.9999" width="6.52835" height="10.6642" class="st3"/>
				<text x="22.02" y="52.5" class="st6" v:langID="1033"><v:paragraph v:spLine="-1" v:horizAlign="1"/><v:tabList/>21</text>			</g>
			<g id="shape121-49" v:mID="121" v:groupContext="shape" transform="translate(47.25,-36)">
				<title>Circle.121</title>
				<desc>14</desc>
				<v:userDefs>
					<v:ud v:nameU="visVersion" v:val="VT0(15):26"/>
				</v:userDefs>
				<v:textBlock v:margins="rect(0,0,0,0)"/>
				<v:textRect cx="6.75" cy="43.25" width="11.82" height="10.125"/>
				<path d="M0 43.25 A6.75 6.75 0 0 1 13.5 43.25 A6.75 6.75 0 1 1 0 43.25 Z" class="st9"/>
				<text x="3.69" y="45.75" class="st10" v:langID="1033"><v:paragraph v:spLine="-1" v:horizAlign="1"/><v:tabList/>14</text>			</g>
			<g id="shape122-52" v:mID="122" v:groupContext="shape" transform="translate(18,-18)">
				<title>Circle.122</title>
				<desc>13</desc>
				<v:userDefs>
					<v:ud v:nameU="visVersion" v:val="VT0(15):26"/>
				</v:userDefs>
				<v:textBlock v:margins="rect(0,0,0,0)"/>
				<v:textRect cx="6.75" cy="43.25" width="11.82" height="10.125"/>
				<path d="M0 43.25 A6.75 6.75 0 0 1 13.5 43.25 A6.75 6.75 0 1 1 0 43.25 Z" class="st11"/>
				<text x="3.73" y="45.75" class="st10" v:langID="1033"><v:paragraph v:spLine="-1" v:horizAlign="1"/><v:tabList/>13</text>			</g>
			<g id="shape123-55" v:mID="123" v:groupContext="shape" transform="translate(94.5,-18)">
				<title>Circle.123</title>
				<desc>4</desc>
				<v:userDefs>
					<v:ud v:nameU="visVersion" v:val="VT0(15):26"/>
				</v:userDefs>
				<v:textBlock v:margins="rect(0,0,0,0)"/>
				<v:textRect cx="6.75" cy="43.25" width="11.82" height="10.125"/>
				<path d="M0 43.25 A6.75 6.75 0 0 1 13.5 43.25 A6.75 6.75 0 1 1 0 43.25 Z" class="st11"/>
				<text x="5.13" y="45.75" class="st10" v:langID="1033"><v:paragraph v:spLine="-1" v:horizAlign="1"/><v:tabList/>4</text>			</g>
			<g id="shape124-58" v:mID="124" v:groupContext="shape" transform="translate(47.25,-1.13726E-05)">
				<title>Circle.124</title>
				<desc>15</desc>
				<v:userDefs>
					<v:ud v:nameU="visVersion" v:val="VT0(15):26"/>
				</v:userDefs>
				<v:textBlock v:margins="rect(0,0,0,0)"/>
				<v:textRect cx="6.75" cy="43.25" width="11.82" height="10.125"/>
				<path d="M0 43.25 A6.75 6.75 0 0 1 13.5 43.25 A6.75 6.75 0 1 1 0 43.25 Z" class="st9"/>
				<text x="3.76" y="45.75" class="st10" v:langID="1033"><v:paragraph v:spLine="-1" v:horizAlign="1"/><v:tabList/>15</text>			</g>
		</g>
	</g>
</svg>
