<?xml version="1.0" encoding="UTF-8" standalone="no"?>
<!DOCTYPE svg PUBLIC "-//W3C//DTD SVG 1.1//EN" "http://www.w3.org/Graphics/SVG/1.1/DTD/svg11.dtd">
<!-- Generated by Microsoft Visio, SVG Export b5.svg Page-1 -->
<svg xmlns="http://www.w3.org/2000/svg" xmlns:xlink="http://www.w3.org/1999/xlink" xmlns:ev="http://www.w3.org/2001/xml-events"
		xmlns:v="http://schemas.microsoft.com/visio/2003/SVGExtensions/" width="1.51736in" height="0.694445in"
		viewBox="0 0 109.25 50" xml:space="preserve" color-interpolation-filters="sRGB" class="st10">
	<v:documentProperties v:langID="1033" v:viewMarkup="false"/>

	<style type="text/css">
	<![CDATA[
		.st1 {fill:#ffffff;stroke:none;stroke-width:0.25}
		.st2 {stroke:#00b050;stroke-linecap:round;stroke-linejoin:round;stroke-width:1}
		.st3 {fill:#ffffff;stroke:none;stroke-linecap:butt;stroke-width:7.2}
		.st4 {fill:#000000;font-family:Microsoft Uighur;font-size:0.833336em}
		.st5 {stroke:#bfbfbf;stroke-linecap:butt;stroke-width:1}
		.st6 {fill:#d8d8d8;font-family:Microsoft Uighur;font-size:0.833336em}
		.st7 {stroke:#7f7f7f;stroke-dasharray:2,1;stroke-linecap:butt;stroke-width:1}
		.st8 {fill:#00b050;stroke:none;stroke-width:0.25}
		.st9 {fill:#ffffff;font-family:Microsoft Uighur;font-size:0.833336em}
		.st10 {fill:none;fill-rule:evenodd;font-size:12px;overflow:visible;stroke-linecap:square;stroke-miterlimit:3}
	]]>
	</style>

	<g v:mID="0" v:index="1" v:groupContext="foregroundPage">
		<title>Page-1</title>
		<v:pageProperties v:drawingScale="1" v:pageScale="1" v:drawingUnits="0" v:shadowOffsetX="9" v:shadowOffsetY="-9"/>
		<g id="group143-1" transform="translate(1,-0.25)" v:mID="143" v:groupContext="group">
			<title>Sheet.143</title>
			<g id="shape137-2" v:mID="137" v:groupContext="shape" transform="translate(1.79172E-05,0)">
				<title>Rectangle.137</title>
				<v:userDefs>
					<v:ud v:nameU="visVersion" v:val="VT0(15):26"/>
				</v:userDefs>
				<rect x="0" y="0.500001" width="108" height="49.5" class="st1"/>
			</g>
			<g id="shape125-4" v:mID="125" v:groupContext="shape" transform="translate(98.2049,-26.3329) rotate(31.6075)">
				<title>Sheet.125</title>
				<desc>26</desc>
				<v:textBlock v:margins="rect(0,0,0,0)"/>
				<v:textRect cx="17.1724" cy="50" width="34.35" height="0"/>
				<path d="M0 50 L34.34 50" class="st2"/>
				<rect v:rectContext="textBkgnd" x="13.6541" y="44.9999" width="7.03619" height="10.6642" class="st3"/>
				<text x="13.65" y="52.5" class="st4" v:langID="1033"><v:paragraph v:spLine="-1" v:horizAlign="1"/><v:tabList/>26</text>			</g>
			<g id="shape126-9" v:mID="126" v:groupContext="shape" transform="translate(0,-33.75)">
				<title>Sheet.126</title>
				<desc>6</desc>
				<v:textBlock v:margins="rect(0,0,0,0)"/>
				<v:textRect cx="36" cy="50" width="72.01" height="0"/>
				<path d="M0 50 L72 50" class="st5"/>
				<rect v:rectContext="textBkgnd" x="34.3081" y="44.9999" width="3.38379" height="10.6642" class="st3"/>
				<text x="34.31" y="52.5" class="st6" v:langID="1033"><v:paragraph v:spLine="-1" v:horizAlign="1"/><v:tabList/>6</text>			</g>
			<g id="shape127-14" v:mID="127" v:groupContext="shape" transform="translate(16.5451,-8.3329) rotate(-31.6075)">
				<title>Sheet.127</title>
				<desc>27</desc>
				<v:textBlock v:margins="rect(0,0,0,0)"/>
				<v:textRect cx="17.1724" cy="50" width="34.35" height="0"/>
				<path d="M0 50 L34.34 50" class="st2"/>
				<rect v:rectContext="textBkgnd" x="13.7494" y="44.9999" width="6.84586" height="10.6642" class="st3"/>
				<text x="13.75" y="52.5" class="st4" v:langID="1033"><v:paragraph v:spLine="-1" v:horizAlign="1"/><v:tabList/>27</text>			</g>
			<g id="shape128-19" v:mID="128" v:groupContext="shape" transform="translate(0,-15.75)">
				<title>Sheet.128</title>
				<desc>3</desc>
				<v:textBlock v:margins="rect(0,0,0,0)"/>
				<v:textRect cx="21.375" cy="50" width="42.76" height="0"/>
				<path d="M0 50 L42.75 50" class="st5"/>
				<rect v:rectContext="textBkgnd" x="19.7979" y="44.9999" width="3.15417" height="10.6642" class="st3"/>
				<text x="19.8" y="52.5" class="st6" v:langID="1033"><v:paragraph v:spLine="-1" v:horizAlign="1"/><v:tabList/>3</text>			</g>
			<g id="shape129-24" v:mID="129" v:groupContext="shape" transform="translate(42.75,-15.75)">
				<title>Sheet.129</title>
				<desc>25</desc>
				<v:textBlock v:margins="rect(0,0,0,0)"/>
				<v:textRect cx="29.25" cy="50" width="58.5" height="0"/>
				<path d="M0 50 L58.5 50" class="st7"/>
				<rect v:rectContext="textBkgnd" x="25.8709" y="44.9999" width="6.75797" height="10.6642" class="st3"/>
				<text x="25.87" y="52.5" class="st4" v:langID="1033"><v:paragraph v:spLine="-1" v:horizAlign="1"/><v:tabList/>25</text>			</g>
			<g id="shape130-29" v:mID="130" v:groupContext="shape" transform="translate(65.25,-27)">
				<title>Circle.130</title>
				<desc>17</desc>
				<v:userDefs>
					<v:ud v:nameU="visVersion" v:val="VT0(15):26"/>
				</v:userDefs>
				<v:textBlock v:margins="rect(0,0,0,0)"/>
				<v:textRect cx="6.75" cy="43.25" width="11.82" height="10.125"/>
				<path d="M0 43.25 A6.75 6.75 0 0 1 13.5 43.25 A6.75 6.75 0 1 1 0 43.25 Z" class="st8"/>
				<text x="3.72" y="45.75" class="st9" v:langID="1033"><v:paragraph v:spLine="-1" v:horizAlign="1"/><v:tabList/>17</text>			</g>
			<g id="shape131-32" v:mID="131" v:groupContext="shape" transform="translate(36,-8.99999)">
				<title>Circle.131</title>
				<desc>16</desc>
				<v:userDefs>
					<v:ud v:nameU="visVersion" v:val="VT0(15):26"/>
				</v:userDefs>
				<v:textBlock v:margins="rect(0,0,0,0)"/>
				<v:textRect cx="6.75" cy="43.25" width="11.82" height="10.125"/>
				<path d="M0 43.25 A6.75 6.75 0 0 1 13.5 43.25 A6.75 6.75 0 1 1 0 43.25 Z" class="st8"/>
				<text x="3.62" y="45.75" class="st9" v:langID="1033"><v:paragraph v:spLine="-1" v:horizAlign="1"/><v:tabList/>16</text>			</g>
			<g id="shape132-35" v:mID="132" v:groupContext="shape" transform="translate(94.5,-8.99999)">
				<title>Circle.132</title>
				<desc>5</desc>
				<v:userDefs>
					<v:ud v:nameU="visVersion" v:val="VT0(15):26"/>
				</v:userDefs>
				<v:textBlock v:margins="rect(0,0,0,0)"/>
				<v:textRect cx="6.75" cy="43.25" width="11.82" height="10.125"/>
				<path d="M0 43.25 A6.75 6.75 0 0 1 13.5 43.25 A6.75 6.75 0 1 1 0 43.25 Z" class="st8"/>
				<text x="5.2" y="45.75" class="st9" v:langID="1033"><v:paragraph v:spLine="-1" v:horizAlign="1"/><v:tabList/>5</text>			</g>
		</g>
	</g>
</svg>
