<?xml version="1.0" encoding="UTF-8" standalone="no"?>
<!DOCTYPE svg PUBLIC "-//W3C//DTD SVG 1.1//EN" "http://www.w3.org/Graphics/SVG/1.1/DTD/svg11.dtd">
<!-- Generated by Microsoft Visio, SVG Export expanded.svg Page-1 -->
<svg xmlns="http://www.w3.org/2000/svg" xmlns:xlink="http://www.w3.org/1999/xlink" xmlns:ev="http://www.w3.org/2001/xml-events"
		xmlns:v="http://schemas.microsoft.com/visio/2003/SVGExtensions/" width="4.25694in" height="1.85069in"
		viewBox="0 0 306.5 133.25" xml:space="preserve" color-interpolation-filters="sRGB" class="st12">
	<v:documentProperties v:langID="1033" v:viewMarkup="false"/>

	<style type="text/css">
	<![CDATA[
		.st1 {stroke:#000000;stroke-linecap:round;stroke-linejoin:round;stroke-width:1}
		.st2 {fill:#ffffff;stroke:none;stroke-linecap:butt;stroke-width:7.2}
		.st3 {fill:#000000;font-family:Microsoft Uighur;font-size:0.833336em}
		.st4 {stroke:#7f7f7f;stroke-dasharray:2,1;stroke-linecap:butt;stroke-width:1}
		.st5 {fill:#7030a0;stroke:none;stroke-width:0.25}
		.st6 {fill:#ffffff;font-family:Microsoft Uighur;font-size:0.833336em}
		.st7 {fill:#00b050;stroke:none;stroke-width:0.25}
		.st8 {fill:#ffffff;stroke:none;stroke-linecap:butt}
		.st9 {fill:#0070c0;stroke:none;stroke-width:0.25}
		.st10 {fill:#002060;stroke:none;stroke-width:0.25}
		.st11 {fill:#ed7d31;stroke:none;stroke-width:0.25}
		.st12 {fill:none;fill-rule:evenodd;font-size:12px;overflow:visible;stroke-linecap:square;stroke-miterlimit:3}
	]]>
	</style>

	<g v:mID="0" v:index="1" v:groupContext="foregroundPage">
		<title>Page-1</title>
		<v:pageProperties v:drawingScale="1" v:pageScale="1" v:drawingUnits="0" v:shadowOffsetX="9" v:shadowOffsetY="-9"/>
		<g id="group217-1" transform="translate(0.25,-0.25)" v:mID="217" v:groupContext="group">
			<title>Sheet.217</title>
			<g id="shape212-2" v:mID="212" v:groupContext="shape" transform="translate(89.9282,-49.065) rotate(15.6422)">
				<title>Sheet.212</title>
				<desc>3</desc>
				<v:textBlock v:margins="rect(0,0,0,0)"/>
				<v:textRect cx="87.6201" cy="133.25" width="175.25" height="0"/>
				<path d="M0 133.25 L175.24 133.25" class="st1"/>
				<rect v:rectContext="textBkgnd" x="86.043" y="128.25" width="3.15417" height="10.6642" class="st2"/>
				<text x="86.04" y="135.75" class="st3" v:langID="1033"><v:paragraph v:spLine="-1" v:horizAlign="1"/><v:tabList/>3</text>			</g>
			<g id="shape210-7" v:mID="210" v:groupContext="shape" transform="translate(118.75,108.5) rotate(-90)">
				<title>Sheet.210</title>
				<desc>6</desc>
				<v:textBlock v:margins="rect(0,0,0,0)"/>
				<v:textRect cx="14.625" cy="133.25" width="29.25" height="0"/>
				<path d="M0 133.25 L29.25 133.25" class="st1"/>
				<rect v:rectContext="textBkgnd" x="12.9331" y="128.25" width="3.38379" height="10.6642" class="st2"/>
				<text x="12.93" y="135.75" class="st3" v:langID="1033"><v:paragraph v:spLine="-1" v:horizAlign="1"/><v:tabList/>6</text>			</g>
			<g id="shape194-12" v:mID="194" v:groupContext="shape" transform="translate(305.624,-82.5141) rotate(36.0273)">
				<title>Sheet.194</title>
				<desc>5</desc>
				<v:textBlock v:margins="rect(0,0,0,0)"/>
				<v:textRect cx="15.3017" cy="133.25" width="30.61" height="0"/>
				<path d="M0 133.25 L30.6 133.25" class="st1"/>
				<rect v:rectContext="textBkgnd" x="13.7488" y="128.25" width="3.10556" height="10.6642" class="st2"/>
				<text x="13.75" y="135.75" class="st3" v:langID="1033"><v:paragraph v:spLine="-1" v:horizAlign="1"/><v:tabList/>5</text>			</g>
			<g id="shape177-17" v:mID="177" v:groupContext="shape" transform="translate(-24.3738,-64.5142) rotate(-36.0273)">
				<title>Sheet.177</title>
				<desc>1</desc>
				<v:textBlock v:margins="rect(0,0,0,0)"/>
				<v:textRect cx="15.3016" cy="133.25" width="30.61" height="0"/>
				<path d="M0 133.25 L30.6 133.25" class="st1"/>
				<rect v:rectContext="textBkgnd" x="13.8636" y="128.25" width="2.87595" height="10.6642" class="st2"/>
				<text x="13.86" y="135.75" class="st3" v:langID="1033"><v:paragraph v:spLine="-1" v:horizAlign="1"/><v:tabList/>1</text>			</g>
			<g id="shape160-22" v:mID="160" v:groupContext="shape" transform="translate(83.25,-72)">
				<title>Sheet.160</title>
				<desc>2</desc>
				<v:textBlock v:margins="rect(0,0,0,0)"/>
				<v:textRect cx="69.75" cy="133.25" width="139.51" height="0"/>
				<path d="M0 133.25 L139.5 133.25" class="st1"/>
				<rect v:rectContext="textBkgnd" x="67.9238" y="128.25" width="3.6524" height="10.6642" class="st2"/>
				<text x="67.92" y="135.75" class="st3" v:langID="1033"><v:paragraph v:spLine="-1" v:horizAlign="1"/><v:tabList/>2</text>			</g>
			<g id="shape162-27" v:mID="162" v:groupContext="shape" transform="translate(-40.6864,-63.2705) rotate(-20.8545)">
				<title>Sheet.162</title>
				<desc>7</desc>
				<v:textBlock v:margins="rect(0,0,0,0)"/>
				<v:textRect cx="25.2812" cy="133.25" width="50.57" height="0"/>
				<path d="M0 133.25 L50.56 133.25" class="st4"/>
				<rect v:rectContext="textBkgnd" x="23.6843" y="128.25" width="3.19345" height="10.6642" class="st2"/>
				<text x="23.68" y="135.75" class="st3" v:langID="1033"><v:paragraph v:spLine="-1" v:horizAlign="1"/><v:tabList/>7</text>			</g>
			<g id="shape163-32" v:mID="163" v:groupContext="shape" transform="translate(6.75,-72)">
				<title>Sheet.163</title>
				<desc>8</desc>
				<v:textBlock v:margins="rect(0,0,0,0)"/>
				<v:textRect cx="38.25" cy="133.25" width="76.5" height="0"/>
				<path d="M0 133.25 L76.5 133.25" class="st4"/>
				<rect v:rectContext="textBkgnd" x="36.5826" y="128.25" width="3.3349" height="10.6642" class="st2"/>
				<text x="36.58" y="135.75" class="st3" v:langID="1033"><v:paragraph v:spLine="-1" v:horizAlign="1"/><v:tabList/>8</text>			</g>
			<g id="shape164-37" v:mID="164" v:groupContext="shape" transform="translate(54.1864,-63.2705) rotate(20.8545)">
				<title>Sheet.164</title>
				<desc>9</desc>
				<v:textBlock v:margins="rect(0,0,0,0)"/>
				<v:textRect cx="25.2812" cy="133.25" width="50.57" height="0"/>
				<path d="M0 133.25 L50.56 133.25" class="st4"/>
				<rect v:rectContext="textBkgnd" x="23.6722" y="128.25" width="3.2179" height="10.6642" class="st2"/>
				<text x="23.67" y="135.75" class="st3" v:langID="1033"><v:paragraph v:spLine="-1" v:horizAlign="1"/><v:tabList/>9</text>			</g>
			<g id="shape165-42" v:mID="165" v:groupContext="shape" transform="translate(-79.25,79.25) rotate(-90)">
				<title>Sheet.165</title>
				<desc>11</desc>
				<v:textBlock v:margins="rect(0,0,0,0)"/>
				<v:textRect cx="18" cy="133.25" width="36.01" height="0"/>
				<path d="M0 133.25 L36 133.25" class="st4"/>
				<rect v:rectContext="textBkgnd" x="15.1241" y="128.25" width="5.75189" height="10.6642" class="st2"/>
				<text x="15.12" y="135.75" class="st3" v:langID="1033"><v:paragraph v:spLine="-1" v:horizAlign="1"/><v:tabList/>11</text>			</g>
			<g id="shape166-47" v:mID="166" v:groupContext="shape" transform="translate(123.836,-70.2335) rotate(31.6075)">
				<title>Sheet.166</title>
				<desc>10</desc>
				<v:textBlock v:margins="rect(0,0,0,0)"/>
				<v:textRect cx="17.1724" cy="133.25" width="34.35" height="0"/>
				<path d="M0 133.25 L34.34 133.25" class="st4"/>
				<rect v:rectContext="textBkgnd" x="13.9936" y="128.25" width="6.35751" height="10.6642" class="st2"/>
				<text x="13.99" y="135.75" class="st3" v:langID="1033"><v:paragraph v:spLine="-1" v:horizAlign="1"/><v:tabList/>10</text>			</g>
			<g id="shape167-52" v:mID="167" v:groupContext="shape" transform="translate(-15.836,-34.2334) rotate(-31.6075)">
				<title>Sheet.167</title>
				<desc>12</desc>
				<v:textBlock v:margins="rect(0,0,0,0)"/>
				<v:textRect cx="17.1724" cy="133.25" width="34.35" height="0"/>
				<path d="M0 133.25 L34.34 133.25" class="st4"/>
				<rect v:rectContext="textBkgnd" x="13.9081" y="128.25" width="6.52835" height="10.6642" class="st2"/>
				<text x="13.91" y="135.75" class="st3" v:langID="1033"><v:paragraph v:spLine="-1" v:horizAlign="1"/><v:tabList/>12</text>			</g>
			<g id="shape168-57" v:mID="168" v:groupContext="shape" transform="translate(47.25,-83.25)">
				<title>Circle.107</title>
				<desc>6</desc>
				<v:userDefs>
					<v:ud v:nameU="visVersion" v:val="VT0(15):26"/>
				</v:userDefs>
				<v:textBlock v:margins="rect(0,0,0,0)"/>
				<v:textRect cx="6.75" cy="126.5" width="11.82" height="10.125"/>
				<path d="M0 126.5 A6.75 6.75 0 0 1 13.5 126.5 A6.75 6.75 0 1 1 0 126.5 Z" class="st5"/>
				<text x="5.06" y="129" class="st6" v:langID="1033"><v:paragraph v:spLine="-1" v:horizAlign="1"/><v:tabList/>6</text>			</g>
			<g id="shape169-60" v:mID="169" v:groupContext="shape" transform="translate(0,-65.25)">
				<title>Circle.108</title>
				<desc>1</desc>
				<v:userDefs>
					<v:ud v:nameU="visVersion" v:val="VT0(15):26"/>
				</v:userDefs>
				<v:textBlock v:margins="rect(0,0,0,0)"/>
				<v:textRect cx="6.75" cy="126.5" width="11.82" height="10.125"/>
				<path d="M0 126.5 A6.75 6.75 0 0 1 13.5 126.5 A6.75 6.75 0 1 1 0 126.5 Z" class="st5"/>
				<text x="5.31" y="129" class="st6" v:langID="1033"><v:paragraph v:spLine="-1" v:horizAlign="1"/><v:tabList/>1</text>			</g>
			<g id="shape170-63" v:mID="170" v:groupContext="shape" transform="translate(76.5,-65.25)">
				<title>Circle.109</title>
				<desc>7</desc>
				<v:userDefs>
					<v:ud v:nameU="visVersion" v:val="VT0(15):26"/>
				</v:userDefs>
				<v:textBlock v:margins="rect(0,0,0,0)"/>
				<v:textRect cx="6.75" cy="126.5" width="11.82" height="10.125"/>
				<path d="M0 126.5 A6.75 6.75 0 0 1 13.5 126.5 A6.75 6.75 0 1 1 0 126.5 Z" class="st5"/>
				<text x="5.15" y="129" class="st6" v:langID="1033"><v:paragraph v:spLine="-1" v:horizAlign="1"/><v:tabList/>7</text>			</g>
			<g id="shape171-66" v:mID="171" v:groupContext="shape" transform="translate(47.25,-47.25)">
				<title>Circle.110</title>
				<desc>8</desc>
				<v:userDefs>
					<v:ud v:nameU="visVersion" v:val="VT0(15):26"/>
				</v:userDefs>
				<v:textBlock v:margins="rect(0,0,0,0)"/>
				<v:textRect cx="6.75" cy="126.5" width="11.82" height="10.125"/>
				<path d="M0 126.5 A6.75 6.75 0 0 1 13.5 126.5 A6.75 6.75 0 1 1 0 126.5 Z" class="st5"/>
				<text x="5.08" y="129" class="st6" v:langID="1033"><v:paragraph v:spLine="-1" v:horizAlign="1"/><v:tabList/>8</text>			</g>
			<g id="shape174-69" v:mID="174" v:groupContext="shape" transform="translate(177.836,-106.233) rotate(31.6075)">
				<title>Sheet.174</title>
				<desc>14</desc>
				<v:textBlock v:margins="rect(0,0,0,0)"/>
				<v:textRect cx="17.1724" cy="133.25" width="34.35" height="0"/>
				<path d="M0 133.25 L34.34 133.25" class="st4"/>
				<rect v:rectContext="textBkgnd" x="14.1133" y="128.25" width="6.11801" height="10.6642" class="st2"/>
				<text x="14.11" y="135.75" class="st3" v:langID="1033"><v:paragraph v:spLine="-1" v:horizAlign="1"/><v:tabList/>14</text>			</g>
			<g id="shape175-74" v:mID="175" v:groupContext="shape" transform="translate(137.25,-108)">
				<title>Sheet.175</title>
				<desc>4</desc>
				<v:textBlock v:margins="rect(0,0,0,0)"/>
				<v:textRect cx="15.75" cy="133.25" width="31.51" height="0"/>
				<path d="M0 133.25 L31.5 133.25" class="st1"/>
				<rect v:rectContext="textBkgnd" x="14.129" y="128.25" width="3.24207" height="10.6642" class="st2"/>
				<text x="14.13" y="135.75" class="st3" v:langID="1033"><v:paragraph v:spLine="-1" v:horizAlign="1"/><v:tabList/>4</text>			</g>
			<g id="shape176-79" v:mID="176" v:groupContext="shape" transform="translate(8.91397,-88.2335) rotate(-31.6075)">
				<title>Sheet.176</title>
				<desc>13</desc>
				<v:textBlock v:margins="rect(0,0,0,0)"/>
				<v:textRect cx="17.1724" cy="133.25" width="34.35" height="0"/>
				<path d="M0 133.25 L34.34 133.25" class="st4"/>
				<rect v:rectContext="textBkgnd" x="14.1573" y="128.25" width="6.03012" height="10.6642" class="st2"/>
				<text x="14.16" y="135.75" class="st3" v:langID="1033"><v:paragraph v:spLine="-1" v:horizAlign="1"/><v:tabList/>13</text>			</g>
			<g id="shape178-84" v:mID="178" v:groupContext="shape" transform="translate(78.75,-108)">
				<title>Sheet.178</title>
				<desc>15</desc>
				<v:textBlock v:margins="rect(0,0,0,0)"/>
				<v:textRect cx="29.25" cy="133.25" width="58.5" height="0"/>
				<path d="M0 133.25 L58.5 133.25" class="st4"/>
				<rect v:rectContext="textBkgnd" x="26.2592" y="128.25" width="5.98151" height="10.6642" class="st2"/>
				<text x="26.26" y="135.75" class="st3" v:langID="1033"><v:paragraph v:spLine="-1" v:horizAlign="1"/><v:tabList/>15</text>			</g>
			<g id="shape179-89" v:mID="179" v:groupContext="shape" transform="translate(101.25,-119.25)">
				<title>Circle.57</title>
				<desc>2</desc>
				<v:userDefs>
					<v:ud v:nameU="visVersion" v:val="VT0(15):26"/>
				</v:userDefs>
				<v:textBlock v:margins="rect(0,0,0,0)"/>
				<v:textRect cx="6.75" cy="126.5" width="11.82" height="10.125"/>
				<path d="M0 126.5 A6.75 6.75 0 0 1 13.5 126.5 A6.75 6.75 0 1 1 0 126.5 Z" class="st7"/>
				<text x="4.92" y="129" class="st6" v:langID="1033"><v:paragraph v:spLine="-1" v:horizAlign="1"/><v:tabList/>2</text>			</g>
			<g id="shape180-92" v:mID="180" v:groupContext="shape" transform="translate(72,-101.25)">
				<title>Circle.59</title>
				<desc>9</desc>
				<v:userDefs>
					<v:ud v:nameU="visVersion" v:val="VT0(15):26"/>
				</v:userDefs>
				<v:textBlock v:margins="rect(0,0,0,0)"/>
				<v:textRect cx="6.75" cy="126.5" width="11.82" height="10.125"/>
				<path d="M0 126.5 A6.75 6.75 0 0 1 13.5 126.5 A6.75 6.75 0 1 1 0 126.5 Z" class="st7"/>
				<text x="5.14" y="129" class="st6" v:langID="1033"><v:paragraph v:spLine="-1" v:horizAlign="1"/><v:tabList/>9</text>			</g>
			<g id="shape181-95" v:mID="181" v:groupContext="shape" transform="translate(130.5,-101.25)">
				<title>Circle.58</title>
				<desc>10</desc>
				<v:userDefs>
					<v:ud v:nameU="visVersion" v:val="VT0(15):26"/>
				</v:userDefs>
				<v:textBlock v:margins="rect(0,0,0,0)"/>
				<v:textRect cx="6.75" cy="126.5" width="11.82" height="10.125"/>
				<path d="M0 126.5 A6.75 6.75 0 0 1 13.5 126.5 A6.75 6.75 0 1 1 0 126.5 Z" class="st7"/>
				<text x="3.57" y="129" class="st6" v:langID="1033"><v:paragraph v:spLine="-1" v:horizAlign="1"/><v:tabList/>10</text>			</g>
			<g id="shape184-98" v:mID="184" v:groupContext="shape" transform="translate(267.836,-106.233) rotate(31.6075)">
				<title>Sheet.184</title>
				<desc>17</desc>
				<v:textBlock v:margins="rect(0,0,0,0)"/>
				<v:textRect cx="17.1724" cy="133.25" width="34.35" height="0"/>
				<path d="M0 133.25 L34.34 133.25" class="st4"/>
				<rect v:rectContext="textBkgnd" x="14.1375" y="128.25" width="6.0694" height="10.6642" class="st8"/>
				<text x="14.14" y="135.75" class="st3" v:langID="1033"><v:paragraph v:spLine="-1" v:horizAlign="1"/><v:tabList/>17</text>			</g>
			<g id="shape186-103" v:mID="186" v:groupContext="shape" transform="translate(98.914,-88.2335) rotate(-31.6075)">
				<title>Sheet.186</title>
				<desc>16</desc>
				<v:textBlock v:margins="rect(0,0,0,0)"/>
				<v:textRect cx="17.1724" cy="133.25" width="34.35" height="0"/>
				<path d="M0 133.25 L34.34 133.25" class="st4"/>
				<rect v:rectContext="textBkgnd" x="14.0424" y="128.25" width="6.25974" height="10.6642" class="st2"/>
				<text x="14.04" y="135.75" class="st3" v:langID="1033"><v:paragraph v:spLine="-1" v:horizAlign="1"/><v:tabList/>16</text>			</g>
			<g id="shape188-108" v:mID="188" v:groupContext="shape" transform="translate(168.75,-108)">
				<title>Sheet.188</title>
				<desc>18</desc>
				<v:textBlock v:margins="rect(0,0,0,0)"/>
				<v:textRect cx="29.25" cy="133.25" width="58.5" height="0"/>
				<path d="M0 133.25 L58.5 133.25" class="st4"/>
				<rect v:rectContext="textBkgnd" x="26.1444" y="128.25" width="6.21085" height="10.6642" class="st2"/>
				<text x="26.14" y="135.75" class="st3" v:langID="1033"><v:paragraph v:spLine="-1" v:horizAlign="1"/><v:tabList/>18</text>			</g>
			<g id="shape189-113" v:mID="189" v:groupContext="shape" transform="translate(191.25,-119.25)">
				<title>Circle.88</title>
				<desc>3</desc>
				<v:userDefs>
					<v:ud v:nameU="visVersion" v:val="VT0(15):26"/>
				</v:userDefs>
				<v:textBlock v:margins="rect(0,0,0,0)"/>
				<v:textRect cx="6.75" cy="126.5" width="11.82" height="10.125"/>
				<path d="M0 126.5 A6.75 6.75 0 0 1 13.5 126.5 A6.75 6.75 0 1 1 0 126.5 Z" class="st9"/>
				<text x="5.17" y="129" class="st6" v:langID="1033"><v:paragraph v:spLine="-1" v:horizAlign="1"/><v:tabList/>3</text>			</g>
			<g id="shape190-116" v:mID="190" v:groupContext="shape" transform="translate(162,-101.25)">
				<title>Circle.89</title>
				<desc>11</desc>
				<v:userDefs>
					<v:ud v:nameU="visVersion" v:val="VT0(15):26"/>
				</v:userDefs>
				<v:textBlock v:margins="rect(0,0,0,0)"/>
				<v:textRect cx="6.75" cy="126.5" width="11.82" height="10.125"/>
				<path d="M0 126.5 A6.75 6.75 0 0 1 13.5 126.5 A6.75 6.75 0 1 1 0 126.5 Z" class="st9"/>
				<text x="3.87" y="129" class="st6" v:langID="1033"><v:paragraph v:spLine="-1" v:horizAlign="1"/><v:tabList/>11</text>			</g>
			<g id="shape191-119" v:mID="191" v:groupContext="shape" transform="translate(220.5,-101.25)">
				<title>Circle.90</title>
				<desc>12</desc>
				<v:userDefs>
					<v:ud v:nameU="visVersion" v:val="VT0(15):26"/>
				</v:userDefs>
				<v:textBlock v:margins="rect(0,0,0,0)"/>
				<v:textRect cx="6.75" cy="126.5" width="11.82" height="10.125"/>
				<path d="M0 126.5 A6.75 6.75 0 0 1 13.5 126.5 A6.75 6.75 0 1 1 0 126.5 Z" class="st9"/>
				<text x="3.49" y="129" class="st6" v:langID="1033"><v:paragraph v:spLine="-1" v:horizAlign="1"/><v:tabList/>12</text>			</g>
			<g id="shape197-122" v:mID="197" v:groupContext="shape" transform="translate(152.914,-52.2335) rotate(-31.6075)">
				<title>Sheet.197</title>
				<desc>22</desc>
				<v:textBlock v:margins="rect(0,0,0,0)"/>
				<v:textRect cx="17.1724" cy="133.25" width="34.35" height="0"/>
				<path d="M0 133.25 L34.34 133.25" class="st4"/>
				<rect v:rectContext="textBkgnd" x="13.5198" y="128.25" width="7.30481" height="10.6642" class="st2"/>
				<text x="13.52" y="135.75" class="st3" v:langID="1033"><v:paragraph v:spLine="-1" v:horizAlign="1"/><v:tabList/>22</text>			</g>
			<g id="shape198-127" v:mID="198" v:groupContext="shape" transform="translate(222.75,-72)">
				<title>Sheet.198</title>
				<desc>19</desc>
				<v:textBlock v:margins="rect(0,0,0,0)"/>
				<v:textRect cx="38.25" cy="133.25" width="76.5" height="0"/>
				<path d="M0 133.25 L76.5 133.25" class="st4"/>
				<rect v:rectContext="textBkgnd" x="35.2029" y="128.25" width="6.09384" height="10.6642" class="st2"/>
				<text x="35.2" y="135.75" class="st3" v:langID="1033"><v:paragraph v:spLine="-1" v:horizAlign="1"/><v:tabList/>19</text>			</g>
			<g id="shape199-132" v:mID="199" v:groupContext="shape" transform="translate(292.586,-52.2335) rotate(31.6075)">
				<title>Sheet.199</title>
				<desc>23</desc>
				<v:textBlock v:margins="rect(0,0,0,0)"/>
				<v:textRect cx="17.1724" cy="133.25" width="34.35" height="0"/>
				<path d="M0 133.25 L34.34 133.25" class="st4"/>
				<rect v:rectContext="textBkgnd" x="13.7689" y="128.25" width="6.80658" height="10.6642" class="st2"/>
				<text x="13.77" y="135.75" class="st3" v:langID="1033"><v:paragraph v:spLine="-1" v:horizAlign="1"/><v:tabList/>23</text>			</g>
			<g id="shape200-137" v:mID="200" v:groupContext="shape" transform="translate(118.75,79.25) rotate(-90)">
				<title>Sheet.200</title>
				<desc>24</desc>
				<v:textBlock v:margins="rect(0,0,0,0)"/>
				<v:textRect cx="18" cy="133.25" width="36.01" height="0"/>
				<path d="M0 133.25 L36 133.25" class="st4"/>
				<rect v:rectContext="textBkgnd" x="14.5528" y="128.25" width="6.89447" height="10.6642" class="st2"/>
				<text x="14.55" y="135.75" class="st3" v:langID="1033"><v:paragraph v:spLine="-1" v:horizAlign="1"/><v:tabList/>24</text>			</g>
			<g id="shape201-142" v:mID="201" v:groupContext="shape" transform="translate(299.436,-81.2705) rotate(20.8545)">
				<title>Sheet.201</title>
				<desc>20</desc>
				<v:textBlock v:margins="rect(0,0,0,0)"/>
				<v:textRect cx="25.2812" cy="133.25" width="50.57" height="0"/>
				<path d="M0 133.25 L50.56 133.25" class="st4"/>
				<rect v:rectContext="textBkgnd" x="21.7142" y="128.25" width="7.13397" height="10.6642" class="st2"/>
				<text x="21.71" y="135.75" class="st3" v:langID="1033"><v:paragraph v:spLine="-1" v:horizAlign="1"/><v:tabList/>20</text>			</g>
			<g id="shape202-147" v:mID="202" v:groupContext="shape" transform="translate(204.564,-45.2705) rotate(-20.8545)">
				<title>Sheet.202</title>
				<desc>21</desc>
				<v:textBlock v:margins="rect(0,0,0,0)"/>
				<v:textRect cx="25.2812" cy="133.25" width="50.57" height="0"/>
				<path d="M0 133.25 L50.56 133.25" class="st4"/>
				<rect v:rectContext="textBkgnd" x="22.0169" y="128.25" width="6.52835" height="10.6642" class="st2"/>
				<text x="22.02" y="135.75" class="st3" v:langID="1033"><v:paragraph v:spLine="-1" v:horizAlign="1"/><v:tabList/>21</text>			</g>
			<g id="shape203-152" v:mID="203" v:groupContext="shape" transform="translate(245.25,-83.25)">
				<title>Circle.121</title>
				<desc>14</desc>
				<v:userDefs>
					<v:ud v:nameU="visVersion" v:val="VT0(15):26"/>
				</v:userDefs>
				<v:textBlock v:margins="rect(0,0,0,0)"/>
				<v:textRect cx="6.75" cy="126.5" width="11.82" height="10.125"/>
				<path d="M0 126.5 A6.75 6.75 0 0 1 13.5 126.5 A6.75 6.75 0 1 1 0 126.5 Z" class="st10"/>
				<text x="3.69" y="129" class="st6" v:langID="1033"><v:paragraph v:spLine="-1" v:horizAlign="1"/><v:tabList/>14</text>			</g>
			<g id="shape204-155" v:mID="204" v:groupContext="shape" transform="translate(216,-65.25)">
				<title>Circle.122</title>
				<desc>13</desc>
				<v:userDefs>
					<v:ud v:nameU="visVersion" v:val="VT0(15):26"/>
				</v:userDefs>
				<v:textBlock v:margins="rect(0,0,0,0)"/>
				<v:textRect cx="6.75" cy="126.5" width="11.82" height="10.125"/>
				<path d="M0 126.5 A6.75 6.75 0 0 1 13.5 126.5 A6.75 6.75 0 1 1 0 126.5 Z" class="st10"/>
				<text x="3.73" y="129" class="st6" v:langID="1033"><v:paragraph v:spLine="-1" v:horizAlign="1"/><v:tabList/>13</text>			</g>
			<g id="shape205-158" v:mID="205" v:groupContext="shape" transform="translate(292.5,-65.25)">
				<title>Circle.123</title>
				<desc>4</desc>
				<v:userDefs>
					<v:ud v:nameU="visVersion" v:val="VT0(15):26"/>
				</v:userDefs>
				<v:textBlock v:margins="rect(0,0,0,0)"/>
				<v:textRect cx="6.75" cy="126.5" width="11.82" height="10.125"/>
				<path d="M0 126.5 A6.75 6.75 0 0 1 13.5 126.5 A6.75 6.75 0 1 1 0 126.5 Z" class="st10"/>
				<text x="5.13" y="129" class="st6" v:langID="1033"><v:paragraph v:spLine="-1" v:horizAlign="1"/><v:tabList/>4</text>			</g>
			<g id="shape206-161" v:mID="206" v:groupContext="shape" transform="translate(245.25,-47.25)">
				<title>Circle.124</title>
				<desc>15</desc>
				<v:userDefs>
					<v:ud v:nameU="visVersion" v:val="VT0(15):26"/>
				</v:userDefs>
				<v:textBlock v:margins="rect(0,0,0,0)"/>
				<v:textRect cx="6.75" cy="126.5" width="11.82" height="10.125"/>
				<path d="M0 126.5 A6.75 6.75 0 0 1 13.5 126.5 A6.75 6.75 0 1 1 0 126.5 Z" class="st10"/>
				<text x="3.76" y="129" class="st6" v:langID="1033"><v:paragraph v:spLine="-1" v:horizAlign="1"/><v:tabList/>15</text>			</g>
			<g id="shape209-164" v:mID="209" v:groupContext="shape" transform="translate(321.836,-4.98345) rotate(31.6075)">
				<title>Sheet.209</title>
				<desc>26</desc>
				<v:textBlock v:margins="rect(0,0,0,0)"/>
				<v:textRect cx="17.1724" cy="133.25" width="34.35" height="0"/>
				<path d="M0 133.25 L34.34 133.25" class="st4"/>
				<rect v:rectContext="textBkgnd" x="13.6541" y="128.25" width="7.03619" height="10.6642" class="st2"/>
				<text x="13.65" y="135.75" class="st3" v:langID="1033"><v:paragraph v:spLine="-1" v:horizAlign="1"/><v:tabList/>26</text>			</g>
			<g id="shape211-169" v:mID="211" v:groupContext="shape" transform="translate(152.914,13.0165) rotate(-31.6075)">
				<title>Sheet.211</title>
				<desc>27</desc>
				<v:textBlock v:margins="rect(0,0,0,0)"/>
				<v:textRect cx="17.1724" cy="133.25" width="34.35" height="0"/>
				<path d="M0 133.25 L34.34 133.25" class="st4"/>
				<rect v:rectContext="textBkgnd" x="13.7494" y="128.25" width="6.84586" height="10.6642" class="st2"/>
				<text x="13.75" y="135.75" class="st3" v:langID="1033"><v:paragraph v:spLine="-1" v:horizAlign="1"/><v:tabList/>27</text>			</g>
			<g id="shape213-174" v:mID="213" v:groupContext="shape" transform="translate(222.75,-6.75)">
				<title>Sheet.213</title>
				<desc>25</desc>
				<v:textBlock v:margins="rect(0,0,0,0)"/>
				<v:textRect cx="29.25" cy="133.25" width="58.5" height="0"/>
				<path d="M0 133.25 L58.5 133.25" class="st4"/>
				<rect v:rectContext="textBkgnd" x="25.8709" y="128.25" width="6.75797" height="10.6642" class="st2"/>
				<text x="25.87" y="135.75" class="st3" v:langID="1033"><v:paragraph v:spLine="-1" v:horizAlign="1"/><v:tabList/>25</text>			</g>
			<g id="shape214-179" v:mID="214" v:groupContext="shape" transform="translate(245.25,-18)">
				<title>Circle.130</title>
				<desc>17</desc>
				<v:userDefs>
					<v:ud v:nameU="visVersion" v:val="VT0(15):26"/>
				</v:userDefs>
				<v:textBlock v:margins="rect(0,0,0,0)"/>
				<v:textRect cx="6.75" cy="126.5" width="11.82" height="10.125"/>
				<path d="M0 126.5 A6.75 6.75 0 0 1 13.5 126.5 A6.75 6.75 0 1 1 0 126.5 Z" class="st11"/>
				<text x="3.72" y="129" class="st6" v:langID="1033"><v:paragraph v:spLine="-1" v:horizAlign="1"/><v:tabList/>17</text>			</g>
			<g id="shape215-182" v:mID="215" v:groupContext="shape" transform="translate(216,0)">
				<title>Circle.131</title>
				<desc>16</desc>
				<v:userDefs>
					<v:ud v:nameU="visVersion" v:val="VT0(15):26"/>
				</v:userDefs>
				<v:textBlock v:margins="rect(0,0,0,0)"/>
				<v:textRect cx="6.75" cy="126.5" width="11.82" height="10.125"/>
				<path d="M0 126.5 A6.75 6.75 0 0 1 13.5 126.5 A6.75 6.75 0 1 1 0 126.5 Z" class="st11"/>
				<text x="3.62" y="129" class="st6" v:langID="1033"><v:paragraph v:spLine="-1" v:horizAlign="1"/><v:tabList/>16</text>			</g>
			<g id="shape216-185" v:mID="216" v:groupContext="shape" transform="translate(274.5,0)">
				<title>Circle.132</title>
				<desc>5</desc>
				<v:userDefs>
					<v:ud v:nameU="visVersion" v:val="VT0(15):26"/>
				</v:userDefs>
				<v:textBlock v:margins="rect(0,0,0,0)"/>
				<v:textRect cx="6.75" cy="126.5" width="11.82" height="10.125"/>
				<path d="M0 126.5 A6.75 6.75 0 0 1 13.5 126.5 A6.75 6.75 0 1 1 0 126.5 Z" class="st11"/>
				<text x="5.2" y="129" class="st6" v:langID="1033"><v:paragraph v:spLine="-1" v:horizAlign="1"/><v:tabList/>5</text>			</g>
		</g>
	</g>
</svg>
