<?xml version="1.0" encoding="UTF-8" standalone="no"?>
<!DOCTYPE svg PUBLIC "-//W3C//DTD SVG 1.1//EN" "http://www.w3.org/Graphics/SVG/1.1/DTD/svg11.dtd">
<!-- Generiert durch Microsoft Visio, SVG Export expanded1.svg Zeichenblatt-1 -->
<svg xmlns="http://www.w3.org/2000/svg" xmlns:xlink="http://www.w3.org/1999/xlink" xmlns:ev="http://www.w3.org/2001/xml-events"
		xmlns:v="http://schemas.microsoft.com/visio/2003/SVGExtensions/" width="4.88194in" height="2.25694in"
		viewBox="0 0 351.5 162.5" xml:space="preserve" color-interpolation-filters="sRGB" class="st10">
	<v:documentProperties v:langID="1033" v:viewMarkup="false"/>

	<style type="text/css">
	<![CDATA[
		.st1 {stroke:#000000;stroke-linecap:round;stroke-linejoin:round;stroke-width:1}
		.st2 {fill:#ffffff;stroke:none;stroke-linecap:butt}
		.st3 {fill:#000000;font-family:Microsoft Uighur;font-size:0.833336em}
		.st4 {fill:#ffffff;stroke:none;stroke-linecap:butt;stroke-width:7.2}
		.st5 {stroke:#bfbfbf;stroke-linecap:round;stroke-linejoin:round;stroke-width:1}
		.st6 {fill:#ffffff;fill-opacity:0.75;stroke:none;stroke-linecap:butt;stroke-width:7.2}
		.st7 {fill:#bfbfbf;font-family:Microsoft Uighur;font-size:0.666664em}
		.st8 {fill:#000000;stroke:none;stroke-width:0.25}
		.st9 {fill:#ffffff;font-family:Microsoft Uighur;font-size:0.833336em}
		.st10 {fill:none;fill-rule:evenodd;font-size:12px;overflow:visible;stroke-linecap:square;stroke-miterlimit:3}
	]]>
	</style>

	<g v:mID="0" v:index="1" v:groupContext="foregroundPage">
		<title>Zeichenblatt-1</title>
		<v:pageProperties v:drawingScale="1" v:pageScale="1" v:drawingUnits="0" v:shadowOffsetX="9" v:shadowOffsetY="-9"/>
		<g id="group753-1" transform="translate(0.25,-0.25)" v:mID="753" v:groupContext="group">
			<title>Tabelle.753</title>
			<g id="shape751-2" v:mID="751" v:groupContext="shape" transform="translate(209.25,-51.75)">
				<title>Tabelle.751</title>
				<desc>6</desc>
				<v:textBlock v:margins="rect(0,0,0,0)"/>
				<v:textRect cx="45" cy="162.5" width="90" height="0"/>
				<path d="M0 162.5 L90 162.5" class="st1"/>
				<rect v:rectContext="textBkgnd" x="43.3081" y="157.5" width="3.38379" height="10.6642" class="st2"/>
				<text x="43.31" y="165" class="st3" v:langID="1033"><v:paragraph v:spLine="-1" v:horizAlign="1"/><v:tabList/>6</text>			</g>
			<g id="shape747-7" v:mID="747" v:groupContext="shape" transform="translate(65.25,-81)">
				<title>Tabelle.747</title>
				<desc>2</desc>
				<v:textBlock v:margins="rect(0,0,0,0)"/>
				<v:textRect cx="110.25" cy="162.5" width="220.51" height="0"/>
				<path d="M0 162.5 L220.5 162.5" class="st1"/>
				<rect v:rectContext="textBkgnd" x="108.424" y="157.5" width="3.6524" height="10.6642" class="st2"/>
				<text x="108.42" y="165" class="st3" v:langID="1033"><v:paragraph v:spLine="-1" v:horizAlign="1"/><v:tabList/>2</text>			</g>
			<g id="shape750-12" v:mID="750" v:groupContext="shape" transform="translate(263.25,-110.25)">
				<title>Tabelle.750</title>
				<desc>5</desc>
				<v:textBlock v:margins="rect(0,0,0,0)"/>
				<v:textRect cx="18" cy="162.5" width="36" height="0"/>
				<path d="M0 162.5 L36 162.5" class="st1"/>
				<rect v:rectContext="textBkgnd" x="16.4471" y="157.5" width="3.10556" height="10.6642" class="st4"/>
				<text x="16.45" y="165" class="st3" v:langID="1033"><v:paragraph v:spLine="-1" v:horizAlign="1"/><v:tabList/>5</text>			</g>
			<g id="shape748-17" v:mID="748" v:groupContext="shape" transform="translate(51.75,-110.25) rotate(2.73207E-06)">
				<title>Tabelle.748</title>
				<desc>1</desc>
				<v:textBlock v:margins="rect(0,0,0,0)"/>
				<v:textRect cx="18" cy="162.5" width="36.01" height="0"/>
				<path d="M0 162.5 L36 162.5" class="st1"/>
				<rect v:rectContext="textBkgnd" x="16.5619" y="157.5" width="2.87595" height="10.6642" class="st4"/>
				<text x="16.56" y="165" class="st3" v:langID="1033"><v:paragraph v:spLine="-1" v:horizAlign="1"/><v:tabList/>1</text>			</g>
			<g id="shape749-22" v:mID="749" v:groupContext="shape" transform="translate(150.75,-110.25)">
				<title>Tabelle.749</title>
				<desc>4</desc>
				<v:textBlock v:margins="rect(0,0,0,0)"/>
				<v:textRect cx="24.75" cy="162.5" width="49.51" height="0"/>
				<path d="M0 162.5 L49.5 162.5" class="st1"/>
				<rect v:rectContext="textBkgnd" x="23.129" y="157.5" width="3.24207" height="10.6642" class="st4"/>
				<text x="23.13" y="165" class="st3" v:langID="1033"><v:paragraph v:spLine="-1" v:horizAlign="1"/><v:tabList/>4</text>			</g>
			<g id="shape746-27" v:mID="746" v:groupContext="shape" transform="translate(51.75,-51.75) rotate(3.4834E-06)">
				<title>Tabelle.746</title>
				<desc>3</desc>
				<v:textBlock v:margins="rect(0,0,0,0)"/>
				<v:textRect cx="45" cy="162.5" width="90.01" height="0"/>
				<path d="M0 162.5 L90 162.5" class="st1"/>
				<rect v:rectContext="textBkgnd" x="43.4229" y="157.5" width="3.15417" height="10.6642" class="st4"/>
				<text x="43.42" y="165" class="st3" v:langID="1033"><v:paragraph v:spLine="-1" v:horizAlign="1"/><v:tabList/>3</text>			</g>
			<g id="shape678-32" v:mID="678" v:groupContext="shape" transform="translate(20.507,-95.6845) rotate(-24.444)">
				<title>Tabelle.678</title>
				<desc>15</desc>
				<v:textBlock v:margins="rect(0,0,0,0)"/>
				<v:textRect cx="27.1868" cy="162.5" width="54.38" height="0"/>
				<path d="M0 162.5 L54.37 162.5" class="st5"/>
				<rect v:rectContext="textBkgnd" x="24.7942" y="158.5" width="4.7851" height="8.53116" class="st6"/>
				<text x="24.79" y="164.5" class="st7" v:langID="1033"><v:paragraph v:spLine="-1" v:horizAlign="1"/><v:tabList/>15</text>			</g>
			<g id="shape677-37" v:mID="677" v:groupContext="shape" transform="translate(168.493,-118.185) rotate(24.4439)">
				<title>Tabelle.677</title>
				<desc>18</desc>
				<v:textBlock v:margins="rect(0,0,0,0)"/>
				<v:textRect cx="27.1869" cy="162.5" width="54.38" height="0"/>
				<path d="M0 162.5 L54.37 162.5" class="st5"/>
				<rect v:rectContext="textBkgnd" x="24.7025" y="158.5" width="4.96884" height="8.53116" class="st6"/>
				<text x="24.7" y="164.5" class="st7" v:langID="1033"><v:paragraph v:spLine="-1" v:horizAlign="1"/><v:tabList/>18</text>			</g>
			<g id="shape739-42" v:mID="739" v:groupContext="shape" transform="translate(133.007,-95.6845) rotate(-24.444)">
				<title>Tabelle.739</title>
				<desc>22</desc>
				<v:textBlock v:margins="rect(0,0,0,0)"/>
				<v:textRect cx="27.1868" cy="162.5" width="54.38" height="0"/>
				<path d="M0 162.5 L54.37 162.5" class="st5"/>
				<rect v:rectContext="textBkgnd" x="24.265" y="158.5" width="5.84363" height="8.53116" class="st6"/>
				<text x="24.26" y="164.5" class="st7" v:langID="1033"><v:paragraph v:spLine="-1" v:horizAlign="1"/><v:tabList/>22</text>			</g>
			<g id="shape659-47" v:mID="659" v:groupContext="shape" transform="translate(-53.601,-71.6275) rotate(-21.8014)">
				<title>Tabelle.659</title>
				<desc>13</desc>
				<v:textBlock v:margins="rect(0,0,0,0)"/>
				<v:textRect cx="12.1166" cy="162.5" width="24.24" height="0"/>
				<path d="M0 162.5 L24.23 162.5" class="st5"/>
				<rect v:rectContext="textBkgnd" x="9.7045" y="158.5" width="4.82437" height="8.53116" class="st6"/>
				<text x="9.7" y="164.5" class="st7" v:langID="1033"><v:paragraph v:spLine="-1" v:horizAlign="1"/><v:tabList/>13</text>			</g>
			<g id="shape660-52" v:mID="660" v:groupContext="shape" transform="translate(90.3556,-60.0926) rotate(30.9638)">
				<title>Tabelle.660</title>
				<desc>14</desc>
				<v:textBlock v:margins="rect(0,0,0,0)"/>
				<v:textRect cx="13.1196" cy="162.5" width="26.24" height="0"/>
				<path d="M0 162.5 L26.24 162.5" class="st5"/>
				<rect v:rectContext="textBkgnd" x="10.6721" y="158.5" width="4.89468" height="8.53116" class="st6"/>
				<text x="10.67" y="164.5" class="st7" v:langID="1033"><v:paragraph v:spLine="-1" v:horizAlign="1"/><v:tabList/>14</text>			</g>
			<g id="shape661-57" v:mID="661" v:groupContext="shape" transform="translate(0,-76.5)">
				<title>Circle.590</title>
				<desc>1</desc>
				<v:userDefs>
					<v:ud v:nameU="visVersion" v:val="VT0(15):26"/>
				</v:userDefs>
				<v:textBlock v:margins="rect(0,0,0,0)"/>
				<v:textRect cx="6.75" cy="155.75" width="11.82" height="10.125"/>
				<path d="M0 155.75 A6.75 6.75 0 0 1 13.5 155.75 A6.75 6.75 0 1 1 0 155.75 Z" class="st8"/>
				<text x="5.31" y="158.25" class="st9" v:langID="1033"><v:paragraph v:spLine="-1" v:horizAlign="1"/><v:tabList/>1</text>			</g>
			<g id="shape662-60" v:mID="662" v:groupContext="shape" transform="translate(-72.2629,-56.6412) rotate(-38.6598)">
				<title>Tabelle.662</title>
				<desc>7</desc>
				<v:textBlock v:margins="rect(0,0,0,0)"/>
				<v:textRect cx="14.407" cy="162.5" width="28.82" height="0"/>
				<path d="M0 162.5 L28.81 162.5" class="st5"/>
				<rect v:rectContext="textBkgnd" x="13.1298" y="158.5" width="2.5546" height="8.53116" class="st6"/>
				<text x="13.13" y="164.5" class="st7" v:langID="1033"><v:paragraph v:spLine="-1" v:horizAlign="1"/><v:tabList/>7</text>			</g>
			<g id="shape663-65" v:mID="663" v:groupContext="shape" transform="translate(77.7197,-84.853) rotate(17.354)">
				<title>Tabelle.663</title>
				<desc>8</desc>
				<v:textBlock v:margins="rect(0,0,0,0)"/>
				<v:textRect cx="18.8584" cy="162.5" width="37.72" height="0"/>
				<path d="M0 162.5 L37.72 162.5" class="st5"/>
				<rect v:rectContext="textBkgnd" x="17.5243" y="158.5" width="2.66803" height="8.53116" class="st6"/>
				<text x="17.52" y="164.5" class="st7" v:langID="1033"><v:paragraph v:spLine="-1" v:horizAlign="1"/><v:tabList/>8</text>			</g>
			<g id="shape664-70" v:mID="664" v:groupContext="shape" transform="translate(-112.801,13.833) rotate(-60.9454)">
				<title>Tabelle.664</title>
				<desc>10</desc>
				<v:textBlock v:margins="rect(0,0,0,0)"/>
				<v:textRect cx="23.1652" cy="162.5" width="46.34" height="0"/>
				<path d="M0 162.5 L46.33 162.5" class="st5"/>
				<rect v:rectContext="textBkgnd" x="20.6222" y="158.5" width="5.08585" height="8.53116" class="st6"/>
				<text x="20.62" y="164.5" class="st7" v:langID="1033"><v:paragraph v:spLine="-1" v:horizAlign="1"/><v:tabList/>10</text>			</g>
			<g id="shape665-75" v:mID="665" v:groupContext="shape" transform="translate(-19.2197,-62.353) rotate(-17.354)">
				<title>Tabelle.665</title>
				<desc>11</desc>
				<v:textBlock v:margins="rect(0,0,0,0)"/>
				<v:textRect cx="18.8584" cy="162.5" width="37.72" height="0"/>
				<path d="M0 162.5 L37.72 162.5" class="st5"/>
				<rect v:rectContext="textBkgnd" x="16.5575" y="158.5" width="4.60162" height="8.53116" class="st6"/>
				<text x="16.56" y="164.5" class="st7" v:langID="1033"><v:paragraph v:spLine="-1" v:horizAlign="1"/><v:tabList/>11</text>			</g>
			<g id="shape666-80" v:mID="666" v:groupContext="shape" transform="translate(130.763,-34.1412) rotate(38.6598)">
				<title>Tabelle.666</title>
				<desc>12</desc>
				<v:textBlock v:margins="rect(0,0,0,0)"/>
				<v:textRect cx="14.407" cy="162.5" width="28.82" height="0"/>
				<path d="M0 162.5 L28.81 162.5" class="st5"/>
				<rect v:rectContext="textBkgnd" x="11.7957" y="158.5" width="5.22263" height="8.53116" class="st6"/>
				<text x="11.8" y="164.5" class="st7" v:langID="1033"><v:paragraph v:spLine="-1" v:horizAlign="1"/><v:tabList/>12</text>			</g>
			<g id="shape667-85" v:mID="667" v:groupContext="shape" transform="translate(58.5,-74.25)">
				<title>Circle.596</title>
				<desc>7</desc>
				<v:userDefs>
					<v:ud v:nameU="visVersion" v:val="VT0(15):26"/>
				</v:userDefs>
				<v:textBlock v:margins="rect(0,0,0,0)"/>
				<v:textRect cx="6.75" cy="155.75" width="11.82" height="10.125"/>
				<path d="M0 155.75 A6.75 6.75 0 0 1 13.5 155.75 A6.75 6.75 0 1 1 0 155.75 Z" class="st8"/>
				<text x="5.15" y="158.25" class="st9" v:langID="1033"><v:paragraph v:spLine="-1" v:horizAlign="1"/><v:tabList/>7</text>			</g>
			<g id="shape668-88" v:mID="668" v:groupContext="shape" transform="translate(45,-103.5)">
				<title>Circle.597</title>
				<desc>6</desc>
				<v:userDefs>
					<v:ud v:nameU="visVersion" v:val="VT0(15):26"/>
				</v:userDefs>
				<v:textBlock v:margins="rect(0,0,0,0)"/>
				<v:textRect cx="6.75" cy="155.75" width="11.82" height="10.125"/>
				<path d="M0 155.75 A6.75 6.75 0 0 1 13.5 155.75 A6.75 6.75 0 1 1 0 155.75 Z" class="st8"/>
				<text x="5.06" y="158.25" class="st9" v:langID="1033"><v:paragraph v:spLine="-1" v:horizAlign="1"/><v:tabList/>6</text>			</g>
			<g id="shape669-91" v:mID="669" v:groupContext="shape" transform="translate(171.301,-8.66698) rotate(60.9454)">
				<title>Tabelle.669</title>
				<desc>9</desc>
				<v:textBlock v:margins="rect(0,0,0,0)"/>
				<v:textRect cx="23.1652" cy="162.5" width="46.34" height="0"/>
				<path d="M0 162.5 L46.33 162.5" class="st5"/>
				<rect v:rectContext="textBkgnd" x="21.8782" y="158.5" width="2.5741" height="8.53116" class="st6"/>
				<text x="21.88" y="164.5" class="st7" v:langID="1033"><v:paragraph v:spLine="-1" v:horizAlign="1"/><v:tabList/>9</text>			</g>
			<g id="shape670-96" v:mID="670" v:groupContext="shape" transform="translate(22.5,-85.5)">
				<title>Circle.591</title>
				<desc>9</desc>
				<v:userDefs>
					<v:ud v:nameU="visVersion" v:val="VT0(15):26"/>
				</v:userDefs>
				<v:textBlock v:margins="rect(0,0,0,0)"/>
				<v:textRect cx="6.75" cy="155.75" width="11.82" height="10.125"/>
				<path d="M0 155.75 A6.75 6.75 0 0 1 13.5 155.75 A6.75 6.75 0 1 1 0 155.75 Z" class="st8"/>
				<text x="5.14" y="158.25" class="st9" v:langID="1033"><v:paragraph v:spLine="-1" v:horizAlign="1"/><v:tabList/>9</text>			</g>
			<g id="shape671-99" v:mID="671" v:groupContext="shape" transform="translate(45,-45)">
				<title>Circle.598</title>
				<desc>8</desc>
				<v:userDefs>
					<v:ud v:nameU="visVersion" v:val="VT0(15):26"/>
				</v:userDefs>
				<v:textBlock v:margins="rect(0,0,0,0)"/>
				<v:textRect cx="6.75" cy="155.75" width="11.82" height="10.125"/>
				<path d="M0 155.75 A6.75 6.75 0 0 1 13.5 155.75 A6.75 6.75 0 1 1 0 155.75 Z" class="st8"/>
				<text x="5.08" y="158.25" class="st9" v:langID="1033"><v:paragraph v:spLine="-1" v:horizAlign="1"/><v:tabList/>8</text>			</g>
			<g id="shape672-102" v:mID="672" v:groupContext="shape" transform="translate(22.5,-63)">
				<title>Circle.594</title>
				<desc>10</desc>
				<v:userDefs>
					<v:ud v:nameU="visVersion" v:val="VT0(15):26"/>
				</v:userDefs>
				<v:textBlock v:margins="rect(0,0,0,0)"/>
				<v:textRect cx="6.75" cy="155.75" width="11.82" height="10.125"/>
				<path d="M0 155.75 A6.75 6.75 0 0 1 13.5 155.75 A6.75 6.75 0 1 1 0 155.75 Z" class="st8"/>
				<text x="3.57" y="158.25" class="st9" v:langID="1033"><v:paragraph v:spLine="-1" v:horizAlign="1"/><v:tabList/>10</text>			</g>
			<g id="shape674-105" v:mID="674" v:groupContext="shape" transform="translate(11.4074,135.856) rotate(-120.964)">
				<title>Tabelle.674</title>
				<desc>16</desc>
				<v:textBlock v:margins="rect(0,0,0,0)"/>
				<v:textRect cx="13.1196" cy="162.5" width="26.24" height="0"/>
				<path d="M0 162.5 L26.24 162.5" class="st5"/>
				<rect v:rectContext="textBkgnd" x="10.6155" y="158.5" width="5.00784" height="8.53116" class="st6"/>
				<text x="10.62" y="164.5" class="st7" v:langID="1033"><v:paragraph v:spLine="-1" v:horizAlign="1"/><v:tabList/>16</text>			</g>
			<g id="shape675-110" v:mID="675" v:groupContext="shape" transform="translate(246.141,-94.2629) rotate(51.3402)">
				<title>Tabelle.675</title>
				<desc>19</desc>
				<v:textBlock v:margins="rect(0,0,0,0)"/>
				<v:textRect cx="14.407" cy="162.5" width="28.82" height="0"/>
				<path d="M0 162.5 L28.81 162.5" class="st5"/>
				<rect v:rectContext="textBkgnd" x="11.9696" y="158.5" width="4.87491" height="8.53116" class="st6"/>
				<text x="11.97" y="164.5" class="st7" v:langID="1033"><v:paragraph v:spLine="-1" v:horizAlign="1"/><v:tabList/>19</text>			</g>
			<g id="shape676-115" v:mID="676" v:groupContext="shape" transform="translate(-25.6412,-71.7629) rotate(-51.3402)">
				<title>Tabelle.676</title>
				<desc>20</desc>
				<v:textBlock v:margins="rect(0,0,0,0)"/>
				<v:textRect cx="14.407" cy="162.5" width="28.82" height="0"/>
				<path d="M0 162.5 L28.81 162.5" class="st5"/>
				<rect v:rectContext="textBkgnd" x="11.5535" y="158.5" width="5.70685" height="8.53116" class="st6"/>
				<text x="11.55" y="164.5" class="st7" v:langID="1033"><v:paragraph v:spLine="-1" v:horizAlign="1"/><v:tabList/>20</text>			</g>
			<g id="shape679-120" v:mID="679" v:groupContext="shape" transform="translate(-51.5926,-31.3555) rotate(-59.0363)">
				<title>Tabelle.679</title>
				<desc>17</desc>
				<v:textBlock v:margins="rect(0,0,0,0)"/>
				<v:textRect cx="13.1196" cy="162.5" width="26.24" height="0"/>
				<path d="M0 162.5 L26.24 162.5" class="st5"/>
				<rect v:rectContext="textBkgnd" x="10.6919" y="158.5" width="4.85541" height="8.53116" class="st6"/>
				<text x="10.69" y="164.5" class="st7" v:langID="1033"><v:paragraph v:spLine="-1" v:horizAlign="1"/><v:tabList/>17</text>			</g>
			<g id="shape680-125" v:mID="680" v:groupContext="shape" transform="translate(112.5,-148.5)">
				<title>Circle.606</title>
				<desc>2</desc>
				<v:userDefs>
					<v:ud v:nameU="visVersion" v:val="VT0(15):26"/>
				</v:userDefs>
				<v:textBlock v:margins="rect(0,0,0,0)"/>
				<v:textRect cx="6.75" cy="155.75" width="11.82" height="10.125"/>
				<path d="M0 155.75 A6.75 6.75 0 0 1 13.5 155.75 A6.75 6.75 0 1 1 0 155.75 Z" class="st8"/>
				<text x="4.92" y="158.25" class="st9" v:langID="1033"><v:paragraph v:spLine="-1" v:horizAlign="1"/><v:tabList/>2</text>			</g>
			<g id="shape681-128" v:mID="681" v:groupContext="shape" transform="translate(130.5,-126)">
				<title>Circle.607</title>
				<desc>13</desc>
				<v:userDefs>
					<v:ud v:nameU="visVersion" v:val="VT0(15):26"/>
				</v:userDefs>
				<v:textBlock v:margins="rect(0,0,0,0)"/>
				<v:textRect cx="6.75" cy="155.75" width="11.82" height="10.125"/>
				<path d="M0 155.75 A6.75 6.75 0 0 1 13.5 155.75 A6.75 6.75 0 1 1 0 155.75 Z" class="st8"/>
				<text x="3.73" y="158.25" class="st9" v:langID="1033"><v:paragraph v:spLine="-1" v:horizAlign="1"/><v:tabList/>13</text>			</g>
			<g id="shape682-131" v:mID="682" v:groupContext="shape" transform="translate(94.5,-126)">
				<title>Circle.608</title>
				<desc>14</desc>
				<v:userDefs>
					<v:ud v:nameU="visVersion" v:val="VT0(15):26"/>
				</v:userDefs>
				<v:textBlock v:margins="rect(0,0,0,0)"/>
				<v:textRect cx="6.75" cy="155.75" width="11.82" height="10.125"/>
				<path d="M0 155.75 A6.75 6.75 0 0 1 13.5 155.75 A6.75 6.75 0 1 1 0 155.75 Z" class="st8"/>
				<text x="3.69" y="158.25" class="st9" v:langID="1033"><v:paragraph v:spLine="-1" v:horizAlign="1"/><v:tabList/>14</text>			</g>
			<g id="shape683-134" v:mID="683" v:groupContext="shape" transform="translate(81,-103.5)">
				<title>Circle.609</title>
				<desc>11</desc>
				<v:userDefs>
					<v:ud v:nameU="visVersion" v:val="VT0(15):26"/>
				</v:userDefs>
				<v:textBlock v:margins="rect(0,0,0,0)"/>
				<v:textRect cx="6.75" cy="155.75" width="11.82" height="10.125"/>
				<path d="M0 155.75 A6.75 6.75 0 0 1 13.5 155.75 A6.75 6.75 0 1 1 0 155.75 Z" class="st8"/>
				<text x="3.87" y="158.25" class="st9" v:langID="1033"><v:paragraph v:spLine="-1" v:horizAlign="1"/><v:tabList/>11</text>			</g>
			<g id="shape684-137" v:mID="684" v:groupContext="shape" transform="translate(144,-103.5)">
				<title>Circle.610</title>
				<desc>12</desc>
				<v:userDefs>
					<v:ud v:nameU="visVersion" v:val="VT0(15):26"/>
				</v:userDefs>
				<v:textBlock v:margins="rect(0,0,0,0)"/>
				<v:textRect cx="6.75" cy="155.75" width="11.82" height="10.125"/>
				<path d="M0 155.75 A6.75 6.75 0 0 1 13.5 155.75 A6.75 6.75 0 1 1 0 155.75 Z" class="st8"/>
				<text x="3.49" y="158.25" class="st9" v:langID="1033"><v:paragraph v:spLine="-1" v:horizAlign="1"/><v:tabList/>12</text>			</g>
			<g id="shape699-140" v:mID="699" v:groupContext="shape"
					transform="translate(261.399,221.127) rotate(21.8014) scale(1,-1)">
				<title>Tabelle.699</title>
				<desc>33</desc>
				<v:textBlock v:margins="rect(0,0,0,0)"/>
				<v:textRect cx="12.1166" cy="162.5" width="24.24" height="0"/>
				<path d="M0 162.5 L24.23 162.5" class="st5"/>
				<rect v:rectContext="textBkgnd" x="9.59299" y="157.969" width="5.04712" height="8.53116" class="st6"/>
				<text x="9.59" y="-160.5" transform="scale(1,-1)" class="st7" v:langID="1033"><v:paragraph v:spLine="-1"
							v:horizAlign="1"/><v:tabList/>33</text>			</g>
			<g id="shape700-145" v:mID="700" v:groupContext="shape"
					transform="translate(405.356,232.093) rotate(-30.9638) scale(1,-1)">
				<title>Tabelle.700</title>
				<desc>34</desc>
				<v:textBlock v:margins="rect(0,0,0,0)"/>
				<v:textRect cx="13.1196" cy="162.5" width="26.24" height="0"/>
				<path d="M0 162.5 L26.24 162.5" class="st5"/>
				<rect v:rectContext="textBkgnd" x="10.5609" y="157.969" width="5.11743" height="8.53116" class="st6"/>
				<text x="10.56" y="-160.5" transform="scale(1,-1)" class="st7" v:langID="1033"><v:paragraph v:spLine="-1"
							v:horizAlign="1"/><v:tabList/>34</text>			</g>
			<g id="shape701-150" v:mID="701" v:groupContext="shape" transform="translate(351,-76.5) scale(-1,1)">
				<title>Circle.630</title>
				<desc>4</desc>
				<v:userDefs>
					<v:ud v:nameU="visVersion" v:val="VT0(15):26"/>
				</v:userDefs>
				<v:textBlock v:margins="rect(0,0,0,0)"/>
				<v:textRect cx="6.75" cy="155.75" width="11.82" height="10.125"/>
				<path d="M0 155.75 A6.75 6.75 0 0 1 13.5 155.75 A6.75 6.75 0 1 1 0 155.75 Z" class="st8"/>
				<text x="-8.37" y="158.25" transform="scale(-1,1)" class="st9" v:langID="1033"><v:paragraph v:spLine="-1"
							v:horizAlign="1"/><v:tabList/>4</text>			</g>
			<g id="shape702-153" v:mID="702" v:groupContext="shape"
					transform="translate(197.737,179.141) rotate(38.6598) scale(1,-1)">
				<title>Tabelle.702</title>
				<desc>27</desc>
				<v:textBlock v:margins="rect(0,0,0,0)"/>
				<v:textRect cx="14.407" cy="162.5" width="28.82" height="0"/>
				<path d="M0 162.5 L28.81 162.5" class="st5"/>
				<rect v:rectContext="textBkgnd" x="11.6689" y="157.969" width="5.47641" height="8.53116" class="st6"/>
				<text x="11.67" y="-160.5" transform="scale(1,-1)" class="st7" v:langID="1033"><v:paragraph v:spLine="-1"
							v:horizAlign="1"/><v:tabList/>27</text>			</g>
			<g id="shape703-158" v:mID="703" v:groupContext="shape"
					transform="translate(334.22,236.603) rotate(-17.354) scale(1,-1)">
				<title>Tabelle.703</title>
				<desc>28</desc>
				<v:textBlock v:margins="rect(0,0,0,0)"/>
				<v:textRect cx="18.8584" cy="162.5" width="37.72" height="0"/>
				<path d="M0 162.5 L37.72 162.5" class="st5"/>
				<rect v:rectContext="textBkgnd" x="16.0634" y="157.969" width="5.58984" height="8.53116" class="st6"/>
				<text x="16.06" y="-160.5" transform="scale(1,-1)" class="st7" v:langID="1033"><v:paragraph v:spLine="-1"
							v:horizAlign="1"/><v:tabList/>28</text>			</g>
			<g id="shape704-163" v:mID="704" v:groupContext="shape"
					transform="translate(237.28,236.603) rotate(17.354) scale(1,-1)">
				<title>Tabelle.704</title>
				<desc>31</desc>
				<v:textBlock v:margins="rect(0,0,0,0)"/>
				<v:textRect cx="18.8584" cy="162.5" width="37.72" height="0"/>
				<path d="M0 162.5 L37.72 162.5" class="st5"/>
				<rect v:rectContext="textBkgnd" x="16.4463" y="157.969" width="4.82437" height="8.53116" class="st6"/>
				<text x="16.45" y="-160.5" transform="scale(1,-1)" class="st7" v:langID="1033"><v:paragraph v:spLine="-1"
							v:horizAlign="1"/><v:tabList/>31</text>			</g>
			<g id="shape705-168" v:mID="705" v:groupContext="shape"
					transform="translate(400.763,237.641) rotate(-38.6598) scale(1,-1)">
				<title>Tabelle.705</title>
				<desc>32</desc>
				<v:textBlock v:margins="rect(0,0,0,0)"/>
				<v:textRect cx="14.407" cy="162.5" width="28.82" height="0"/>
				<path d="M0 162.5 L28.81 162.5" class="st5"/>
				<rect v:rectContext="textBkgnd" x="11.6842" y="157.969" width="5.44537" height="8.53116" class="st6"/>
				<text x="11.68" y="-160.5" transform="scale(1,-1)" class="st7" v:langID="1033"><v:paragraph v:spLine="-1"
							v:horizAlign="1"/><v:tabList/>32</text>			</g>
			<g id="shape706-173" v:mID="706" v:groupContext="shape" transform="translate(292.5,-74.25) scale(-1,1)">
				<title>Circle.636</title>
				<desc>20</desc>
				<v:userDefs>
					<v:ud v:nameU="visVersion" v:val="VT0(15):26"/>
				</v:userDefs>
				<v:textBlock v:margins="rect(0,0,0,0)"/>
				<v:textRect cx="6.75" cy="155.75" width="11.82" height="10.125"/>
				<path d="M0 155.75 A6.75 6.75 0 0 1 13.5 155.75 A6.75 6.75 0 1 1 0 155.75 Z" class="st8"/>
				<text x="-10.32" y="158.25" transform="scale(-1,1)" class="st9" v:langID="1033"><v:paragraph v:spLine="-1"
							v:horizAlign="1"/><v:tabList/>20</text>			</g>
			<g id="shape708-176" v:mID="708" v:groupContext="shape"
					transform="translate(441.301,189.667) rotate(-60.9454) scale(1,-1)">
				<title>Tabelle.708</title>
				<desc>29</desc>
				<v:textBlock v:margins="rect(0,0,0,0)"/>
				<v:textRect cx="23.1652" cy="162.5" width="46.34" height="0"/>
				<path d="M0 162.5 L46.33 162.5" class="st5"/>
				<rect v:rectContext="textBkgnd" x="20.4173" y="157.969" width="5.49591" height="8.53116" class="st6"/>
				<text x="20.42" y="-160.5" transform="scale(1,-1)" class="st7" v:langID="1033"><v:paragraph v:spLine="-1"
							v:horizAlign="1"/><v:tabList/>29</text>			</g>
			<g id="shape709-181" v:mID="709" v:groupContext="shape" transform="translate(328.5,-85.5) scale(-1,1)">
				<title>Circle.639</title>
				<desc>22</desc>
				<v:userDefs>
					<v:ud v:nameU="visVersion" v:val="VT0(15):26"/>
				</v:userDefs>
				<v:textBlock v:margins="rect(0,0,0,0)"/>
				<v:textRect cx="6.75" cy="155.75" width="11.82" height="10.125"/>
				<path d="M0 155.75 A6.75 6.75 0 0 1 13.5 155.75 A6.75 6.75 0 1 1 0 155.75 Z" class="st8"/>
				<text x="-10.4" y="158.25" transform="scale(-1,1)" class="st9" v:langID="1033"><v:paragraph v:spLine="-1"
							v:horizAlign="1"/><v:tabList/>22</text>			</g>
			<g id="shape710-184" v:mID="710" v:groupContext="shape" transform="translate(306,-45) scale(-1,1)">
				<title>Circle.640</title>
				<desc>21</desc>
				<v:userDefs>
					<v:ud v:nameU="visVersion" v:val="VT0(15):26"/>
				</v:userDefs>
				<v:textBlock v:margins="rect(0,0,0,0)"/>
				<v:textRect cx="6.75" cy="155.75" width="11.82" height="10.125"/>
				<path d="M0 155.75 A6.75 6.75 0 0 1 13.5 155.75 A6.75 6.75 0 1 1 0 155.75 Z" class="st8"/>
				<text x="-10.01" y="158.25" transform="scale(-1,1)" class="st9" v:langID="1033"><v:paragraph v:spLine="-1"
							v:horizAlign="1"/><v:tabList/>21</text>			</g>
			<g id="shape713-187" v:mID="713" v:groupContext="shape" transform="translate(204.25,-39.25) rotate(22.6199)">
				<title>Tabelle.713</title>
				<desc>37</desc>
				<v:textBlock v:margins="rect(0,0,0,0)"/>
				<v:textRect cx="29.25" cy="162.5" width="58.5" height="0"/>
				<path d="M0 162.5 L58.5 162.5" class="st5"/>
				<rect v:rectContext="textBkgnd" x="26.7108" y="158.5" width="5.07816" height="8.53116" class="st6"/>
				<text x="26.71" y="164.5" class="st7" v:langID="1033"><v:paragraph v:spLine="-1" v:horizAlign="1"/><v:tabList/>37</text>			</g>
			<g id="shape714-192" v:mID="714" v:groupContext="shape" transform="translate(92.75,-16.75) rotate(-22.6199)">
				<title>Tabelle.714</title>
				<desc>36</desc>
				<v:textBlock v:margins="rect(0,0,0,0)"/>
				<v:textRect cx="29.25" cy="162.5" width="58.51" height="0"/>
				<path d="M0 162.5 L58.5 162.5" class="st5"/>
				<rect v:rectContext="textBkgnd" x="26.6347" y="158.5" width="5.23059" height="8.53116" class="st6"/>
				<text x="26.63" y="164.5" class="st7" v:langID="1033"><v:paragraph v:spLine="-1" v:horizAlign="1"/><v:tabList/>36</text>			</g>
			<g id="shape715-197" v:mID="715" v:groupContext="shape" transform="translate(270.155,18.3451) rotate(45)">
				<title>Tabelle.715</title>
				<desc>25</desc>
				<v:textBlock v:margins="rect(0,0,0,0)"/>
				<v:textRect cx="15.9099" cy="162.5" width="31.82" height="0"/>
				<path d="M0 162.5 L31.82 162.5" class="st5"/>
				<rect v:rectContext="textBkgnd" x="13.2067" y="158.5" width="5.4061" height="8.53116" class="st6"/>
				<text x="13.21" y="164.5" class="st7" v:langID="1033"><v:paragraph v:spLine="-1" v:horizAlign="1"/><v:tabList/>25</text>			</g>
			<g id="shape716-202" v:mID="716" v:groupContext="shape" transform="translate(50.8588,54.2371) rotate(-51.3402)">
				<title>Tabelle.716</title>
				<desc>26</desc>
				<v:textBlock v:margins="rect(0,0,0,0)"/>
				<v:textRect cx="14.407" cy="162.5" width="28.82" height="0"/>
				<path d="M0 162.5 L28.81 162.5" class="st5"/>
				<rect v:rectContext="textBkgnd" x="11.5925" y="158.5" width="5.62885" height="8.53116" class="st6"/>
				<text x="11.59" y="164.5" class="st7" v:langID="1033"><v:paragraph v:spLine="-1" v:horizAlign="1"/><v:tabList/>26</text>			</g>
			<g id="shape717-207" v:mID="717" v:groupContext="shape" transform="translate(56.4074,49.6444) rotate(-59.0362)">
				<title>Tabelle.717</title>
				<desc>38</desc>
				<v:textBlock v:margins="rect(0,0,0,0)"/>
				<v:textRect cx="13.1196" cy="162.5" width="26.24" height="0"/>
				<path d="M0 162.5 L26.24 162.5" class="st5"/>
				<rect v:rectContext="textBkgnd" x="10.5238" y="158.5" width="5.19159" height="8.53116" class="st6"/>
				<text x="10.52" y="164.5" class="st7" v:langID="1033"><v:paragraph v:spLine="-1" v:horizAlign="1"/><v:tabList/>38</text>			</g>
			<g id="shape718-212" v:mID="718" v:groupContext="shape" transform="translate(281.093,27.1445) rotate(59.0363)">
				<title>Tabelle.718</title>
				<desc>35</desc>
				<v:textBlock v:margins="rect(0,0,0,0)"/>
				<v:textRect cx="13.1196" cy="162.5" width="26.24" height="0"/>
				<path d="M0 162.5 L26.24 162.5" class="st5"/>
				<rect v:rectContext="textBkgnd" x="10.6155" y="158.5" width="5.00784" height="8.53116" class="st6"/>
				<text x="10.62" y="164.5" class="st7" v:langID="1033"><v:paragraph v:spLine="-1" v:horizAlign="1"/><v:tabList/>35</text>			</g>
			<g id="shape719-217" v:mID="719" v:groupContext="shape" transform="translate(171,2.84217E-14)">
				<title>Circle.648</title>
				<desc>5</desc>
				<v:userDefs>
					<v:ud v:nameU="visVersion" v:val="VT0(15):26"/>
				</v:userDefs>
				<v:textBlock v:margins="rect(0,0,0,0)"/>
				<v:textRect cx="6.75" cy="155.75" width="11.82" height="10.125"/>
				<path d="M0 155.75 A6.75 6.75 0 0 1 13.5 155.75 A6.75 6.75 0 1 1 0 155.75 Z" class="st8"/>
				<text x="5.2" y="158.25" class="st9" v:langID="1033"><v:paragraph v:spLine="-1" v:horizAlign="1"/><v:tabList/>5</text>			</g>
			<g id="shape720-220" v:mID="720" v:groupContext="shape" transform="translate(148.5,-22.5)">
				<title>Circle.649</title>
				<desc>26</desc>
				<v:userDefs>
					<v:ud v:nameU="visVersion" v:val="VT0(15):26"/>
				</v:userDefs>
				<v:textBlock v:margins="rect(0,0,0,0)"/>
				<v:textRect cx="6.75" cy="155.75" width="11.82" height="10.125"/>
				<path d="M0 155.75 A6.75 6.75 0 0 1 13.5 155.75 A6.75 6.75 0 1 1 0 155.75 Z" class="st8"/>
				<text x="3.23" y="158.25" class="st9" v:langID="1033"><v:paragraph v:spLine="-1" v:horizAlign="1"/><v:tabList/>26</text>			</g>
			<g id="shape721-223" v:mID="721" v:groupContext="shape" transform="translate(189,-22.5)">
				<title>Circle.650</title>
				<desc>27</desc>
				<v:userDefs>
					<v:ud v:nameU="visVersion" v:val="VT0(15):26"/>
				</v:userDefs>
				<v:textBlock v:margins="rect(0,0,0,0)"/>
				<v:textRect cx="6.75" cy="155.75" width="11.82" height="10.125"/>
				<path d="M0 155.75 A6.75 6.75 0 0 1 13.5 155.75 A6.75 6.75 0 1 1 0 155.75 Z" class="st8"/>
				<text x="3.33" y="158.25" class="st9" v:langID="1033"><v:paragraph v:spLine="-1" v:horizAlign="1"/><v:tabList/>27</text>			</g>
			<g id="shape722-226" v:mID="722" v:groupContext="shape" transform="translate(135,-45)">
				<title>Circle.651</title>
				<desc>24</desc>
				<v:userDefs>
					<v:ud v:nameU="visVersion" v:val="VT0(15):26"/>
				</v:userDefs>
				<v:textBlock v:margins="rect(0,0,0,0)"/>
				<v:textRect cx="6.75" cy="155.75" width="11.82" height="10.125"/>
				<path d="M0 155.75 A6.75 6.75 0 0 1 13.5 155.75 A6.75 6.75 0 1 1 0 155.75 Z" class="st8"/>
				<text x="3.3" y="158.25" class="st9" v:langID="1033"><v:paragraph v:spLine="-1" v:horizAlign="1"/><v:tabList/>24</text>			</g>
			<g id="shape723-229" v:mID="723" v:groupContext="shape" transform="translate(202.5,-45)">
				<title>Circle.652</title>
				<desc>25</desc>
				<v:userDefs>
					<v:ud v:nameU="visVersion" v:val="VT0(15):26"/>
				</v:userDefs>
				<v:textBlock v:margins="rect(0,0,0,0)"/>
				<v:textRect cx="6.75" cy="155.75" width="11.82" height="10.125"/>
				<path d="M0 155.75 A6.75 6.75 0 0 1 13.5 155.75 A6.75 6.75 0 1 1 0 155.75 Z" class="st8"/>
				<text x="3.37" y="158.25" class="st9" v:langID="1033"><v:paragraph v:spLine="-1" v:horizAlign="1"/><v:tabList/>25</text>			</g>
			<g id="shape735-232" v:mID="735" v:groupContext="shape" transform="translate(389.093,-53.8556) rotate(59.0362)">
				<title>Tabelle.735</title>
				<desc>21</desc>
				<v:textBlock v:margins="rect(0,0,0,0)"/>
				<v:textRect cx="13.1196" cy="162.5" width="26.24" height="0"/>
				<path d="M0 162.5 L26.24 162.5" class="st5"/>
				<rect v:rectContext="textBkgnd" x="10.5081" y="158.5" width="5.22263" height="8.53116" class="st6"/>
				<text x="10.51" y="164.5" class="st7" v:langID="1033"><v:paragraph v:spLine="-1" v:horizAlign="1"/><v:tabList/>21</text>			</g>
			<g id="shape736-237" v:mID="736" v:groupContext="shape" transform="translate(358.641,-94.2629) rotate(51.3402)">
				<title>Tabelle.736</title>
				<desc>25</desc>
				<v:textBlock v:margins="rect(0,0,0,0)"/>
				<v:textRect cx="14.407" cy="162.5" width="28.82" height="0"/>
				<path d="M0 162.5 L28.81 162.5" class="st5"/>
				<rect v:rectContext="textBkgnd" x="11.704" y="158.5" width="5.4061" height="8.53116" class="st6"/>
				<text x="11.7" y="164.5" class="st7" v:langID="1033"><v:paragraph v:spLine="-1" v:horizAlign="1"/><v:tabList/>25</text>			</g>
			<g id="shape737-242" v:mID="737" v:groupContext="shape" transform="translate(86.8588,-71.7629) rotate(-51.3402)">
				<title>Tabelle.737</title>
				<desc>26</desc>
				<v:textBlock v:margins="rect(0,0,0,0)"/>
				<v:textRect cx="14.407" cy="162.5" width="28.82" height="0"/>
				<path d="M0 162.5 L28.81 162.5" class="st5"/>
				<rect v:rectContext="textBkgnd" x="11.5925" y="158.5" width="5.62885" height="8.53116" class="st6"/>
				<text x="11.59" y="164.5" class="st7" v:langID="1033"><v:paragraph v:spLine="-1" v:horizAlign="1"/><v:tabList/>26</text>			</g>
			<g id="shape738-247" v:mID="738" v:groupContext="shape" transform="translate(280.993,-118.185) rotate(24.444)">
				<title>Tabelle.738</title>
				<desc>23</desc>
				<v:textBlock v:margins="rect(0,0,0,0)"/>
				<v:textRect cx="27.1869" cy="162.5" width="54.38" height="0"/>
				<path d="M0 162.5 L54.37 162.5" class="st5"/>
				<rect v:rectContext="textBkgnd" x="24.4641" y="158.5" width="5.44537" height="8.53116" class="st6"/>
				<text x="24.46" y="164.5" class="st7" v:langID="1033"><v:paragraph v:spLine="-1" v:horizAlign="1"/><v:tabList/>23</text>			</g>
			<g id="shape740-252" v:mID="740" v:groupContext="shape" transform="translate(60.9074,-31.3555) rotate(-59.0363)">
				<title>Tabelle.740</title>
				<desc>24</desc>
				<v:textBlock v:margins="rect(0,0,0,0)"/>
				<v:textRect cx="13.1196" cy="162.5" width="26.24" height="0"/>
				<path d="M0 162.5 L26.24 162.5" class="st5"/>
				<rect v:rectContext="textBkgnd" x="10.3618" y="158.5" width="5.51569" height="8.53116" class="st6"/>
				<text x="10.36" y="164.5" class="st7" v:langID="1033"><v:paragraph v:spLine="-1" v:horizAlign="1"/><v:tabList/>24</text>			</g>
			<g id="shape741-257" v:mID="741" v:groupContext="shape" transform="translate(225,-148.5)">
				<title>Circle.741</title>
				<desc>3</desc>
				<v:userDefs>
					<v:ud v:nameU="visVersion" v:val="VT0(15):26"/>
				</v:userDefs>
				<v:textBlock v:margins="rect(0,0,0,0)"/>
				<v:textRect cx="6.75" cy="155.75" width="11.82" height="10.125"/>
				<path d="M0 155.75 A6.75 6.75 0 0 1 13.5 155.75 A6.75 6.75 0 1 1 0 155.75 Z" class="st8"/>
				<text x="5.17" y="158.25" class="st9" v:langID="1033"><v:paragraph v:spLine="-1" v:horizAlign="1"/><v:tabList/>3</text>			</g>
			<g id="shape742-260" v:mID="742" v:groupContext="shape" transform="translate(243,-126)">
				<title>Circle.742</title>
				<desc>17</desc>
				<v:userDefs>
					<v:ud v:nameU="visVersion" v:val="VT0(15):26"/>
				</v:userDefs>
				<v:textBlock v:margins="rect(0,0,0,0)"/>
				<v:textRect cx="6.75" cy="155.75" width="11.82" height="10.125"/>
				<path d="M0 155.75 A6.75 6.75 0 0 1 13.5 155.75 A6.75 6.75 0 1 1 0 155.75 Z" class="st8"/>
				<text x="3.72" y="158.25" class="st9" v:langID="1033"><v:paragraph v:spLine="-1" v:horizAlign="1"/><v:tabList/>17</text>			</g>
			<g id="shape743-263" v:mID="743" v:groupContext="shape" transform="translate(207,-126)">
				<title>Circle.743</title>
				<desc>18</desc>
				<v:userDefs>
					<v:ud v:nameU="visVersion" v:val="VT0(15):26"/>
				</v:userDefs>
				<v:textBlock v:margins="rect(0,0,0,0)"/>
				<v:textRect cx="6.75" cy="155.75" width="11.82" height="10.125"/>
				<path d="M0 155.75 A6.75 6.75 0 0 1 13.5 155.75 A6.75 6.75 0 1 1 0 155.75 Z" class="st8"/>
				<text x="3.64" y="158.25" class="st9" v:langID="1033"><v:paragraph v:spLine="-1" v:horizAlign="1"/><v:tabList/>18</text>			</g>
			<g id="shape744-266" v:mID="744" v:groupContext="shape" transform="translate(193.5,-103.5)">
				<title>Circle.744</title>
				<desc>16</desc>
				<v:userDefs>
					<v:ud v:nameU="visVersion" v:val="VT0(15):26"/>
				</v:userDefs>
				<v:textBlock v:margins="rect(0,0,0,0)"/>
				<v:textRect cx="6.75" cy="155.75" width="11.82" height="10.125"/>
				<path d="M0 155.75 A6.75 6.75 0 0 1 13.5 155.75 A6.75 6.75 0 1 1 0 155.75 Z" class="st8"/>
				<text x="3.62" y="158.25" class="st9" v:langID="1033"><v:paragraph v:spLine="-1" v:horizAlign="1"/><v:tabList/>16</text>			</g>
			<g id="shape745-269" v:mID="745" v:groupContext="shape" transform="translate(256.5,-103.5)">
				<title>Circle.745</title>
				<desc>15</desc>
				<v:userDefs>
					<v:ud v:nameU="visVersion" v:val="VT0(15):26"/>
				</v:userDefs>
				<v:textBlock v:margins="rect(0,0,0,0)"/>
				<v:textRect cx="6.75" cy="155.75" width="11.82" height="10.125"/>
				<path d="M0 155.75 A6.75 6.75 0 0 1 13.5 155.75 A6.75 6.75 0 1 1 0 155.75 Z" class="st8"/>
				<text x="3.76" y="158.25" class="st9" v:langID="1033"><v:paragraph v:spLine="-1" v:horizAlign="1"/><v:tabList/>15</text>			</g>
			<g id="shape698-272" v:mID="698" v:groupContext="shape"
					transform="translate(157.199,131.167) rotate(60.9454) scale(1,-1)">
				<title>Tabelle.698</title>
				<desc>30</desc>
				<v:textBlock v:margins="rect(0,0,0,0)"/>
				<v:textRect cx="23.1652" cy="162.5" width="46.34" height="0"/>
				<path d="M0 162.5 L46.33 162.5" class="st5"/>
				<rect v:rectContext="textBkgnd" x="20.5109" y="157.969" width="5.30859" height="8.53116" class="st6"/>
				<text x="20.51" y="-160.5" transform="scale(1,-1)" class="st7" v:langID="1033"><v:paragraph v:spLine="-1"
							v:horizAlign="1"/><v:tabList/>30</text>			</g>
			<g id="shape707-277" v:mID="707" v:groupContext="shape" transform="translate(306,-103.5) scale(-1,1)">
				<title>Circle.637</title>
				<desc>19</desc>
				<v:userDefs>
					<v:ud v:nameU="visVersion" v:val="VT0(15):26"/>
				</v:userDefs>
				<v:textBlock v:margins="rect(0,0,0,0)"/>
				<v:textRect cx="6.75" cy="155.75" width="11.82" height="10.125"/>
				<path d="M0 155.75 A6.75 6.75 0 0 1 13.5 155.75 A6.75 6.75 0 1 1 0 155.75 Z" class="st8"/>
				<text x="-9.8" y="158.25" transform="scale(-1,1)" class="st9" v:langID="1033"><v:paragraph v:spLine="-1"
							v:horizAlign="1"/><v:tabList/>19</text>			</g>
			<g id="shape711-280" v:mID="711" v:groupContext="shape" transform="translate(328.5,-63) scale(-1,1)">
				<title>Circle.641</title>
				<desc>23</desc>
				<v:userDefs>
					<v:ud v:nameU="visVersion" v:val="VT0(15):26"/>
				</v:userDefs>
				<v:textBlock v:margins="rect(0,0,0,0)"/>
				<v:textRect cx="6.75" cy="155.75" width="11.82" height="10.125"/>
				<path d="M0 155.75 A6.75 6.75 0 0 1 13.5 155.75 A6.75 6.75 0 1 1 0 155.75 Z" class="st8"/>
				<text x="-10.15" y="158.25" transform="scale(-1,1)" class="st9" v:langID="1033"><v:paragraph v:spLine="-1"
							v:horizAlign="1"/><v:tabList/>23</text>			</g>
		</g>
	</g>
</svg>
