<?xml version="1.0" encoding="UTF-8" standalone="no"?>
<!DOCTYPE svg PUBLIC "-//W3C//DTD SVG 1.1//EN" "http://www.w3.org/Graphics/SVG/1.1/DTD/svg11.dtd">
<!-- Generated by Microsoft Visio, SVG Export lp.svg Page-1 -->
<svg xmlns="http://www.w3.org/2000/svg" xmlns:xlink="http://www.w3.org/1999/xlink" xmlns:ev="http://www.w3.org/2001/xml-events"
		xmlns:v="http://schemas.microsoft.com/visio/2003/SVGExtensions/" width="2.31944in" height="0.944445in" viewBox="0 0 167 68"
		xml:space="preserve" color-interpolation-filters="sRGB" class="st6">
	<v:documentProperties v:langID="1033" v:viewMarkup="false"/>

	<style type="text/css">
	<![CDATA[
		.st1 {stroke:#000000;stroke-linecap:round;stroke-linejoin:round;stroke-width:1}
		.st2 {fill:#ffffff;stroke:none;stroke-linecap:butt;stroke-width:7.2}
		.st3 {fill:#000000;font-family:Microsoft Uighur;font-size:0.833336em}
		.st4 {fill:#000000;stroke:none;stroke-width:0.25}
		.st5 {fill:#ffffff;font-family:Microsoft Uighur;font-size:0.833336em}
		.st6 {fill:none;fill-rule:evenodd;font-size:12px;overflow:visible;stroke-linecap:square;stroke-miterlimit:3}
	]]>
	</style>

	<g v:mID="0" v:index="1" v:groupContext="foregroundPage">
		<title>Page-1</title>
		<v:pageProperties v:drawingScale="1" v:pageScale="1" v:drawingUnits="0" v:shadowOffsetX="9" v:shadowOffsetY="-9"/>
		<g id="group13-1" transform="translate(0.25,-0.25)" v:mID="13" v:groupContext="group">
			<title>Sheet.13</title>
			<g id="shape6-2" v:mID="6" v:groupContext="shape" transform="translate(47.25,-60.75)">
				<title>Sheet.6</title>
				<desc>4</desc>
				<v:textBlock v:margins="rect(0,0,0,0)"/>
				<v:textRect cx="20.25" cy="68" width="40.51" height="0"/>
				<path d="M0 68 L40.5 68" class="st1"/>
				<rect v:rectContext="textBkgnd" x="18.629" y="62.9999" width="3.24207" height="10.6642" class="st2"/>
				<text x="18.63" y="70.5" class="st3" v:langID="1033"><v:paragraph v:spLine="-1" v:horizAlign="1"/><v:tabList/>4</text>			</g>
			<g id="shape7-7" v:mID="7" v:groupContext="shape" transform="translate(6.75,-42.75)">
				<title>Sheet.7</title>
				<desc>2</desc>
				<v:textBlock v:margins="rect(0,0,0,0)"/>
				<v:textRect cx="60.75" cy="68" width="121.5" height="0"/>
				<path d="M0 68 L121.5 68" class="st1"/>
				<rect v:rectContext="textBkgnd" x="58.9238" y="62.9999" width="3.6524" height="10.6642" class="st2"/>
				<text x="58.92" y="70.5" class="st3" v:langID="1033"><v:paragraph v:spLine="-1" v:horizAlign="1"/><v:tabList/>2</text>			</g>
			<g id="shape8-12" v:mID="8" v:groupContext="shape" transform="translate(22.3247,-40.9424) rotate(13.2405)">
				<title>Sheet.8</title>
				<desc>3</desc>
				<v:textBlock v:margins="rect(0,0,0,0)"/>
				<v:textRect cx="78.5891" cy="68" width="157.18" height="0"/>
				<path d="M0 68 L157.18 68" class="st1"/>
				<rect v:rectContext="textBkgnd" x="77.012" y="62.9999" width="3.15417" height="10.6642" class="st2"/>
				<text x="77.01" y="70.5" class="st3" v:langID="1033"><v:paragraph v:spLine="-1" v:horizAlign="1"/><v:tabList/>3</text>			</g>
			<g id="shape9-17" v:mID="9" v:groupContext="shape" transform="translate(115.367,-54.8892) rotate(23.9625)">
				<title>Sheet.9</title>
				<desc>5</desc>
				<v:textBlock v:margins="rect(0,0,0,0)"/>
				<v:textRect cx="22.1599" cy="68" width="44.32" height="0"/>
				<path d="M0 68 L44.32 68" class="st1"/>
				<rect v:rectContext="textBkgnd" x="20.6071" y="62.9999" width="3.10556" height="10.6642" class="st2"/>
				<text x="20.61" y="70.5" class="st3" v:langID="1033"><v:paragraph v:spLine="-1" v:horizAlign="1"/><v:tabList/>5</text>			</g>
			<g id="shape3-22" v:mID="3" v:groupContext="shape" transform="translate(81,-54)">
				<title>Circle.3</title>
				<desc>3</desc>
				<v:userDefs>
					<v:ud v:nameU="visVersion" v:val="VT0(15):26"/>
				</v:userDefs>
				<v:textBlock v:margins="rect(0,0,0,0)"/>
				<v:textRect cx="6.75" cy="61.25" width="11.82" height="10.125"/>
				<path d="M0 61.25 A6.75 6.75 0 0 1 13.5 61.25 A6.75 6.75 0 1 1 0 61.25 Z" class="st4"/>
				<text x="5.17" y="63.75" class="st5" v:langID="1033"><v:paragraph v:spLine="-1" v:horizAlign="1"/><v:tabList/>3</text>			</g>
			<g id="shape10-25" v:mID="10" v:groupContext="shape" transform="translate(-20.8674,-36.8892) rotate(-23.9625)">
				<title>Sheet.10</title>
				<desc>1</desc>
				<v:textBlock v:margins="rect(0,0,0,0)"/>
				<v:textRect cx="22.1599" cy="68" width="44.32" height="0"/>
				<path d="M0 68 L44.32 68" class="st1"/>
				<rect v:rectContext="textBkgnd" x="20.7219" y="62.9999" width="2.87595" height="10.6642" class="st2"/>
				<text x="20.72" y="70.5" class="st3" v:langID="1033"><v:paragraph v:spLine="-1" v:horizAlign="1"/><v:tabList/>1</text>			</g>
			<g id="shape2-30" v:mID="2" v:groupContext="shape" transform="translate(40.5,-54)">
				<title>Circle.2</title>
				<desc>2</desc>
				<v:userDefs>
					<v:ud v:nameU="visVersion" v:val="VT0(15):26"/>
				</v:userDefs>
				<v:textBlock v:margins="rect(0,0,0,0)"/>
				<v:textRect cx="6.75" cy="61.25" width="11.82" height="10.125"/>
				<path d="M0 61.25 A6.75 6.75 0 0 1 13.5 61.25 A6.75 6.75 0 1 1 0 61.25 Z" class="st4"/>
				<text x="4.92" y="63.75" class="st5" v:langID="1033"><v:paragraph v:spLine="-1" v:horizAlign="1"/><v:tabList/>2</text>			</g>
			<g id="shape1-33" v:mID="1" v:groupContext="shape" transform="translate(0,-36)">
				<title>Circle</title>
				<desc>1</desc>
				<v:userDefs>
					<v:ud v:nameU="visVersion" v:val="VT0(15):26"/>
				</v:userDefs>
				<v:textBlock v:margins="rect(0,0,0,0)"/>
				<v:textRect cx="6.75" cy="61.25" width="11.82" height="10.125"/>
				<path d="M0 61.25 A6.75 6.75 0 0 1 13.5 61.25 A6.75 6.75 0 1 1 0 61.25 Z" class="st4"/>
				<text x="5.31" y="63.75" class="st5" v:langID="1033"><v:paragraph v:spLine="-1" v:horizAlign="1"/><v:tabList/>1</text>			</g>
			<g id="shape11-36" v:mID="11" v:groupContext="shape" transform="translate(179.425,-19.5283) rotate(48.8141)">
				<title>Sheet.11</title>
				<desc>6</desc>
				<v:textBlock v:margins="rect(0,0,0,0)"/>
				<v:textRect cx="23.9178" cy="68" width="47.84" height="0"/>
				<path d="M0 68 L47.84 68" class="st1"/>
				<rect v:rectContext="textBkgnd" x="22.2259" y="62.9999" width="3.38379" height="10.6642" class="st2"/>
				<text x="22.23" y="70.5" class="st3" v:langID="1033"><v:paragraph v:spLine="-1" v:horizAlign="1"/><v:tabList/>6</text>			</g>
			<g id="shape5-41" v:mID="5" v:groupContext="shape" transform="translate(153,-2.84217E-14)">
				<title>Circle.5</title>
				<desc>5</desc>
				<v:userDefs>
					<v:ud v:nameU="visVersion" v:val="VT0(15):26"/>
				</v:userDefs>
				<v:textBlock v:margins="rect(0,0,0,0)"/>
				<v:textRect cx="6.75" cy="61.25" width="11.82" height="10.125"/>
				<path d="M0 61.25 A6.75 6.75 0 0 1 13.5 61.25 A6.75 6.75 0 1 1 0 61.25 Z" class="st4"/>
				<text x="5.2" y="63.75" class="st5" v:langID="1033"><v:paragraph v:spLine="-1" v:horizAlign="1"/><v:tabList/>5</text>			</g>
			<g id="shape4-44" v:mID="4" v:groupContext="shape" transform="translate(121.5,-36)">
				<title>Circle.4</title>
				<desc>4</desc>
				<v:userDefs>
					<v:ud v:nameU="visVersion" v:val="VT0(15):26"/>
				</v:userDefs>
				<v:textBlock v:margins="rect(0,0,0,0)"/>
				<v:textRect cx="6.75" cy="61.25" width="11.82" height="10.125"/>
				<path d="M0 61.25 A6.75 6.75 0 0 1 13.5 61.25 A6.75 6.75 0 1 1 0 61.25 Z" class="st4"/>
				<text x="5.13" y="63.75" class="st5" v:langID="1033"><v:paragraph v:spLine="-1" v:horizAlign="1"/><v:tabList/>4</text>			</g>
		</g>
	</g>
</svg>
