<?xml version="1.0" encoding="UTF-8" standalone="no"?>
<!DOCTYPE svg PUBLIC "-//W3C//DTD SVG 1.1//EN" "http://www.w3.org/Graphics/SVG/1.1/DTD/svg11.dtd">
<!-- Generated by Microsoft Visio, SVG Export lp1.svg Page-1 -->
<svg xmlns="http://www.w3.org/2000/svg" xmlns:xlink="http://www.w3.org/1999/xlink" xmlns:ev="http://www.w3.org/2001/xml-events"
		xmlns:v="http://schemas.microsoft.com/visio/2003/SVGExtensions/" width="3.31944in" height="1.29097in"
		viewBox="0 0 239 92.9499" xml:space="preserve" color-interpolation-filters="sRGB" class="st16">
	<v:documentProperties v:langID="1033" v:viewMarkup="false"/>

	<style type="text/css">
	<![CDATA[
		.st1 {stroke:#000000;stroke-linecap:round;stroke-linejoin:round;stroke-width:1}
		.st2 {fill:#ffffff;stroke:none;stroke-linecap:butt;stroke-width:7.2}
		.st3 {fill:#000000;font-family:Microsoft Uighur;font-size:0.833336em}
		.st4 {fill:#000000;stroke:none;stroke-width:0.25}
		.st5 {fill:#ffffff;font-family:Microsoft Uighur;font-size:0.833336em}
		.st6 {marker-end:url(#mrkr5-59);stroke:#000000;stroke-linecap:butt;stroke-width:1}
		.st7 {fill:#000000;fill-opacity:1;stroke:#000000;stroke-opacity:1;stroke-width:0.40983606557377}
		.st8 {fill:none;stroke:none;stroke-width:0.25}
		.st9 {fill:#000000;font-family:Times New Roman;font-size:0.499992em}
		.st10 {stroke:#ffffff;stroke-linecap:butt;stroke-width:1}
		.st11 {fill:none;stroke:#000000;stroke-width:0.25}
		.st12 {marker-end:url(#mrkr5-133);stroke:#0070c0;stroke-linecap:butt;stroke-width:1}
		.st13 {fill:#0070c0;fill-opacity:1;stroke:#0070c0;stroke-opacity:1;stroke-width:0.40983606557377}
		.st14 {baseline-shift:-32.4949%;font-size:0.649897em}
		.st15 {font-size:1em}
		.st16 {fill:none;fill-rule:evenodd;font-size:12px;overflow:visible;stroke-linecap:square;stroke-miterlimit:3}
	]]>
	</style>

	<defs id="Markers">
		<g id="lend5">
			<path d="M 2 1 L 0 0 L 1.98117 -0.993387 C 1.67173 -0.364515 1.67301 0.372641 1.98465 1.00043 " style="stroke:none"/>
		</g>
		<marker id="mrkr5-59" class="st7" v:arrowType="5" v:arrowSize="0" v:setback="4.27" refX="-4.27" orient="auto"
				markerUnits="strokeWidth" overflow="visible">
			<use xlink:href="#lend5" transform="scale(-2.44,-2.44) "/>
		</marker>
		<marker id="mrkr5-133" class="st13" v:arrowType="5" v:arrowSize="0" v:setback="4.27" refX="-4.27" orient="auto"
				markerUnits="strokeWidth" overflow="visible">
			<use xlink:href="#lend5" transform="scale(-2.44,-2.44) "/>
		</marker>
	</defs>
	<g v:mID="0" v:index="1" v:groupContext="foregroundPage">
		<title>Page-1</title>
		<v:pageProperties v:drawingScale="1" v:pageScale="1" v:drawingUnits="0" v:shadowOffsetX="9" v:shadowOffsetY="-9"/>
		<v:layer v:name="Connector" v:index="0"/>
		<g id="group587-1" transform="translate(0.25,-0.25)" v:mID="587" v:groupContext="group">
			<title>Sheet.587</title>
			<g id="shape485-2" v:mID="485" v:groupContext="shape" v:layerMember="0" transform="translate(43.3125,-29.8125)">
				<title>Dynamic connector.485</title>
				<path d="M0.56 87.89 L17.44 80.01" class="st1"/>
			</g>
			<g id="shape284-5" v:mID="284" v:groupContext="shape" v:layerMember="0" transform="translate(43.3125,-55.6875)">
				<title>Dynamic connector</title>
				<path d="M0.56 98.01 L17.44 105.89" class="st1"/>
			</g>
			<g id="group218-8" transform="translate(54,-5.68434E-14)" v:mID="218" v:groupContext="group">
				<title>Sheet.218</title>
				<g id="shape219-9" v:mID="219" v:groupContext="shape" transform="translate(47.25,-60.75)">
					<title>Sheet.219</title>
					<desc>4</desc>
					<v:textBlock v:margins="rect(0,0,0,0)"/>
					<v:textRect cx="20.25" cy="92.9499" width="40.51" height="0"/>
					<path d="M0 92.95 L40.5 92.95" class="st1"/>
					<rect v:rectContext="textBkgnd" x="18.629" y="87.9497" width="3.24207" height="10.6642" class="st2"/>
					<text x="18.63" y="95.45" class="st3" v:langID="1033"><v:paragraph v:spLine="-1" v:horizAlign="1"/><v:tabList/>4</text>				</g>
				<g id="shape220-14" v:mID="220" v:groupContext="shape" transform="translate(6.75,-42.75)">
					<title>Sheet.220</title>
					<desc>2</desc>
					<v:textBlock v:margins="rect(0,0,0,0)"/>
					<v:textRect cx="60.75" cy="92.9499" width="121.5" height="0"/>
					<path d="M0 92.95 L121.5 92.95" class="st1"/>
					<rect v:rectContext="textBkgnd" x="58.9238" y="87.9497" width="3.6524" height="10.6642" class="st2"/>
					<text x="58.92" y="95.45" class="st3" v:langID="1033"><v:paragraph v:spLine="-1" v:horizAlign="1"/><v:tabList/>2</text>				</g>
				<g id="shape221-19" v:mID="221" v:groupContext="shape" transform="translate(28.0392,-40.2791) rotate(13.2405)">
					<title>Sheet.221</title>
					<desc>3</desc>
					<v:textBlock v:margins="rect(0,0,0,0)"/>
					<v:textRect cx="78.5891" cy="92.9499" width="157.18" height="0"/>
					<path d="M0 92.95 L157.18 92.95" class="st1"/>
					<rect v:rectContext="textBkgnd" x="77.012" y="87.9497" width="3.15417" height="10.6642" class="st2"/>
					<text x="77.01" y="95.45" class="st3" v:langID="1033"><v:paragraph v:spLine="-1" v:horizAlign="1"/><v:tabList/>3</text>				</g>
				<g id="shape222-24" v:mID="222" v:groupContext="shape" transform="translate(125.501,-52.7388) rotate(23.9625)">
					<title>Sheet.222</title>
					<desc>5</desc>
					<v:textBlock v:margins="rect(0,0,0,0)"/>
					<v:textRect cx="22.1599" cy="92.9499" width="44.32" height="0"/>
					<path d="M0 92.95 L44.32 92.95" class="st1"/>
					<rect v:rectContext="textBkgnd" x="20.6071" y="87.9497" width="3.10556" height="10.6642" class="st2"/>
					<text x="20.61" y="95.45" class="st3" v:langID="1033"><v:paragraph v:spLine="-1" v:horizAlign="1"/><v:tabList/>5</text>				</g>
				<g id="shape223-29" v:mID="223" v:groupContext="shape" transform="translate(81,-54)">
					<title>Circle.3</title>
					<desc>3</desc>
					<v:userDefs>
						<v:ud v:nameU="visVersion" v:val="VT0(15):26"/>
					</v:userDefs>
					<v:textBlock v:margins="rect(0,0,0,0)"/>
					<v:textRect cx="6.75" cy="86.1999" width="11.82" height="10.125"/>
					<path d="M0 86.2 A6.75 6.75 0 0 1 13.5 86.2 A6.75 6.75 0 1 1 0 86.2 Z" class="st4"/>
					<text x="5.17" y="88.7" class="st5" v:langID="1033"><v:paragraph v:spLine="-1" v:horizAlign="1"/><v:tabList/>3</text>				</g>
				<g id="shape224-32" v:mID="224" v:groupContext="shape" transform="translate(-31.0005,-34.7388) rotate(-23.9625)">
					<title>Sheet.224</title>
					<desc>1</desc>
					<v:textBlock v:margins="rect(0,0,0,0)"/>
					<v:textRect cx="22.1599" cy="92.9499" width="44.32" height="0"/>
					<path d="M0 92.95 L44.32 92.95" class="st1"/>
					<rect v:rectContext="textBkgnd" x="20.7219" y="87.9497" width="2.87595" height="10.6642" class="st2"/>
					<text x="20.72" y="95.45" class="st3" v:langID="1033"><v:paragraph v:spLine="-1" v:horizAlign="1"/><v:tabList/>1</text>				</g>
				<g id="shape225-37" v:mID="225" v:groupContext="shape" transform="translate(40.5,-54)">
					<title>Circle.2</title>
					<desc>2</desc>
					<v:userDefs>
						<v:ud v:nameU="visVersion" v:val="VT0(15):26"/>
					</v:userDefs>
					<v:textBlock v:margins="rect(0,0,0,0)"/>
					<v:textRect cx="6.75" cy="86.1999" width="11.82" height="10.125"/>
					<path d="M0 86.2 A6.75 6.75 0 0 1 13.5 86.2 A6.75 6.75 0 1 1 0 86.2 Z" class="st4"/>
					<text x="4.92" y="88.7" class="st5" v:langID="1033"><v:paragraph v:spLine="-1" v:horizAlign="1"/><v:tabList/>2</text>				</g>
				<g id="shape226-40" v:mID="226" v:groupContext="shape" transform="translate(0,-36)">
					<title>Circle</title>
					<desc>1</desc>
					<v:userDefs>
						<v:ud v:nameU="visVersion" v:val="VT0(15):26"/>
					</v:userDefs>
					<v:textBlock v:margins="rect(0,0,0,0)"/>
					<v:textRect cx="6.75" cy="86.1999" width="11.82" height="10.125"/>
					<path d="M0 86.2 A6.75 6.75 0 0 1 13.5 86.2 A6.75 6.75 0 1 1 0 86.2 Z" class="st4"/>
					<text x="5.31" y="88.7" class="st5" v:langID="1033"><v:paragraph v:spLine="-1" v:horizAlign="1"/><v:tabList/>1</text>				</g>
				<g id="shape227-43" v:mID="227" v:groupContext="shape" transform="translate(198.202,-11.0081) rotate(48.8141)">
					<title>Sheet.227</title>
					<desc>6</desc>
					<v:textBlock v:margins="rect(0,0,0,0)"/>
					<v:textRect cx="23.9178" cy="92.9499" width="47.84" height="0"/>
					<path d="M0 92.95 L47.84 92.95" class="st1"/>
					<rect v:rectContext="textBkgnd" x="22.2259" y="87.9497" width="3.38379" height="10.6642" class="st2"/>
					<text x="22.23" y="95.45" class="st3" v:langID="1033"><v:paragraph v:spLine="-1" v:horizAlign="1"/><v:tabList/>6</text>				</g>
				<g id="shape228-48" v:mID="228" v:groupContext="shape" transform="translate(153,-1.42109E-14)">
					<title>Circle.5</title>
					<desc>5</desc>
					<v:userDefs>
						<v:ud v:nameU="visVersion" v:val="VT0(15):26"/>
					</v:userDefs>
					<v:textBlock v:margins="rect(0,0,0,0)"/>
					<v:textRect cx="6.75" cy="86.1999" width="11.82" height="10.125"/>
					<path d="M0 86.2 A6.75 6.75 0 0 1 13.5 86.2 A6.75 6.75 0 1 1 0 86.2 Z" class="st4"/>
					<text x="5.2" y="88.7" class="st5" v:langID="1033"><v:paragraph v:spLine="-1" v:horizAlign="1"/><v:tabList/>5</text>				</g>
				<g id="shape229-51" v:mID="229" v:groupContext="shape" transform="translate(121.5,-36)">
					<title>Circle.4</title>
					<desc>4</desc>
					<v:userDefs>
						<v:ud v:nameU="visVersion" v:val="VT0(15):26"/>
					</v:userDefs>
					<v:textBlock v:margins="rect(0,0,0,0)"/>
					<v:textRect cx="6.75" cy="86.1999" width="11.82" height="10.125"/>
					<path d="M0 86.2 A6.75 6.75 0 0 1 13.5 86.2 A6.75 6.75 0 1 1 0 86.2 Z" class="st4"/>
					<text x="5.13" y="88.7" class="st5" v:langID="1033"><v:paragraph v:spLine="-1" v:horizAlign="1"/><v:tabList/>4</text>				</g>
			</g>
			<g id="shape259-54" v:mID="259" v:groupContext="shape" transform="translate(275.2,56.9499) rotate(90)">
				<title>Sheet.259</title>
				<path d="M0 92.95 L4.73 92.95" class="st6"/>
			</g>
			<g id="shape260-60" v:mID="260" v:groupContext="shape" transform="translate(194.2,38.9499) rotate(90)">
				<title>Sheet.260</title>
				<path d="M0 92.95 L4.73 92.95" class="st6"/>
			</g>
			<g id="shape261-65" v:mID="261" v:groupContext="shape" transform="translate(234.7,38.9499) rotate(90)">
				<title>Sheet.261</title>
				<path d="M0 92.95 L4.73 92.95" class="st6"/>
			</g>
			<g id="shape268-70" v:mID="268" v:groupContext="shape" transform="translate(164.25,-27)">
				<title>Rectangle</title>
				<desc>4 p.u.</desc>
				<v:userDefs>
					<v:ud v:nameU="visVersion" v:val="VT0(15):26"/>
				</v:userDefs>
				<v:textBlock v:margins="rect(0,0,0,0)"/>
				<v:textRect cx="8.99999" cy="90.6999" width="18" height="4.5"/>
				<rect x="0" y="88.4499" width="18" height="4.5" class="st8"/>
				<text x="2.25" y="92.5" class="st9" v:langID="1033"><v:paragraph v:horizAlign="1"/><v:tabList/>4 p.u.</text>			</g>
			<g id="shape269-73" v:mID="269" v:groupContext="shape" transform="translate(123.75,-45)">
				<title>Rectangle.269</title>
				<desc>3 p.u.</desc>
				<v:userDefs>
					<v:ud v:nameU="visVersion" v:val="VT0(15):26"/>
				</v:userDefs>
				<v:textBlock v:margins="rect(0,0,0,0)"/>
				<v:textRect cx="8.99999" cy="90.6999" width="18" height="4.5"/>
				<rect x="0" y="88.4499" width="18" height="4.5" class="st8"/>
				<text x="2.25" y="92.5" class="st9" v:langID="1033"><v:paragraph v:horizAlign="1"/><v:tabList/>3 p.u.</text>			</g>
			<g id="shape270-76" v:mID="270" v:groupContext="shape" transform="translate(83.25,-45)">
				<title>Rectangle.270</title>
				<desc>3 p.u.</desc>
				<v:userDefs>
					<v:ud v:nameU="visVersion" v:val="VT0(15):26"/>
				</v:userDefs>
				<v:textBlock v:margins="rect(0,0,0,0)"/>
				<v:textRect cx="8.99999" cy="90.6999" width="18" height="4.5"/>
				<rect x="0" y="88.4499" width="18" height="4.5" class="st8"/>
				<text x="2.25" y="92.5" class="st9" v:langID="1033"><v:paragraph v:horizAlign="1"/><v:tabList/>3 p.u.</text>			</g>
			<g id="shape277-79" v:mID="277" v:groupContext="shape" transform="translate(38.25,-45)">
				<title>Circle.277</title>
				<v:userDefs>
					<v:ud v:nameU="visVersion" v:val="VT0(15):26"/>
				</v:userDefs>
				<path d="M0 87.32 A5.62501 5.62501 0 0 1 11.25 87.32 A5.62501 5.62501 0 1 1 0 87.32 Z" class="st4"/>
			</g>
			<g id="shape280-81" v:mID="280" v:groupContext="shape" transform="translate(40.5,-48.967)">
				<title>Sheet.280</title>
				<path d="M0 91.29 C0.84 89.95 1.4 89.45 1.92 89.63 C2.48 89.81 3 90.79 3.62 91.69 C4.04 92.32 4.51 92.91 5 92.95
							 C5.65 93 6.33 92.12 6.75 91.29" class="st10"/>
			</g>
			<g id="shape282-84" v:mID="282" v:groupContext="shape" transform="translate(38.25,-29.25)">
				<title>Circle.282</title>
				<v:userDefs>
					<v:ud v:nameU="visVersion" v:val="VT0(15):26"/>
				</v:userDefs>
				<path d="M0 87.32 A5.62501 5.62501 0 0 1 11.25 87.32 A5.62501 5.62501 0 1 1 0 87.32 Z" class="st4"/>
			</g>
			<g id="shape283-86" v:mID="283" v:groupContext="shape" transform="translate(40.5,-33.217)">
				<title>Sheet.283</title>
				<path d="M0 91.29 C0.84 89.95 1.4 89.45 1.92 89.63 C2.48 89.81 3 90.79 3.62 91.69 C4.04 92.32 4.51 92.91 5 92.95
							 C5.65 93 6.33 92.12 6.75 91.29" class="st10"/>
			</g>
			<g id="shape490-89" v:mID="490" v:groupContext="shape" transform="translate(136.125,-76.5)">
				<title>Circle.490</title>
				<v:userDefs>
					<v:ud v:nameU="visVersion" v:val="VT0(15):26"/>
				</v:userDefs>
				<path d="M0 87.32 A5.62501 5.62501 0 0 1 11.25 87.32 A5.62501 5.62501 0 1 1 0 87.32 Z" class="st4"/>
			</g>
			<g id="shape492-91" v:mID="492" v:groupContext="shape" transform="translate(138.375,-80.4669)">
				<title>Sheet.492</title>
				<path d="M0 91.29 C0.84 89.95 1.4 89.45 1.92 89.63 C2.48 89.81 3 90.79 3.62 91.69 C4.04 92.32 4.51 92.91 5 92.95
							 C5.65 93 6.33 92.12 6.75 91.29" class="st10"/>
			</g>
			<g id="shape493-94" v:mID="493" v:groupContext="shape" v:layerMember="0" transform="translate(150.75,-81)">
				<title>Dynamic connector.493</title>
				<path d="M-9 97.45 L-9 106.45" class="st1"/>
			</g>
			<g id="shape494-97" v:mID="494" v:groupContext="shape" transform="translate(208.125,-22.5)">
				<title>Circle.494</title>
				<v:userDefs>
					<v:ud v:nameU="visVersion" v:val="VT0(15):26"/>
				</v:userDefs>
				<path d="M0 87.32 A5.62501 5.62501 0 0 1 11.25 87.32 A5.62501 5.62501 0 1 1 0 87.32 Z" class="st4"/>
			</g>
			<g id="shape496-99" v:mID="496" v:groupContext="shape" v:layerMember="0" transform="translate(222.75,-27)">
				<title>Dynamic connector.496</title>
				<path d="M-9 97.45 L-9 106.45" class="st1"/>
			</g>
			<g id="shape497-102" v:mID="497" v:groupContext="shape" transform="translate(210.375,-26.467)">
				<title>Sheet.497</title>
				<path d="M0 91.29 C0.84 89.95 1.4 89.45 1.92 89.63 C2.48 89.81 3 90.79 3.62 91.69 C4.04 92.32 4.51 92.91 5 92.95
							 C5.65 93 6.33 92.12 6.75 91.29" class="st10"/>
			</g>
			<g id="shape498-105" v:mID="498" v:groupContext="shape" transform="translate(176.625,-58.5)">
				<title>Circle.498</title>
				<v:userDefs>
					<v:ud v:nameU="visVersion" v:val="VT0(15):26"/>
				</v:userDefs>
				<path d="M0 87.32 A5.62501 5.62501 0 0 1 11.25 87.32 A5.62501 5.62501 0 1 1 0 87.32 Z" class="st4"/>
			</g>
			<g id="shape499-107" v:mID="499" v:groupContext="shape" v:layerMember="0" transform="translate(191.25,-63)">
				<title>Dynamic connector.499</title>
				<path d="M-9 97.45 L-9 106.45" class="st1"/>
			</g>
			<g id="shape500-110" v:mID="500" v:groupContext="shape" transform="translate(178.875,-62.467)">
				<title>Sheet.500</title>
				<path d="M0 91.29 C0.84 89.95 1.4 89.45 1.92 89.63 C2.48 89.81 3 90.79 3.62 91.69 C4.04 92.32 4.51 92.91 5 92.95
							 C5.65 93 6.33 92.12 6.75 91.29" class="st10"/>
			</g>
			<g id="shape508-113" v:mID="508" v:groupContext="shape" transform="translate(0,-47.25)">
				<title>Rectangle.508</title>
				<desc>1, 14, 0.4/0.4</desc>
				<v:userDefs>
					<v:ud v:nameU="visVersion" v:val="VT0(15):26"/>
				</v:userDefs>
				<v:textBlock v:margins="rect(0,0,0,0)"/>
				<v:textRect cx="18" cy="89.5749" width="36" height="6.74999"/>
				<rect x="0" y="86.1999" width="36" height="6.74999" class="st11"/>
				<text x="2.17" y="91.37" class="st9" v:langID="1033"><v:paragraph v:horizAlign="1"/><v:tabList/>1, 14, 0.4/0.4</text>			</g>
			<g id="shape511-116" v:mID="511" v:groupContext="shape" transform="translate(0,-31.5)">
				<title>Rectangle.511</title>
				<desc>2, 15, 1.7/1.7</desc>
				<v:userDefs>
					<v:ud v:nameU="visVersion" v:val="VT0(15):26"/>
				</v:userDefs>
				<v:textBlock v:margins="rect(0,0,0,0)"/>
				<v:textRect cx="18" cy="89.5749" width="36" height="6.74999"/>
				<rect x="0" y="86.1999" width="36" height="6.74999" class="st11"/>
				<text x="2.17" y="91.37" class="st9" v:langID="1033"><v:paragraph v:horizAlign="1"/><v:tabList/>2, 15, 1.7/1.7</text>			</g>
			<g id="shape512-119" v:mID="512" v:groupContext="shape" transform="translate(99,-78.75)">
				<title>Rectangle.512</title>
				<desc>3, 30, 3.2/5.2</desc>
				<v:userDefs>
					<v:ud v:nameU="visVersion" v:val="VT0(15):26"/>
				</v:userDefs>
				<v:textBlock v:margins="rect(0,0,0,0)"/>
				<v:textRect cx="18" cy="89.5749" width="36" height="6.74999"/>
				<rect x="0" y="86.1999" width="36" height="6.74999" class="st11"/>
				<text x="2.17" y="91.37" class="st9" v:langID="1033"><v:paragraph v:horizAlign="1"/><v:tabList/>3, 30, 3.2/5.2</text>			</g>
			<g id="shape513-122" v:mID="513" v:groupContext="shape" transform="translate(151.875,-72)">
				<title>Rectangle.513</title>
				<desc>4, 40, 0/2.0</desc>
				<v:userDefs>
					<v:ud v:nameU="visVersion" v:val="VT0(15):26"/>
				</v:userDefs>
				<v:textBlock v:margins="rect(0,0,0,0)"/>
				<v:textRect cx="18" cy="89.5749" width="36" height="6.74999"/>
				<rect x="0" y="86.1999" width="36" height="6.74999" class="st11"/>
				<text x="4.42" y="91.37" class="st9" v:langID="1033"><v:paragraph v:horizAlign="1"/><v:tabList/>4, 40, 0/2.0</text>			</g>
			<g id="shape514-125" v:mID="514" v:groupContext="shape" transform="translate(124.175,56.9498) rotate(-90)">
				<title>Rectangle.514</title>
				<desc>5, 10, 4.6/6.0</desc>
				<v:userDefs>
					<v:ud v:nameU="visVersion" v:val="VT0(15):26"/>
				</v:userDefs>
				<v:textBlock v:margins="rect(0,0,0,0)"/>
				<v:textRect cx="18" cy="89.5749" width="36" height="6.74999"/>
				<rect x="0" y="86.1999" width="36" height="6.74999" class="st11"/>
				<text x="2.17" y="91.37" class="st9" v:langID="1033"><v:paragraph v:horizAlign="1"/><v:tabList/>5, 10, 4.6/6.0</text>			</g>
			<g id="shape555-128" v:mID="555" v:groupContext="shape" transform="translate(50.3961,-46.9151) rotate(-23.9625)">
				<title>Sheet.555</title>
				<path d="M0 92.95 L4.41 92.95" class="st12"/>
			</g>
			<g id="shape556-134" v:mID="556" v:groupContext="shape" transform="translate(167.625,-42.75)">
				<title>Sheet.556</title>
				<path d="M0 92.95 L4.73 92.95" class="st12"/>
			</g>
			<g id="shape557-139" v:mID="557" v:groupContext="shape" transform="translate(121.35,121.753) rotate(-131.186)">
				<title>Sheet.557</title>
				<path d="M0 92.95 L3.68 92.95" class="st12"/>
			</g>
			<g id="shape558-144" v:mID="558" v:groupContext="shape" transform="translate(53.1723,143.905) rotate(-166.759)">
				<title>Sheet.558</title>
				<path d="M0 92.95 L4.11 92.95" class="st12"/>
			</g>
			<g id="shape559-149" v:mID="559" v:groupContext="shape" transform="translate(116.804,122.829) rotate(-156.037)">
				<title>Sheet.559</title>
				<path d="M0 92.95 L4.19 92.95" class="st12"/>
			</g>
			<g id="shape560-154" v:mID="560" v:groupContext="shape" transform="translate(115.575,125.15) rotate(180)">
				<title>Sheet.560</title>
				<path d="M0 92.95 L4.43 92.95" class="st12"/>
			</g>
			<g id="shape561-159" v:mID="561" v:groupContext="shape" transform="translate(99,-85.5)">
				<title>Rectangle.561</title>
				<desc>g, cg, pg</desc>
				<v:userDefs>
					<v:ud v:nameU="visVersion" v:val="VT0(15):26"/>
				</v:userDefs>
				<v:textBlock v:margins="rect(0,0,0,0)" v:verticalAlign="2"/>
				<v:textRect cx="18" cy="89.5749" width="36" height="6.74999"/>
				<rect x="0" y="86.1999" width="36" height="6.74999" class="st11"/>
				<text x="8.72" y="91.15" class="st9" v:langID="1033"><v:paragraph v:horizAlign="1"/><v:tabList/>g, c<tspan
							dy="-0.279em" class="st14" v:baseFontSize="6">g</tspan><tspan dy="0.181em" class="st15">, p</tspan><tspan
							dy="-0.279em" class="st14" v:baseFontSize="6">g</tspan></text>			</g>
			<g id="shape562-165" v:mID="562" v:groupContext="shape" transform="translate(151.875,-78.75)">
				<title>Rectangle.562</title>
				<desc>g, cg, pg</desc>
				<v:userDefs>
					<v:ud v:nameU="visVersion" v:val="VT0(15):26"/>
				</v:userDefs>
				<v:textBlock v:margins="rect(0,0,0,0)" v:verticalAlign="2"/>
				<v:textRect cx="18" cy="89.5749" width="36" height="6.74999"/>
				<rect x="0" y="86.1999" width="36" height="6.74999" class="st11"/>
				<text x="8.72" y="91.15" class="st9" v:langID="1033"><v:paragraph v:horizAlign="1"/><v:tabList/>g, c<tspan
							dy="-0.279em" class="st14" v:baseFontSize="6">g</tspan><tspan dy="0.181em" class="st15">, p</tspan><tspan
							dy="-0.279em" class="st14" v:baseFontSize="6">g</tspan></text>			</g>
			<g id="shape563-171" v:mID="563" v:groupContext="shape" transform="translate(0,-54)">
				<title>Rectangle.563</title>
				<desc>g, cg, pg</desc>
				<v:userDefs>
					<v:ud v:nameU="visVersion" v:val="VT0(15):26"/>
				</v:userDefs>
				<v:textBlock v:margins="rect(0,0,0,0)" v:verticalAlign="2"/>
				<v:textRect cx="18" cy="89.5749" width="36" height="6.74999"/>
				<rect x="0" y="86.1999" width="36" height="6.74999" class="st11"/>
				<text x="8.72" y="91.15" class="st9" v:langID="1033"><v:paragraph v:horizAlign="1"/><v:tabList/>g, c<tspan
							dy="-0.279em" class="st14" v:baseFontSize="6">g</tspan><tspan dy="0.181em" class="st15">, p</tspan><tspan
							dy="-0.279em" class="st14" v:baseFontSize="6">g</tspan></text>			</g>
			<g id="shape564-177" v:mID="564" v:groupContext="shape" transform="translate(0,-38.25)">
				<title>Rectangle.564</title>
				<desc>g, cg, pg</desc>
				<v:userDefs>
					<v:ud v:nameU="visVersion" v:val="VT0(15):26"/>
				</v:userDefs>
				<v:textBlock v:margins="rect(0,0,0,0)" v:verticalAlign="2"/>
				<v:textRect cx="18" cy="89.5749" width="36" height="6.74999"/>
				<rect x="0" y="86.1999" width="36" height="6.74999" class="st11"/>
				<text x="8.72" y="91.15" class="st9" v:langID="1033"><v:paragraph v:horizAlign="1"/><v:tabList/>g, c<tspan
							dy="-0.279em" class="st14" v:baseFontSize="6">g</tspan><tspan dy="0.181em" class="st15">, p</tspan><tspan
							dy="-0.279em" class="st14" v:baseFontSize="6">g</tspan></text>			</g>
			<g id="shape565-183" v:mID="565" v:groupContext="shape" transform="translate(117.425,56.9498) rotate(-90)">
				<title>Rectangle.565</title>
				<desc>g, cg, pg</desc>
				<v:userDefs>
					<v:ud v:nameU="visVersion" v:val="VT0(15):26"/>
				</v:userDefs>
				<v:textBlock v:margins="rect(0,0,0,0)" v:verticalAlign="2"/>
				<v:textRect cx="18" cy="89.5749" width="36" height="6.74999"/>
				<rect x="0" y="86.1999" width="36" height="6.74999" class="st11"/>
				<text x="8.72" y="91.15" class="st9" v:langID="1033"><v:paragraph v:horizAlign="1"/><v:tabList/>g, c<tspan
							dy="-0.279em" class="st14" v:baseFontSize="6">g</tspan><tspan dy="0.181em" class="st15">, p</tspan><tspan
							dy="-0.279em" class="st14" v:baseFontSize="6">g</tspan></text>			</g>
		</g>
	</g>
</svg>
