<?xml version="1.0" encoding="UTF-8" standalone="no"?>
<!DOCTYPE svg PUBLIC "-//W3C//DTD SVG 1.1//EN" "http://www.w3.org/Graphics/SVG/1.1/DTD/svg11.dtd">
<!-- Generated by Microsoft Visio, SVG Export otsb1.svg Page-1 -->
<svg xmlns="http://www.w3.org/2000/svg" xmlns:xlink="http://www.w3.org/1999/xlink" xmlns:ev="http://www.w3.org/2001/xml-events"
		xmlns:v="http://schemas.microsoft.com/visio/2003/SVGExtensions/" width="3.31944in" height="1.29097in"
		viewBox="0 0 239 92.9499" xml:space="preserve" color-interpolation-filters="sRGB" class="st19">
	<v:documentProperties v:langID="1033" v:viewMarkup="false"/>

	<style type="text/css">
	<![CDATA[
		.st1 {stroke:#000000;stroke-linecap:round;stroke-linejoin:round;stroke-width:1}
		.st2 {fill:#000000;stroke:none;stroke-width:0.25}
		.st3 {stroke:#ffffff;stroke-linecap:butt;stroke-width:1}
		.st4 {fill:none;stroke:#000000;stroke-width:0.25}
		.st5 {fill:#000000;font-family:Times New Roman;font-size:0.499992em}
		.st6 {fill:#ffffff;stroke:none;stroke-linecap:butt;stroke-width:7.2}
		.st7 {fill:#000000;font-family:Microsoft Uighur;font-size:0.833336em}
		.st8 {fill:#ffffff;stroke:none;stroke-linecap:butt}
		.st9 {fill:#ffffff;font-family:Microsoft Uighur;font-size:0.833336em}
		.st10 {fill:#7030a0;stroke:none;stroke-width:0.25}
		.st11 {fill:#00b050;stroke:none;stroke-width:0.25}
		.st12 {marker-end:url(#mrkr5-91);stroke:#000000;stroke-linecap:butt;stroke-width:1}
		.st13 {fill:#000000;fill-opacity:1;stroke:#000000;stroke-opacity:1;stroke-width:0.40983606557377}
		.st14 {fill:none;stroke:none;stroke-width:0.25}
		.st15 {marker-end:url(#mrkr5-138);stroke:#0070c0;stroke-linecap:butt;stroke-width:1}
		.st16 {fill:#0070c0;fill-opacity:1;stroke:#0070c0;stroke-opacity:1;stroke-width:0.40983606557377}
		.st17 {baseline-shift:-32.4949%;font-size:0.649897em}
		.st18 {font-size:1em}
		.st19 {fill:none;fill-rule:evenodd;font-size:12px;overflow:visible;stroke-linecap:square;stroke-miterlimit:3}
	]]>
	</style>

	<defs id="Markers">
		<g id="lend5">
			<path d="M 2 1 L 0 0 L 1.98117 -0.993387 C 1.67173 -0.364515 1.67301 0.372641 1.98465 1.00043 " style="stroke:none"/>
		</g>
		<marker id="mrkr5-91" class="st13" v:arrowType="5" v:arrowSize="0" v:setback="4.27" refX="-4.27" orient="auto"
				markerUnits="strokeWidth" overflow="visible">
			<use xlink:href="#lend5" transform="scale(-2.44,-2.44) "/>
		</marker>
		<marker id="mrkr5-138" class="st16" v:arrowType="5" v:arrowSize="0" v:setback="4.27" refX="-4.27" orient="auto"
				markerUnits="strokeWidth" overflow="visible">
			<use xlink:href="#lend5" transform="scale(-2.44,-2.44) "/>
		</marker>
	</defs>
	<g v:mID="0" v:index="1" v:groupContext="foregroundPage">
		<title>Page-1</title>
		<v:pageProperties v:drawingScale="1" v:pageScale="1" v:drawingUnits="0" v:shadowOffsetX="9" v:shadowOffsetY="-9"/>
		<v:layer v:name="Connector" v:index="0"/>
		<g id="group589-1" transform="translate(0.25,-0.25)" v:mID="589" v:groupContext="group">
			<title>Sheet.589</title>
			<g id="shape547-2" v:mID="547" v:groupContext="shape" v:layerMember="0" transform="translate(43.3125,-29.8125)">
				<title>Dynamic connector.547</title>
				<path d="M0.56 87.89 L17.44 80.01" class="st1"/>
			</g>
			<g id="shape548-5" v:mID="548" v:groupContext="shape" v:layerMember="0" transform="translate(43.3125,-55.6875)">
				<title>Dynamic connector.548</title>
				<path d="M0.56 98.01 L17.44 105.89" class="st1"/>
			</g>
			<g id="shape549-8" v:mID="549" v:groupContext="shape" transform="translate(38.25,-45)">
				<title>Circle.549</title>
				<v:userDefs>
					<v:ud v:nameU="visVersion" v:val="VT0(15):26"/>
				</v:userDefs>
				<path d="M0 87.32 A5.62501 5.62501 0 0 1 11.25 87.32 A5.62501 5.62501 0 1 1 0 87.32 Z" class="st2"/>
			</g>
			<g id="shape550-10" v:mID="550" v:groupContext="shape" transform="translate(40.5,-48.967)">
				<title>Sheet.550</title>
				<path d="M0 91.29 C0.84 89.95 1.4 89.45 1.92 89.63 C2.48 89.81 3 90.79 3.62 91.69 C4.04 92.32 4.51 92.91 5 92.95
							 C5.65 93 6.33 92.12 6.75 91.29" class="st3"/>
			</g>
			<g id="shape551-13" v:mID="551" v:groupContext="shape" transform="translate(38.25,-29.25)">
				<title>Circle.551</title>
				<v:userDefs>
					<v:ud v:nameU="visVersion" v:val="VT0(15):26"/>
				</v:userDefs>
				<path d="M0 87.32 A5.62501 5.62501 0 0 1 11.25 87.32 A5.62501 5.62501 0 1 1 0 87.32 Z" class="st2"/>
			</g>
			<g id="shape552-15" v:mID="552" v:groupContext="shape" transform="translate(40.5,-33.2169)">
				<title>Sheet.552</title>
				<path d="M0 91.29 C0.84 89.95 1.4 89.45 1.92 89.63 C2.48 89.81 3 90.79 3.62 91.69 C4.04 92.32 4.51 92.91 5 92.95
							 C5.65 93 6.33 92.12 6.75 91.29" class="st3"/>
			</g>
			<g id="shape553-18" v:mID="553" v:groupContext="shape" transform="translate(0,-47.25)">
				<title>Rectangle.553</title>
				<desc>1, 14, 0.4/0.4</desc>
				<v:userDefs>
					<v:ud v:nameU="visVersion" v:val="VT0(15):26"/>
				</v:userDefs>
				<v:textBlock v:margins="rect(0,0,0,0)"/>
				<v:textRect cx="18" cy="89.5749" width="36" height="6.74999"/>
				<rect x="0" y="86.1999" width="36" height="6.74999" class="st4"/>
				<text x="2.17" y="91.38" class="st5" v:langID="1033"><v:paragraph v:horizAlign="1"/><v:tabList/>1, 14, 0.4/0.4</text>			</g>
			<g id="shape554-21" v:mID="554" v:groupContext="shape" transform="translate(0,-31.5)">
				<title>Rectangle.554</title>
				<desc>2, 15, 1.7/1.7</desc>
				<v:userDefs>
					<v:ud v:nameU="visVersion" v:val="VT0(15):26"/>
				</v:userDefs>
				<v:textBlock v:margins="rect(0,0,0,0)"/>
				<v:textRect cx="18" cy="89.5749" width="36" height="6.74999"/>
				<rect x="0" y="86.1999" width="36" height="6.74999" class="st4"/>
				<text x="2.17" y="91.38" class="st5" v:langID="1033"><v:paragraph v:horizAlign="1"/><v:tabList/>2, 15, 1.7/1.7</text>			</g>
			<g id="shape539-24" v:mID="539" v:groupContext="shape" transform="translate(149.625,-60.75)">
				<title>Circle.539</title>
				<v:userDefs>
					<v:ud v:nameU="visVersion" v:val="VT0(15):26"/>
				</v:userDefs>
				<path d="M0 87.32 A5.62501 5.62501 0 0 1 11.25 87.32 A5.62501 5.62501 0 1 1 0 87.32 Z" class="st2"/>
			</g>
			<g id="shape540-26" v:mID="540" v:groupContext="shape" v:layerMember="0" transform="translate(164.25,-61.875)">
				<title>Dynamic connector.540</title>
				<path d="M-9 94.07 L-9 109.82" class="st1"/>
			</g>
			<g id="shape541-29" v:mID="541" v:groupContext="shape" transform="translate(151.875,-64.7169)">
				<title>Sheet.541</title>
				<path d="M0 91.29 C0.84 89.95 1.4 89.45 1.92 89.63 C2.48 89.81 3 90.79 3.62 91.69 C4.04 92.32 4.51 92.91 5 92.95
							 C5.65 93 6.33 92.12 6.75 91.29" class="st3"/>
			</g>
			<g id="shape542-32" v:mID="542" v:groupContext="shape" transform="translate(162,-63)">
				<title>Rectangle.542</title>
				<desc>4, 40, 0/2.0</desc>
				<v:userDefs>
					<v:ud v:nameU="visVersion" v:val="VT0(15):26"/>
				</v:userDefs>
				<v:textBlock v:margins="rect(0,0,0,0)"/>
				<v:textRect cx="18" cy="89.5749" width="36" height="6.74999"/>
				<rect x="0" y="86.1999" width="36" height="6.74999" class="st4"/>
				<text x="4.42" y="91.38" class="st5" v:langID="1033"><v:paragraph v:horizAlign="1"/><v:tabList/>4, 40, 0/2.0</text>			</g>
			<g id="shape241-35" v:mID="241" v:groupContext="shape" transform="translate(101.25,-60.75)">
				<title>Sheet.241</title>
				<desc>4</desc>
				<v:textBlock v:margins="rect(0,0,0,0)"/>
				<v:textRect cx="20.25" cy="92.9499" width="40.51" height="0"/>
				<path d="M0 92.95 L40.5 92.95" class="st1"/>
				<rect v:rectContext="textBkgnd" x="18.629" y="87.9497" width="3.24207" height="10.6642" class="st6"/>
				<text x="18.63" y="95.45" class="st7" v:langID="1033"><v:paragraph v:spLine="-1" v:horizAlign="1"/><v:tabList/>4</text>			</g>
			<g id="shape242-40" v:mID="242" v:groupContext="shape" transform="translate(87.75,-38.25)">
				<title>Sheet.242</title>
				<desc>2</desc>
				<v:textBlock v:margins="rect(0,0,0,0)"/>
				<v:textRect cx="33.75" cy="92.9499" width="67.51" height="0"/>
				<path d="M0 92.95 L67.5 92.95" class="st1"/>
				<rect v:rectContext="textBkgnd" x="31.9238" y="87.9497" width="3.6524" height="10.6642" class="st6"/>
				<text x="31.92" y="95.45" class="st7" v:langID="1033"><v:paragraph v:spLine="-1" v:horizAlign="1"/><v:tabList/>2</text>			</g>
			<g id="shape243-45" v:mID="243" v:groupContext="shape" transform="translate(110.294,-35.4748) rotate(14.0362)">
				<title>Sheet.243</title>
				<desc>3</desc>
				<v:textBlock v:margins="rect(0,0,0,0)"/>
				<v:textRect cx="64.9389" cy="92.9499" width="129.88" height="0"/>
				<path d="M0 92.95 L129.88 92.95" class="st1"/>
				<rect v:rectContext="textBkgnd" x="63.3617" y="87.9497" width="3.15417" height="10.6642" class="st6"/>
				<text x="63.36" y="95.45" class="st7" v:langID="1033"><v:paragraph v:spLine="-1" v:horizAlign="1"/><v:tabList/>3</text>			</g>
			<g id="shape244-50" v:mID="244" v:groupContext="shape" transform="translate(179.501,-52.7388) rotate(23.9625)">
				<title>Sheet.244</title>
				<desc>5</desc>
				<v:textBlock v:margins="rect(0,0,0,0)"/>
				<v:textRect cx="22.1599" cy="92.9499" width="44.32" height="0"/>
				<path d="M0 92.95 L44.32 92.95" class="st1"/>
				<rect v:rectContext="textBkgnd" x="20.6071" y="87.9497" width="3.10556" height="10.6642" class="st8"/>
				<text x="20.61" y="95.45" class="st7" v:langID="1033"><v:paragraph v:spLine="-1" v:horizAlign="1"/><v:tabList/>5</text>			</g>
			<g id="shape245-55" v:mID="245" v:groupContext="shape" transform="translate(135,-54)">
				<title>Circle.245</title>
				<desc>3</desc>
				<v:userDefs>
					<v:ud v:nameU="visVersion" v:val="VT0(15):26"/>
				</v:userDefs>
				<v:textBlock v:margins="rect(0,0,0,0)"/>
				<v:textRect cx="6.75" cy="86.1999" width="11.82" height="10.125"/>
				<path d="M0 86.2 A6.75 6.75 0 0 1 13.5 86.2 A6.75 6.75 0 1 1 0 86.2 Z" class="st2"/>
				<text x="5.17" y="88.7" class="st9" v:langID="1033"><v:paragraph v:spLine="-1" v:horizAlign="1"/><v:tabList/>3</text>			</g>
			<g id="shape246-58" v:mID="246" v:groupContext="shape" transform="translate(22.9994,-34.7388) rotate(-23.9625)">
				<title>Sheet.246</title>
				<desc>1</desc>
				<v:textBlock v:margins="rect(0,0,0,0)"/>
				<v:textRect cx="22.1599" cy="92.9499" width="44.32" height="0"/>
				<path d="M0 92.95 L44.32 92.95" class="st1"/>
				<rect v:rectContext="textBkgnd" x="20.7219" y="87.9497" width="2.87595" height="10.6642" class="st6"/>
				<text x="20.72" y="95.45" class="st7" v:langID="1033"><v:paragraph v:spLine="-1" v:horizAlign="1"/><v:tabList/>1</text>			</g>
			<g id="shape247-63" v:mID="247" v:groupContext="shape" transform="translate(94.5,-54)">
				<title>Circle.247</title>
				<desc>2</desc>
				<v:userDefs>
					<v:ud v:nameU="visVersion" v:val="VT0(15):26"/>
				</v:userDefs>
				<v:textBlock v:margins="rect(0,0,0,0)"/>
				<v:textRect cx="6.75" cy="86.1999" width="11.82" height="10.125"/>
				<path d="M0 86.2 A6.75 6.75 0 0 1 13.5 86.2 A6.75 6.75 0 1 1 0 86.2 Z" class="st2"/>
				<text x="4.92" y="88.7" class="st9" v:langID="1033"><v:paragraph v:spLine="-1" v:horizAlign="1"/><v:tabList/>2</text>			</g>
			<g id="shape248-66" v:mID="248" v:groupContext="shape" transform="translate(54,-36)">
				<title>Circle.248</title>
				<desc>1</desc>
				<v:userDefs>
					<v:ud v:nameU="visVersion" v:val="VT0(15):26"/>
				</v:userDefs>
				<v:textBlock v:margins="rect(0,0,0,0)"/>
				<v:textRect cx="6.75" cy="86.1999" width="11.82" height="10.125"/>
				<path d="M0 86.2 A6.75 6.75 0 0 1 13.5 86.2 A6.75 6.75 0 1 1 0 86.2 Z" class="st10"/>
				<text x="5.31" y="88.7" class="st9" v:langID="1033"><v:paragraph v:spLine="-1" v:horizAlign="1"/><v:tabList/>1</text>			</g>
			<g id="shape249-69" v:mID="249" v:groupContext="shape" transform="translate(252.202,-11.008) rotate(48.8141)">
				<title>Sheet.249</title>
				<desc>6</desc>
				<v:textBlock v:margins="rect(0,0,0,0)"/>
				<v:textRect cx="23.9178" cy="92.9499" width="47.84" height="0"/>
				<path d="M0 92.95 L47.84 92.95" class="st1"/>
				<rect v:rectContext="textBkgnd" x="22.2259" y="87.9497" width="3.38379" height="10.6642" class="st6"/>
				<text x="22.23" y="95.45" class="st7" v:langID="1033"><v:paragraph v:spLine="-1" v:horizAlign="1"/><v:tabList/>6</text>			</g>
			<g id="shape250-74" v:mID="250" v:groupContext="shape" transform="translate(207,0)">
				<title>Circle.250</title>
				<desc>5</desc>
				<v:userDefs>
					<v:ud v:nameU="visVersion" v:val="VT0(15):26"/>
				</v:userDefs>
				<v:textBlock v:margins="rect(0,0,0,0)"/>
				<v:textRect cx="6.75" cy="86.1999" width="11.82" height="10.125"/>
				<path d="M0 86.2 A6.75 6.75 0 0 1 13.5 86.2 A6.75 6.75 0 1 1 0 86.2 Z" class="st2"/>
				<text x="5.2" y="88.7" class="st9" v:langID="1033"><v:paragraph v:spLine="-1" v:horizAlign="1"/><v:tabList/>5</text>			</g>
			<g id="shape251-77" v:mID="251" v:groupContext="shape" transform="translate(175.5,-36)">
				<title>Circle.251</title>
				<desc>4&#39;</desc>
				<v:userDefs>
					<v:ud v:nameU="visVersion" v:val="VT0(15):26"/>
				</v:userDefs>
				<v:textBlock v:margins="rect(0,0,0,0)"/>
				<v:textRect cx="6.75" cy="86.1999" width="11.82" height="10.125"/>
				<path d="M0 86.2 A6.75 6.75 0 0 1 13.5 86.2 A6.75 6.75 0 1 1 0 86.2 Z" class="st11"/>
				<text x="4.33" y="88.7" class="st9" v:langID="1033"><v:paragraph v:spLine="-1" v:horizAlign="1"/><v:tabList/>4&#39;</text>			</g>
			<g id="shape252-80" v:mID="252" v:groupContext="shape" transform="translate(148.5,-31.5)">
				<title>Circle.252</title>
				<desc>4</desc>
				<v:userDefs>
					<v:ud v:nameU="visVersion" v:val="VT0(15):26"/>
				</v:userDefs>
				<v:textBlock v:margins="rect(0,0,0,0)"/>
				<v:textRect cx="6.75" cy="86.1999" width="11.82" height="10.125"/>
				<path d="M0 86.2 A6.75 6.75 0 0 1 13.5 86.2 A6.75 6.75 0 1 1 0 86.2 Z" class="st10"/>
				<text x="5.13" y="88.7" class="st9" v:langID="1033"><v:paragraph v:spLine="-1" v:horizAlign="1"/><v:tabList/>4</text>			</g>
			<g id="shape253-83" v:mID="253" v:groupContext="shape" transform="translate(81,-31.5)">
				<title>Circle.253</title>
				<desc>1&#39;</desc>
				<v:userDefs>
					<v:ud v:nameU="visVersion" v:val="VT0(15):26"/>
				</v:userDefs>
				<v:textBlock v:margins="rect(0,0,0,0)"/>
				<v:textRect cx="6.75" cy="86.1999" width="11.82" height="10.125"/>
				<path d="M0 86.2 A6.75 6.75 0 0 1 13.5 86.2 A6.75 6.75 0 1 1 0 86.2 Z" class="st11"/>
				<text x="4.51" y="88.7" class="st9" v:langID="1033"><v:paragraph v:spLine="-1" v:horizAlign="1"/><v:tabList/>1&#39;</text>			</g>
			<g id="shape265-86" v:mID="265" v:groupContext="shape" transform="translate(194.2,38.9499) rotate(90)">
				<title>Sheet.265</title>
				<path d="M0 92.95 L4.73 92.95" class="st12"/>
			</g>
			<g id="shape266-92" v:mID="266" v:groupContext="shape" transform="translate(234.7,38.9499) rotate(90)">
				<title>Sheet.266</title>
				<path d="M0 92.95 L4.73 92.95" class="st12"/>
			</g>
			<g id="shape267-97" v:mID="267" v:groupContext="shape" transform="translate(248.2,61.4499) rotate(90)">
				<title>Sheet.267</title>
				<path d="M0 92.95 L4.73 92.95" class="st12"/>
			</g>
			<g id="shape274-102" v:mID="274" v:groupContext="shape" transform="translate(123.75,-45)">
				<title>Rectangle.274</title>
				<desc>3 p.u.</desc>
				<v:userDefs>
					<v:ud v:nameU="visVersion" v:val="VT0(15):26"/>
				</v:userDefs>
				<v:textBlock v:margins="rect(0,0,0,0)"/>
				<v:textRect cx="8.99999" cy="90.6999" width="18" height="4.5"/>
				<rect x="0" y="88.4499" width="18" height="4.5" class="st14"/>
				<text x="2.25" y="92.5" class="st5" v:langID="1033"><v:paragraph v:horizAlign="1"/><v:tabList/>3 p.u.</text>			</g>
			<g id="shape275-105" v:mID="275" v:groupContext="shape" transform="translate(83.25,-45)">
				<title>Rectangle.275</title>
				<desc>3 p.u.</desc>
				<v:userDefs>
					<v:ud v:nameU="visVersion" v:val="VT0(15):26"/>
				</v:userDefs>
				<v:textBlock v:margins="rect(0,0,0,0)"/>
				<v:textRect cx="8.99999" cy="90.6999" width="18" height="4.5"/>
				<rect x="0" y="88.4499" width="18" height="4.5" class="st14"/>
				<text x="2.25" y="92.5" class="st5" v:langID="1033"><v:paragraph v:horizAlign="1"/><v:tabList/>3 p.u.</text>			</g>
			<g id="shape276-108" v:mID="276" v:groupContext="shape" transform="translate(155.25,-22.5)">
				<title>Rectangle.276</title>
				<desc>4 p.u.</desc>
				<v:userDefs>
					<v:ud v:nameU="visVersion" v:val="VT0(15):26"/>
				</v:userDefs>
				<v:textBlock v:margins="rect(0,0,0,0)"/>
				<v:textRect cx="8.99999" cy="90.6999" width="18" height="4.5"/>
				<rect x="0" y="88.4499" width="18" height="4.5" class="st14"/>
				<text x="2.25" y="92.5" class="st5" v:langID="1033"><v:paragraph v:horizAlign="1"/><v:tabList/>4 p.u.</text>			</g>
			<g id="shape535-111" v:mID="535" v:groupContext="shape" transform="translate(208.125,-22.5)">
				<title>Circle.535</title>
				<v:userDefs>
					<v:ud v:nameU="visVersion" v:val="VT0(15):26"/>
				</v:userDefs>
				<path d="M0 87.32 A5.62501 5.62501 0 0 1 11.25 87.32 A5.62501 5.62501 0 1 1 0 87.32 Z" class="st2"/>
			</g>
			<g id="shape536-113" v:mID="536" v:groupContext="shape" v:layerMember="0" transform="translate(222.75,-27)">
				<title>Dynamic connector.536</title>
				<path d="M-9 97.45 L-9 106.45" class="st1"/>
			</g>
			<g id="shape537-116" v:mID="537" v:groupContext="shape" transform="translate(210.375,-26.4669)">
				<title>Sheet.537</title>
				<path d="M0 91.29 C0.84 89.95 1.4 89.45 1.92 89.63 C2.48 89.81 3 90.79 3.62 91.69 C4.04 92.32 4.51 92.91 5 92.95
							 C5.65 93 6.33 92.12 6.75 91.29" class="st3"/>
			</g>
			<g id="shape538-119" v:mID="538" v:groupContext="shape" transform="translate(124.175,56.9499) rotate(-90)">
				<title>Rectangle.538</title>
				<desc>5, 10, 6.0/6.0</desc>
				<v:userDefs>
					<v:ud v:nameU="visVersion" v:val="VT0(15):26"/>
				</v:userDefs>
				<v:textBlock v:margins="rect(0,0,0,0)"/>
				<v:textRect cx="18" cy="89.5749" width="36" height="6.74999"/>
				<rect x="0" y="86.1999" width="36" height="6.74999" class="st4"/>
				<text x="2.17" y="91.38" class="st5" v:langID="1033"><v:paragraph v:horizAlign="1"/><v:tabList/>5, 10, 6.0/6.0</text>			</g>
			<g id="shape543-122" v:mID="543" v:groupContext="shape" transform="translate(136.125,-76.5)">
				<title>Circle.543</title>
				<v:userDefs>
					<v:ud v:nameU="visVersion" v:val="VT0(15):26"/>
				</v:userDefs>
				<path d="M0 87.32 A5.62501 5.62501 0 0 1 11.25 87.32 A5.62501 5.62501 0 1 1 0 87.32 Z" class="st2"/>
			</g>
			<g id="shape544-124" v:mID="544" v:groupContext="shape" transform="translate(138.375,-80.4669)">
				<title>Sheet.544</title>
				<path d="M0 91.29 C0.84 89.95 1.4 89.45 1.92 89.63 C2.48 89.81 3 90.79 3.62 91.69 C4.04 92.32 4.51 92.91 5 92.95
							 C5.65 93 6.33 92.12 6.75 91.29" class="st3"/>
			</g>
			<g id="shape545-127" v:mID="545" v:groupContext="shape" v:layerMember="0" transform="translate(150.75,-81)">
				<title>Dynamic connector.545</title>
				<path d="M-9 97.45 L-9 106.45" class="st1"/>
			</g>
			<g id="shape546-130" v:mID="546" v:groupContext="shape" transform="translate(99,-78.75)">
				<title>Rectangle.546</title>
				<desc>3, 30, 1.9/5.2</desc>
				<v:userDefs>
					<v:ud v:nameU="visVersion" v:val="VT0(15):26"/>
				</v:userDefs>
				<v:textBlock v:margins="rect(0,0,0,0)"/>
				<v:textRect cx="18" cy="89.5749" width="36" height="6.74999"/>
				<rect x="0" y="86.1999" width="36" height="6.74999" class="st4"/>
				<text x="2.17" y="91.38" class="st5" v:langID="1033"><v:paragraph v:horizAlign="1"/><v:tabList/>3, 30, 1.9/5.2</text>			</g>
			<g id="shape576-133" v:mID="576" v:groupContext="shape" transform="translate(50.3335,-46.8872) rotate(-23.9625)">
				<title>Sheet.576</title>
				<path d="M0 92.95 L4.41 92.95" class="st15"/>
			</g>
			<g id="shape577-139" v:mID="577" v:groupContext="shape" transform="translate(127.125,-60.75)">
				<title>Sheet.577</title>
				<path d="M0 92.95 L4.73 92.95" class="st15"/>
			</g>
			<g id="shape578-144" v:mID="578" v:groupContext="shape" transform="translate(140.625,-38.25)">
				<title>Sheet.578</title>
				<path d="M0 92.95 L4.73 92.95" class="st15"/>
			</g>
			<g id="shape579-149" v:mID="579" v:groupContext="shape" transform="translate(79.0553,148.337) rotate(-165.964)">
				<title>Sheet.579</title>
				<path d="M0 92.95 L4.33 92.95" class="st15"/>
			</g>
			<g id="shape580-154" v:mID="580" v:groupContext="shape" transform="translate(121.361,121.766) rotate(-131.186)">
				<title>Sheet.580</title>
				<path d="M0 92.95 L3.68 92.95" class="st15"/>
			</g>
			<g id="shape581-159" v:mID="581" v:groupContext="shape" transform="translate(116.624,122.75) rotate(-156.037)">
				<title>Sheet.581</title>
				<path d="M0 92.95 L3.67 92.95" class="st15"/>
			</g>
			<g id="shape582-164" v:mID="582" v:groupContext="shape" transform="translate(162,-69.75)">
				<title>Rectangle.582</title>
				<desc>g, cg, pg</desc>
				<v:userDefs>
					<v:ud v:nameU="visVersion" v:val="VT0(15):26"/>
				</v:userDefs>
				<v:textBlock v:margins="rect(0,0,0,0)" v:verticalAlign="2"/>
				<v:textRect cx="18" cy="89.5749" width="36" height="6.74999"/>
				<rect x="0" y="86.1999" width="36" height="6.74999" class="st4"/>
				<text x="8.72" y="91.15" class="st5" v:langID="1033"><v:paragraph v:horizAlign="1"/><v:tabList/>g, c<tspan
							dy="-0.279em" class="st17" v:baseFontSize="6">g</tspan><tspan dy="0.181em" class="st18">, p</tspan><tspan
							dy="-0.279em" class="st17" v:baseFontSize="6">g</tspan></text>			</g>
			<g id="shape583-170" v:mID="583" v:groupContext="shape" transform="translate(99,-85.5)">
				<title>Rectangle.583</title>
				<desc>g, cg, pg</desc>
				<v:userDefs>
					<v:ud v:nameU="visVersion" v:val="VT0(15):26"/>
				</v:userDefs>
				<v:textBlock v:margins="rect(0,0,0,0)" v:verticalAlign="2"/>
				<v:textRect cx="18" cy="89.5749" width="36" height="6.74999"/>
				<rect x="0" y="86.1999" width="36" height="6.74999" class="st4"/>
				<text x="8.72" y="91.15" class="st5" v:langID="1033"><v:paragraph v:horizAlign="1"/><v:tabList/>g, c<tspan
							dy="-0.279em" class="st17" v:baseFontSize="6">g</tspan><tspan dy="0.181em" class="st18">, p</tspan><tspan
							dy="-0.279em" class="st17" v:baseFontSize="6">g</tspan></text>			</g>
			<g id="shape584-176" v:mID="584" v:groupContext="shape" transform="translate(0,-54)">
				<title>Rectangle.584</title>
				<desc>g, cg, pg</desc>
				<v:userDefs>
					<v:ud v:nameU="visVersion" v:val="VT0(15):26"/>
				</v:userDefs>
				<v:textBlock v:margins="rect(0,0,0,0)" v:verticalAlign="2"/>
				<v:textRect cx="18" cy="89.5749" width="36" height="6.74999"/>
				<rect x="0" y="86.1999" width="36" height="6.74999" class="st4"/>
				<text x="8.72" y="91.15" class="st5" v:langID="1033"><v:paragraph v:horizAlign="1"/><v:tabList/>g, c<tspan
							dy="-0.279em" class="st17" v:baseFontSize="6">g</tspan><tspan dy="0.181em" class="st18">, p</tspan><tspan
							dy="-0.279em" class="st17" v:baseFontSize="6">g</tspan></text>			</g>
			<g id="shape585-182" v:mID="585" v:groupContext="shape" transform="translate(0,-38.25)">
				<title>Rectangle.585</title>
				<desc>g, cg, pg</desc>
				<v:userDefs>
					<v:ud v:nameU="visVersion" v:val="VT0(15):26"/>
				</v:userDefs>
				<v:textBlock v:margins="rect(0,0,0,0)" v:verticalAlign="2"/>
				<v:textRect cx="18" cy="89.5749" width="36" height="6.74999"/>
				<rect x="0" y="86.1999" width="36" height="6.74999" class="st4"/>
				<text x="8.72" y="91.15" class="st5" v:langID="1033"><v:paragraph v:horizAlign="1"/><v:tabList/>g, c<tspan
							dy="-0.279em" class="st17" v:baseFontSize="6">g</tspan><tspan dy="0.181em" class="st18">, p</tspan><tspan
							dy="-0.279em" class="st17" v:baseFontSize="6">g</tspan></text>			</g>
			<g id="shape586-188" v:mID="586" v:groupContext="shape" transform="translate(117.425,56.9499) rotate(-90)">
				<title>Rectangle.586</title>
				<desc>g, cg, pg</desc>
				<v:userDefs>
					<v:ud v:nameU="visVersion" v:val="VT0(15):26"/>
				</v:userDefs>
				<v:textBlock v:margins="rect(0,0,0,0)" v:verticalAlign="2"/>
				<v:textRect cx="18" cy="89.5749" width="36" height="6.74999"/>
				<rect x="0" y="86.1999" width="36" height="6.74999" class="st4"/>
				<text x="8.72" y="91.15" class="st5" v:langID="1033"><v:paragraph v:horizAlign="1"/><v:tabList/>g, c<tspan
							dy="-0.279em" class="st17" v:baseFontSize="6">g</tspan><tspan dy="0.181em" class="st18">, p</tspan><tspan
							dy="-0.279em" class="st17" v:baseFontSize="6">g</tspan></text>			</g>
		</g>
	</g>
</svg>
