<?xml version="1.0" encoding="UTF-8" standalone="no"?>
<!DOCTYPE svg PUBLIC "-//W3C//DTD SVG 1.1//EN" "http://www.w3.org/Graphics/SVG/1.1/DTD/svg11.dtd">
<!-- Generated by Microsoft Visio, SVG Export otsb.svg Page-1 -->
<svg xmlns="http://www.w3.org/2000/svg" xmlns:xlink="http://www.w3.org/1999/xlink" xmlns:ev="http://www.w3.org/2001/xml-events"
		xmlns:v="http://schemas.microsoft.com/visio/2003/SVGExtensions/" width="2.31944in" height="0.944445in" viewBox="0 0 167 68"
		xml:space="preserve" color-interpolation-filters="sRGB" class="st8">
	<v:documentProperties v:langID="1033" v:viewMarkup="false"/>

	<style type="text/css">
	<![CDATA[
		.st1 {stroke:#000000;stroke-linecap:round;stroke-linejoin:round;stroke-width:1}
		.st2 {fill:#ffffff;stroke:none;stroke-linecap:butt;stroke-width:7.2}
		.st3 {fill:#000000;font-family:Microsoft Uighur;font-size:0.833336em}
		.st4 {fill:#000000;stroke:none;stroke-width:0.25}
		.st5 {fill:#ffffff;font-family:Microsoft Uighur;font-size:0.833336em}
		.st6 {fill:#7030a0;stroke:none;stroke-width:0.25}
		.st7 {fill:#00b050;stroke:none;stroke-width:0.25}
		.st8 {fill:none;fill-rule:evenodd;font-size:12px;overflow:visible;stroke-linecap:square;stroke-miterlimit:3}
	]]>
	</style>

	<g v:mID="0" v:index="1" v:groupContext="foregroundPage">
		<title>Page-1</title>
		<v:pageProperties v:drawingScale="1" v:pageScale="1" v:drawingUnits="0" v:shadowOffsetX="9" v:shadowOffsetY="-9"/>
		<g id="shape144-1" v:mID="144" v:groupContext="shape" transform="translate(47.5,-61)">
			<title>Sheet.144</title>
			<desc>4</desc>
			<v:textBlock v:margins="rect(0,0,0,0)"/>
			<v:textRect cx="20.25" cy="68" width="40.51" height="0"/>
			<path d="M0 68 L40.5 68" class="st1"/>
			<rect v:rectContext="textBkgnd" x="18.629" y="62.9999" width="3.24207" height="10.6642" class="st2"/>
			<text x="18.63" y="70.5" class="st3" v:langID="1033"><v:paragraph v:spLine="-1" v:horizAlign="1"/><v:tabList/>4</text>		</g>
		<g id="shape145-6" v:mID="145" v:groupContext="shape" transform="translate(34,-38.5)">
			<title>Sheet.145</title>
			<desc>2</desc>
			<v:textBlock v:margins="rect(0,0,0,0)"/>
			<v:textRect cx="33.75" cy="68" width="67.5" height="0"/>
			<path d="M0 68 L67.5 68" class="st1"/>
			<rect v:rectContext="textBkgnd" x="31.9238" y="62.9999" width="3.6524" height="10.6642" class="st2"/>
			<text x="31.92" y="70.5" class="st3" v:langID="1033"><v:paragraph v:spLine="-1" v:horizAlign="1"/><v:tabList/>2</text>		</g>
		<g id="shape146-11" v:mID="146" v:groupContext="shape" transform="translate(50.4924,-36.4697) rotate(14.0362)">
			<title>Sheet.146</title>
			<desc>3</desc>
			<v:textBlock v:margins="rect(0,0,0,0)"/>
			<v:textRect cx="64.9389" cy="68" width="129.88" height="0"/>
			<path d="M0 68 L129.88 68" class="st1"/>
			<rect v:rectContext="textBkgnd" x="63.3617" y="62.9999" width="3.15417" height="10.6642" class="st2"/>
			<text x="63.36" y="70.5" class="st3" v:langID="1033"><v:paragraph v:spLine="-1" v:horizAlign="1"/><v:tabList/>3</text>		</g>
		<g id="shape147-16" v:mID="147" v:groupContext="shape" transform="translate(115.617,-55.1392) rotate(23.9625)">
			<title>Sheet.147</title>
			<desc>5</desc>
			<v:textBlock v:margins="rect(0,0,0,0)"/>
			<v:textRect cx="22.1599" cy="68" width="44.32" height="0"/>
			<path d="M0 68 L44.32 68" class="st1"/>
			<rect v:rectContext="textBkgnd" x="20.6071" y="62.9999" width="3.10556" height="10.6642" class="st2"/>
			<text x="20.61" y="70.5" class="st3" v:langID="1033"><v:paragraph v:spLine="-1" v:horizAlign="1"/><v:tabList/>5</text>		</g>
		<g id="shape148-21" v:mID="148" v:groupContext="shape" transform="translate(81.25,-54.25)">
			<title>Circle.148</title>
			<desc>3</desc>
			<v:userDefs>
				<v:ud v:nameU="visVersion" v:val="VT0(15):26"/>
			</v:userDefs>
			<v:textBlock v:margins="rect(0,0,0,0)"/>
			<v:textRect cx="6.75" cy="61.25" width="11.82" height="10.125"/>
			<path d="M0 61.25 A6.75 6.75 0 0 1 13.5 61.25 A6.75 6.75 0 1 1 0 61.25 Z" class="st4"/>
			<text x="5.17" y="63.75" class="st5" v:langID="1033"><v:paragraph v:spLine="-1" v:horizAlign="1"/><v:tabList/>3</text>		</g>
		<g id="shape149-24" v:mID="149" v:groupContext="shape" transform="translate(-20.6174,-37.1392) rotate(-23.9625)">
			<title>Sheet.149</title>
			<desc>1</desc>
			<v:textBlock v:margins="rect(0,0,0,0)"/>
			<v:textRect cx="22.1599" cy="68" width="44.32" height="0"/>
			<path d="M0 68 L44.32 68" class="st1"/>
			<rect v:rectContext="textBkgnd" x="20.7219" y="62.9999" width="2.87595" height="10.6642" class="st2"/>
			<text x="20.72" y="70.5" class="st3" v:langID="1033"><v:paragraph v:spLine="-1" v:horizAlign="1"/><v:tabList/>1</text>		</g>
		<g id="shape150-29" v:mID="150" v:groupContext="shape" transform="translate(40.75,-54.25)">
			<title>Circle.150</title>
			<desc>2</desc>
			<v:userDefs>
				<v:ud v:nameU="visVersion" v:val="VT0(15):26"/>
			</v:userDefs>
			<v:textBlock v:margins="rect(0,0,0,0)"/>
			<v:textRect cx="6.75" cy="61.25" width="11.82" height="10.125"/>
			<path d="M0 61.25 A6.75 6.75 0 0 1 13.5 61.25 A6.75 6.75 0 1 1 0 61.25 Z" class="st4"/>
			<text x="4.92" y="63.75" class="st5" v:langID="1033"><v:paragraph v:spLine="-1" v:horizAlign="1"/><v:tabList/>2</text>		</g>
		<g id="shape151-32" v:mID="151" v:groupContext="shape" transform="translate(0.25,-36.25)">
			<title>Circle.151</title>
			<desc>1</desc>
			<v:userDefs>
				<v:ud v:nameU="visVersion" v:val="VT0(15):26"/>
			</v:userDefs>
			<v:textBlock v:margins="rect(0,0,0,0)"/>
			<v:textRect cx="6.75" cy="61.25" width="11.82" height="10.125"/>
			<path d="M0 61.25 A6.75 6.75 0 0 1 13.5 61.25 A6.75 6.75 0 1 1 0 61.25 Z" class="st6"/>
			<text x="5.31" y="63.75" class="st5" v:langID="1033"><v:paragraph v:spLine="-1" v:horizAlign="1"/><v:tabList/>1</text>		</g>
		<g id="shape152-35" v:mID="152" v:groupContext="shape" transform="translate(179.675,-19.7783) rotate(48.8141)">
			<title>Sheet.152</title>
			<desc>6</desc>
			<v:textBlock v:margins="rect(0,0,0,0)"/>
			<v:textRect cx="23.9178" cy="68" width="47.84" height="0"/>
			<path d="M0 68 L47.84 68" class="st1"/>
			<rect v:rectContext="textBkgnd" x="22.2259" y="62.9999" width="3.38379" height="10.6642" class="st2"/>
			<text x="22.23" y="70.5" class="st3" v:langID="1033"><v:paragraph v:spLine="-1" v:horizAlign="1"/><v:tabList/>6</text>		</g>
		<g id="shape153-40" v:mID="153" v:groupContext="shape" transform="translate(153.25,-0.25)">
			<title>Circle.153</title>
			<desc>5</desc>
			<v:userDefs>
				<v:ud v:nameU="visVersion" v:val="VT0(15):26"/>
			</v:userDefs>
			<v:textBlock v:margins="rect(0,0,0,0)"/>
			<v:textRect cx="6.75" cy="61.25" width="11.82" height="10.125"/>
			<path d="M0 61.25 A6.75 6.75 0 0 1 13.5 61.25 A6.75 6.75 0 1 1 0 61.25 Z" class="st4"/>
			<text x="5.2" y="63.75" class="st5" v:langID="1033"><v:paragraph v:spLine="-1" v:horizAlign="1"/><v:tabList/>5</text>		</g>
		<g id="shape154-43" v:mID="154" v:groupContext="shape" transform="translate(121.75,-36.25)">
			<title>Circle.154</title>
			<desc>4&#39;</desc>
			<v:userDefs>
				<v:ud v:nameU="visVersion" v:val="VT0(15):26"/>
			</v:userDefs>
			<v:textBlock v:margins="rect(0,0,0,0)"/>
			<v:textRect cx="6.75" cy="61.25" width="11.82" height="10.125"/>
			<path d="M0 61.25 A6.75 6.75 0 0 1 13.5 61.25 A6.75 6.75 0 1 1 0 61.25 Z" class="st7"/>
			<text x="4.33" y="63.75" class="st5" v:langID="1033"><v:paragraph v:spLine="-1" v:horizAlign="1"/><v:tabList/>4&#39;</text>		</g>
		<g id="shape155-46" v:mID="155" v:groupContext="shape" transform="translate(94.75,-31.75)">
			<title>Circle.155</title>
			<desc>4</desc>
			<v:userDefs>
				<v:ud v:nameU="visVersion" v:val="VT0(15):26"/>
			</v:userDefs>
			<v:textBlock v:margins="rect(0,0,0,0)"/>
			<v:textRect cx="6.75" cy="61.25" width="11.82" height="10.125"/>
			<path d="M0 61.25 A6.75 6.75 0 0 1 13.5 61.25 A6.75 6.75 0 1 1 0 61.25 Z" class="st6"/>
			<text x="5.13" y="63.75" class="st5" v:langID="1033"><v:paragraph v:spLine="-1" v:horizAlign="1"/><v:tabList/>4</text>		</g>
		<g id="shape156-49" v:mID="156" v:groupContext="shape" transform="translate(27.25,-31.75)">
			<title>Circle.156</title>
			<desc>1&#39;</desc>
			<v:userDefs>
				<v:ud v:nameU="visVersion" v:val="VT0(15):26"/>
			</v:userDefs>
			<v:textBlock v:margins="rect(0,0,0,0)"/>
			<v:textRect cx="6.75" cy="61.25" width="11.82" height="10.125"/>
			<path d="M0 61.25 A6.75 6.75 0 0 1 13.5 61.25 A6.75 6.75 0 1 1 0 61.25 Z" class="st7"/>
			<text x="4.51" y="63.75" class="st5" v:langID="1033"><v:paragraph v:spLine="-1" v:horizAlign="1"/><v:tabList/>1&#39;</text>		</g>
	</g>
</svg>
