<?xml version="1.0" encoding="UTF-8" standalone="no"?>
<!DOCTYPE svg PUBLIC "-//W3C//DTD SVG 1.1//EN" "http://www.w3.org/Graphics/SVG/1.1/DTD/svg11.dtd">
<!-- Generated by Microsoft Visio, SVG Export otsp1.svg Page-1 -->
<svg xmlns="http://www.w3.org/2000/svg" xmlns:xlink="http://www.w3.org/1999/xlink" xmlns:ev="http://www.w3.org/2001/xml-events"
		xmlns:v="http://schemas.microsoft.com/visio/2003/SVGExtensions/" width="3.31944in" height="1.29097in"
		viewBox="0 0 239 92.9499" xml:space="preserve" color-interpolation-filters="sRGB" class="st17">
	<v:documentProperties v:langID="1033" v:viewMarkup="false"/>

	<style type="text/css">
	<![CDATA[
		.st1 {stroke:#000000;stroke-linecap:round;stroke-linejoin:round;stroke-width:1}
		.st2 {fill:#ffffff;stroke:none;stroke-linecap:butt;stroke-width:7.2}
		.st3 {fill:#000000;font-family:Microsoft Uighur;font-size:0.833336em}
		.st4 {stroke:#000000;stroke-dasharray:1,2;stroke-linecap:round;stroke-linejoin:round;stroke-width:1}
		.st5 {fill:#000000;stroke:none;stroke-width:0.25}
		.st6 {fill:#ffffff;font-family:Microsoft Uighur;font-size:0.833336em}
		.st7 {marker-end:url(#mrkr5-58);stroke:#000000;stroke-linecap:butt;stroke-width:1}
		.st8 {fill:#000000;fill-opacity:1;stroke:#000000;stroke-opacity:1;stroke-width:0.40983606557377}
		.st9 {fill:none;stroke:none;stroke-width:0.25}
		.st10 {fill:#000000;font-family:Times New Roman;font-size:0.499992em}
		.st11 {stroke:#ffffff;stroke-linecap:butt;stroke-width:1}
		.st12 {fill:none;stroke:#000000;stroke-width:0.25}
		.st13 {baseline-shift:-32.4949%;font-size:0.649897em}
		.st14 {font-size:1em}
		.st15 {marker-end:url(#mrkr5-162);stroke:#0070c0;stroke-linecap:butt;stroke-width:1}
		.st16 {fill:#0070c0;fill-opacity:1;stroke:#0070c0;stroke-opacity:1;stroke-width:0.40983606557377}
		.st17 {fill:none;fill-rule:evenodd;font-size:12px;overflow:visible;stroke-linecap:square;stroke-miterlimit:3}
	]]>
	</style>

	<defs id="Markers">
		<g id="lend5">
			<path d="M 2 1 L 0 0 L 1.98117 -0.993387 C 1.67173 -0.364515 1.67301 0.372641 1.98465 1.00043 " style="stroke:none"/>
		</g>
		<marker id="mrkr5-58" class="st8" v:arrowType="5" v:arrowSize="0" v:setback="4.27" refX="-4.27" orient="auto"
				markerUnits="strokeWidth" overflow="visible">
			<use xlink:href="#lend5" transform="scale(-2.44,-2.44) "/>
		</marker>
		<marker id="mrkr5-162" class="st16" v:arrowType="5" v:arrowSize="0" v:setback="4.27" refX="-4.27" orient="auto"
				markerUnits="strokeWidth" overflow="visible">
			<use xlink:href="#lend5" transform="scale(-2.44,-2.44) "/>
		</marker>
	</defs>
	<g v:mID="0" v:index="1" v:groupContext="foregroundPage">
		<title>Page-1</title>
		<v:pageProperties v:drawingScale="1" v:pageScale="1" v:drawingUnits="0" v:shadowOffsetX="9" v:shadowOffsetY="-9"/>
		<v:layer v:name="Connector" v:index="0"/>
		<g id="group588-1" transform="translate(0.25,-0.25)" v:mID="588" v:groupContext="group">
			<title>Sheet.588</title>
			<g id="shape515-2" v:mID="515" v:groupContext="shape" v:layerMember="0" transform="translate(43.3125,-29.8125)">
				<title>Dynamic connector.515</title>
				<path d="M0.56 87.89 L17.44 80.01" class="st1"/>
			</g>
			<g id="shape516-5" v:mID="516" v:groupContext="shape" v:layerMember="0" transform="translate(43.3125,-55.6875)">
				<title>Dynamic connector.516</title>
				<path d="M0.56 98.01 L17.44 105.89" class="st1"/>
			</g>
			<g id="shape230-8" v:mID="230" v:groupContext="shape" transform="translate(101.25,-60.75)">
				<title>Sheet.230</title>
				<desc>4</desc>
				<v:textBlock v:margins="rect(0,0,0,0)"/>
				<v:textRect cx="20.25" cy="92.9499" width="40.51" height="0"/>
				<path d="M0 92.95 L40.5 92.95" class="st1"/>
				<rect v:rectContext="textBkgnd" x="18.629" y="87.9497" width="3.24207" height="10.6642" class="st2"/>
				<text x="18.63" y="95.45" class="st3" v:langID="1033"><v:paragraph v:spLine="-1" v:horizAlign="1"/><v:tabList/>4</text>			</g>
			<g id="shape231-13" v:mID="231" v:groupContext="shape" transform="translate(60.75,-42.75)">
				<title>Sheet.231</title>
				<desc>2</desc>
				<v:textBlock v:margins="rect(0,0,0,0)"/>
				<v:textRect cx="60.75" cy="92.9499" width="121.5" height="0"/>
				<path d="M0 92.95 L121.5 92.95" class="st1"/>
				<rect v:rectContext="textBkgnd" x="58.9238" y="87.9497" width="3.6524" height="10.6642" class="st2"/>
				<text x="58.92" y="95.45" class="st3" v:langID="1033"><v:paragraph v:spLine="-1" v:horizAlign="1"/><v:tabList/>2</text>			</g>
			<g id="shape232-18" v:mID="232" v:groupContext="shape" transform="translate(82.0392,-40.2791) rotate(13.2405)">
				<title>Sheet.232</title>
				<desc>3</desc>
				<v:textBlock v:margins="rect(0,0,0,0)"/>
				<v:textRect cx="78.5891" cy="92.9499" width="157.18" height="0"/>
				<path d="M0 92.95 L157.18 92.95" class="st1"/>
				<rect v:rectContext="textBkgnd" x="77.012" y="87.9497" width="3.15417" height="10.6642" class="st2"/>
				<text x="77.01" y="95.45" class="st3" v:langID="1033"><v:paragraph v:spLine="-1" v:horizAlign="1"/><v:tabList/>3</text>			</g>
			<g id="shape233-23" v:mID="233" v:groupContext="shape" transform="translate(179.501,-52.7388) rotate(23.9625)">
				<title>Sheet.233</title>
				<desc>5</desc>
				<v:textBlock v:margins="rect(0,0,0,0)"/>
				<v:textRect cx="22.1599" cy="92.9499" width="44.32" height="0"/>
				<path d="M0 92.95 L44.32 92.95" class="st4"/>
				<rect v:rectContext="textBkgnd" x="20.6071" y="87.9497" width="3.10556" height="10.6642" class="st2"/>
				<text x="20.61" y="95.45" class="st3" v:langID="1033"><v:paragraph v:spLine="-1" v:horizAlign="1"/><v:tabList/>5</text>			</g>
			<g id="shape234-28" v:mID="234" v:groupContext="shape" transform="translate(135,-54)">
				<title>Circle.234</title>
				<desc>3</desc>
				<v:userDefs>
					<v:ud v:nameU="visVersion" v:val="VT0(15):26"/>
				</v:userDefs>
				<v:textBlock v:margins="rect(0,0,0,0)"/>
				<v:textRect cx="6.75" cy="86.1999" width="11.82" height="10.125"/>
				<path d="M0 86.2 A6.75 6.75 0 0 1 13.5 86.2 A6.75 6.75 0 1 1 0 86.2 Z" class="st5"/>
				<text x="5.17" y="88.7" class="st6" v:langID="1033"><v:paragraph v:spLine="-1" v:horizAlign="1"/><v:tabList/>3</text>			</g>
			<g id="shape235-31" v:mID="235" v:groupContext="shape" transform="translate(22.9994,-34.7388) rotate(-23.9625)">
				<title>Sheet.235</title>
				<desc>1</desc>
				<v:textBlock v:margins="rect(0,0,0,0)"/>
				<v:textRect cx="22.1599" cy="92.9499" width="44.32" height="0"/>
				<path d="M0 92.95 L44.32 92.95" class="st1"/>
				<rect v:rectContext="textBkgnd" x="20.7219" y="87.9497" width="2.87595" height="10.6642" class="st2"/>
				<text x="20.72" y="95.45" class="st3" v:langID="1033"><v:paragraph v:spLine="-1" v:horizAlign="1"/><v:tabList/>1</text>			</g>
			<g id="shape236-36" v:mID="236" v:groupContext="shape" transform="translate(94.5,-54)">
				<title>Circle.236</title>
				<desc>2</desc>
				<v:userDefs>
					<v:ud v:nameU="visVersion" v:val="VT0(15):26"/>
				</v:userDefs>
				<v:textBlock v:margins="rect(0,0,0,0)"/>
				<v:textRect cx="6.75" cy="86.1999" width="11.82" height="10.125"/>
				<path d="M0 86.2 A6.75 6.75 0 0 1 13.5 86.2 A6.75 6.75 0 1 1 0 86.2 Z" class="st5"/>
				<text x="4.92" y="88.7" class="st6" v:langID="1033"><v:paragraph v:spLine="-1" v:horizAlign="1"/><v:tabList/>2</text>			</g>
			<g id="shape237-39" v:mID="237" v:groupContext="shape" transform="translate(54,-36)">
				<title>Circle.237</title>
				<desc>1</desc>
				<v:userDefs>
					<v:ud v:nameU="visVersion" v:val="VT0(15):26"/>
				</v:userDefs>
				<v:textBlock v:margins="rect(0,0,0,0)"/>
				<v:textRect cx="6.75" cy="86.1999" width="11.82" height="10.125"/>
				<path d="M0 86.2 A6.75 6.75 0 0 1 13.5 86.2 A6.75 6.75 0 1 1 0 86.2 Z" class="st5"/>
				<text x="5.31" y="88.7" class="st6" v:langID="1033"><v:paragraph v:spLine="-1" v:horizAlign="1"/><v:tabList/>1</text>			</g>
			<g id="shape238-42" v:mID="238" v:groupContext="shape" transform="translate(252.202,-11.008) rotate(48.8141)">
				<title>Sheet.238</title>
				<desc>6</desc>
				<v:textBlock v:margins="rect(0,0,0,0)"/>
				<v:textRect cx="23.9178" cy="92.9499" width="47.84" height="0"/>
				<path d="M0 92.95 L47.84 92.95" class="st1"/>
				<rect v:rectContext="textBkgnd" x="22.2259" y="87.9497" width="3.38379" height="10.6642" class="st2"/>
				<text x="22.23" y="95.45" class="st3" v:langID="1033"><v:paragraph v:spLine="-1" v:horizAlign="1"/><v:tabList/>6</text>			</g>
			<g id="shape239-47" v:mID="239" v:groupContext="shape" transform="translate(207,1.42109E-14)">
				<title>Circle.239</title>
				<desc>5</desc>
				<v:userDefs>
					<v:ud v:nameU="visVersion" v:val="VT0(15):26"/>
				</v:userDefs>
				<v:textBlock v:margins="rect(0,0,0,0)"/>
				<v:textRect cx="6.75" cy="86.1999" width="11.82" height="10.125"/>
				<path d="M0 86.2 A6.75 6.75 0 0 1 13.5 86.2 A6.75 6.75 0 1 1 0 86.2 Z" class="st5"/>
				<text x="5.2" y="88.7" class="st6" v:langID="1033"><v:paragraph v:spLine="-1" v:horizAlign="1"/><v:tabList/>5</text>			</g>
			<g id="shape240-50" v:mID="240" v:groupContext="shape" transform="translate(175.5,-36)">
				<title>Circle.240</title>
				<desc>4</desc>
				<v:userDefs>
					<v:ud v:nameU="visVersion" v:val="VT0(15):26"/>
				</v:userDefs>
				<v:textBlock v:margins="rect(0,0,0,0)"/>
				<v:textRect cx="6.75" cy="86.1999" width="11.82" height="10.125"/>
				<path d="M0 86.2 A6.75 6.75 0 0 1 13.5 86.2 A6.75 6.75 0 1 1 0 86.2 Z" class="st5"/>
				<text x="5.13" y="88.7" class="st6" v:langID="1033"><v:paragraph v:spLine="-1" v:horizAlign="1"/><v:tabList/>4</text>			</g>
			<g id="shape262-53" v:mID="262" v:groupContext="shape" transform="translate(194.2,38.9499) rotate(90)">
				<title>Sheet.262</title>
				<path d="M0 92.95 L4.73 92.95" class="st7"/>
			</g>
			<g id="shape263-59" v:mID="263" v:groupContext="shape" transform="translate(234.7,38.9499) rotate(90)">
				<title>Sheet.263</title>
				<path d="M0 92.95 L4.73 92.95" class="st7"/>
			</g>
			<g id="shape264-64" v:mID="264" v:groupContext="shape" transform="translate(275.2,56.9499) rotate(90)">
				<title>Sheet.264</title>
				<path d="M0 92.95 L4.73 92.95" class="st7"/>
			</g>
			<g id="shape271-69" v:mID="271" v:groupContext="shape" transform="translate(164.25,-27)">
				<title>Rectangle.271</title>
				<desc>4 p.u.</desc>
				<v:userDefs>
					<v:ud v:nameU="visVersion" v:val="VT0(15):26"/>
				</v:userDefs>
				<v:textBlock v:margins="rect(0,0,0,0)"/>
				<v:textRect cx="8.99999" cy="90.6999" width="18" height="4.5"/>
				<rect x="0" y="88.4499" width="18" height="4.5" class="st9"/>
				<text x="2.25" y="92.5" class="st10" v:langID="1033"><v:paragraph v:horizAlign="1"/><v:tabList/>4 p.u.</text>			</g>
			<g id="shape272-72" v:mID="272" v:groupContext="shape" transform="translate(123.75,-45)">
				<title>Rectangle.272</title>
				<desc>3 p.u.</desc>
				<v:userDefs>
					<v:ud v:nameU="visVersion" v:val="VT0(15):26"/>
				</v:userDefs>
				<v:textBlock v:margins="rect(0,0,0,0)"/>
				<v:textRect cx="8.99999" cy="90.6999" width="18" height="4.5"/>
				<rect x="0" y="88.4499" width="18" height="4.5" class="st9"/>
				<text x="2.25" y="92.5" class="st10" v:langID="1033"><v:paragraph v:horizAlign="1"/><v:tabList/>3 p.u.</text>			</g>
			<g id="shape273-75" v:mID="273" v:groupContext="shape" transform="translate(83.25,-45)">
				<title>Rectangle.273</title>
				<desc>3 p.u.</desc>
				<v:userDefs>
					<v:ud v:nameU="visVersion" v:val="VT0(15):26"/>
				</v:userDefs>
				<v:textBlock v:margins="rect(0,0,0,0)"/>
				<v:textRect cx="8.99999" cy="90.6999" width="18" height="4.5"/>
				<rect x="0" y="88.4499" width="18" height="4.5" class="st9"/>
				<text x="2.25" y="92.5" class="st10" v:langID="1033"><v:paragraph v:horizAlign="1"/><v:tabList/>3 p.u.</text>			</g>
			<g id="shape517-78" v:mID="517" v:groupContext="shape" transform="translate(38.25,-45)">
				<title>Circle.517</title>
				<v:userDefs>
					<v:ud v:nameU="visVersion" v:val="VT0(15):26"/>
				</v:userDefs>
				<path d="M0 87.32 A5.62501 5.62501 0 0 1 11.25 87.32 A5.62501 5.62501 0 1 1 0 87.32 Z" class="st5"/>
			</g>
			<g id="shape518-80" v:mID="518" v:groupContext="shape" transform="translate(40.5,-48.967)">
				<title>Sheet.518</title>
				<path d="M0 91.29 C0.84 89.95 1.4 89.45 1.92 89.63 C2.48 89.81 3 90.79 3.62 91.69 C4.04 92.32 4.51 92.91 5 92.95
							 C5.65 93 6.33 92.12 6.75 91.29" class="st11"/>
			</g>
			<g id="shape519-83" v:mID="519" v:groupContext="shape" transform="translate(38.25,-29.25)">
				<title>Circle.519</title>
				<v:userDefs>
					<v:ud v:nameU="visVersion" v:val="VT0(15):26"/>
				</v:userDefs>
				<path d="M0 87.32 A5.62501 5.62501 0 0 1 11.25 87.32 A5.62501 5.62501 0 1 1 0 87.32 Z" class="st5"/>
			</g>
			<g id="shape520-85" v:mID="520" v:groupContext="shape" transform="translate(40.5,-33.2169)">
				<title>Sheet.520</title>
				<path d="M0 91.29 C0.84 89.95 1.4 89.45 1.92 89.63 C2.48 89.81 3 90.79 3.62 91.69 C4.04 92.32 4.51 92.91 5 92.95
							 C5.65 93 6.33 92.12 6.75 91.29" class="st11"/>
			</g>
			<g id="shape521-88" v:mID="521" v:groupContext="shape" transform="translate(0,-47.25)">
				<title>Rectangle.521</title>
				<desc>1, 14, 0.4/0.4</desc>
				<v:userDefs>
					<v:ud v:nameU="visVersion" v:val="VT0(15):26"/>
				</v:userDefs>
				<v:textBlock v:margins="rect(0,0,0,0)"/>
				<v:textRect cx="18" cy="89.5749" width="36" height="6.74999"/>
				<rect x="0" y="86.1999" width="36" height="6.74999" class="st12"/>
				<text x="2.17" y="91.38" class="st10" v:langID="1033"><v:paragraph v:horizAlign="1"/><v:tabList/>1, 14, 0.4/0.4</text>			</g>
			<g id="shape522-91" v:mID="522" v:groupContext="shape" transform="translate(0,-31.5)">
				<title>Rectangle.522</title>
				<desc>2, 15, 1.66/1.7</desc>
				<v:userDefs>
					<v:ud v:nameU="visVersion" v:val="VT0(15):26"/>
				</v:userDefs>
				<v:textBlock v:margins="rect(0,0,0,0)"/>
				<v:textRect cx="18" cy="89.5749" width="36" height="6.74999"/>
				<rect x="0" y="86.1999" width="36" height="6.74999" class="st12"/>
				<text x="0.67" y="91.38" class="st10" v:langID="1033"><v:paragraph v:horizAlign="1"/><v:tabList/>2, 15, 1.66/1.7</text>			</g>
			<g id="shape523-94" v:mID="523" v:groupContext="shape" transform="translate(136.125,-76.5)">
				<title>Circle.523</title>
				<v:userDefs>
					<v:ud v:nameU="visVersion" v:val="VT0(15):26"/>
				</v:userDefs>
				<path d="M0 87.32 A5.62501 5.62501 0 0 1 11.25 87.32 A5.62501 5.62501 0 1 1 0 87.32 Z" class="st5"/>
			</g>
			<g id="shape524-96" v:mID="524" v:groupContext="shape" transform="translate(138.375,-80.4669)">
				<title>Sheet.524</title>
				<path d="M0 91.29 C0.84 89.95 1.4 89.45 1.92 89.63 C2.48 89.81 3 90.79 3.62 91.69 C4.04 92.32 4.51 92.91 5 92.95
							 C5.65 93 6.33 92.12 6.75 91.29" class="st11"/>
			</g>
			<g id="shape525-99" v:mID="525" v:groupContext="shape" v:layerMember="0" transform="translate(150.75,-81)">
				<title>Dynamic connector.525</title>
				<path d="M-9 97.45 L-9 106.45" class="st1"/>
			</g>
			<g id="shape526-102" v:mID="526" v:groupContext="shape" transform="translate(99,-78.7501)">
				<title>Rectangle.526</title>
				<desc>3, 30, 2/5.2</desc>
				<v:userDefs>
					<v:ud v:nameU="visVersion" v:val="VT0(15):26"/>
				</v:userDefs>
				<v:textBlock v:margins="rect(0,0,0,0)"/>
				<v:textRect cx="18" cy="89.5749" width="36" height="6.74999"/>
				<rect x="0" y="86.1999" width="36" height="6.74999" class="st12"/>
				<text x="4.42" y="91.38" class="st10" v:langID="1033"><v:paragraph v:horizAlign="1"/><v:tabList/>3, 30, 2/5.2</text>			</g>
			<g id="shape527-105" v:mID="527" v:groupContext="shape" transform="translate(176.625,-58.5)">
				<title>Circle.527</title>
				<v:userDefs>
					<v:ud v:nameU="visVersion" v:val="VT0(15):26"/>
				</v:userDefs>
				<path d="M0 87.32 A5.62501 5.62501 0 0 1 11.25 87.32 A5.62501 5.62501 0 1 1 0 87.32 Z" class="st5"/>
			</g>
			<g id="shape528-107" v:mID="528" v:groupContext="shape" v:layerMember="0" transform="translate(191.25,-63)">
				<title>Dynamic connector.528</title>
				<path d="M-9 97.45 L-9 106.45" class="st1"/>
			</g>
			<g id="shape529-110" v:mID="529" v:groupContext="shape" transform="translate(178.875,-62.467)">
				<title>Sheet.529</title>
				<path d="M0 91.29 C0.84 89.95 1.4 89.45 1.92 89.63 C2.48 89.81 3 90.79 3.62 91.69 C4.04 92.32 4.51 92.91 5 92.95
							 C5.65 93 6.33 92.12 6.75 91.29" class="st11"/>
			</g>
			<g id="shape530-113" v:mID="530" v:groupContext="shape" transform="translate(151.875,-72)">
				<title>Rectangle.530</title>
				<desc>4, 40, 0/2.0</desc>
				<v:userDefs>
					<v:ud v:nameU="visVersion" v:val="VT0(15):26"/>
				</v:userDefs>
				<v:textBlock v:margins="rect(0,0,0,0)"/>
				<v:textRect cx="18" cy="89.5749" width="36" height="6.74999"/>
				<rect x="0" y="86.1999" width="36" height="6.74999" class="st12"/>
				<text x="4.42" y="91.38" class="st10" v:langID="1033"><v:paragraph v:horizAlign="1"/><v:tabList/>4, 40, 0/2.0</text>			</g>
			<g id="shape531-116" v:mID="531" v:groupContext="shape" transform="translate(208.125,-22.5)">
				<title>Circle.531</title>
				<v:userDefs>
					<v:ud v:nameU="visVersion" v:val="VT0(15):26"/>
				</v:userDefs>
				<path d="M0 87.32 A5.62501 5.62501 0 0 1 11.25 87.32 A5.62501 5.62501 0 1 1 0 87.32 Z" class="st5"/>
			</g>
			<g id="shape532-118" v:mID="532" v:groupContext="shape" v:layerMember="0" transform="translate(222.75,-27)">
				<title>Dynamic connector.532</title>
				<path d="M-9 97.45 L-9 106.45" class="st1"/>
			</g>
			<g id="shape533-121" v:mID="533" v:groupContext="shape" transform="translate(210.375,-26.467)">
				<title>Sheet.533</title>
				<path d="M0 91.29 C0.84 89.95 1.4 89.45 1.92 89.63 C2.48 89.81 3 90.79 3.62 91.69 C4.04 92.32 4.51 92.91 5 92.95
							 C5.65 93 6.33 92.12 6.75 91.29" class="st11"/>
			</g>
			<g id="shape534-124" v:mID="534" v:groupContext="shape" transform="translate(124.175,56.9498) rotate(-90)">
				<title>Rectangle.534</title>
				<desc>5, 10, 5.94/6.0</desc>
				<v:userDefs>
					<v:ud v:nameU="visVersion" v:val="VT0(15):26"/>
				</v:userDefs>
				<v:textBlock v:margins="rect(0,0,0,0)"/>
				<v:textRect cx="18" cy="89.5749" width="36" height="6.74999"/>
				<rect x="0" y="86.1999" width="36" height="6.74999" class="st12"/>
				<text x="0.67" y="91.38" class="st10" v:langID="1033"><v:paragraph v:horizAlign="1"/><v:tabList/>5, 10, 5.94/6.0</text>			</g>
			<g id="shape566-127" v:mID="566" v:groupContext="shape" transform="translate(99,-85.5)">
				<title>Rectangle.566</title>
				<desc>g, cg, pg</desc>
				<v:userDefs>
					<v:ud v:nameU="visVersion" v:val="VT0(15):26"/>
				</v:userDefs>
				<v:textBlock v:margins="rect(0,0,0,0)" v:verticalAlign="2"/>
				<v:textRect cx="18" cy="89.5749" width="36" height="6.74999"/>
				<rect x="0" y="86.1999" width="36" height="6.74999" class="st12"/>
				<text x="8.72" y="91.15" class="st10" v:langID="1033"><v:paragraph v:horizAlign="1"/><v:tabList/>g, c<tspan
							dy="-0.279em" class="st13" v:baseFontSize="6">g</tspan><tspan dy="0.181em" class="st14">, p</tspan><tspan
							dy="-0.279em" class="st13" v:baseFontSize="6">g</tspan></text>			</g>
			<g id="shape567-133" v:mID="567" v:groupContext="shape" transform="translate(0,-54)">
				<title>Rectangle.567</title>
				<desc>g, cg, pg</desc>
				<v:userDefs>
					<v:ud v:nameU="visVersion" v:val="VT0(15):26"/>
				</v:userDefs>
				<v:textBlock v:margins="rect(0,0,0,0)" v:verticalAlign="2"/>
				<v:textRect cx="18" cy="89.5749" width="36" height="6.74999"/>
				<rect x="0" y="86.1999" width="36" height="6.74999" class="st12"/>
				<text x="8.72" y="91.15" class="st10" v:langID="1033"><v:paragraph v:horizAlign="1"/><v:tabList/>g, c<tspan
							dy="-0.279em" class="st13" v:baseFontSize="6">g</tspan><tspan dy="0.181em" class="st14">, p</tspan><tspan
							dy="-0.279em" class="st13" v:baseFontSize="6">g</tspan></text>			</g>
			<g id="shape568-139" v:mID="568" v:groupContext="shape" transform="translate(0,-38.25)">
				<title>Rectangle.568</title>
				<desc>g, cg, pg</desc>
				<v:userDefs>
					<v:ud v:nameU="visVersion" v:val="VT0(15):26"/>
				</v:userDefs>
				<v:textBlock v:margins="rect(0,0,0,0)" v:verticalAlign="2"/>
				<v:textRect cx="18" cy="89.5749" width="36" height="6.74999"/>
				<rect x="0" y="86.1999" width="36" height="6.74999" class="st12"/>
				<text x="8.72" y="91.15" class="st10" v:langID="1033"><v:paragraph v:horizAlign="1"/><v:tabList/>g, c<tspan
							dy="-0.279em" class="st13" v:baseFontSize="6">g</tspan><tspan dy="0.181em" class="st14">, p</tspan><tspan
							dy="-0.279em" class="st13" v:baseFontSize="6">g</tspan></text>			</g>
			<g id="shape569-145" v:mID="569" v:groupContext="shape" transform="translate(151.875,-78.7501)">
				<title>Rectangle.569</title>
				<desc>g, cg, pg</desc>
				<v:userDefs>
					<v:ud v:nameU="visVersion" v:val="VT0(15):26"/>
				</v:userDefs>
				<v:textBlock v:margins="rect(0,0,0,0)" v:verticalAlign="2"/>
				<v:textRect cx="18" cy="89.5749" width="36" height="6.74999"/>
				<rect x="0" y="86.1999" width="36" height="6.74999" class="st12"/>
				<text x="8.72" y="91.15" class="st10" v:langID="1033"><v:paragraph v:horizAlign="1"/><v:tabList/>g, c<tspan
							dy="-0.279em" class="st13" v:baseFontSize="6">g</tspan><tspan dy="0.181em" class="st14">, p</tspan><tspan
							dy="-0.279em" class="st13" v:baseFontSize="6">g</tspan></text>			</g>
			<g id="shape570-151" v:mID="570" v:groupContext="shape" transform="translate(117.425,56.9498) rotate(-90)">
				<title>Rectangle.570</title>
				<desc>g, cg, pg</desc>
				<v:userDefs>
					<v:ud v:nameU="visVersion" v:val="VT0(15):26"/>
				</v:userDefs>
				<v:textBlock v:margins="rect(0,0,0,0)" v:verticalAlign="2"/>
				<v:textRect cx="18" cy="89.5749" width="36" height="6.74999"/>
				<rect x="0" y="86.1999" width="36" height="6.74999" class="st12"/>
				<text x="8.72" y="91.15" class="st10" v:langID="1033"><v:paragraph v:horizAlign="1"/><v:tabList/>g, c<tspan
							dy="-0.279em" class="st13" v:baseFontSize="6">g</tspan><tspan dy="0.181em" class="st14">, p</tspan><tspan
							dy="-0.279em" class="st13" v:baseFontSize="6">g</tspan></text>			</g>
			<g id="shape571-157" v:mID="571" v:groupContext="shape" transform="translate(50.3199,-46.8812) rotate(-23.9625)">
				<title>Sheet.571</title>
				<path d="M0 92.95 L4.41 92.95" class="st15"/>
			</g>
			<g id="shape572-163" v:mID="572" v:groupContext="shape" transform="translate(127.125,-60.75)">
				<title>Sheet.572</title>
				<path d="M0 92.95 L4.73 92.95" class="st15"/>
			</g>
			<g id="shape573-168" v:mID="573" v:groupContext="shape" transform="translate(53.2893,143.933) rotate(-166.759)">
				<title>Sheet.573</title>
				<path d="M0 92.95 L4.11 92.95" class="st15"/>
			</g>
			<g id="shape574-173" v:mID="574" v:groupContext="shape" transform="translate(167.625,-42.75)">
				<title>Sheet.574</title>
				<path d="M0 92.95 L4.73 92.95" class="st15"/>
			</g>
			<g id="shape575-178" v:mID="575" v:groupContext="shape" transform="translate(121.318,121.716) rotate(-131.186)">
				<title>Sheet.575</title>
				<path d="M0 92.95 L3.68 92.95" class="st15"/>
			</g>
		</g>
	</g>
</svg>
