<?xml version="1.0" encoding="UTF-8" standalone="no"?>
<!DOCTYPE svg PUBLIC "-//W3C//DTD SVG 1.1//EN" "http://www.w3.org/Graphics/SVG/1.1/DTD/svg11.dtd">
<!-- Generated by Microsoft Visio, SVG Export otsp.svg Page-1 -->
<svg xmlns="http://www.w3.org/2000/svg" xmlns:xlink="http://www.w3.org/1999/xlink" xmlns:ev="http://www.w3.org/2001/xml-events"
		xmlns:v="http://schemas.microsoft.com/visio/2003/SVGExtensions/" width="2.31944in" height="0.944445in" viewBox="0 0 167 68"
		xml:space="preserve" color-interpolation-filters="sRGB" class="st8">
	<v:documentProperties v:langID="1033" v:viewMarkup="false"/>

	<style type="text/css">
	<![CDATA[
		.st1 {stroke:#000000;stroke-linecap:round;stroke-linejoin:round;stroke-width:1}
		.st2 {fill:#ffffff;stroke:none;stroke-linecap:butt;stroke-width:7.2}
		.st3 {fill:#000000;font-family:Microsoft Uighur;font-size:0.833336em}
		.st4 {stroke:#000000;stroke-dasharray:1,2;stroke-linecap:round;stroke-linejoin:round;stroke-width:1}
		.st5 {fill:#000000;stroke:none;stroke-width:0.25}
		.st6 {fill:#ffffff;font-family:Microsoft Uighur;font-size:0.833336em}
		.st7 {fill:#ffffff;stroke:none;stroke-linecap:butt}
		.st8 {fill:none;fill-rule:evenodd;font-size:12px;overflow:visible;stroke-linecap:square;stroke-miterlimit:3}
	]]>
	</style>

	<g v:mID="0" v:index="1" v:groupContext="foregroundPage">
		<title>Page-1</title>
		<v:pageProperties v:drawingScale="1" v:pageScale="1" v:drawingUnits="0" v:shadowOffsetX="9" v:shadowOffsetY="-9"/>
		<g id="shape15-1" v:mID="15" v:groupContext="shape" transform="translate(47.5,-61)">
			<title>Sheet.15</title>
			<desc>4</desc>
			<v:textBlock v:margins="rect(0,0,0,0)"/>
			<v:textRect cx="20.25" cy="68" width="40.51" height="0"/>
			<path d="M0 68 L40.5 68" class="st1"/>
			<rect v:rectContext="textBkgnd" x="18.629" y="62.9999" width="3.24207" height="10.6642" class="st2"/>
			<text x="18.63" y="70.5" class="st3" v:langID="1033"><v:paragraph v:spLine="-1" v:horizAlign="1"/><v:tabList/>4</text>		</g>
		<g id="shape16-6" v:mID="16" v:groupContext="shape" transform="translate(7,-43)">
			<title>Sheet.16</title>
			<desc>2</desc>
			<v:textBlock v:margins="rect(0,0,0,0)"/>
			<v:textRect cx="60.75" cy="68" width="121.5" height="0"/>
			<path d="M0 68 L121.5 68" class="st1"/>
			<rect v:rectContext="textBkgnd" x="58.9238" y="62.9999" width="3.6524" height="10.6642" class="st2"/>
			<text x="58.92" y="70.5" class="st3" v:langID="1033"><v:paragraph v:spLine="-1" v:horizAlign="1"/><v:tabList/>2</text>		</g>
		<g id="shape17-11" v:mID="17" v:groupContext="shape" transform="translate(22.5747,-41.1924) rotate(13.2405)">
			<title>Sheet.17</title>
			<desc>3</desc>
			<v:textBlock v:margins="rect(0,0,0,0)"/>
			<v:textRect cx="78.5891" cy="68" width="157.18" height="0"/>
			<path d="M0 68 L157.18 68" class="st1"/>
			<rect v:rectContext="textBkgnd" x="77.012" y="62.9999" width="3.15417" height="10.6642" class="st2"/>
			<text x="77.01" y="70.5" class="st3" v:langID="1033"><v:paragraph v:spLine="-1" v:horizAlign="1"/><v:tabList/>3</text>		</g>
		<g id="shape18-16" v:mID="18" v:groupContext="shape" transform="translate(115.617,-55.1392) rotate(23.9625)">
			<title>Sheet.18</title>
			<desc>5</desc>
			<v:textBlock v:margins="rect(0,0,0,0)"/>
			<v:textRect cx="22.1599" cy="68" width="44.32" height="0"/>
			<path d="M0 68 L44.32 68" class="st4"/>
			<rect v:rectContext="textBkgnd" x="20.6071" y="62.9999" width="3.10556" height="10.6642" class="st2"/>
			<text x="20.61" y="70.5" class="st3" v:langID="1033"><v:paragraph v:spLine="-1" v:horizAlign="1"/><v:tabList/>5</text>		</g>
		<g id="shape19-21" v:mID="19" v:groupContext="shape" transform="translate(81.25,-54.25)">
			<title>Circle.3</title>
			<desc>3</desc>
			<v:userDefs>
				<v:ud v:nameU="visVersion" v:val="VT0(15):26"/>
			</v:userDefs>
			<v:textBlock v:margins="rect(0,0,0,0)"/>
			<v:textRect cx="6.75" cy="61.25" width="11.82" height="10.125"/>
			<path d="M0 61.25 A6.75 6.75 0 0 1 13.5 61.25 A6.75 6.75 0 1 1 0 61.25 Z" class="st5"/>
			<text x="5.17" y="63.75" class="st6" v:langID="1033"><v:paragraph v:spLine="-1" v:horizAlign="1"/><v:tabList/>3</text>		</g>
		<g id="shape20-24" v:mID="20" v:groupContext="shape" transform="translate(-20.6174,-37.1392) rotate(-23.9625)">
			<title>Sheet.20</title>
			<desc>1</desc>
			<v:textBlock v:margins="rect(0,0,0,0)"/>
			<v:textRect cx="22.1599" cy="68" width="44.32" height="0"/>
			<path d="M0 68 L44.32 68" class="st1"/>
			<rect v:rectContext="textBkgnd" x="20.7219" y="62.9999" width="2.87595" height="10.6642" class="st7"/>
			<text x="20.72" y="70.5" class="st3" v:langID="1033"><v:paragraph v:spLine="-1" v:horizAlign="1"/><v:tabList/>1</text>		</g>
		<g id="shape21-29" v:mID="21" v:groupContext="shape" transform="translate(40.75,-54.25)">
			<title>Circle.2</title>
			<desc>2</desc>
			<v:userDefs>
				<v:ud v:nameU="visVersion" v:val="VT0(15):26"/>
			</v:userDefs>
			<v:textBlock v:margins="rect(0,0,0,0)"/>
			<v:textRect cx="6.75" cy="61.25" width="11.82" height="10.125"/>
			<path d="M0 61.25 A6.75 6.75 0 0 1 13.5 61.25 A6.75 6.75 0 1 1 0 61.25 Z" class="st5"/>
			<text x="4.92" y="63.75" class="st6" v:langID="1033"><v:paragraph v:spLine="-1" v:horizAlign="1"/><v:tabList/>2</text>		</g>
		<g id="shape22-32" v:mID="22" v:groupContext="shape" transform="translate(0.25,-36.25)">
			<title>Circle</title>
			<desc>1</desc>
			<v:userDefs>
				<v:ud v:nameU="visVersion" v:val="VT0(15):26"/>
			</v:userDefs>
			<v:textBlock v:margins="rect(0,0,0,0)"/>
			<v:textRect cx="6.75" cy="61.25" width="11.82" height="10.125"/>
			<path d="M0 61.25 A6.75 6.75 0 0 1 13.5 61.25 A6.75 6.75 0 1 1 0 61.25 Z" class="st5"/>
			<text x="5.31" y="63.75" class="st6" v:langID="1033"><v:paragraph v:spLine="-1" v:horizAlign="1"/><v:tabList/>1</text>		</g>
		<g id="shape23-35" v:mID="23" v:groupContext="shape" transform="translate(179.675,-19.7783) rotate(48.8141)">
			<title>Sheet.23</title>
			<desc>6</desc>
			<v:textBlock v:margins="rect(0,0,0,0)"/>
			<v:textRect cx="23.9178" cy="68" width="47.84" height="0"/>
			<path d="M0 68 L47.84 68" class="st1"/>
			<rect v:rectContext="textBkgnd" x="22.2259" y="62.9999" width="3.38379" height="10.6642" class="st2"/>
			<text x="22.23" y="70.5" class="st3" v:langID="1033"><v:paragraph v:spLine="-1" v:horizAlign="1"/><v:tabList/>6</text>		</g>
		<g id="shape24-40" v:mID="24" v:groupContext="shape" transform="translate(153.25,-0.25)">
			<title>Circle.5</title>
			<desc>5</desc>
			<v:userDefs>
				<v:ud v:nameU="visVersion" v:val="VT0(15):26"/>
			</v:userDefs>
			<v:textBlock v:margins="rect(0,0,0,0)"/>
			<v:textRect cx="6.75" cy="61.25" width="11.82" height="10.125"/>
			<path d="M0 61.25 A6.75 6.75 0 0 1 13.5 61.25 A6.75 6.75 0 1 1 0 61.25 Z" class="st5"/>
			<text x="5.2" y="63.75" class="st6" v:langID="1033"><v:paragraph v:spLine="-1" v:horizAlign="1"/><v:tabList/>5</text>		</g>
		<g id="shape25-43" v:mID="25" v:groupContext="shape" transform="translate(121.75,-36.25)">
			<title>Circle.4</title>
			<desc>4</desc>
			<v:userDefs>
				<v:ud v:nameU="visVersion" v:val="VT0(15):26"/>
			</v:userDefs>
			<v:textBlock v:margins="rect(0,0,0,0)"/>
			<v:textRect cx="6.75" cy="61.25" width="11.82" height="10.125"/>
			<path d="M0 61.25 A6.75 6.75 0 0 1 13.5 61.25 A6.75 6.75 0 1 1 0 61.25 Z" class="st5"/>
			<text x="5.13" y="63.75" class="st6" v:langID="1033"><v:paragraph v:spLine="-1" v:horizAlign="1"/><v:tabList/>4</text>		</g>
	</g>
</svg>
