<?xml version="1.0" encoding="UTF-8" standalone="no"?>
<!DOCTYPE svg PUBLIC "-//W3C//DTD SVG 1.1//EN" "http://www.w3.org/Graphics/SVG/1.1/DTD/svg11.dtd">
<!-- Generated by Microsoft Visio, SVG Export 1Bar.svg Page-1 -->
<svg xmlns="http://www.w3.org/2000/svg" xmlns:xlink="http://www.w3.org/1999/xlink" xmlns:ev="http://www.w3.org/2001/xml-events"
		xmlns:v="http://schemas.microsoft.com/visio/2003/SVGExtensions/" width="1.07781in" height="0.715606in"
		viewBox="0 0 77.6024 51.5236" xml:space="preserve" color-interpolation-filters="sRGB" class="st11">
	<v:documentProperties v:langID="1031" v:viewMarkup="false"/>

	<style type="text/css">
	<![CDATA[
		.st1 {fill:#ffffff;stroke:#ffffff;stroke-linecap:round;stroke-linejoin:round;stroke-width:0.5}
		.st2 {stroke:#000000;stroke-dasharray:2,1;stroke-linecap:butt;stroke-width:0.5}
		.st3 {fill:#ffffff;stroke:none;stroke-linecap:round;stroke-linejoin:round;stroke-width:0.5}
		.st4 {fill:#000000;font-family:Times New Roman;font-size:0.499992em;font-style:italic}
		.st5 {baseline-shift:-32.4949%;font-size:0.649897em}
		.st6 {font-size:1em}
		.st7 {fill:#000000;stroke:none;stroke-linecap:round;stroke-linejoin:round;stroke-width:0.5}
		.st8 {stroke:#000000;stroke-width:1}
		.st9 {fill:#ffffff;stroke:#000000;stroke-linecap:round;stroke-linejoin:round;stroke-width:0.5}
		.st10 {fill:none;stroke:none;stroke-linecap:round;stroke-linejoin:round;stroke-width:0.5}
		.st11 {fill:none;fill-rule:evenodd;font-size:12px;overflow:visible;stroke-linecap:square;stroke-miterlimit:3}
	]]>
	</style>

	<g v:mID="0" v:index="1" v:groupContext="foregroundPage">
		<title>Page-1</title>
		<v:pageProperties v:drawingScale="0.0393701" v:pageScale="0.0393701" v:drawingUnits="24" v:shadowOffsetX="8.50394"
				v:shadowOffsetY="-8.50394"/>
		<g id="shape1362-1" v:mID="1362" v:groupContext="shape" transform="translate(0.25,-0.25)">
			<title>Rechteck.1362</title>
			<v:userDefs>
				<v:ud v:nameU="visVersion" v:val="VT0(15):26"/>
			</v:userDefs>
			<rect x="0" y="0.5" width="77.1024" height="51.0236" class="st1"/>
		</g>
		<g id="group1352-3" transform="translate(3.46259,-4.50197)" v:mID="1352" v:groupContext="group">
			<title>Sheet.1352</title>
			<g id="group1344-4" v:mID="1344" v:groupContext="group">
				<title>Sheet.1344</title>
				<g id="shape1304-5" v:mID="1304" v:groupContext="shape" transform="translate(-16.0906,40.8937) rotate(-90)">
					<title>Sheet.1304</title>
					<path d="M0 51.52 L14.17 51.52" class="st2"/>
				</g>
				<g id="shape1305-8" v:mID="1305" v:groupContext="shape" transform="translate(35.4331,-10.6299)">
					<title>Sheet.1305</title>
					<path d="M0 51.52 L14.17 51.52" class="st2"/>
				</g>
				<g id="shape1302-11" v:mID="1302" v:groupContext="shape" transform="translate(31.8898,2.84217E-14)">
					<title>Sheet.1302</title>
					<desc>v1’</desc>
					<v:textBlock v:margins="rect(0,0,0,0)" v:tabSpace="42.5197"/>
					<v:textRect cx="3.54331" cy="47.9803" width="7.09" height="7.08661"/>
					<rect x="0" y="44.437" width="7.08661" height="7.08661" class="st3"/>
					<text x="0.57" y="49.78" class="st4" v:langID="1033"><v:paragraph v:horizAlign="1"/><v:tabList/>v<tspan
								dy="-0.279em" class="st5" v:baseFontSize="6">1</tspan><tspan dy="0.181em" class="st6">’ </tspan> </text>				</g>
				<g id="shape1256-16" v:mID="1256" v:groupContext="shape" transform="translate(31.8898,-21.2599)">
					<title>Kreis.1256</title>
					<v:userDefs>
						<v:ud v:nameU="visVersion" v:val="VT0(15):26"/>
					</v:userDefs>
					<path d="M0 47.98 A3.54331 3.54331 0 0 1 7.09 47.98 A3.54331 3.54331 0 1 1 0 47.98 Z" class="st7"/>
				</g>
				<g id="shape1263-18" v:mID="1263" v:groupContext="shape" transform="translate(49.6063,-10.6299)">
					<title>Sheet.1263</title>
					<path d="M0 51.52 L21.26 51.52" class="st8"/>
				</g>
				<g id="shape1264-21" v:mID="1264" v:groupContext="shape" transform="translate(-16.0906,26.7205) rotate(-90)">
					<title>Sheet.1264</title>
					<path d="M0 51.52 L17.72 51.52" class="st8"/>
				</g>
				<g id="shape1265-24" v:mID="1265" v:groupContext="shape" transform="translate(21.2598,92.4173) rotate(180)">
					<title>Sheet.1265</title>
					<path d="M0 51.52 L21.26 51.52" class="st8"/>
				</g>
				<g id="shape1266-27" v:mID="1266" v:groupContext="shape" transform="translate(-11.7191,66.607) rotate(-135)">
					<title>Sheet.1266</title>
					<path d="M0 51.52 L18.86 51.52" class="st8"/>
				</g>
				<g id="shape1267-30" v:mID="1267" v:groupContext="shape" transform="translate(46.063,-7.08664)">
					<title>Kreis.1267</title>
					<v:userDefs>
						<v:ud v:nameU="visVersion" v:val="VT0(15):26"/>
					</v:userDefs>
					<path d="M0 47.98 A3.54331 3.54331 0 0 1 7.09 47.98 A3.54331 3.54331 0 1 1 0 47.98 Z" class="st7"/>
				</g>
				<g id="shape1269-32" v:mID="1269" v:groupContext="shape" transform="translate(21.1703,-17.8061)">
					<title>Kreis.1269</title>
					<v:userDefs>
						<v:ud v:nameU="visVersion" v:val="VT0(15):26"/>
					</v:userDefs>
					<path d="M0 47.98 A3.54331 3.54331 0 0 1 7.09 47.98 A3.54331 3.54331 0 1 1 0 47.98 Z" class="st7"/>
				</g>
				<g id="shape1270-34" v:mID="1270" v:groupContext="shape" transform="translate(17.7165,-7.08664)">
					<title>Kreis.1270</title>
					<v:userDefs>
						<v:ud v:nameU="visVersion" v:val="VT0(15):26"/>
					</v:userDefs>
					<path d="M0 47.98 A3.54331 3.54331 0 0 1 7.09 47.98 A3.54331 3.54331 0 1 1 0 47.98 Z" class="st7"/>
				</g>
				<g id="shape1271-36" v:mID="1271" v:groupContext="shape" transform="translate(35.4331,92.4173) rotate(180)">
					<title>Sheet.1271</title>
					<path d="M0 51.52 L14.17 51.52" class="st2"/>
				</g>
				<g id="shape1272-39" v:mID="1272" v:groupContext="shape" transform="translate(-0.999634,77.3264) rotate(-135)">
					<title>Sheet.1272</title>
					<path d="M0 51.52 L15.16 51.52" class="st2"/>
				</g>
				<g id="shape1268-42" v:mID="1268" v:groupContext="shape" transform="translate(31.8898,-7.08664)">
					<title>Kreis.1268</title>
					<v:userDefs>
						<v:ud v:nameU="visVersion" v:val="VT0(15):26"/>
					</v:userDefs>
					<path d="M0 47.98 A3.54331 3.54331 0 0 1 7.09 47.98 A3.54331 3.54331 0 1 1 0 47.98 Z" class="st9"/>
				</g>
				<g id="shape1298-44" v:mID="1298" v:groupContext="shape" transform="translate(8.50395,-7.08664)">
					<title>Sheet.1298</title>
					<desc>1</desc>
					<v:textBlock v:margins="rect(0,0,0,0)" v:tabSpace="42.5197"/>
					<v:textRect cx="3.54331" cy="47.9803" width="7.09" height="7.08661"/>
					<rect x="0" y="44.437" width="7.08661" height="7.08661" class="st3"/>
					<text x="2.04" y="49.78" class="st4" v:langID="1033"><v:paragraph v:horizAlign="1"/><v:tabList/>1</text>				</g>
				<g id="shape1299-47" v:mID="1299" v:groupContext="shape" transform="translate(12.7559,-26.2205)">
					<title>Sheet.1299</title>
					<desc>2</desc>
					<v:textBlock v:margins="rect(0,0,0,0)" v:tabSpace="42.5197"/>
					<v:textRect cx="3.54331" cy="47.9803" width="7.09" height="7.08661"/>
					<rect x="0" y="44.437" width="7.08661" height="7.08661" class="st3"/>
					<text x="2.04" y="49.78" class="st4" v:langID="1033"><v:paragraph v:horizAlign="1"/><v:tabList/>2</text>				</g>
				<g id="shape1300-50" v:mID="1300" v:groupContext="shape" transform="translate(32.0315,-29.7638)">
					<title>Sheet.1300</title>
					<desc>3</desc>
					<v:textBlock v:margins="rect(0,0,0,0)" v:tabSpace="42.5197"/>
					<v:textRect cx="3.54331" cy="47.9803" width="7.09" height="7.08661"/>
					<rect x="0" y="44.437" width="7.08661" height="7.08661" class="st3"/>
					<text x="2.04" y="49.78" class="st4" v:langID="1033"><v:paragraph v:horizAlign="1"/><v:tabList/>3</text>				</g>
				<g id="shape1301-53" v:mID="1301" v:groupContext="shape" transform="translate(56.5922,-7.08664)">
					<title>Sheet.1301</title>
					<desc>δ(v)</desc>
					<v:textBlock v:margins="rect(0,0,0,0)" v:tabSpace="42.5197"/>
					<v:textRect cx="5.01099" cy="47.9803" width="10.03" height="7.08661"/>
					<rect x="0" y="44.437" width="10.022" height="7.08661" class="st3"/>
					<text x="0.29" y="49.81" class="st4" v:langID="1033"><v:paragraph v:horizAlign="1"/><v:tabList/>δ(v)</text>				</g>
				<g id="shape1313-56" v:mID="1313" v:groupContext="shape" transform="translate(19.8425,-13.0024)">
					<title>Sheet.1313</title>
					<desc>v1</desc>
					<v:textBlock v:margins="rect(0,0,0,0)" v:tabSpace="42.5197"/>
					<v:textRect cx="3.54331" cy="47.9803" width="7.09" height="7.08661"/>
					<rect x="0" y="44.437" width="7.08661" height="7.08661" class="st10"/>
					<text x="1.24" y="49.78" class="st4" v:langID="1033"><v:paragraph v:horizAlign="1"/><v:tabList/>v<tspan
								dy="-0.279em" class="st5" v:baseFontSize="6">1</tspan></text>				</g>
				<g id="shape1314-60" v:mID="1314" v:groupContext="shape" transform="translate(25.4502,-22.8928)">
					<title>Sheet.1314</title>
					<desc>v2</desc>
					<v:textBlock v:margins="rect(0,0,0,0)" v:tabSpace="42.5197"/>
					<v:textRect cx="3.54331" cy="47.9803" width="7.09" height="7.08661"/>
					<rect x="0" y="44.437" width="7.08661" height="7.08661" class="st10"/>
					<text x="1.24" y="49.78" class="st4" v:langID="1033"><v:paragraph v:horizAlign="1"/><v:tabList/>v<tspan
								dy="-0.279em" class="st5" v:baseFontSize="6">2</tspan></text>				</g>
				<g id="shape1315-64" v:mID="1315" v:groupContext="shape" transform="translate(37.4974,-25.3886)">
					<title>Sheet.1315</title>
					<desc>v3</desc>
					<v:textBlock v:margins="rect(0,0,0,0)" v:tabSpace="42.5197"/>
					<v:textRect cx="3.54331" cy="47.9803" width="7.09" height="7.08661"/>
					<rect x="0" y="44.437" width="7.08661" height="7.08661" class="st10"/>
					<text x="1.24" y="49.78" class="st4" v:langID="1033"><v:paragraph v:horizAlign="1"/><v:tabList/>v<tspan
								dy="-0.279em" class="st5" v:baseFontSize="6">3</tspan></text>				</g>
				<g id="shape1317-68" v:mID="1317" v:groupContext="shape" transform="translate(48.682,-13.1256)">
					<title>Sheet.1317</title>
					<desc>vδ(v)</desc>
					<v:textBlock v:margins="rect(0,0,0,0)" v:tabSpace="42.5197"/>
					<v:textRect cx="5.01099" cy="47.9803" width="10.03" height="7.08661"/>
					<rect x="0" y="44.437" width="10.022" height="7.08661" class="st10"/>
					<text x="0.61" y="49.78" class="st4" v:langID="1033"><v:paragraph v:horizAlign="1"/><v:tabList/>v<tspan
								dy="-0.279em" class="st5" v:baseFontSize="6">δ(</tspan><tspan class="st5" v:baseFontSize="6">v)</tspan></text>				</g>
			</g>
			<g id="shape1348-73" v:mID="1348" v:groupContext="shape" transform="translate(53.8583,-28.3465)">
				<title>Sheet.1348</title>
				<desc>...</desc>
				<v:textBlock v:margins="rect(0,0,0,0)" v:tabSpace="42.5197"/>
				<v:textRect cx="3.54331" cy="47.9803" width="7.09" height="7.08661"/>
				<rect x="0" y="44.437" width="7.08661" height="7.08661" class="st3"/>
				<text x="1.29" y="49.78" class="st4" v:langID="1033"><v:paragraph v:horizAlign="1"/><v:tabList/>...</text>			</g>
		</g>
	</g>
</svg>
