<?xml version="1.0" encoding="UTF-8" standalone="no"?>
<!DOCTYPE svg PUBLIC "-//W3C//DTD SVG 1.1//EN" "http://www.w3.org/Graphics/SVG/1.1/DTD/svg11.dtd">
<!-- Generated by Microsoft Visio, SVG Export 2Bar.svg Page-1 -->
<svg xmlns="http://www.w3.org/2000/svg" xmlns:xlink="http://www.w3.org/1999/xlink" xmlns:ev="http://www.w3.org/2001/xml-events"
		xmlns:v="http://schemas.microsoft.com/visio/2003/SVGExtensions/" width="1.07781in" height="0.717926in"
		viewBox="0 0 77.6024 51.6907" xml:space="preserve" color-interpolation-filters="sRGB" class="st10">
	<v:documentProperties v:langID="1031" v:viewMarkup="false"/>

	<style type="text/css">
	<![CDATA[
		.st1 {fill:#ffffff;stroke:#ffffff;stroke-linecap:round;stroke-linejoin:round;stroke-width:0.5}
		.st2 {stroke:#000000;stroke-dasharray:2,1;stroke-linecap:butt;stroke-width:0.5}
		.st3 {fill:#ffffff;stroke:none;stroke-linecap:round;stroke-linejoin:round;stroke-width:0.5}
		.st4 {fill:#000000;font-family:Times New Roman;font-size:0.499992em;font-style:italic}
		.st5 {baseline-shift:-32.4949%;font-size:0.649897em}
		.st6 {font-size:1em}
		.st7 {fill:#000000;stroke:none;stroke-linecap:round;stroke-linejoin:round;stroke-width:0.5}
		.st8 {stroke:#000000;stroke-width:1}
		.st9 {fill:#ffffff;stroke:#000000;stroke-linecap:round;stroke-linejoin:round;stroke-width:0.5}
		.st10 {fill:none;fill-rule:evenodd;font-size:12px;overflow:visible;stroke-linecap:square;stroke-miterlimit:3}
	]]>
	</style>

	<g v:mID="0" v:index="1" v:groupContext="foregroundPage">
		<title>Page-1</title>
		<v:pageProperties v:drawingScale="0.0393701" v:pageScale="0.0393701" v:drawingUnits="24" v:shadowOffsetX="8.50394"
				v:shadowOffsetY="-8.50394"/>
		<g id="shape1360-1" v:mID="1360" v:groupContext="shape" transform="translate(0.25,-0.417048)">
			<title>Rechteck.1360</title>
			<v:userDefs>
				<v:ud v:nameU="visVersion" v:val="VT0(15):26"/>
			</v:userDefs>
			<rect x="0" y="0.667048" width="77.1024" height="51.0236" class="st1"/>
		</g>
		<g id="group1356-3" transform="translate(3.55085,-0.417048)" v:mID="1356" v:groupContext="group">
			<title>Sheet.1356</title>
			<g id="shape1355-4" v:mID="1355" v:groupContext="shape" transform="translate(42.5197,93.6018) rotate(180)">
				<title>Sheet.1355</title>
				<path d="M0 51.69 L14.17 51.69" class="st2"/>
			</g>
			<g id="group1346-7" v:mID="1346" v:groupContext="group">
				<title>Sheet.1346</title>
				<g id="shape1342-8" v:mID="1342" v:groupContext="shape" transform="translate(38.9764,-6.39488E-14)">
					<title>Sheet.1342</title>
					<desc>v2’</desc>
					<v:textBlock v:margins="rect(0,0,0,0)" v:tabSpace="42.5197"/>
					<v:textRect cx="3.54331" cy="48.1474" width="7.09" height="7.08661"/>
					<rect x="0" y="44.6041" width="7.08661" height="7.08661" class="st3"/>
					<text x="0.57" y="49.95" class="st4" v:langID="1033"><v:paragraph v:horizAlign="1"/><v:tabList/>v<tspan
								dy="-0.279em" class="st5" v:baseFontSize="6">2</tspan><tspan dy="0.181em" class="st6">’ </tspan> </text>				</g>
				<g id="shape1341-13" v:mID="1341" v:groupContext="shape" transform="translate(24.8031,6.39488E-14)">
					<title>Sheet.1341</title>
					<desc>v1’</desc>
					<v:textBlock v:margins="rect(0,0,0,0)" v:tabSpace="42.5197"/>
					<v:textRect cx="3.54331" cy="48.1474" width="7.09" height="7.08661"/>
					<rect x="0" y="44.6041" width="7.08661" height="7.08661" class="st3"/>
					<text x="0.57" y="49.95" class="st4" v:langID="1033"><v:paragraph v:horizAlign="1"/><v:tabList/>v<tspan
								dy="-0.279em" class="st5" v:baseFontSize="6">1</tspan><tspan dy="0.181em" class="st6">’ </tspan> </text>				</g>
				<g id="shape1273-18" v:mID="1273" v:groupContext="shape" transform="translate(31.8898,-33.874)">
					<title>Kreis.1273</title>
					<v:userDefs>
						<v:ud v:nameU="visVersion" v:val="VT0(15):26"/>
					</v:userDefs>
					<path d="M0 48.15 A3.54331 3.54331 0 0 1 7.09 48.15 A3.54331 3.54331 0 1 1 0 48.15 Z" class="st7"/>
				</g>
				<g id="shape1274-20" v:mID="1274" v:groupContext="shape" transform="translate(56.6929,-23.2441)">
					<title>Sheet.1274</title>
					<path d="M0 51.69 L14.17 51.69" class="st8"/>
				</g>
				<g id="shape1275-23" v:mID="1275" v:groupContext="shape" transform="translate(-16.2576,14.2733) rotate(-90)">
					<title>Sheet.1275</title>
					<path d="M0 51.69 L11.34 51.69" class="st8"/>
				</g>
				<g id="shape1276-26" v:mID="1276" v:groupContext="shape" transform="translate(14.1732,80.1372) rotate(180)">
					<title>Sheet.1276</title>
					<path d="M0 51.69 L12.76 51.69" class="st8"/>
				</g>
				<g id="shape1277-29" v:mID="1277" v:groupContext="shape" transform="translate(-16.1355,52.0367) rotate(-132.51)">
					<title>Sheet.1277</title>
					<path d="M0 51.69 L11.54 51.69" class="st8"/>
				</g>
				<g id="shape1278-32" v:mID="1278" v:groupContext="shape" transform="translate(53.1496,-19.7008)">
					<title>Kreis.1278</title>
					<v:userDefs>
						<v:ud v:nameU="visVersion" v:val="VT0(15):26"/>
					</v:userDefs>
					<path d="M0 48.15 A3.54331 3.54331 0 0 1 7.09 48.15 A3.54331 3.54331 0 1 1 0 48.15 Z" class="st7"/>
				</g>
				<g id="shape1279-34" v:mID="1279" v:groupContext="shape" transform="translate(18.4252,-31.0394)">
					<title>Kreis.1279</title>
					<v:userDefs>
						<v:ud v:nameU="visVersion" v:val="VT0(15):26"/>
					</v:userDefs>
					<path d="M0 48.15 A3.54331 3.54331 0 0 1 7.09 48.15 A3.54331 3.54331 0 1 1 0 48.15 Z" class="st7"/>
				</g>
				<g id="shape1280-36" v:mID="1280" v:groupContext="shape" transform="translate(10.6299,-19.7008)">
					<title>Kreis.1280</title>
					<v:userDefs>
						<v:ud v:nameU="visVersion" v:val="VT0(15):26"/>
					</v:userDefs>
					<path d="M0 48.15 A3.54331 3.54331 0 0 1 7.09 48.15 A3.54331 3.54331 0 1 1 0 48.15 Z" class="st7"/>
				</g>
				<g id="shape1281-38" v:mID="1281" v:groupContext="shape" transform="translate(-7.25551,79.3868) rotate(-136.469)">
					<title>Sheet.1281</title>
					<path d="M0 51.69 L19.55 51.69" class="st2"/>
				</g>
				<g id="shape1282-41" v:mID="1282" v:groupContext="shape" transform="translate(-21.7156,54.7842) rotate(-104.421)">
					<title>Sheet.1282</title>
					<path d="M0 51.69 L25.61 51.69" class="st2"/>
				</g>
				<g id="shape1285-44" v:mID="1285" v:groupContext="shape" transform="translate(-21.7244,29.0725) rotate(-75.6186)">
					<title>Sheet.1285</title>
					<path d="M0 51.69 L28.53 51.69" class="st2"/>
				</g>
				<g id="shape1286-47" v:mID="1286" v:groupContext="shape" transform="translate(6.16818,-4.77986) rotate(-25.4078)">
					<title>Sheet.1286</title>
					<path d="M0 51.69 L31.38 51.69" class="st2"/>
				</g>
				<g id="shape1283-50" v:mID="1283" v:groupContext="shape" transform="translate(24.8031,-6.23622)">
					<title>Kreis.1283</title>
					<v:userDefs>
						<v:ud v:nameU="visVersion" v:val="VT0(15):26"/>
					</v:userDefs>
					<path d="M0 48.15 A3.54331 3.54331 0 0 1 7.09 48.15 A3.54331 3.54331 0 1 1 0 48.15 Z" class="st9"/>
				</g>
				<g id="shape1287-52" v:mID="1287" v:groupContext="shape" transform="translate(2.71674,74.8907) rotate(-129.644)">
					<title>Sheet.1287</title>
					<path d="M0 51.69 L32.21 51.69" class="st2"/>
				</g>
				<g id="shape1288-55" v:mID="1288" v:groupContext="shape" transform="translate(20.3414,88.6022) rotate(-154.592)">
					<title>Sheet.1288</title>
					<path d="M0 51.69 L31.38 51.69" class="st2"/>
				</g>
				<g id="shape1289-58" v:mID="1289" v:groupContext="shape" transform="translate(-7.55122,54.7498) rotate(-104.381)">
					<title>Sheet.1289</title>
					<path d="M0 51.69 L28.53 51.69" class="st2"/>
				</g>
				<g id="shape1290-61" v:mID="1290" v:groupContext="shape" transform="translate(6.91772,4.43547) rotate(-43.5312)">
					<title>Sheet.1290</title>
					<path d="M0 51.69 L19.55 51.69" class="st2"/>
				</g>
				<g id="shape1284-64" v:mID="1284" v:groupContext="shape" transform="translate(38.9764,-6.23622)">
					<title>Kreis.1284</title>
					<v:userDefs>
						<v:ud v:nameU="visVersion" v:val="VT0(15):26"/>
					</v:userDefs>
					<path d="M0 48.15 A3.54331 3.54331 0 0 1 7.09 48.15 A3.54331 3.54331 0 1 1 0 48.15 Z" class="st9"/>
				</g>
				<g id="shape1306-66" v:mID="1306" v:groupContext="shape" transform="translate(63.7795,-19.7008)">
					<title>Sheet.1306</title>
					<desc>δ(v)</desc>
					<v:textBlock v:margins="rect(0,0,0,0)" v:tabSpace="42.5197"/>
					<v:textRect cx="5.01099" cy="48.1474" width="10.03" height="7.08661"/>
					<rect x="0" y="44.6041" width="10.022" height="7.08661" class="st3"/>
					<text x="0.29" y="49.97" class="st4" v:langID="1033"><v:paragraph v:horizAlign="1"/><v:tabList/>δ(v)</text>				</g>
				<g id="shape1307-69" v:mID="1307" v:groupContext="shape" transform="translate(31.8898,-43.937)">
					<title>Sheet.1307</title>
					<desc>3</desc>
					<v:textBlock v:margins="rect(0,0,0,0)" v:tabSpace="42.5197"/>
					<v:textRect cx="3.54331" cy="48.1474" width="7.09" height="7.08661"/>
					<rect x="0" y="44.6041" width="7.08661" height="7.08661" class="st3"/>
					<text x="2.04" y="49.95" class="st4" v:langID="1033"><v:paragraph v:horizAlign="1"/><v:tabList/>3</text>				</g>
				<g id="shape1308-72" v:mID="1308" v:groupContext="shape" transform="translate(10.6299,-39.2076)">
					<title>Sheet.1308</title>
					<desc>2</desc>
					<v:textBlock v:margins="rect(0,0,0,0)" v:tabSpace="42.5197"/>
					<v:textRect cx="3.54331" cy="48.1474" width="7.09" height="7.08661"/>
					<rect x="0" y="44.6041" width="7.08661" height="7.08661" class="st3"/>
					<text x="2.04" y="49.95" class="st4" v:langID="1033"><v:paragraph v:horizAlign="1"/><v:tabList/>2</text>				</g>
				<g id="shape1309-75" v:mID="1309" v:groupContext="shape" transform="translate(0,-19.7008)">
					<title>Sheet.1309</title>
					<desc>1</desc>
					<v:textBlock v:margins="rect(0,0,0,0)" v:tabSpace="42.5197"/>
					<v:textRect cx="3.54331" cy="48.1474" width="7.09" height="7.08661"/>
					<rect x="0" y="44.6041" width="7.08661" height="7.08661" class="st3"/>
					<text x="2.04" y="49.95" class="st4" v:langID="1033"><v:paragraph v:horizAlign="1"/><v:tabList/>1</text>				</g>
			</g>
			<g id="shape1349-78" v:mID="1349" v:groupContext="shape" transform="translate(52.2582,-35.4331)">
				<title>Sheet.1349</title>
				<desc>...</desc>
				<v:textBlock v:margins="rect(0,0,0,0)" v:tabSpace="42.5197"/>
				<v:textRect cx="3.54331" cy="48.1474" width="7.09" height="7.08661"/>
				<rect x="0" y="44.6041" width="7.08661" height="7.08661" class="st3"/>
				<text x="1.29" y="49.95" class="st4" v:langID="1033"><v:paragraph v:horizAlign="1"/><v:tabList/>...</text>			</g>
		</g>
	</g>
</svg>
