<?xml version="1.0" encoding="UTF-8" standalone="no"?>
<!DOCTYPE svg PUBLIC "-//W3C//DTD SVG 1.1//EN" "http://www.w3.org/Graphics/SVG/1.1/DTD/svg11.dtd">
<!-- Generated by Microsoft Visio, SVG Export Baah.svg Page-1 -->
<svg xmlns="http://www.w3.org/2000/svg" xmlns:xlink="http://www.w3.org/1999/xlink" xmlns:ev="http://www.w3.org/2001/xml-events"
		xmlns:v="http://schemas.microsoft.com/visio/2003/SVGExtensions/" width="0.325377in" height="0.32885in"
		viewBox="0 0 23.4272 23.6772" xml:space="preserve" color-interpolation-filters="sRGB" class="st4">
	<v:documentProperties v:langID="1031" v:viewMarkup="false"/>

	<style type="text/css">
	<![CDATA[
		.st1 {stroke:#000000;stroke-width:0.5}
		.st2 {fill:#000000;stroke:#000000;stroke-width:0.25}
		.st3 {stroke:#000000;stroke-width:0.25}
		.st4 {fill:none;fill-rule:evenodd;font-size:12px;overflow:visible;stroke-linecap:square;stroke-miterlimit:3}
	]]>
	</style>

	<g v:mID="0" v:index="1" v:groupContext="foregroundPage">
		<title>Page-1</title>
		<v:pageProperties v:drawingScale="0.0393701" v:pageScale="0.0393701" v:drawingUnits="24" v:shadowOffsetX="8.50394"
				v:shadowOffsetY="-8.50394"/>
		<g id="group1208-1" transform="translate(0.25,-0.5)" v:mID="1208" v:groupContext="group">
			<title>Sheet.1208</title>
			<g id="shape1191-2" v:mID="1191" v:groupContext="shape" transform="translate(2.83465,-22.6772)">
				<title>Sheet.1191</title>
				<path d="M0 23.68 L19.84 23.68" class="st1"/>
			</g>
			<g id="shape1192-5" v:mID="1192" v:groupContext="shape" transform="translate(2.83465,0)">
				<title>Sheet.1192</title>
				<path d="M0 23.68 L19.84 23.68" class="st1"/>
			</g>
			<g id="shape1193-8" v:mID="1193" v:groupContext="shape" transform="translate(11.3386,-17.0079)">
				<title>Square.1193</title>
				<v:userDefs>
					<v:ud v:nameU="visVersion" v:val="VT0(15):26"/>
				</v:userDefs>
				<rect x="0" y="20.8425" width="2.83464" height="2.83464" class="st2"/>
			</g>
			<g id="shape1194-10" v:mID="1194" v:groupContext="shape" transform="translate(11.3386,-9.92126)">
				<title>Square.1194</title>
				<v:userDefs>
					<v:ud v:nameU="visVersion" v:val="VT0(15):26"/>
				</v:userDefs>
				<rect x="0" y="20.8425" width="2.83464" height="2.83464" class="st2"/>
			</g>
			<g id="shape1195-12" v:mID="1195" v:groupContext="shape" transform="translate(11.3386,-2.83465)">
				<title>Square.1195</title>
				<v:userDefs>
					<v:ud v:nameU="visVersion" v:val="VT0(15):26"/>
				</v:userDefs>
				<rect x="0" y="20.8425" width="2.83464" height="2.83464" class="st2"/>
			</g>
			<g id="shape1196-14" v:mID="1196" v:groupContext="shape" transform="translate(9.92126,-18.4252)">
				<title>Sheet.1196</title>
				<path d="M0 23.68 L1.42 23.68" class="st3"/>
			</g>
			<g id="shape1197-17" v:mID="1197" v:groupContext="shape" transform="translate(14.1732,-18.4252)">
				<title>Sheet.1197</title>
				<path d="M0 23.68 L1.42 23.68 L2.83 22.26" class="st3"/>
			</g>
			<g id="shape1198-20" v:mID="1198" v:groupContext="shape" transform="translate(16.9333,-11.3386)">
				<title>Sheet.1198</title>
				<path d="M0.07 16.59 L1.49 16.59 L1.49 23.68 L0 23.68" class="st3"/>
			</g>
			<g id="shape1199-23" v:mID="1199" v:groupContext="shape" transform="translate(14.1732,-11.3386)">
				<title>Sheet.1199</title>
				<path d="M0 23.68 L1.34 23.68 L2.83 22.26" class="st3"/>
			</g>
			<g id="shape1200-26" v:mID="1200" v:groupContext="shape" transform="translate(11.3386,36.0157) rotate(180)">
				<title>Sheet.1200</title>
				<path d="M0 23.68 L1.42 23.68" class="st3"/>
			</g>
			<g id="shape1201-29" v:mID="1201" v:groupContext="shape" transform="translate(7.16121,-4.25197)">
				<title>Sheet.1201</title>
				<path d="M2.74 15.15 L1.34 16.55 L0 16.55 L0 23.68 L1.34 23.68 L2.72 22.3" class="st3"/>
			</g>
			<g id="shape1202-32" v:mID="1202" v:groupContext="shape" transform="translate(9.92128,-4.25197) rotate(4.37585E-05)">
				<title>Sheet.1202</title>
				<path d="M0 23.68 L1.42 23.68" class="st3"/>
			</g>
			<g id="shape1203-35" v:mID="1203" v:groupContext="shape">
				<title>Sheet.1203</title>
				<path d="M7.16 15.85 L0 15.84 L0 23.68" class="st3"/>
			</g>
			<g id="shape1204-38" v:mID="1204" v:groupContext="shape" transform="translate(1.26456E-06,-14.9102)">
				<title>Sheet.1204</title>
				<path d="M18.43 23.68 L0 23.68 L0 15.91" class="st3"/>
			</g>
			<g id="shape1205-41" v:mID="1205" v:groupContext="shape" transform="translate(7.08661,-18.4252)">
				<title>Sheet.1205</title>
				<path d="M2.83 22.26 L1.42 23.68 L0 23.68 L0 19.43" class="st3"/>
			</g>
			<g id="shape1206-44" v:mID="1206" v:groupContext="shape" transform="translate(14.1732,-4.25197)">
				<title>Sheet.1206</title>
				<path d="M0 23.68 L1.42 23.68 L2.83 22.26" class="st3"/>
			</g>
			<g id="shape1207-47" v:mID="1207" v:groupContext="shape" transform="translate(17.0079,0)">
				<title>Sheet.1207</title>
				<path d="M0 19.43 L1.42 19.43 L1.42 23.68" class="st3"/>
			</g>
		</g>
	</g>
</svg>
