<?xml version="1.0" encoding="UTF-8" standalone="no"?>
<!DOCTYPE svg PUBLIC "-//W3C//DTD SVG 1.1//EN" "http://www.w3.org/Graphics/SVG/1.1/DTD/svg11.dtd">
<!-- Generated by Microsoft Visio, SVG Export d2.svg Page-1 -->
<svg xmlns="http://www.w3.org/2000/svg" xmlns:xlink="http://www.w3.org/1999/xlink" xmlns:ev="http://www.w3.org/2001/xml-events"
		xmlns:v="http://schemas.microsoft.com/visio/2003/SVGExtensions/" width="1.07781in" height="0.718149in"
		viewBox="0 0 77.6024 51.7067" xml:space="preserve" color-interpolation-filters="sRGB" class="st10">
	<v:documentProperties v:langID="1031" v:viewMarkup="false"/>

	<style type="text/css">
	<![CDATA[
		.st1 {fill:#ffffff;stroke:none;stroke-linecap:round;stroke-linejoin:round;stroke-width:0.5}
		.st2 {stroke:#000000;stroke-dasharray:2,1;stroke-linecap:butt;stroke-width:0.5}
		.st3 {fill:#000000;font-family:Times New Roman;font-size:0.499992em;font-style:italic}
		.st4 {baseline-shift:32.4949%;font-size:0.649897em}
		.st5 {fill:#000000;stroke:none;stroke-linecap:round;stroke-linejoin:round;stroke-width:0.5}
		.st6 {stroke:#000000;stroke-width:1}
		.st7 {fill:none;stroke:none;stroke-linecap:round;stroke-linejoin:round;stroke-width:0.5}
		.st8 {baseline-shift:-32.4949%;font-size:0.649897em}
		.st9 {fill:#ffffff;stroke:#000000;stroke-linecap:round;stroke-linejoin:round;stroke-width:0.5}
		.st10 {fill:none;fill-rule:evenodd;font-size:12px;overflow:visible;stroke-linecap:square;stroke-miterlimit:3}
	]]>
	</style>

	<g v:mID="0" v:index="1" v:groupContext="foregroundPage">
		<title>Page-1</title>
		<v:pageProperties v:drawingScale="0.0393701" v:pageScale="0.0393701" v:drawingUnits="24" v:shadowOffsetX="8.50394"
				v:shadowOffsetY="-8.50394"/>
		<g id="group1478-1" transform="translate(0.25,-0.25)" v:mID="1478" v:groupContext="group">
			<title>Sheet.1478</title>
			<g id="shape1365-2" v:mID="1365" v:groupContext="shape">
				<title>Rechteck.1365</title>
				<v:userDefs>
					<v:ud v:nameU="visVersion" v:val="VT0(15):26"/>
				</v:userDefs>
				<rect x="0" y="0.683065" width="77.1024" height="51.0236" class="st1"/>
			</g>
			<g id="shape1383-4" v:mID="1383" v:groupContext="shape" transform="translate(-13.061,33.1398) rotate(-90)">
				<title>Sheet.1383</title>
				<path d="M0 51.71 L14.17 51.71" class="st2"/>
			</g>
			<g id="shape1384-7" v:mID="1384" v:groupContext="shape" transform="translate(38.6456,-18.5669)">
				<title>Sheet.1384</title>
				<path d="M0 51.71 L14.17 51.71" class="st2"/>
			</g>
			<g id="shape1385-10" v:mID="1385" v:groupContext="shape" transform="translate(39.3481,-8.50394)">
				<title>Sheet.1385</title>
				<desc>vbb1</desc>
				<v:textBlock v:margins="rect(0,0,0,0)" v:tabSpace="42.5197"/>
				<v:textRect cx="6.40468" cy="48.1634" width="12.81" height="7.08661"/>
				<rect x="0" y="44.6201" width="12.8094" height="7.08661" class="st1"/>
				<text x="2.15" y="49.96" class="st3" v:langID="1033"><v:paragraph v:horizAlign="1"/><v:tabList/>v<tspan
							dy="-0.198em" class="st4" v:baseFontSize="6">bb1</tspan></text>			</g>
			<g id="shape1386-14" v:mID="1386" v:groupContext="shape" transform="translate(35.1023,-29.1968)">
				<title>Kreis.1256</title>
				<v:userDefs>
					<v:ud v:nameU="visVersion" v:val="VT0(15):26"/>
				</v:userDefs>
				<path d="M0 48.16 A3.54331 3.54331 0 0 1 7.09 48.16 A3.54331 3.54331 0 1 1 0 48.16 Z" class="st5"/>
			</g>
			<g id="shape1387-16" v:mID="1387" v:groupContext="shape" transform="translate(52.8189,-18.5669)">
				<title>Sheet.1387</title>
				<path d="M0 51.71 L21.26 51.71" class="st6"/>
			</g>
			<g id="shape1388-19" v:mID="1388" v:groupContext="shape" transform="translate(-13.061,18.9665) rotate(-90)">
				<title>Sheet.1388</title>
				<path d="M0 51.71 L17.72 51.71" class="st6"/>
			</g>
			<g id="shape1389-22" v:mID="1389" v:groupContext="shape" transform="translate(24.4724,84.8465) rotate(180)">
				<title>Sheet.1389</title>
				<path d="M0 51.71 L21.26 51.71" class="st6"/>
			</g>
			<g id="shape1390-25" v:mID="1390" v:groupContext="shape" transform="translate(-8.63593,58.9825) rotate(-135)">
				<title>Sheet.1390</title>
				<path d="M0 51.71 L18.86 51.71" class="st6"/>
			</g>
			<g id="shape1391-28" v:mID="1391" v:groupContext="shape" transform="translate(49.2756,-15.0236)">
				<title>Kreis.1267</title>
				<v:userDefs>
					<v:ud v:nameU="visVersion" v:val="VT0(15):26"/>
				</v:userDefs>
				<path d="M0 48.16 A3.54331 3.54331 0 0 1 7.09 48.16 A3.54331 3.54331 0 1 1 0 48.16 Z" class="st5"/>
			</g>
			<g id="shape1392-30" v:mID="1392" v:groupContext="shape" transform="translate(24.3829,-25.743)">
				<title>Kreis.1269</title>
				<v:userDefs>
					<v:ud v:nameU="visVersion" v:val="VT0(15):26"/>
				</v:userDefs>
				<path d="M0 48.16 A3.54331 3.54331 0 0 1 7.09 48.16 A3.54331 3.54331 0 1 1 0 48.16 Z" class="st5"/>
			</g>
			<g id="shape1393-32" v:mID="1393" v:groupContext="shape" transform="translate(20.9291,-15.0236)">
				<title>Kreis.1270</title>
				<v:userDefs>
					<v:ud v:nameU="visVersion" v:val="VT0(15):26"/>
				</v:userDefs>
				<path d="M0 48.16 A3.54331 3.54331 0 0 1 7.09 48.16 A3.54331 3.54331 0 1 1 0 48.16 Z" class="st5"/>
			</g>
			<g id="shape1394-34" v:mID="1394" v:groupContext="shape" transform="translate(38.6456,84.8465) rotate(180)">
				<title>Sheet.1394</title>
				<path d="M0 51.71 L14.17 51.71" class="st2"/>
			</g>
			<g id="shape1395-37" v:mID="1395" v:groupContext="shape" transform="translate(2.0835,69.7019) rotate(-135)">
				<title>Sheet.1395</title>
				<path d="M0 51.71 L15.16 51.71" class="st2"/>
			</g>
			<g id="shape1397-40" v:mID="1397" v:groupContext="shape" transform="translate(11.7165,-15.0236)">
				<title>Sheet.1397</title>
				<desc>1</desc>
				<v:textBlock v:margins="rect(0,0,0,0)" v:tabSpace="42.5197"/>
				<v:textRect cx="3.54331" cy="48.1634" width="7.09" height="7.08661"/>
				<rect x="0" y="44.6201" width="7.08661" height="7.08661" class="st1"/>
				<text x="2.04" y="49.96" class="st3" v:langID="1033"><v:paragraph v:horizAlign="1"/><v:tabList/>1</text>			</g>
			<g id="shape1398-43" v:mID="1398" v:groupContext="shape" transform="translate(15.9685,-34.1575)">
				<title>Sheet.1398</title>
				<desc>2</desc>
				<v:textBlock v:margins="rect(0,0,0,0)" v:tabSpace="42.5197"/>
				<v:textRect cx="3.54331" cy="48.1634" width="7.09" height="7.08661"/>
				<rect x="0" y="44.6201" width="7.08661" height="7.08661" class="st1"/>
				<text x="2.04" y="49.96" class="st3" v:langID="1033"><v:paragraph v:horizAlign="1"/><v:tabList/>2</text>			</g>
			<g id="shape1399-46" v:mID="1399" v:groupContext="shape" transform="translate(35.2441,-37.7008)">
				<title>Sheet.1399</title>
				<desc>3</desc>
				<v:textBlock v:margins="rect(0,0,0,0)" v:tabSpace="42.5197"/>
				<v:textRect cx="3.54331" cy="48.1634" width="7.09" height="7.08661"/>
				<rect x="0" y="44.6201" width="7.08661" height="7.08661" class="st1"/>
				<text x="2.04" y="49.96" class="st3" v:langID="1033"><v:paragraph v:horizAlign="1"/><v:tabList/>3</text>			</g>
			<g id="shape1400-49" v:mID="1400" v:groupContext="shape" transform="translate(59.8048,-15.0236)">
				<title>Sheet.1400</title>
				<desc>δ(v)</desc>
				<v:textBlock v:margins="rect(0,0,0,0)" v:tabSpace="42.5197"/>
				<v:textRect cx="5.01099" cy="48.1634" width="10.03" height="7.08661"/>
				<rect x="0" y="44.6201" width="10.022" height="7.08661" class="st1"/>
				<text x="0.29" y="49.99" class="st3" v:langID="1033"><v:paragraph v:horizAlign="1"/><v:tabList/>δ(v)</text>			</g>
			<g id="shape1401-52" v:mID="1401" v:groupContext="shape" transform="translate(20.9291,-21.2599)">
				<title>Sheet.1401</title>
				<desc>v̂1</desc>
				<v:textBlock v:margins="rect(0,0,0,0)" v:tabSpace="42.5197"/>
				<v:textRect cx="3.54331" cy="48.1634" width="7.09" height="7.08661"/>
				<rect x="0" y="44.6201" width="7.08661" height="7.08661" class="st7"/>
				<text x="0.206em 0.65em" y="49.96" class="st3" v:langID="1033"><v:paragraph v:horizAlign="1"/><v:tabList/>v̂<tspan
							dy="-0.279em" class="st8" v:baseFontSize="6">1</tspan></text>			</g>
			<g id="shape1402-56" v:mID="1402" v:groupContext="shape" transform="translate(28.6628,-30.8298)">
				<title>Sheet.1402</title>
				<desc>v̂2</desc>
				<v:textBlock v:margins="rect(0,0,0,0)" v:tabSpace="42.5197"/>
				<v:textRect cx="3.54331" cy="48.1634" width="7.09" height="7.08661"/>
				<rect x="0" y="44.6201" width="7.08661" height="7.08661" class="st7"/>
				<text x="0.206em 0.65em" y="49.96" class="st3" v:langID="1033"><v:paragraph v:horizAlign="1"/><v:tabList/>v̂<tspan
							dy="-0.279em" class="st8" v:baseFontSize="6">2</tspan></text>			</g>
			<g id="shape1403-60" v:mID="1403" v:groupContext="shape" transform="translate(40.71,-33.3256)">
				<title>Sheet.1403</title>
				<desc>v̂3</desc>
				<v:textBlock v:margins="rect(0,0,0,0)" v:tabSpace="42.5197"/>
				<v:textRect cx="3.54331" cy="48.1634" width="7.09" height="7.08661"/>
				<rect x="0" y="44.6201" width="7.08661" height="7.08661" class="st7"/>
				<text x="0.206em 0.65em" y="49.96" class="st3" v:langID="1033"><v:paragraph v:horizAlign="1"/><v:tabList/>v̂<tspan
							dy="-0.279em" class="st8" v:baseFontSize="6">3</tspan></text>			</g>
			<g id="shape1404-64" v:mID="1404" v:groupContext="shape" transform="translate(51.8946,-21.0626)">
				<title>Sheet.1404</title>
				<desc>v̂δ(v)</desc>
				<v:textBlock v:margins="rect(0,0,0,0)" v:tabSpace="42.5197"/>
				<v:textRect cx="5.01099" cy="48.1634" width="10.03" height="7.08661"/>
				<rect x="0" y="44.6201" width="10.022" height="7.08661" class="st7"/>
				<text x="0.102em 0.545em" y="49.96" class="st3" v:langID="1033"><v:paragraph v:horizAlign="1"/><v:tabList/>v̂<tspan
							dy="-0.279em" class="st8" v:baseFontSize="6">δ(</tspan><tspan class="st8" v:baseFontSize="6">v)</tspan></text>			</g>
			<g id="shape1405-69" v:mID="1405" v:groupContext="shape" transform="translate(57.0709,-36.2834)">
				<title>Sheet.1405</title>
				<desc>...</desc>
				<v:textBlock v:margins="rect(0,0,0,0)" v:tabSpace="42.5197"/>
				<v:textRect cx="3.54331" cy="48.1634" width="7.09" height="7.08661"/>
				<rect x="0" y="44.6201" width="7.08661" height="7.08661" class="st1"/>
				<text x="1.29" y="49.96" class="st3" v:langID="1033"><v:paragraph v:horizAlign="1"/><v:tabList/>...</text>			</g>
			<g id="shape1459-72" v:mID="1459" v:groupContext="shape" transform="translate(35.0079,-6.30028E-06)">
				<title>Kreis.348</title>
				<v:userDefs>
					<v:ud v:nameU="visVersion" v:val="VT0(15):26"/>
				</v:userDefs>
				<path d="M0 48.16 A3.54331 3.54331 0 0 1 7.09 48.16 A3.54331 3.54331 0 1 1 0 48.16 Z" class="st5"/>
			</g>
			<g id="shape1461-74" v:mID="1461" v:groupContext="shape" transform="translate(-13.1545,47.8382) rotate(-89.6397)">
				<title>Sheet.1461</title>
				<path d="M0 51.71 L15.02 51.71" class="st2"/>
			</g>
			<g id="shape1396-77" v:mID="1396" v:groupContext="shape" transform="translate(35.1023,-15.0236)">
				<title>Kreis.1268</title>
				<v:userDefs>
					<v:ud v:nameU="visVersion" v:val="VT0(15):26"/>
				</v:userDefs>
				<path d="M0 48.16 A3.54331 3.54331 0 0 1 7.09 48.16 A3.54331 3.54331 0 1 1 0 48.16 Z" class="st9"/>
			</g>
			<g id="shape1462-79" v:mID="1462" v:groupContext="shape" transform="translate(42.9449,-6.30028E-06)">
				<title>Sheet.1462</title>
				<desc>v</desc>
				<v:textBlock v:margins="rect(0,0,0,0)" v:tabSpace="42.5197"/>
				<v:textRect cx="3.54331" cy="48.1634" width="7.09" height="7.08661"/>
				<rect x="0" y="44.6201" width="7.08661" height="7.08661" class="st1"/>
				<text x="2.21" y="49.96" class="st3" v:langID="1033"><v:paragraph v:horizAlign="1"/><v:tabList/>v</text>			</g>
		</g>
	</g>
</svg>
