<?xml version="1.0" encoding="UTF-8" standalone="no"?>
<!DOCTYPE svg PUBLIC "-//W3C//DTD SVG 1.1//EN" "http://www.w3.org/Graphics/SVG/1.1/DTD/svg11.dtd">
<!-- Generated by Microsoft Visio, SVG Export d3.svg Page-1 -->
<svg xmlns="http://www.w3.org/2000/svg" xmlns:xlink="http://www.w3.org/1999/xlink" xmlns:ev="http://www.w3.org/2001/xml-events"
		xmlns:v="http://schemas.microsoft.com/visio/2003/SVGExtensions/" width="1.07781in" height="0.715606in"
		viewBox="0 0 77.6024 51.5236" xml:space="preserve" color-interpolation-filters="sRGB" class="st9">
	<v:documentProperties v:langID="1031" v:viewMarkup="false"/>

	<style type="text/css">
	<![CDATA[
		.st1 {fill:#ffffff;stroke:#ffffff;stroke-linecap:round;stroke-linejoin:round;stroke-width:0.5}
		.st2 {fill:#000000;stroke:none;stroke-linecap:round;stroke-linejoin:round;stroke-width:0.5}
		.st3 {stroke:#000000;stroke-width:1}
		.st4 {stroke:#000000;stroke-dasharray:2,1;stroke-linecap:butt;stroke-width:0.5}
		.st5 {fill:#ffffff;stroke:none;stroke-linecap:round;stroke-linejoin:round;stroke-width:0.5}
		.st6 {fill:#000000;font-family:Times New Roman;font-size:0.499992em;font-style:italic}
		.st7 {baseline-shift:32.4949%;font-size:0.649897em}
		.st8 {fill:#ffffff;stroke:#000000;stroke-linecap:round;stroke-linejoin:round;stroke-width:0.5}
		.st9 {fill:none;fill-rule:evenodd;font-size:12px;overflow:visible;stroke-linecap:square;stroke-miterlimit:3}
	]]>
	</style>

	<g v:mID="0" v:index="1" v:groupContext="foregroundPage">
		<title>Page-1</title>
		<v:pageProperties v:drawingScale="0.0393701" v:pageScale="0.0393701" v:drawingUnits="24" v:shadowOffsetX="8.50394"
				v:shadowOffsetY="-8.50394"/>
		<g id="group1479-1" transform="translate(0.25,-0.25)" v:mID="1479" v:groupContext="group">
			<title>Sheet.1479</title>
			<g id="shape1367-2" v:mID="1367" v:groupContext="shape">
				<title>Rechteck.1367</title>
				<v:userDefs>
					<v:ud v:nameU="visVersion" v:val="VT0(15):26"/>
				</v:userDefs>
				<rect x="0" y="0.5" width="77.1024" height="51.0236" class="st1"/>
			</g>
			<g id="shape1432-4" v:mID="1432" v:groupContext="shape" transform="translate(35.1906,-33.874)">
				<title>Kreis.1273</title>
				<v:userDefs>
					<v:ud v:nameU="visVersion" v:val="VT0(15):26"/>
				</v:userDefs>
				<path d="M0 47.98 A3.54331 3.54331 0 0 1 7.09 47.98 A3.54331 3.54331 0 1 1 0 47.98 Z" class="st2"/>
			</g>
			<g id="shape1433-6" v:mID="1433" v:groupContext="shape" transform="translate(59.9937,-23.2441)">
				<title>Sheet.1433</title>
				<path d="M0 51.52 L14.17 51.52" class="st3"/>
			</g>
			<g id="shape1434-9" v:mID="1434" v:groupContext="shape" transform="translate(-12.7897,14.1063) rotate(-90)">
				<title>Sheet.1434</title>
				<path d="M0 51.52 L11.34 51.52" class="st3"/>
			</g>
			<g id="shape1435-12" v:mID="1435" v:groupContext="shape" transform="translate(17.4741,79.8031) rotate(180)">
				<title>Sheet.1435</title>
				<path d="M0 51.52 L12.76 51.52" class="st3"/>
			</g>
			<g id="shape1436-15" v:mID="1436" v:groupContext="shape" transform="translate(-12.7115,51.7567) rotate(-132.51)">
				<title>Sheet.1436</title>
				<path d="M0 51.52 L11.54 51.52" class="st3"/>
			</g>
			<g id="shape1437-18" v:mID="1437" v:groupContext="shape" transform="translate(56.4504,-19.7008)">
				<title>Kreis.1278</title>
				<v:userDefs>
					<v:ud v:nameU="visVersion" v:val="VT0(15):26"/>
				</v:userDefs>
				<path d="M0 47.98 A3.54331 3.54331 0 0 1 7.09 47.98 A3.54331 3.54331 0 1 1 0 47.98 Z" class="st2"/>
			</g>
			<g id="shape1438-20" v:mID="1438" v:groupContext="shape" transform="translate(21.726,-31.0394)">
				<title>Kreis.1279</title>
				<v:userDefs>
					<v:ud v:nameU="visVersion" v:val="VT0(15):26"/>
				</v:userDefs>
				<path d="M0 47.98 A3.54331 3.54331 0 0 1 7.09 47.98 A3.54331 3.54331 0 1 1 0 47.98 Z" class="st2"/>
			</g>
			<g id="shape1439-22" v:mID="1439" v:groupContext="shape" transform="translate(13.9308,-19.7008)">
				<title>Kreis.1280</title>
				<v:userDefs>
					<v:ud v:nameU="visVersion" v:val="VT0(15):26"/>
				</v:userDefs>
				<path d="M0 47.98 A3.54331 3.54331 0 0 1 7.09 47.98 A3.54331 3.54331 0 1 1 0 47.98 Z" class="st2"/>
			</g>
			<g id="shape1440-24" v:mID="1440" v:groupContext="shape" transform="translate(8.97603,81.4921) rotate(-153.895)">
				<title>Sheet.1440</title>
				<path d="M0 51.52 L15.78 51.52" class="st4"/>
			</g>
			<g id="shape1441-27" v:mID="1441" v:groupContext="shape" transform="translate(-17.0013,52.1948) rotate(-109.231)">
				<title>Sheet.1441</title>
				<path d="M0 51.52 L19.36 51.52" class="st4"/>
			</g>
			<g id="shape1442-30" v:mID="1442" v:groupContext="shape" transform="translate(-17.1994,18.8329) rotate(-71.4498)">
				<title>Sheet.1442</title>
				<path d="M0 51.52 L22.28 51.52" class="st4"/>
			</g>
			<g id="shape1443-33" v:mID="1443" v:groupContext="shape" transform="translate(19.3866,-14.8191) rotate(-13.7664)">
				<title>Sheet.1443</title>
				<path d="M0 51.52 L29.18 51.52" class="st4"/>
			</g>
			<g id="shape1445-36" v:mID="1445" v:groupContext="shape" transform="translate(28.7251,72.7741) rotate(-160.622)">
				<title>Sheet.1445</title>
				<path d="M0 51.52 L21.79 51.52" class="st4"/>
			</g>
			<g id="shape1446-39" v:mID="1446" v:groupContext="shape" transform="translate(53.2142,75.1596) rotate(171.75)">
				<title>Sheet.1446</title>
				<path d="M0 51.52 L28.64 51.52" class="st4"/>
			</g>
			<g id="shape1447-42" v:mID="1447" v:groupContext="shape" transform="translate(3.69453,53.8355) rotate(-125.154)">
				<title>Sheet.1447</title>
				<path d="M0 51.52 L12.31 51.52" class="st4"/>
			</g>
			<g id="shape1448-45" v:mID="1448" v:groupContext="shape" transform="translate(60.1712,-25.3155) rotate(16.1722)">
				<title>Sheet.1448</title>
				<path d="M0 51.52 L14.76 51.52" class="st4"/>
			</g>
			<g id="shape1450-48" v:mID="1450" v:groupContext="shape" transform="translate(67.0804,-19.7008)">
				<title>Sheet.1450</title>
				<desc>δ(v)</desc>
				<v:textBlock v:margins="rect(0,0,0,0)" v:tabSpace="42.5197"/>
				<v:textRect cx="5.01099" cy="47.9803" width="10.03" height="7.08661"/>
				<rect x="0" y="44.437" width="10.022" height="7.08661" class="st5"/>
				<text x="0.29" y="49.81" class="st6" v:langID="1033"><v:paragraph v:horizAlign="1"/><v:tabList/>δ(v)</text>			</g>
			<g id="shape1451-51" v:mID="1451" v:groupContext="shape" transform="translate(35.1906,-43.937)">
				<title>Sheet.1451</title>
				<desc>3</desc>
				<v:textBlock v:margins="rect(0,0,0,0)" v:tabSpace="42.5197"/>
				<v:textRect cx="3.54331" cy="47.9803" width="7.09" height="7.08661"/>
				<rect x="0" y="44.437" width="7.08661" height="7.08661" class="st5"/>
				<text x="2.04" y="49.78" class="st6" v:langID="1033"><v:paragraph v:horizAlign="1"/><v:tabList/>3</text>			</g>
			<g id="shape1452-54" v:mID="1452" v:groupContext="shape" transform="translate(13.9308,-39.2076)">
				<title>Sheet.1452</title>
				<desc>2</desc>
				<v:textBlock v:margins="rect(0,0,0,0)" v:tabSpace="42.5197"/>
				<v:textRect cx="3.54331" cy="47.9803" width="7.09" height="7.08661"/>
				<rect x="0" y="44.437" width="7.08661" height="7.08661" class="st5"/>
				<text x="2.04" y="49.78" class="st6" v:langID="1033"><v:paragraph v:horizAlign="1"/><v:tabList/>2</text>			</g>
			<g id="shape1453-57" v:mID="1453" v:groupContext="shape" transform="translate(3.30084,-19.7008)">
				<title>Sheet.1453</title>
				<desc>1</desc>
				<v:textBlock v:margins="rect(0,0,0,0)" v:tabSpace="42.5197"/>
				<v:textRect cx="3.54331" cy="47.9803" width="7.09" height="7.08661"/>
				<rect x="0" y="44.437" width="7.08661" height="7.08661" class="st5"/>
				<text x="2.04" y="49.78" class="st6" v:langID="1033"><v:paragraph v:horizAlign="1"/><v:tabList/>1</text>			</g>
			<g id="shape1454-60" v:mID="1454" v:groupContext="shape" transform="translate(55.559,-35.4331)">
				<title>Sheet.1454</title>
				<desc>...</desc>
				<v:textBlock v:margins="rect(0,0,0,0)" v:tabSpace="42.5197"/>
				<v:textRect cx="3.54331" cy="47.9803" width="7.09" height="7.08661"/>
				<rect x="0" y="44.437" width="7.08661" height="7.08661" class="st5"/>
				<text x="1.29" y="49.78" class="st6" v:langID="1033"><v:paragraph v:horizAlign="1"/><v:tabList/>...</text>			</g>
			<g id="shape1464-63" v:mID="1464" v:groupContext="shape" transform="translate(48,-26.9291)">
				<title>Sheet.1464</title>
				<desc>vbb2</desc>
				<v:textBlock v:margins="rect(0,0,0,0)" v:tabSpace="42.5197"/>
				<v:textRect cx="6.40468" cy="47.9803" width="12.81" height="7.08661"/>
				<rect x="0" y="44.437" width="12.8094" height="7.08661" class="st5"/>
				<text x="2.15" y="49.78" class="st6" v:langID="1033"><v:paragraph v:horizAlign="1"/><v:tabList/>v<tspan
							dy="-0.198em" class="st7" v:baseFontSize="6">bb2</tspan></text>			</g>
			<g id="shape1465-67" v:mID="1465" v:groupContext="shape" transform="translate(35.4331,-0.0708634)">
				<title>Kreis.1465</title>
				<v:userDefs>
					<v:ud v:nameU="visVersion" v:val="VT0(15):26"/>
				</v:userDefs>
				<path d="M0 47.98 A3.54331 3.54331 0 0 1 7.09 47.98 A3.54331 3.54331 0 1 1 0 47.98 Z" class="st2"/>
			</g>
			<g id="shape1466-69" v:mID="1466" v:groupContext="shape" transform="translate(-5.63619,73.6855) rotate(-120.018)">
				<title>Sheet.1466</title>
				<path d="M0 51.52 L14.65 51.52" class="st4"/>
			</g>
			<g id="shape1467-72" v:mID="1467" v:groupContext="shape" transform="translate(-10.531,33.6368) rotate(-73.9181)">
				<title>Sheet.1467</title>
				<path d="M0 51.52 L24.71 51.52" class="st4"/>
			</g>
			<g id="shape1463-75" v:mID="1463" v:groupContext="shape" transform="translate(16.2725,-7.79527)">
				<title>Sheet.1463</title>
				<desc>vbb1</desc>
				<v:textBlock v:margins="rect(0,0,0,0)" v:tabSpace="42.5197"/>
				<v:textRect cx="6.40468" cy="47.9803" width="12.81" height="7.08661"/>
				<rect x="0" y="44.437" width="12.8094" height="7.08661" class="st5"/>
				<text x="2.15" y="49.78" class="st6" v:langID="1033"><v:paragraph v:horizAlign="1"/><v:tabList/>v<tspan
							dy="-0.198em" class="st7" v:baseFontSize="6">bb1</tspan></text>			</g>
			<g id="shape1444-79" v:mID="1444" v:groupContext="shape" transform="translate(28.104,-12.7559)">
				<title>Kreis.1283</title>
				<v:userDefs>
					<v:ud v:nameU="visVersion" v:val="VT0(15):26"/>
				</v:userDefs>
				<path d="M0 47.98 A3.54331 3.54331 0 0 1 7.09 47.98 A3.54331 3.54331 0 1 1 0 47.98 Z" class="st8"/>
			</g>
			<g id="shape1449-81" v:mID="1449" v:groupContext="shape" transform="translate(42.2772,-23.8111)">
				<title>Kreis.1284</title>
				<v:userDefs>
					<v:ud v:nameU="visVersion" v:val="VT0(15):26"/>
				</v:userDefs>
				<path d="M0 47.98 A3.54331 3.54331 0 0 1 7.09 47.98 A3.54331 3.54331 0 1 1 0 47.98 Z" class="st8"/>
			</g>
			<g id="shape1468-83" v:mID="1468" v:groupContext="shape" transform="translate(46.4173,-0.0708634)">
				<title>Sheet.1468</title>
				<desc>v</desc>
				<v:textBlock v:margins="rect(0,0,0,0)" v:tabSpace="42.5197"/>
				<v:textRect cx="1.77165" cy="47.9803" width="3.55" height="7.08661"/>
				<rect x="0" y="44.437" width="3.54331" height="7.08661" class="st5"/>
				<text x="0.44" y="49.78" class="st6" v:langID="1033"><v:paragraph v:horizAlign="1"/><v:tabList/>v</text>			</g>
		</g>
	</g>
</svg>
