<?xml version="1.0" encoding="UTF-8" standalone="no"?>
<!DOCTYPE svg PUBLIC "-//W3C//DTD SVG 1.1//EN" "http://www.w3.org/Graphics/SVG/1.1/DTD/svg11.dtd">
<!-- Generated by Microsoft Visio, SVG Export d4.svg Page-1 -->
<svg xmlns="http://www.w3.org/2000/svg" xmlns:xlink="http://www.w3.org/1999/xlink" xmlns:ev="http://www.w3.org/2001/xml-events"
		xmlns:v="http://schemas.microsoft.com/visio/2003/SVGExtensions/" width="1.07781in" height="0.715606in"
		viewBox="0 0 77.6024 51.5236" xml:space="preserve" color-interpolation-filters="sRGB" class="st7">
	<v:documentProperties v:langID="1031" v:viewMarkup="false"/>

	<style type="text/css">
	<![CDATA[
		.st1 {fill:#ffffff;stroke:#ffffff;stroke-linecap:round;stroke-linejoin:round;stroke-width:0.5}
		.st2 {fill:#000000;stroke:none;stroke-linecap:round;stroke-linejoin:round;stroke-width:0.5}
		.st3 {stroke:#000000;stroke-width:1}
		.st4 {stroke:#000000;stroke-dasharray:2,1;stroke-linecap:butt;stroke-width:0.5}
		.st5 {fill:#ffffff;stroke:none;stroke-linecap:round;stroke-linejoin:round;stroke-width:0.5}
		.st6 {fill:#000000;font-family:Times New Roman;font-size:0.499992em;font-style:italic}
		.st7 {fill:none;fill-rule:evenodd;font-size:12px;overflow:visible;stroke-linecap:square;stroke-miterlimit:3}
	]]>
	</style>

	<g v:mID="0" v:index="1" v:groupContext="foregroundPage">
		<title>Page-1</title>
		<v:pageProperties v:drawingScale="0.0393701" v:pageScale="0.0393701" v:drawingUnits="24" v:shadowOffsetX="8.50394"
				v:shadowOffsetY="-8.50394"/>
		<g id="group1476-1" transform="translate(0.25,-0.25)" v:mID="1476" v:groupContext="group">
			<title>Sheet.1476</title>
			<g id="shape1366-2" v:mID="1366" v:groupContext="shape">
				<title>Rechteck.1366</title>
				<v:userDefs>
					<v:ud v:nameU="visVersion" v:val="VT0(15):26"/>
				</v:userDefs>
				<rect x="0" y="0.5" width="77.1024" height="51.0236" class="st1"/>
			</g>
			<g id="group1406-4" transform="translate(3.30084,-17.4331)" v:mID="1406" v:groupContext="group">
				<title>Sheet.1406</title>
				<g id="group1407-5" v:mID="1407" v:groupContext="group">
					<title>Sheet.1407</title>
					<g id="shape1408-6" v:mID="1408" v:groupContext="shape" transform="translate(31.8898,-14.1732)">
						<title>Kreis.1319</title>
						<v:userDefs>
							<v:ud v:nameU="visVersion" v:val="VT0(15):26"/>
						</v:userDefs>
						<path d="M0 47.98 A3.54331 3.54331 0 0 1 7.09 47.98 A3.54331 3.54331 0 1 1 0 47.98 Z" class="st2"/>
					</g>
					<g id="shape1409-8" v:mID="1409" v:groupContext="shape" transform="translate(56.6929,-3.54331)">
						<title>Sheet.1409</title>
						<path d="M0 51.52 L14.17 51.52" class="st3"/>
					</g>
					<g id="shape1410-11" v:mID="1410" v:groupContext="shape" transform="translate(-16.0906,33.8071) rotate(-90)">
						<title>Sheet.1410</title>
						<path d="M0 51.52 L11.34 51.52" class="st3"/>
					</g>
					<g id="shape1411-14" v:mID="1411" v:groupContext="shape" transform="translate(14.1732,99.5039) rotate(180)">
						<title>Sheet.1411</title>
						<path d="M0 51.52 L12.76 51.52" class="st3"/>
					</g>
					<g id="shape1412-17" v:mID="1412" v:groupContext="shape"
							transform="translate(-16.0124,71.4575) rotate(-132.51)">
						<title>Sheet.1412</title>
						<path d="M0 51.52 L11.54 51.52" class="st3"/>
					</g>
					<g id="shape1413-20" v:mID="1413" v:groupContext="shape" transform="translate(53.1496,0)">
						<title>Kreis.1324</title>
						<v:userDefs>
							<v:ud v:nameU="visVersion" v:val="VT0(15):26"/>
						</v:userDefs>
						<path d="M0 47.98 A3.54331 3.54331 0 0 1 7.09 47.98 A3.54331 3.54331 0 1 1 0 47.98 Z" class="st2"/>
					</g>
					<g id="shape1414-22" v:mID="1414" v:groupContext="shape" transform="translate(18.4252,-11.3386)">
						<title>Kreis.1325</title>
						<v:userDefs>
							<v:ud v:nameU="visVersion" v:val="VT0(15):26"/>
						</v:userDefs>
						<path d="M0 47.98 A3.54331 3.54331 0 0 1 7.09 47.98 A3.54331 3.54331 0 1 1 0 47.98 Z" class="st2"/>
					</g>
					<g id="shape1415-24" v:mID="1415" v:groupContext="shape" transform="translate(10.6299,0)">
						<title>Kreis.1326</title>
						<v:userDefs>
							<v:ud v:nameU="visVersion" v:val="VT0(15):26"/>
						</v:userDefs>
						<path d="M0 47.98 A3.54331 3.54331 0 0 1 7.09 47.98 A3.54331 3.54331 0 1 1 0 47.98 Z" class="st2"/>
					</g>
					<g id="shape1416-26" v:mID="1416" v:groupContext="shape" transform="translate(64.4261,65.8314) rotate(124.509)">
						<title>Sheet.1416</title>
						<path d="M0 51.52 L13.76 51.52" class="st4"/>
					</g>
					<g id="shape1417-29" v:mID="1417" v:groupContext="shape" transform="translate(46.0476,84.2255) rotate(168.111)">
						<title>Sheet.1417</title>
						<path d="M0 51.52 L13.76 51.52" class="st4"/>
					</g>
					<g id="shape1418-32" v:mID="1418" v:groupContext="shape" transform="translate(28.1127,90.8506) rotate(-146.31)">
						<title>Sheet.1418</title>
						<path d="M0 51.52 L25.55 51.52" class="st4"/>
					</g>
					<g id="shape1419-35" v:mID="1419" v:groupContext="shape"
							transform="translate(37.9615,-12.3369) rotate(18.0834)">
						<title>Sheet.1419</title>
						<path d="M0 51.52 L36.53 51.52" class="st4"/>
					</g>
					<g id="shape1420-38" v:mID="1420" v:groupContext="shape" transform="translate(64.0132,76.6773) rotate(146.31)">
						<title>Sheet.1420</title>
						<path d="M0 51.52 L25.55 51.52" class="st4"/>
					</g>
					<g id="shape1421-41" v:mID="1421" v:groupContext="shape" transform="translate(14.1732,-3.54331)">
						<title>Sheet.1421</title>
						<path d="M0 51.52 L42.52 51.52" class="st4"/>
					</g>
					<g id="shape1422-44" v:mID="1422" v:groupContext="shape" transform="translate(63.7795,0)">
						<title>Sheet.1422</title>
						<desc>δ(v)</desc>
						<v:textBlock v:margins="rect(0,0,0,0)" v:tabSpace="42.5197"/>
						<v:textRect cx="5.01099" cy="47.9803" width="10.03" height="7.08661"/>
						<rect x="0" y="44.437" width="10.022" height="7.08661" class="st5"/>
						<text x="0.29" y="49.81" class="st6" v:langID="1033"><v:paragraph v:horizAlign="1"/><v:tabList/>δ(v)</text>					</g>
					<g id="shape1423-47" v:mID="1423" v:groupContext="shape" transform="translate(31.8898,-24.2362)">
						<title>Sheet.1423</title>
						<desc>3</desc>
						<v:textBlock v:margins="rect(0,0,0,0)" v:tabSpace="42.5197"/>
						<v:textRect cx="3.54331" cy="47.9803" width="7.09" height="7.08661"/>
						<rect x="0" y="44.437" width="7.08661" height="7.08661" class="st5"/>
						<text x="2.04" y="49.78" class="st6" v:langID="1033"><v:paragraph v:horizAlign="1"/><v:tabList/>3</text>					</g>
					<g id="shape1424-50" v:mID="1424" v:groupContext="shape" transform="translate(10.6299,-19.5068)">
						<title>Sheet.1424</title>
						<desc>2</desc>
						<v:textBlock v:margins="rect(0,0,0,0)" v:tabSpace="42.5197"/>
						<v:textRect cx="3.54331" cy="47.9803" width="7.09" height="7.08661"/>
						<rect x="0" y="44.437" width="7.08661" height="7.08661" class="st5"/>
						<text x="2.04" y="49.78" class="st6" v:langID="1033"><v:paragraph v:horizAlign="1"/><v:tabList/>2</text>					</g>
					<g id="shape1425-53" v:mID="1425" v:groupContext="shape">
						<title>Sheet.1425</title>
						<desc>1</desc>
						<v:textBlock v:margins="rect(0,0,0,0)" v:tabSpace="42.5197"/>
						<v:textRect cx="3.54331" cy="47.9803" width="7.09" height="7.08661"/>
						<rect x="0" y="44.437" width="7.08661" height="7.08661" class="st5"/>
						<text x="2.04" y="49.78" class="st6" v:langID="1033"><v:paragraph v:horizAlign="1"/><v:tabList/>1</text>					</g>
				</g>
				<g id="shape1426-56" v:mID="1426" v:groupContext="shape" transform="translate(52.4409,-17.1496)">
					<title>Sheet.1426</title>
					<desc>...</desc>
					<v:textBlock v:margins="rect(0,0,0,0)" v:tabSpace="42.5197"/>
					<v:textRect cx="3.54331" cy="47.9803" width="7.09" height="7.08661"/>
					<rect x="0" y="44.437" width="7.08661" height="7.08661" class="st5"/>
					<text x="1.29" y="49.78" class="st6" v:langID="1033"><v:paragraph v:horizAlign="1"/><v:tabList/>...</text>				</g>
			</g>
			<g id="shape1469-59" v:mID="1469" v:groupContext="shape" transform="translate(2.07749,13.1925) rotate(-45)">
				<title>Kreis.1469</title>
				<v:userDefs>
					<v:ud v:nameU="visVersion" v:val="VT0(15):26"/>
				</v:userDefs>
				<path d="M0 47.98 A3.54331 3.54331 0 0 1 7.09 47.98 A3.54331 3.54331 0 1 1 0 47.98 Z" class="st2"/>
			</g>
			<g id="shape1470-61" v:mID="1470" v:groupContext="shape" transform="translate(-13.0118,44.2061) rotate(-89.5461)">
				<title>Sheet.1470</title>
				<path d="M0 51.52 L28.24 51.52" class="st4"/>
			</g>
			<g id="shape1471-64" v:mID="1471" v:groupContext="shape" transform="translate(10.2858,1.50892) rotate(-33.2159)">
				<title>Sheet.1471</title>
				<path d="M0 51.52 L25.68 51.52" class="st4"/>
			</g>
			<g id="shape1472-67" v:mID="1472" v:groupContext="shape" transform="translate(45.9511,-3.36611)">
				<title>Sheet.1472</title>
				<desc>v</desc>
				<v:textBlock v:margins="rect(0,0,0,0)" v:tabSpace="42.5197"/>
				<v:textRect cx="1.77165" cy="47.9803" width="3.55" height="7.08661"/>
				<rect x="0" y="44.437" width="3.54331" height="7.08661" class="st5"/>
				<text x="0.44" y="49.78" class="st6" v:langID="1033"><v:paragraph v:horizAlign="1"/><v:tabList/>v</text>			</g>
			<g id="shape1473-70" v:mID="1473" v:groupContext="shape" transform="translate(-7.18035,68.4272) rotate(-117.528)">
				<title>Sheet.1473</title>
				<path d="M0 51.52 L28.65 51.52" class="st4"/>
			</g>
			<g id="shape1474-73" v:mID="1474" v:groupContext="shape" transform="translate(9.86961,87.4441) rotate(-146.229)">
				<title>Sheet.1474</title>
				<path d="M0 51.52 L25.31 51.52" class="st4"/>
			</g>
			<g id="shape1475-76" v:mID="1475" v:groupContext="shape" transform="translate(-6.26953,19.1297) rotate(-60.3554)">
				<title>Sheet.1475</title>
				<path d="M0 51.52 L29.88 51.52" class="st4"/>
			</g>
		</g>
	</g>
</svg>
