<?xml version="1.0" encoding="UTF-8" standalone="no"?>
<!DOCTYPE svg PUBLIC "-//W3C//DTD SVG 1.1//EN" "http://www.w3.org/Graphics/SVG/1.1/DTD/svg11.dtd">
<!-- Generated by Microsoft Visio, SVG Export desImp1.svg Page-1 -->
<svg xmlns="http://www.w3.org/2000/svg" xmlns:xlink="http://www.w3.org/1999/xlink" xmlns:ev="http://www.w3.org/2001/xml-events"
		xmlns:v="http://schemas.microsoft.com/visio/2003/SVGExtensions/" width="1.07781in" height="0.715606in"
		viewBox="0 0 77.6024 51.5236" xml:space="preserve" color-interpolation-filters="sRGB" class="st7">
	<v:documentProperties v:langID="1031" v:viewMarkup="false"/>

	<style type="text/css">
	<![CDATA[
		.st1 {fill:#ffffff;stroke:#ffffff;stroke-linecap:round;stroke-linejoin:round;stroke-width:0.5}
		.st2 {fill:#000000;stroke:none;stroke-linecap:round;stroke-linejoin:round;stroke-width:0.5}
		.st3 {stroke:#000000;stroke-width:1}
		.st4 {stroke:#000000;stroke-dasharray:2,1;stroke-linecap:butt;stroke-width:0.5}
		.st5 {fill:#ffffff;stroke:none;stroke-linecap:round;stroke-linejoin:round;stroke-width:0.5}
		.st6 {fill:#000000;font-family:Times New Roman;font-size:0.499992em;font-style:italic}
		.st7 {fill:none;fill-rule:evenodd;font-size:12px;overflow:visible;stroke-linecap:square;stroke-miterlimit:3}
	]]>
	</style>

	<g v:mID="0" v:index="1" v:groupContext="foregroundPage">
		<title>Page-1</title>
		<v:pageProperties v:drawingScale="0.0393701" v:pageScale="0.0393701" v:drawingUnits="24" v:shadowOffsetX="8.50394"
				v:shadowOffsetY="-8.50394"/>
		<g id="group1480-1" transform="translate(0.25,-0.25)" v:mID="1480" v:groupContext="group">
			<title>Sheet.1480</title>
			<g id="shape1481-2" v:mID="1481" v:groupContext="shape">
				<title>Rechteck.1366</title>
				<v:userDefs>
					<v:ud v:nameU="visVersion" v:val="VT0(15):26"/>
				</v:userDefs>
				<rect x="0" y="0.5" width="77.1024" height="51.0236" class="st1"/>
			</g>
			<g id="group1482-4" transform="translate(3.30084,-17.4331)" v:mID="1482" v:groupContext="group">
				<title>Sheet.1482</title>
				<g id="group1483-5" v:mID="1483" v:groupContext="group">
					<title>Sheet.1483</title>
					<g id="shape1484-6" v:mID="1484" v:groupContext="shape" transform="translate(31.8898,-14.1732)">
						<title>Kreis.1319</title>
						<v:userDefs>
							<v:ud v:nameU="visVersion" v:val="VT0(15):26"/>
						</v:userDefs>
						<path d="M0 47.98 A3.54331 3.54331 0 0 1 7.09 47.98 A3.54331 3.54331 0 1 1 0 47.98 Z" class="st2"/>
					</g>
					<g id="shape1485-8" v:mID="1485" v:groupContext="shape" transform="translate(56.6929,-3.54331)">
						<title>Sheet.1485</title>
						<path d="M0 51.52 L14.17 51.52" class="st3"/>
					</g>
					<g id="shape1486-11" v:mID="1486" v:groupContext="shape" transform="translate(-16.0906,33.8071) rotate(-90)">
						<title>Sheet.1486</title>
						<path d="M0 51.52 L11.34 51.52" class="st3"/>
					</g>
					<g id="shape1487-14" v:mID="1487" v:groupContext="shape" transform="translate(14.1732,99.5039) rotate(180)">
						<title>Sheet.1487</title>
						<path d="M0 51.52 L12.76 51.52" class="st3"/>
					</g>
					<g id="shape1488-17" v:mID="1488" v:groupContext="shape"
							transform="translate(-16.0124,71.4575) rotate(-132.51)">
						<title>Sheet.1488</title>
						<path d="M0 51.52 L11.54 51.52" class="st3"/>
					</g>
					<g id="shape1489-20" v:mID="1489" v:groupContext="shape" transform="translate(53.1496,0)">
						<title>Kreis.1324</title>
						<v:userDefs>
							<v:ud v:nameU="visVersion" v:val="VT0(15):26"/>
						</v:userDefs>
						<path d="M0 47.98 A3.54331 3.54331 0 0 1 7.09 47.98 A3.54331 3.54331 0 1 1 0 47.98 Z" class="st2"/>
					</g>
					<g id="shape1490-22" v:mID="1490" v:groupContext="shape" transform="translate(18.4252,-11.3386)">
						<title>Kreis.1325</title>
						<v:userDefs>
							<v:ud v:nameU="visVersion" v:val="VT0(15):26"/>
						</v:userDefs>
						<path d="M0 47.98 A3.54331 3.54331 0 0 1 7.09 47.98 A3.54331 3.54331 0 1 1 0 47.98 Z" class="st2"/>
					</g>
					<g id="shape1491-24" v:mID="1491" v:groupContext="shape" transform="translate(10.6299,0)">
						<title>Kreis.1326</title>
						<v:userDefs>
							<v:ud v:nameU="visVersion" v:val="VT0(15):26"/>
						</v:userDefs>
						<path d="M0 47.98 A3.54331 3.54331 0 0 1 7.09 47.98 A3.54331 3.54331 0 1 1 0 47.98 Z" class="st2"/>
					</g>
					<g id="shape1492-26" v:mID="1492" v:groupContext="shape" transform="translate(64.4261,65.8314) rotate(124.509)">
						<title>Sheet.1492</title>
						<path d="M0 51.52 L13.76 51.52" class="st4"/>
					</g>
					<g id="shape1493-29" v:mID="1493" v:groupContext="shape" transform="translate(46.0476,84.2255) rotate(168.111)">
						<title>Sheet.1493</title>
						<path d="M0 51.52 L13.76 51.52" class="st4"/>
					</g>
					<g id="shape1494-32" v:mID="1494" v:groupContext="shape" transform="translate(28.1127,90.8506) rotate(-146.31)">
						<title>Sheet.1494</title>
						<path d="M0 51.52 L25.55 51.52" class="st4"/>
					</g>
					<g id="shape1495-35" v:mID="1495" v:groupContext="shape"
							transform="translate(37.9615,-12.3369) rotate(18.0834)">
						<title>Sheet.1495</title>
						<path d="M0 51.52 L36.53 51.52" class="st4"/>
					</g>
					<g id="shape1496-38" v:mID="1496" v:groupContext="shape" transform="translate(64.0132,76.6773) rotate(146.31)">
						<title>Sheet.1496</title>
						<path d="M0 51.52 L25.55 51.52" class="st4"/>
					</g>
					<g id="shape1497-41" v:mID="1497" v:groupContext="shape" transform="translate(14.1732,-3.54331)">
						<title>Sheet.1497</title>
						<path d="M0 51.52 L42.52 51.52" class="st4"/>
					</g>
					<g id="shape1498-44" v:mID="1498" v:groupContext="shape" transform="translate(63.7795,0)">
						<title>Sheet.1498</title>
						<desc>δ(v)</desc>
						<v:textBlock v:margins="rect(0,0,0,0)" v:tabSpace="42.5197"/>
						<v:textRect cx="5.01099" cy="47.9803" width="10.03" height="7.08661"/>
						<rect x="0" y="44.437" width="10.022" height="7.08661" class="st5"/>
						<text x="0.29" y="49.81" class="st6" v:langID="1033"><v:paragraph v:horizAlign="1"/><v:tabList/>δ(v)</text>					</g>
					<g id="shape1499-47" v:mID="1499" v:groupContext="shape" transform="translate(31.8898,-24.2362)">
						<title>Sheet.1499</title>
						<desc>3</desc>
						<v:textBlock v:margins="rect(0,0,0,0)" v:tabSpace="42.5197"/>
						<v:textRect cx="3.54331" cy="47.9803" width="7.09" height="7.08661"/>
						<rect x="0" y="44.437" width="7.08661" height="7.08661" class="st5"/>
						<text x="2.04" y="49.78" class="st6" v:langID="1033"><v:paragraph v:horizAlign="1"/><v:tabList/>3</text>					</g>
					<g id="shape1500-50" v:mID="1500" v:groupContext="shape" transform="translate(10.6299,-19.5068)">
						<title>Sheet.1500</title>
						<desc>2</desc>
						<v:textBlock v:margins="rect(0,0,0,0)" v:tabSpace="42.5197"/>
						<v:textRect cx="3.54331" cy="47.9803" width="7.09" height="7.08661"/>
						<rect x="0" y="44.437" width="7.08661" height="7.08661" class="st5"/>
						<text x="2.04" y="49.78" class="st6" v:langID="1033"><v:paragraph v:horizAlign="1"/><v:tabList/>2</text>					</g>
					<g id="shape1501-53" v:mID="1501" v:groupContext="shape">
						<title>Sheet.1501</title>
						<desc>1</desc>
						<v:textBlock v:margins="rect(0,0,0,0)" v:tabSpace="42.5197"/>
						<v:textRect cx="3.54331" cy="47.9803" width="7.09" height="7.08661"/>
						<rect x="0" y="44.437" width="7.08661" height="7.08661" class="st5"/>
						<text x="2.04" y="49.78" class="st6" v:langID="1033"><v:paragraph v:horizAlign="1"/><v:tabList/>1</text>					</g>
				</g>
				<g id="shape1502-56" v:mID="1502" v:groupContext="shape" transform="translate(52.4409,-17.1496)">
					<title>Sheet.1502</title>
					<desc>...</desc>
					<v:textBlock v:margins="rect(0,0,0,0)" v:tabSpace="42.5197"/>
					<v:textRect cx="3.54331" cy="47.9803" width="7.09" height="7.08661"/>
					<rect x="0" y="44.437" width="7.08661" height="7.08661" class="st5"/>
					<text x="1.29" y="49.78" class="st6" v:langID="1033"><v:paragraph v:horizAlign="1"/><v:tabList/>...</text>				</g>
			</g>
			<g id="shape1503-59" v:mID="1503" v:groupContext="shape" transform="translate(2.07749,13.1925) rotate(-45)">
				<title>Kreis.1469</title>
				<v:userDefs>
					<v:ud v:nameU="visVersion" v:val="VT0(15):26"/>
				</v:userDefs>
				<path d="M0 47.98 A3.54331 3.54331 0 0 1 7.09 47.98 A3.54331 3.54331 0 1 1 0 47.98 Z" class="st2"/>
			</g>
			<g id="shape1504-61" v:mID="1504" v:groupContext="shape" transform="translate(-13.0118,44.2061) rotate(-89.5461)">
				<title>Sheet.1504</title>
				<path d="M0 51.52 L28.24 51.52" class="st4"/>
			</g>
			<g id="shape1505-64" v:mID="1505" v:groupContext="shape" transform="translate(10.2858,1.50892) rotate(-33.2159)">
				<title>Sheet.1505</title>
				<path d="M0 51.52 L25.68 51.52" class="st4"/>
			</g>
			<g id="shape1506-67" v:mID="1506" v:groupContext="shape" transform="translate(45.9511,-3.36611)">
				<title>Sheet.1506</title>
				<desc>v</desc>
				<v:textBlock v:margins="rect(0,0,0,0)" v:tabSpace="42.5197"/>
				<v:textRect cx="1.77165" cy="47.9803" width="3.55" height="7.08661"/>
				<rect x="0" y="44.437" width="3.54331" height="7.08661" class="st5"/>
				<text x="0.44" y="49.78" class="st6" v:langID="1033"><v:paragraph v:horizAlign="1"/><v:tabList/>v</text>			</g>
			<g id="shape1507-70" v:mID="1507" v:groupContext="shape" transform="translate(-7.18035,68.4272) rotate(-117.528)">
				<title>Sheet.1507</title>
				<path d="M0 51.52 L28.65 51.52" class="st4"/>
			</g>
			<g id="shape1508-73" v:mID="1508" v:groupContext="shape" transform="translate(9.86961,87.4441) rotate(-146.229)">
				<title>Sheet.1508</title>
				<path d="M0 51.52 L25.31 51.52" class="st4"/>
			</g>
			<g id="shape1509-76" v:mID="1509" v:groupContext="shape" transform="translate(-6.26953,19.1297) rotate(-60.3554)">
				<title>Sheet.1509</title>
				<path d="M0 51.52 L29.88 51.52" class="st4"/>
			</g>
		</g>
	</g>
</svg>
