<?xml version="1.0" encoding="UTF-8" standalone="no"?>
<!DOCTYPE svg PUBLIC "-//W3C//DTD SVG 1.1//EN" "http://www.w3.org/Graphics/SVG/1.1/DTD/svg11.dtd">
<!-- Generated by Microsoft Visio, SVG Export desImp3.svg Page-1 -->
<svg xmlns="http://www.w3.org/2000/svg" xmlns:xlink="http://www.w3.org/1999/xlink" xmlns:ev="http://www.w3.org/2001/xml-events"
		xmlns:v="http://schemas.microsoft.com/visio/2003/SVGExtensions/" width="1.07781in" height="0.715606in"
		viewBox="0 0 77.6024 51.5236" xml:space="preserve" color-interpolation-filters="sRGB" class="st7">
	<v:documentProperties v:langID="1031" v:viewMarkup="false"/>

	<style type="text/css">
	<![CDATA[
		.st1 {fill:#ffffff;stroke:#ffffff;stroke-linecap:round;stroke-linejoin:round;stroke-width:0.5}
		.st2 {fill:#000000;stroke:none;stroke-linecap:round;stroke-linejoin:round;stroke-width:0.5}
		.st3 {stroke:#000000;stroke-width:1}
		.st4 {stroke:#000000;stroke-dasharray:2,1;stroke-linecap:butt;stroke-width:0.5}
		.st5 {fill:#ffffff;stroke:none;stroke-linecap:round;stroke-linejoin:round;stroke-width:0.5}
		.st6 {fill:#000000;font-family:Times New Roman;font-size:0.499992em;font-style:italic}
		.st7 {fill:none;fill-rule:evenodd;font-size:12px;overflow:visible;stroke-linecap:square;stroke-miterlimit:3}
	]]>
	</style>

	<g v:mID="0" v:index="1" v:groupContext="foregroundPage">
		<title>Page-1</title>
		<v:pageProperties v:drawingScale="0.0393701" v:pageScale="0.0393701" v:drawingUnits="24" v:shadowOffsetX="8.50394"
				v:shadowOffsetY="-8.50394"/>
		<g id="group1541-1" transform="translate(0.25,-0.25)" v:mID="1541" v:groupContext="group">
			<title>Sheet.1541</title>
			<g id="shape1542-2" v:mID="1542" v:groupContext="shape">
				<title>Rechteck.1366</title>
				<v:userDefs>
					<v:ud v:nameU="visVersion" v:val="VT0(15):26"/>
				</v:userDefs>
				<rect x="0" y="0.5" width="77.1024" height="51.0236" class="st1"/>
			</g>
			<g id="group1543-4" transform="translate(3.30084,-17.4331)" v:mID="1543" v:groupContext="group">
				<title>Sheet.1543</title>
				<g id="group1544-5" v:mID="1544" v:groupContext="group">
					<title>Sheet.1544</title>
					<g id="shape1545-6" v:mID="1545" v:groupContext="shape" transform="translate(31.8898,-14.1732)">
						<title>Kreis.1319</title>
						<v:userDefs>
							<v:ud v:nameU="visVersion" v:val="VT0(15):26"/>
						</v:userDefs>
						<path d="M0 47.98 A3.54331 3.54331 0 0 1 7.09 47.98 A3.54331 3.54331 0 1 1 0 47.98 Z" class="st2"/>
					</g>
					<g id="shape1546-8" v:mID="1546" v:groupContext="shape" transform="translate(56.6929,-3.54331)">
						<title>Sheet.1546</title>
						<path d="M0 51.52 L14.17 51.52" class="st3"/>
					</g>
					<g id="shape1547-11" v:mID="1547" v:groupContext="shape" transform="translate(-16.0906,33.8071) rotate(-90)">
						<title>Sheet.1547</title>
						<path d="M0 51.52 L11.34 51.52" class="st3"/>
					</g>
					<g id="shape1548-14" v:mID="1548" v:groupContext="shape" transform="translate(14.1732,99.5039) rotate(180)">
						<title>Sheet.1548</title>
						<path d="M0 51.52 L12.76 51.52" class="st3"/>
					</g>
					<g id="shape1549-17" v:mID="1549" v:groupContext="shape"
							transform="translate(-16.0124,71.4575) rotate(-132.51)">
						<title>Sheet.1549</title>
						<path d="M0 51.52 L11.54 51.52" class="st3"/>
					</g>
					<g id="shape1550-20" v:mID="1550" v:groupContext="shape" transform="translate(53.1496,0)">
						<title>Kreis.1324</title>
						<v:userDefs>
							<v:ud v:nameU="visVersion" v:val="VT0(15):26"/>
						</v:userDefs>
						<path d="M0 47.98 A3.54331 3.54331 0 0 1 7.09 47.98 A3.54331 3.54331 0 1 1 0 47.98 Z" class="st2"/>
					</g>
					<g id="shape1551-22" v:mID="1551" v:groupContext="shape" transform="translate(18.4252,-11.3386)">
						<title>Kreis.1325</title>
						<v:userDefs>
							<v:ud v:nameU="visVersion" v:val="VT0(15):26"/>
						</v:userDefs>
						<path d="M0 47.98 A3.54331 3.54331 0 0 1 7.09 47.98 A3.54331 3.54331 0 1 1 0 47.98 Z" class="st2"/>
					</g>
					<g id="shape1552-24" v:mID="1552" v:groupContext="shape" transform="translate(10.6299,0)">
						<title>Kreis.1326</title>
						<v:userDefs>
							<v:ud v:nameU="visVersion" v:val="VT0(15):26"/>
						</v:userDefs>
						<path d="M0 47.98 A3.54331 3.54331 0 0 1 7.09 47.98 A3.54331 3.54331 0 1 1 0 47.98 Z" class="st2"/>
					</g>
					<g id="shape1553-26" v:mID="1553" v:groupContext="shape" transform="translate(64.4261,65.8314) rotate(124.509)">
						<title>Sheet.1553</title>
						<path d="M0 51.52 L13.76 51.52" class="st4"/>
					</g>
					<g id="shape1555-29" v:mID="1555" v:groupContext="shape" transform="translate(5.16928,47.9803) rotate(-90)">
						<title>Sheet.1555</title>
						<path d="M0 51.52 L10.2 51.52" class="st4"/>
					</g>
					<g id="shape1557-32" v:mID="1557" v:groupContext="shape" transform="translate(64.0132,76.6773) rotate(146.31)">
						<title>Sheet.1557</title>
						<path d="M0 51.52 L25.55 51.52" class="st4"/>
					</g>
					<g id="shape1559-35" v:mID="1559" v:groupContext="shape" transform="translate(63.7795,0)">
						<title>Sheet.1559</title>
						<desc>δ(v)</desc>
						<v:textBlock v:margins="rect(0,0,0,0)" v:tabSpace="42.5197"/>
						<v:textRect cx="5.01099" cy="47.9803" width="10.03" height="7.08661"/>
						<rect x="0" y="44.437" width="10.022" height="7.08661" class="st5"/>
						<text x="0.29" y="49.81" class="st6" v:langID="1033"><v:paragraph v:horizAlign="1"/><v:tabList/>δ(v)</text>					</g>
					<g id="shape1560-38" v:mID="1560" v:groupContext="shape" transform="translate(31.8898,-24.2362)">
						<title>Sheet.1560</title>
						<desc>3</desc>
						<v:textBlock v:margins="rect(0,0,0,0)" v:tabSpace="42.5197"/>
						<v:textRect cx="3.54331" cy="47.9803" width="7.09" height="7.08661"/>
						<rect x="0" y="44.437" width="7.08661" height="7.08661" class="st5"/>
						<text x="2.04" y="49.78" class="st6" v:langID="1033"><v:paragraph v:horizAlign="1"/><v:tabList/>3</text>					</g>
					<g id="shape1561-41" v:mID="1561" v:groupContext="shape" transform="translate(10.6299,-19.5068)">
						<title>Sheet.1561</title>
						<desc>2</desc>
						<v:textBlock v:margins="rect(0,0,0,0)" v:tabSpace="42.5197"/>
						<v:textRect cx="3.54331" cy="47.9803" width="7.09" height="7.08661"/>
						<rect x="0" y="44.437" width="7.08661" height="7.08661" class="st5"/>
						<text x="2.04" y="49.78" class="st6" v:langID="1033"><v:paragraph v:horizAlign="1"/><v:tabList/>2</text>					</g>
					<g id="shape1562-44" v:mID="1562" v:groupContext="shape">
						<title>Sheet.1562</title>
						<desc>1</desc>
						<v:textBlock v:margins="rect(0,0,0,0)" v:tabSpace="42.5197"/>
						<v:textRect cx="3.54331" cy="47.9803" width="7.09" height="7.08661"/>
						<rect x="0" y="44.437" width="7.08661" height="7.08661" class="st5"/>
						<text x="2.04" y="49.78" class="st6" v:langID="1033"><v:paragraph v:horizAlign="1"/><v:tabList/>1</text>					</g>
				</g>
				<g id="shape1563-47" v:mID="1563" v:groupContext="shape" transform="translate(52.4409,-17.1496)">
					<title>Sheet.1563</title>
					<desc>...</desc>
					<v:textBlock v:margins="rect(0,0,0,0)" v:tabSpace="42.5197"/>
					<v:textRect cx="3.54331" cy="47.9803" width="7.09" height="7.08661"/>
					<rect x="0" y="44.437" width="7.08661" height="7.08661" class="st5"/>
					<text x="1.29" y="49.78" class="st6" v:langID="1033"><v:paragraph v:horizAlign="1"/><v:tabList/>...</text>				</g>
			</g>
			<g id="shape1564-50" v:mID="1564" v:groupContext="shape" transform="translate(2.07749,13.1925) rotate(-45)">
				<title>Kreis.1469</title>
				<v:userDefs>
					<v:ud v:nameU="visVersion" v:val="VT0(15):26"/>
				</v:userDefs>
				<path d="M0 47.98 A3.54331 3.54331 0 0 1 7.09 47.98 A3.54331 3.54331 0 1 1 0 47.98 Z" class="st2"/>
			</g>
			<g id="shape1565-52" v:mID="1565" v:groupContext="shape" transform="translate(-13.0118,44.2061) rotate(-89.5461)">
				<title>Sheet.1565</title>
				<path d="M0 51.52 L28.24 51.52" class="st4"/>
			</g>
			<g id="shape1566-55" v:mID="1566" v:groupContext="shape" transform="translate(10.2858,1.50892) rotate(-33.2159)">
				<title>Sheet.1566</title>
				<path d="M0 51.52 L25.68 51.52" class="st4"/>
			</g>
			<g id="shape1567-58" v:mID="1567" v:groupContext="shape" transform="translate(45.9511,-3.36611)">
				<title>Sheet.1567</title>
				<desc>v</desc>
				<v:textBlock v:margins="rect(0,0,0,0)" v:tabSpace="42.5197"/>
				<v:textRect cx="1.77165" cy="47.9803" width="3.55" height="7.08661"/>
				<rect x="0" y="44.437" width="3.54331" height="7.08661" class="st5"/>
				<text x="0.44" y="49.78" class="st6" v:langID="1033"><v:paragraph v:horizAlign="1"/><v:tabList/>v</text>			</g>
		</g>
	</g>
</svg>
