<?xml version="1.0" encoding="UTF-8" standalone="no"?>
<!DOCTYPE svg PUBLIC "-//W3C//DTD SVG 1.1//EN" "http://www.w3.org/Graphics/SVG/1.1/DTD/svg11.dtd">
<!-- Generated by Microsoft Visio, SVG Export desImp2.svg Page-1 -->
<svg xmlns="http://www.w3.org/2000/svg" xmlns:xlink="http://www.w3.org/1999/xlink" xmlns:ev="http://www.w3.org/2001/xml-events"
		xmlns:v="http://schemas.microsoft.com/visio/2003/SVGExtensions/" width="1.07781in" height="0.715606in"
		viewBox="0 0 77.6024 51.5236" xml:space="preserve" color-interpolation-filters="sRGB" class="st7">
	<v:documentProperties v:langID="1031" v:viewMarkup="false"/>

	<style type="text/css">
	<![CDATA[
		.st1 {fill:#ffffff;stroke:#ffffff;stroke-linecap:round;stroke-linejoin:round;stroke-width:0.5}
		.st2 {fill:#000000;stroke:none;stroke-linecap:round;stroke-linejoin:round;stroke-width:0.5}
		.st3 {stroke:#000000;stroke-width:1}
		.st4 {stroke:#000000;stroke-dasharray:2,1;stroke-linecap:butt;stroke-width:0.5}
		.st5 {fill:#ffffff;stroke:none;stroke-linecap:round;stroke-linejoin:round;stroke-width:0.5}
		.st6 {fill:#000000;font-family:Times New Roman;font-size:0.499992em;font-style:italic}
		.st7 {fill:none;fill-rule:evenodd;font-size:12px;overflow:visible;stroke-linecap:square;stroke-miterlimit:3}
	]]>
	</style>

	<g v:mID="0" v:index="1" v:groupContext="foregroundPage">
		<title>Page-1</title>
		<v:pageProperties v:drawingScale="0.0393701" v:pageScale="0.0393701" v:drawingUnits="24" v:shadowOffsetX="8.50394"
				v:shadowOffsetY="-8.50394"/>
		<g id="group1601-1" transform="translate(0.25,-0.25)" v:mID="1601" v:groupContext="group">
			<title>Sheet.1601</title>
			<g id="shape1511-2" v:mID="1511" v:groupContext="shape">
				<title>Rechteck.1366</title>
				<v:userDefs>
					<v:ud v:nameU="visVersion" v:val="VT0(15):26"/>
				</v:userDefs>
				<rect x="0" y="0.5" width="77.1024" height="51.0236" class="st1"/>
			</g>
			<g id="group1512-4" transform="translate(2.16697,-17.4331)" v:mID="1512" v:groupContext="group">
				<title>Sheet.1512</title>
				<g id="group1513-5" v:mID="1513" v:groupContext="group">
					<title>Sheet.1513</title>
					<g id="shape1514-6" v:mID="1514" v:groupContext="shape" transform="translate(31.8898,-14.1732)">
						<title>Kreis.1319</title>
						<v:userDefs>
							<v:ud v:nameU="visVersion" v:val="VT0(15):26"/>
						</v:userDefs>
						<path d="M0 47.98 A3.54331 3.54331 0 0 1 7.09 47.98 A3.54331 3.54331 0 1 1 0 47.98 Z" class="st2"/>
					</g>
					<g id="shape1515-8" v:mID="1515" v:groupContext="shape" transform="translate(56.6929,-3.54331)">
						<title>Sheet.1515</title>
						<path d="M0 51.52 L14.17 51.52" class="st3"/>
					</g>
					<g id="shape1516-11" v:mID="1516" v:groupContext="shape" transform="translate(-16.0906,33.8071) rotate(-90)">
						<title>Sheet.1516</title>
						<path d="M0 51.52 L11.34 51.52" class="st3"/>
					</g>
					<g id="shape1517-14" v:mID="1517" v:groupContext="shape" transform="translate(14.1732,99.5039) rotate(180)">
						<title>Sheet.1517</title>
						<path d="M0 51.52 L12.76 51.52" class="st3"/>
					</g>
					<g id="shape1518-17" v:mID="1518" v:groupContext="shape"
							transform="translate(-16.0124,71.4575) rotate(-132.51)">
						<title>Sheet.1518</title>
						<path d="M0 51.52 L11.54 51.52" class="st3"/>
					</g>
					<g id="shape1519-20" v:mID="1519" v:groupContext="shape" transform="translate(53.1496,0)">
						<title>Kreis.1324</title>
						<v:userDefs>
							<v:ud v:nameU="visVersion" v:val="VT0(15):26"/>
						</v:userDefs>
						<path d="M0 47.98 A3.54331 3.54331 0 0 1 7.09 47.98 A3.54331 3.54331 0 1 1 0 47.98 Z" class="st2"/>
					</g>
					<g id="shape1520-22" v:mID="1520" v:groupContext="shape" transform="translate(18.4252,-11.3386)">
						<title>Kreis.1325</title>
						<v:userDefs>
							<v:ud v:nameU="visVersion" v:val="VT0(15):26"/>
						</v:userDefs>
						<path d="M0 47.98 A3.54331 3.54331 0 0 1 7.09 47.98 A3.54331 3.54331 0 1 1 0 47.98 Z" class="st2"/>
					</g>
					<g id="shape1521-24" v:mID="1521" v:groupContext="shape" transform="translate(10.6299,0)">
						<title>Kreis.1326</title>
						<v:userDefs>
							<v:ud v:nameU="visVersion" v:val="VT0(15):26"/>
						</v:userDefs>
						<path d="M0 47.98 A3.54331 3.54331 0 0 1 7.09 47.98 A3.54331 3.54331 0 1 1 0 47.98 Z" class="st2"/>
					</g>
					<g id="shape1522-26" v:mID="1522" v:groupContext="shape" transform="translate(64.4261,65.8314) rotate(124.509)">
						<title>Sheet.1522</title>
						<path d="M0 51.52 L13.76 51.52" class="st4"/>
					</g>
					<g id="shape1523-29" v:mID="1523" v:groupContext="shape" transform="translate(46.0476,84.2255) rotate(168.111)">
						<title>Sheet.1523</title>
						<path d="M0 51.52 L13.76 51.52" class="st4"/>
					</g>
					<g id="shape1524-32" v:mID="1524" v:groupContext="shape" transform="translate(44.6047,85.3307) rotate(180)">
						<title>Sheet.1524</title>
						<path d="M0 51.52 L9.17 51.52" class="st4"/>
					</g>
					<g id="shape1528-35" v:mID="1528" v:groupContext="shape" transform="translate(63.7795,0)">
						<title>Sheet.1528</title>
						<desc>δ(v)</desc>
						<v:textBlock v:margins="rect(0,0,0,0)" v:tabSpace="42.5197"/>
						<v:textRect cx="5.01099" cy="47.9803" width="10.03" height="7.08661"/>
						<rect x="0" y="44.437" width="10.022" height="7.08661" class="st5"/>
						<text x="0.29" y="49.81" class="st6" v:langID="1033"><v:paragraph v:horizAlign="1"/><v:tabList/>δ(v)</text>					</g>
					<g id="shape1529-38" v:mID="1529" v:groupContext="shape" transform="translate(31.8898,-24.2362)">
						<title>Sheet.1529</title>
						<desc>3</desc>
						<v:textBlock v:margins="rect(0,0,0,0)" v:tabSpace="42.5197"/>
						<v:textRect cx="3.54331" cy="47.9803" width="7.09" height="7.08661"/>
						<rect x="0" y="44.437" width="7.08661" height="7.08661" class="st5"/>
						<text x="2.04" y="49.78" class="st6" v:langID="1033"><v:paragraph v:horizAlign="1"/><v:tabList/>3</text>					</g>
					<g id="shape1530-41" v:mID="1530" v:groupContext="shape" transform="translate(10.6299,-19.5068)">
						<title>Sheet.1530</title>
						<desc>2</desc>
						<v:textBlock v:margins="rect(0,0,0,0)" v:tabSpace="42.5197"/>
						<v:textRect cx="3.54331" cy="47.9803" width="7.09" height="7.08661"/>
						<rect x="0" y="44.437" width="7.08661" height="7.08661" class="st5"/>
						<text x="2.04" y="49.78" class="st6" v:langID="1033"><v:paragraph v:horizAlign="1"/><v:tabList/>2</text>					</g>
					<g id="shape1531-44" v:mID="1531" v:groupContext="shape">
						<title>Sheet.1531</title>
						<desc>1</desc>
						<v:textBlock v:margins="rect(0,0,0,0)" v:tabSpace="42.5197"/>
						<v:textRect cx="3.54331" cy="47.9803" width="7.09" height="7.08661"/>
						<rect x="0" y="44.437" width="7.08661" height="7.08661" class="st5"/>
						<text x="2.04" y="49.78" class="st6" v:langID="1033"><v:paragraph v:horizAlign="1"/><v:tabList/>1</text>					</g>
				</g>
				<g id="shape1532-47" v:mID="1532" v:groupContext="shape" transform="translate(52.4409,-17.1496)">
					<title>Sheet.1532</title>
					<desc>...</desc>
					<v:textBlock v:margins="rect(0,0,0,0)" v:tabSpace="42.5197"/>
					<v:textRect cx="3.54331" cy="47.9803" width="7.09" height="7.08661"/>
					<rect x="0" y="44.437" width="7.08661" height="7.08661" class="st5"/>
					<text x="1.29" y="49.78" class="st6" v:langID="1033"><v:paragraph v:horizAlign="1"/><v:tabList/>...</text>				</g>
			</g>
			<g id="shape1533-50" v:mID="1533" v:groupContext="shape" transform="translate(0.943617,13.1925) rotate(-45)">
				<title>Kreis.1469</title>
				<v:userDefs>
					<v:ud v:nameU="visVersion" v:val="VT0(15):26"/>
				</v:userDefs>
				<path d="M0 47.98 A3.54331 3.54331 0 0 1 7.09 47.98 A3.54331 3.54331 0 1 1 0 47.98 Z" class="st2"/>
			</g>
			<g id="shape1535-52" v:mID="1535" v:groupContext="shape" transform="translate(9.15189,1.50892) rotate(-33.2159)">
				<title>Sheet.1535</title>
				<path d="M0 51.52 L25.68 51.52" class="st4"/>
			</g>
			<g id="shape1536-55" v:mID="1536" v:groupContext="shape" transform="translate(44.8173,-3.36611)">
				<title>Sheet.1536</title>
				<desc>v</desc>
				<v:textBlock v:margins="rect(0,0,0,0)" v:tabSpace="42.5197"/>
				<v:textRect cx="1.77165" cy="47.9803" width="3.55" height="7.08661"/>
				<rect x="0" y="44.437" width="3.54331" height="7.08661" class="st5"/>
				<text x="0.44" y="49.78" class="st6" v:langID="1033"><v:paragraph v:horizAlign="1"/><v:tabList/>v</text>			</g>
			<g id="shape1538-58" v:mID="1538" v:groupContext="shape" transform="translate(8.73574,87.4441) rotate(-146.229)">
				<title>Sheet.1538</title>
				<path d="M0 51.52 L25.31 51.52" class="st4"/>
			</g>
			<g id="shape1540-61" v:mID="1540" v:groupContext="shape" transform="translate(7.33624,30.5472) rotate(-90)">
				<title>Sheet.1540</title>
				<path d="M0 51.52 L9.47 51.52" class="st4"/>
			</g>
		</g>
	</g>
</svg>
