<?xml version="1.0" encoding="UTF-8" standalone="no"?>
<!DOCTYPE svg PUBLIC "-//W3C//DTD SVG 1.1//EN" "http://www.w3.org/Graphics/SVG/1.1/DTD/svg11.dtd">
<!-- Generated by Microsoft Visio, SVG Export nBus.svg Page-1 -->
<svg xmlns="http://www.w3.org/2000/svg" xmlns:xlink="http://www.w3.org/1999/xlink" xmlns:ev="http://www.w3.org/2001/xml-events"
		xmlns:v="http://schemas.microsoft.com/visio/2003/SVGExtensions/" width="1.07781in" height="0.715606in"
		viewBox="0 0 77.6024 51.5236" xml:space="preserve" color-interpolation-filters="sRGB" class="st7">
	<v:documentProperties v:langID="1031" v:viewMarkup="false"/>

	<style type="text/css">
	<![CDATA[
		.st1 {fill:#ffffff;stroke:#ffffff;stroke-linecap:round;stroke-linejoin:round;stroke-width:0.5}
		.st2 {fill:#000000;stroke:none;stroke-linecap:round;stroke-linejoin:round;stroke-width:0.5}
		.st3 {stroke:#000000;stroke-width:1}
		.st4 {stroke:#000000;stroke-dasharray:2,1;stroke-linecap:butt;stroke-width:0.5}
		.st5 {fill:#ffffff;stroke:none;stroke-linecap:round;stroke-linejoin:round;stroke-width:0.5}
		.st6 {fill:#000000;font-family:Times New Roman;font-size:0.499992em;font-style:italic}
		.st7 {fill:none;fill-rule:evenodd;font-size:12px;overflow:visible;stroke-linecap:square;stroke-miterlimit:3}
	]]>
	</style>

	<g v:mID="0" v:index="1" v:groupContext="foregroundPage">
		<title>Page-1</title>
		<v:pageProperties v:drawingScale="0.0393701" v:pageScale="0.0393701" v:drawingUnits="24" v:shadowOffsetX="8.50394"
				v:shadowOffsetY="-8.50394"/>
		<g id="shape1361-1" v:mID="1361" v:groupContext="shape" transform="translate(0.25,-0.25)">
			<title>Rechteck.1361</title>
			<v:userDefs>
				<v:ud v:nameU="visVersion" v:val="VT0(15):26"/>
			</v:userDefs>
			<rect x="0" y="0.5" width="77.1024" height="51.0236" class="st1"/>
		</g>
		<g id="group1354-3" transform="translate(2.98392,-14.2815)" v:mID="1354" v:groupContext="group">
			<title>Sheet.1354</title>
			<g id="group1345-4" v:mID="1345" v:groupContext="group">
				<title>Sheet.1345</title>
				<g id="shape1319-5" v:mID="1319" v:groupContext="shape" transform="translate(31.8898,-14.1732)">
					<title>Kreis.1319</title>
					<v:userDefs>
						<v:ud v:nameU="visVersion" v:val="VT0(15):26"/>
					</v:userDefs>
					<path d="M0 47.98 A3.54331 3.54331 0 0 1 7.09 47.98 A3.54331 3.54331 0 1 1 0 47.98 Z" class="st2"/>
				</g>
				<g id="shape1320-7" v:mID="1320" v:groupContext="shape" transform="translate(56.6929,-3.54331)">
					<title>Sheet.1320</title>
					<path d="M0 51.52 L14.17 51.52" class="st3"/>
				</g>
				<g id="shape1321-10" v:mID="1321" v:groupContext="shape" transform="translate(-16.0906,33.8071) rotate(-90)">
					<title>Sheet.1321</title>
					<path d="M0 51.52 L11.34 51.52" class="st3"/>
				</g>
				<g id="shape1322-13" v:mID="1322" v:groupContext="shape" transform="translate(14.1732,99.5039) rotate(180)">
					<title>Sheet.1322</title>
					<path d="M0 51.52 L12.76 51.52" class="st3"/>
				</g>
				<g id="shape1323-16" v:mID="1323" v:groupContext="shape" transform="translate(-16.0124,71.4575) rotate(-132.51)">
					<title>Sheet.1323</title>
					<path d="M0 51.52 L11.54 51.52" class="st3"/>
				</g>
				<g id="shape1324-19" v:mID="1324" v:groupContext="shape" transform="translate(53.1496,0)">
					<title>Kreis.1324</title>
					<v:userDefs>
						<v:ud v:nameU="visVersion" v:val="VT0(15):26"/>
					</v:userDefs>
					<path d="M0 47.98 A3.54331 3.54331 0 0 1 7.09 47.98 A3.54331 3.54331 0 1 1 0 47.98 Z" class="st2"/>
				</g>
				<g id="shape1325-21" v:mID="1325" v:groupContext="shape" transform="translate(18.4252,-11.3386)">
					<title>Kreis.1325</title>
					<v:userDefs>
						<v:ud v:nameU="visVersion" v:val="VT0(15):26"/>
					</v:userDefs>
					<path d="M0 47.98 A3.54331 3.54331 0 0 1 7.09 47.98 A3.54331 3.54331 0 1 1 0 47.98 Z" class="st2"/>
				</g>
				<g id="shape1326-23" v:mID="1326" v:groupContext="shape" transform="translate(10.6299,0)">
					<title>Kreis.1326</title>
					<v:userDefs>
						<v:ud v:nameU="visVersion" v:val="VT0(15):26"/>
					</v:userDefs>
					<path d="M0 47.98 A3.54331 3.54331 0 0 1 7.09 47.98 A3.54331 3.54331 0 1 1 0 47.98 Z" class="st2"/>
				</g>
				<g id="shape1327-25" v:mID="1327" v:groupContext="shape" transform="translate(64.4261,65.8314) rotate(124.509)">
					<title>Sheet.1327</title>
					<path d="M0 51.52 L13.76 51.52" class="st4"/>
				</g>
				<g id="shape1328-28" v:mID="1328" v:groupContext="shape" transform="translate(46.0476,84.2255) rotate(168.111)">
					<title>Sheet.1328</title>
					<path d="M0 51.52 L13.76 51.52" class="st4"/>
				</g>
				<g id="shape1329-31" v:mID="1329" v:groupContext="shape" transform="translate(28.1127,90.8506) rotate(-146.31)">
					<title>Sheet.1329</title>
					<path d="M0 51.52 L25.55 51.52" class="st4"/>
				</g>
				<g id="shape1330-34" v:mID="1330" v:groupContext="shape" transform="translate(37.9615,-12.3369) rotate(18.0834)">
					<title>Sheet.1330</title>
					<path d="M0 51.52 L36.53 51.52" class="st4"/>
				</g>
				<g id="shape1333-37" v:mID="1333" v:groupContext="shape" transform="translate(64.0132,76.6773) rotate(146.31)">
					<title>Sheet.1333</title>
					<path d="M0 51.52 L25.55 51.52" class="st4"/>
				</g>
				<g id="shape1335-40" v:mID="1335" v:groupContext="shape" transform="translate(14.1732,-3.54331)">
					<title>Sheet.1335</title>
					<path d="M0 51.52 L42.52 51.52" class="st4"/>
				</g>
				<g id="shape1337-43" v:mID="1337" v:groupContext="shape" transform="translate(63.7795,0)">
					<title>Sheet.1337</title>
					<desc>δ(v)</desc>
					<v:textBlock v:margins="rect(0,0,0,0)" v:tabSpace="42.5197"/>
					<v:textRect cx="5.01099" cy="47.9803" width="10.03" height="7.08661"/>
					<rect x="0" y="44.437" width="10.022" height="7.08661" class="st5"/>
					<text x="0.29" y="49.81" class="st6" v:langID="1033"><v:paragraph v:horizAlign="1"/><v:tabList/>δ(v)</text>				</g>
				<g id="shape1338-46" v:mID="1338" v:groupContext="shape" transform="translate(31.8898,-24.2362)">
					<title>Sheet.1338</title>
					<desc>3</desc>
					<v:textBlock v:margins="rect(0,0,0,0)" v:tabSpace="42.5197"/>
					<v:textRect cx="3.54331" cy="47.9803" width="7.09" height="7.08661"/>
					<rect x="0" y="44.437" width="7.08661" height="7.08661" class="st5"/>
					<text x="2.04" y="49.78" class="st6" v:langID="1033"><v:paragraph v:horizAlign="1"/><v:tabList/>3</text>				</g>
				<g id="shape1339-49" v:mID="1339" v:groupContext="shape" transform="translate(10.6299,-19.5068)">
					<title>Sheet.1339</title>
					<desc>2</desc>
					<v:textBlock v:margins="rect(0,0,0,0)" v:tabSpace="42.5197"/>
					<v:textRect cx="3.54331" cy="47.9803" width="7.09" height="7.08661"/>
					<rect x="0" y="44.437" width="7.08661" height="7.08661" class="st5"/>
					<text x="2.04" y="49.78" class="st6" v:langID="1033"><v:paragraph v:horizAlign="1"/><v:tabList/>2</text>				</g>
				<g id="shape1340-52" v:mID="1340" v:groupContext="shape">
					<title>Sheet.1340</title>
					<desc>1</desc>
					<v:textBlock v:margins="rect(0,0,0,0)" v:tabSpace="42.5197"/>
					<v:textRect cx="3.54331" cy="47.9803" width="7.09" height="7.08661"/>
					<rect x="0" y="44.437" width="7.08661" height="7.08661" class="st5"/>
					<text x="2.04" y="49.78" class="st6" v:langID="1033"><v:paragraph v:horizAlign="1"/><v:tabList/>1</text>				</g>
			</g>
			<g id="shape1350-55" v:mID="1350" v:groupContext="shape" transform="translate(52.4409,-17.1496)">
				<title>Sheet.1350</title>
				<desc>...</desc>
				<v:textBlock v:margins="rect(0,0,0,0)" v:tabSpace="42.5197"/>
				<v:textRect cx="3.54331" cy="47.9803" width="7.09" height="7.08661"/>
				<rect x="0" y="44.437" width="7.08661" height="7.08661" class="st5"/>
				<text x="1.29" y="49.78" class="st6" v:langID="1033"><v:paragraph v:horizAlign="1"/><v:tabList/>...</text>			</g>
		</g>
	</g>
</svg>
