<?xml version="1.0" encoding="UTF-8" standalone="no"?>
<!DOCTYPE svg PUBLIC "-//W3C//DTD SVG 1.1//EN" "http://www.w3.org/Graphics/SVG/1.1/DTD/svg11.dtd">
<!-- Generiert durch Microsoft Visio, SVG Export sol_5bus_dcopf.svg Zeichenblatt-1 -->
<svg xmlns="http://www.w3.org/2000/svg" xmlns:xlink="http://www.w3.org/1999/xlink" xmlns:ev="http://www.w3.org/2001/xml-events"
		xmlns:v="http://schemas.microsoft.com/visio/2003/SVGExtensions/" width="2.77257in" height="1.2257in"
		viewBox="0 0 199.625 88.25" xml:space="preserve" color-interpolation-filters="sRGB" class="st14">
	<v:documentProperties v:langID="1033" v:viewMarkup="false"/>

	<style type="text/css">
	<![CDATA[
		.st1 {stroke:#000000;stroke-linecap:round;stroke-linejoin:round;stroke-width:1}
		.st2 {marker-start:url(#mrkr5-22);stroke:#92d050;stroke-linecap:round;stroke-linejoin:round;stroke-width:0.75}
		.st3 {fill:#92d050;fill-opacity:1;stroke:#92d050;stroke-opacity:1;stroke-width:0.34246575342466}
		.st4 {fill:#000000;font-family:Microsoft Uighur;font-size:0.833336em}
		.st5 {marker-end:url(#mrkr5-29);stroke:#92d050;stroke-linecap:round;stroke-linejoin:round;stroke-width:0.75}
		.st6 {marker-end:url(#mrkr5-29);marker-start:url(#mrkr5-22);stroke:#92d050;stroke-linecap:round;stroke-linejoin:round;stroke-width:0.75}
		.st7 {fill:#000000;stroke:none;stroke-width:0.25}
		.st8 {fill:#ffffff;font-family:Microsoft Uighur;font-size:0.833336em}
		.st9 {marker-end:url(#mrkr5-78);stroke:#000000;stroke-linecap:butt;stroke-width:1}
		.st10 {fill:#000000;fill-opacity:1;stroke:#000000;stroke-opacity:1;stroke-width:0.40983606557377}
		.st11 {baseline-shift:-32.4947%;font-size:0.649894em}
		.st12 {fill:none;stroke:none;stroke-width:0.25}
		.st13 {fill:#7f7f7f;font-family:Times New Roman;font-size:0.499992em;font-style:italic}
		.st14 {fill:none;fill-rule:evenodd;font-size:12px;overflow:visible;stroke-linecap:square;stroke-miterlimit:3}
	]]>
	</style>

	<defs id="Markers">
		<g id="lend5">
			<path d="M 2 1 L 0 0 L 1.98117 -0.993387 C 1.67173 -0.364515 1.67301 0.372641 1.98465 1.00043 " style="stroke:none"/>
		</g>
		<marker id="mrkr5-22" class="st3" v:arrowType="5" v:arrowSize="0" v:setback="4.63" refX="4.63" orient="auto"
				markerUnits="strokeWidth" overflow="visible">
			<use xlink:href="#lend5" transform="scale(2.92) "/>
		</marker>
		<marker id="mrkr5-29" class="st3" v:arrowType="5" v:arrowSize="0" v:setback="5.11" refX="-5.11" orient="auto"
				markerUnits="strokeWidth" overflow="visible">
			<use xlink:href="#lend5" transform="scale(-2.92,-2.92) "/>
		</marker>
		<marker id="mrkr5-78" class="st10" v:arrowType="5" v:arrowSize="0" v:setback="4.27" refX="-4.27" orient="auto"
				markerUnits="strokeWidth" overflow="visible">
			<use xlink:href="#lend5" transform="scale(-2.44,-2.44) "/>
		</marker>
	</defs>
	<g v:mID="0" v:index="1" v:groupContext="foregroundPage">
		<title>Zeichenblatt-1</title>
		<v:pageProperties v:drawingScale="1" v:pageScale="1" v:drawingUnits="0" v:shadowOffsetX="9" v:shadowOffsetY="-9"/>
		<v:layer v:name="Connector" v:index="0"/>
		<g id="group1349-1" transform="translate(0.25,-0.25)" v:mID="1349" v:groupContext="group">
			<title>Tabelle.1349</title>
			<g id="shape1215-2" v:mID="1215" v:groupContext="shape" transform="translate(279.5,60.125) rotate(90)">
				<title>Tabelle.1215</title>
				<path d="M0 88.25 L21.38 88.25" class="st1"/>
			</g>
			<g id="shape1216-5" v:mID="1216" v:groupContext="shape" transform="translate(248,24.125) rotate(90)">
				<title>Tabelle.1216</title>
				<path d="M0 88.25 L21.38 88.25" class="st1"/>
			</g>
			<g id="shape1217-8" v:mID="1217" v:groupContext="shape" transform="translate(207.5,6.12501) rotate(90)">
				<title>Tabelle.1217</title>
				<path d="M0 88.25 L21.38 88.25" class="st1"/>
			</g>
			<g id="shape1237-11" v:mID="1237" v:groupContext="shape" v:layerMember="0" transform="translate(20.8125,-29.8125)">
				<title>Dynamic connector.1237</title>
				<path d="M0.56 83.19 L17.44 75.31" class="st1"/>
			</g>
			<g id="shape1238-14" v:mID="1238" v:groupContext="shape" v:layerMember="0" transform="translate(20.8125,-55.6875)">
				<title>Dynamic connector.1238</title>
				<path d="M0.56 93.31 L17.44 101.19" class="st1"/>
			</g>
			<g id="shape1239-17" v:mID="1239" v:groupContext="shape" transform="translate(85.5,-60.75)">
				<title>Tabelle.1239</title>
				<desc>4</desc>
				<v:textBlock v:margins="rect(0,0,0,0)"/>
				<v:textRect cx="16.875" cy="88.25" width="33.76" height="0"/>
				<path d="M3.47 88.25 L3.83 88.25 L33.75 88.25" class="st2"/>
				<text x="15.25" y="90.75" class="st4" v:langID="1033"><v:paragraph v:spLine="-1" v:horizAlign="1"/><v:tabList/>4</text>			</g>
			<g id="shape1240-24" v:mID="1240" v:groupContext="shape" transform="translate(38.25,-42.75)">
				<title>Tabelle.1240</title>
				<desc>2</desc>
				<v:textBlock v:margins="rect(0,0,0,0)"/>
				<v:textRect cx="57.375" cy="88.25" width="114.75" height="0"/>
				<path d="M0 88.25 L110.92 88.25" class="st5"/>
				<text x="55.55" y="90.75" class="st4" v:langID="1033"><v:paragraph v:spLine="-1" v:horizAlign="1"/><v:tabList/>2</text>			</g>
			<g id="shape1241-31" v:mID="1241" v:groupContext="shape" transform="translate(64.7974,-38.6183) rotate(13.1311)">
				<title>Tabelle.1241</title>
				<desc>3</desc>
				<v:textBlock v:margins="rect(0,0,0,0)"/>
				<v:textRect cx="75.2173" cy="88.25" width="150.44" height="0"/>
				<path d="M3.47 88.25 L3.83 88.25 L146.6 88.25" class="st6"/>
				<text x="73.64" y="90.75" class="st4" v:langID="1033"><v:paragraph v:spLine="-1" v:horizAlign="1"/><v:tabList/>3</text>			</g>
			<g id="shape1242-40" v:mID="1242" v:groupContext="shape" transform="translate(161.283,-50.4021) rotate(23.9761)">
				<title>Tabelle.1242</title>
				<desc>5</desc>
				<v:textBlock v:margins="rect(0,0,0,0)"/>
				<v:textRect cx="18.7849" cy="88.25" width="37.57" height="0"/>
				<path d="M3.47 88.25 L3.83 88.25 L37.57 88.25" class="st2"/>
				<text x="17.23" y="90.75" class="st4" v:langID="1033"><v:paragraph v:spLine="-1" v:horizAlign="1"/><v:tabList/>5</text>			</g>
			<g id="shape1243-46" v:mID="1243" v:groupContext="shape" transform="translate(112.5,-54)">
				<title>Circle.1243</title>
				<desc>3</desc>
				<v:userDefs>
					<v:ud v:nameU="visVersion" v:val="VT0(15):26"/>
				</v:userDefs>
				<v:textBlock v:margins="rect(0,0,0,0)"/>
				<v:textRect cx="6.75" cy="81.5" width="11.82" height="10.125"/>
				<path d="M0 81.5 A6.75 6.75 0 0 1 13.5 81.5 A6.75 6.75 0 1 1 0 81.5 Z" class="st7"/>
				<text x="5.17" y="84" class="st8" v:langID="1033"><v:paragraph v:spLine="-1" v:horizAlign="1"/><v:tabList/>3</text>			</g>
			<g id="shape1244-49" v:mID="1244" v:groupContext="shape" transform="translate(2.34537,-35.1159) rotate(-24.0071)">
				<title>Tabelle.1244</title>
				<desc>1</desc>
				<v:textBlock v:margins="rect(0,0,0,0)"/>
				<v:textRect cx="18.785" cy="88.25" width="37.57" height="0"/>
				<path d="M0 88.25 L33.74 88.25" class="st5"/>
				<text x="17.35" y="90.75" class="st4" v:langID="1033"><v:paragraph v:spLine="-1" v:horizAlign="1"/><v:tabList/>1</text>			</g>
			<g id="shape1245-55" v:mID="1245" v:groupContext="shape" transform="translate(72,-54)">
				<title>Circle.1245</title>
				<desc>2</desc>
				<v:userDefs>
					<v:ud v:nameU="visVersion" v:val="VT0(15):26"/>
				</v:userDefs>
				<v:textBlock v:margins="rect(0,0,0,0)"/>
				<v:textRect cx="6.75" cy="81.5" width="11.82" height="10.125"/>
				<path d="M0 81.5 A6.75 6.75 0 0 1 13.5 81.5 A6.75 6.75 0 1 1 0 81.5 Z" class="st7"/>
				<text x="4.92" y="84" class="st8" v:langID="1033"><v:paragraph v:spLine="-1" v:horizAlign="1"/><v:tabList/>2</text>			</g>
			<g id="shape1246-58" v:mID="1246" v:groupContext="shape" transform="translate(31.5,-36)">
				<title>Circle.1246</title>
				<desc>1</desc>
				<v:userDefs>
					<v:ud v:nameU="visVersion" v:val="VT0(15):26"/>
				</v:userDefs>
				<v:textBlock v:margins="rect(0,0,0,0)"/>
				<v:textRect cx="6.75" cy="81.5" width="11.82" height="10.125"/>
				<path d="M0 81.5 A6.75 6.75 0 0 1 13.5 81.5 A6.75 6.75 0 1 1 0 81.5 Z" class="st7"/>
				<text x="5.31" y="84" class="st8" v:langID="1033"><v:paragraph v:spLine="-1" v:horizAlign="1"/><v:tabList/>1</text>			</g>
			<g id="shape1247-61" v:mID="1247" v:groupContext="shape" transform="translate(230.595,-7.53959) rotate(48.8047)">
				<title>Tabelle.1247</title>
				<desc>6</desc>
				<v:textBlock v:margins="rect(0,0,0,0)"/>
				<v:textRect cx="20.5428" cy="88.25" width="41.09" height="0"/>
				<path d="M3.47 88.25 L3.83 88.25 L41.09 88.25" class="st2"/>
				<text x="18.85" y="90.75" class="st4" v:langID="1033"><v:paragraph v:spLine="-1" v:horizAlign="1"/><v:tabList/>6</text>			</g>
			<g id="shape1248-67" v:mID="1248" v:groupContext="shape" transform="translate(184.5,-1.27898E-13)">
				<title>Circle.1248</title>
				<desc>5</desc>
				<v:userDefs>
					<v:ud v:nameU="visVersion" v:val="VT0(15):26"/>
				</v:userDefs>
				<v:textBlock v:margins="rect(0,0,0,0)"/>
				<v:textRect cx="6.75" cy="81.5" width="11.82" height="10.125"/>
				<path d="M0 81.5 A6.75 6.75 0 0 1 13.5 81.5 A6.75 6.75 0 1 1 0 81.5 Z" class="st7"/>
				<text x="5.2" y="84" class="st8" v:langID="1033"><v:paragraph v:spLine="-1" v:horizAlign="1"/><v:tabList/>5</text>			</g>
			<g id="shape1249-70" v:mID="1249" v:groupContext="shape" transform="translate(153,-36)">
				<title>Circle.1249</title>
				<desc>4</desc>
				<v:userDefs>
					<v:ud v:nameU="visVersion" v:val="VT0(15):26"/>
				</v:userDefs>
				<v:textBlock v:margins="rect(0,0,0,0)"/>
				<v:textRect cx="6.75" cy="81.5" width="11.82" height="10.125"/>
				<path d="M0 81.5 A6.75 6.75 0 0 1 13.5 81.5 A6.75 6.75 0 1 1 0 81.5 Z" class="st7"/>
				<text x="5.13" y="84" class="st8" v:langID="1033"><v:paragraph v:spLine="-1" v:horizAlign="1"/><v:tabList/>4</text>			</g>
			<g id="shape1250-73" v:mID="1250" v:groupContext="shape" transform="translate(248,52.25) rotate(90)">
				<title>Tabelle.1250</title>
				<path d="M0 88.25 L4.73 88.25" class="st9"/>
			</g>
			<g id="shape1251-79" v:mID="1251" v:groupContext="shape" transform="translate(167,34.25) rotate(90)">
				<title>Tabelle.1251</title>
				<path d="M0 88.25 L4.73 88.25" class="st9"/>
			</g>
			<g id="shape1252-84" v:mID="1252" v:groupContext="shape" transform="translate(207.5,34.25) rotate(90)">
				<title>Tabelle.1252</title>
				<path d="M0 88.25 L4.73 88.25" class="st9"/>
			</g>
			<g id="shape1256-89" v:mID="1256" v:groupContext="shape" transform="translate(15.7499,-45)">
				<title>Circle.1256</title>
				<desc>g1</desc>
				<v:userDefs>
					<v:ud v:nameU="visVersion" v:val="VT0(15):26"/>
				</v:userDefs>
				<v:textBlock v:margins="rect(0,0,0,0)"/>
				<v:textRect cx="5.62501" cy="82.625" width="9.85" height="8.43751"/>
				<path d="M0 82.63 A5.62501 5.62501 0 0 1 11.25 82.63 A5.62501 5.62501 0 1 1 0 82.63 Z" class="st7"/>
				<text x="3.03" y="85.13" class="st8" v:langID="1033"><v:paragraph v:spLine="-1" v:horizAlign="1"/><v:tabList/>g<tspan
							dy="-0.284em" class="st11" v:baseFontSize="10">1</tspan></text>			</g>
			<g id="shape1257-93" v:mID="1257" v:groupContext="shape" transform="translate(15.7499,-29.25)">
				<title>Circle.1257</title>
				<desc>g2</desc>
				<v:userDefs>
					<v:ud v:nameU="visVersion" v:val="VT0(15):26"/>
				</v:userDefs>
				<v:textBlock v:margins="rect(0,0,0,0)"/>
				<v:textRect cx="5.62501" cy="82.625" width="9.85" height="8.43751"/>
				<path d="M0 82.63 A5.62501 5.62501 0 0 1 11.25 82.63 A5.62501 5.62501 0 1 1 0 82.63 Z" class="st7"/>
				<text x="2.77" y="85.13" class="st8" v:langID="1033"><v:paragraph v:spLine="-1" v:horizAlign="1"/><v:tabList/>g<tspan
							dy="-0.284em" class="st11" v:baseFontSize="10">2</tspan></text>			</g>
			<g id="shape1258-97" v:mID="1258" v:groupContext="shape" transform="translate(113.625,-76.5)">
				<title>Circle.1258</title>
				<desc>g3</desc>
				<v:userDefs>
					<v:ud v:nameU="visVersion" v:val="VT0(15):26"/>
				</v:userDefs>
				<v:textBlock v:margins="rect(0,0,0,0)"/>
				<v:textRect cx="5.62501" cy="82.625" width="9.85" height="8.43751"/>
				<path d="M0 82.63 A5.62501 5.62501 0 0 1 11.25 82.63 A5.62501 5.62501 0 1 1 0 82.63 Z" class="st7"/>
				<text x="2.93" y="85.13" class="st8" v:langID="1033"><v:paragraph v:spLine="-1" v:horizAlign="1"/><v:tabList/>g<tspan
							dy="-0.284em" class="st11" v:baseFontSize="10">3</tspan></text>			</g>
			<g id="shape1259-101" v:mID="1259" v:groupContext="shape" transform="translate(185.625,-22.5)">
				<title>Circle.1259</title>
				<desc>g5</desc>
				<v:userDefs>
					<v:ud v:nameU="visVersion" v:val="VT0(15):26"/>
				</v:userDefs>
				<v:textBlock v:margins="rect(0,0,0,0)"/>
				<v:textRect cx="5.62501" cy="82.625" width="9.85" height="8.43751"/>
				<path d="M0 82.63 A5.62501 5.62501 0 0 1 11.25 82.63 A5.62501 5.62501 0 1 1 0 82.63 Z" class="st7"/>
				<text x="2.95" y="85.13" class="st8" v:langID="1033"><v:paragraph v:spLine="-1" v:horizAlign="1"/><v:tabList/>g<tspan
							dy="-0.284em" class="st11" v:baseFontSize="10">5</tspan></text>			</g>
			<g id="shape1260-105" v:mID="1260" v:groupContext="shape" transform="translate(154.125,-58.5)">
				<title>Circle.1260</title>
				<desc>g4</desc>
				<v:userDefs>
					<v:ud v:nameU="visVersion" v:val="VT0(15):26"/>
				</v:userDefs>
				<v:textBlock v:margins="rect(0,0,0,0)"/>
				<v:textRect cx="5.62501" cy="82.625" width="9.85" height="8.43751"/>
				<path d="M0 82.63 A5.62501 5.62501 0 0 1 11.25 82.63 A5.62501 5.62501 0 1 1 0 82.63 Z" class="st7"/>
				<text x="2.91" y="85.13" class="st8" v:langID="1033"><v:paragraph v:spLine="-1" v:horizAlign="1"/><v:tabList/>g<tspan
							dy="-0.284em" class="st11" v:baseFontSize="10">4</tspan></text>			</g>
			<g id="shape1325-109" v:mID="1325" v:groupContext="shape" transform="translate(1.22902E-13,-47.25)">
				<title>Rectangle.1325</title>
				<desc>0.4</desc>
				<v:userDefs>
					<v:ud v:nameU="visVersion" v:val="VT0(15):26"/>
				</v:userDefs>
				<v:textBlock v:margins="rect(0,0,0,0)" v:verticalAlign="2"/>
				<v:textRect cx="7.87496" cy="84.875" width="15.75" height="6.74999"/>
				<rect x="0" y="81.5001" width="15.7499" height="6.74999" class="st12"/>
				<text x="4.84" y="86.45" class="st13" v:langID="1033"><v:paragraph v:indentLeft="1.44" v:spAfter="-6"
							v:horizAlign="1"/><v:tabList/>0.4</text>			</g>
			<g id="shape1331-112" v:mID="1331" v:groupContext="shape" transform="translate(1.22902E-13,-31.5)">
				<title>Rectangle.1331</title>
				<desc>1.7</desc>
				<v:userDefs>
					<v:ud v:nameU="visVersion" v:val="VT0(15):26"/>
				</v:userDefs>
				<v:textBlock v:margins="rect(0,0,0,0)" v:verticalAlign="2"/>
				<v:textRect cx="7.87496" cy="84.875" width="15.75" height="6.74999"/>
				<rect x="0" y="81.5001" width="15.7499" height="6.74999" class="st12"/>
				<text x="4.84" y="86.45" class="st13" v:langID="1033"><v:paragraph v:indentLeft="1.44" v:spAfter="-6"
							v:horizAlign="1"/><v:tabList/>1.7</text>			</g>
			<g id="shape1336-115" v:mID="1336" v:groupContext="shape" transform="translate(183.375,-33.75)">
				<title>Rectangle.1336</title>
				<desc>4.66</desc>
				<v:userDefs>
					<v:ud v:nameU="visVersion" v:val="VT0(15):26"/>
				</v:userDefs>
				<v:textBlock v:margins="rect(0,0,0,0)" v:verticalAlign="2"/>
				<v:textRect cx="7.87496" cy="84.875" width="15.75" height="6.74999"/>
				<rect x="0" y="81.5001" width="15.7499" height="6.74999" class="st12"/>
				<text x="3.34" y="86.45" class="st13" v:langID="1033"><v:paragraph v:indentLeft="1.44" v:spAfter="-6"
							v:horizAlign="1"/><v:tabList/>4.66</text>			</g>
			<g id="shape1337-118" v:mID="1337" v:groupContext="shape" transform="translate(151.875,-69.75)">
				<title>Rectangle.1337</title>
				<desc>0.0</desc>
				<v:userDefs>
					<v:ud v:nameU="visVersion" v:val="VT0(15):26"/>
				</v:userDefs>
				<v:textBlock v:margins="rect(0,0,0,0)" v:verticalAlign="2"/>
				<v:textRect cx="7.87496" cy="84.875" width="15.75" height="6.74999"/>
				<rect x="0" y="81.5001" width="15.7499" height="6.74999" class="st12"/>
				<text x="4.84" y="86.45" class="st13" v:langID="1033"><v:paragraph v:indentLeft="1.44" v:spAfter="-6"
							v:horizAlign="1"/><v:tabList/>0.0</text>			</g>
			<g id="shape1338-121" v:mID="1338" v:groupContext="shape" transform="translate(97.8751,-78.75)">
				<title>Rectangle.1338</title>
				<desc>3.24</desc>
				<v:userDefs>
					<v:ud v:nameU="visVersion" v:val="VT0(15):26"/>
				</v:userDefs>
				<v:textBlock v:margins="rect(0,0,0,0)" v:verticalAlign="2"/>
				<v:textRect cx="7.87496" cy="84.875" width="15.75" height="6.74999"/>
				<rect x="0" y="81.5001" width="15.7499" height="6.74999" class="st12"/>
				<text x="3.34" y="86.45" class="st13" v:langID="1033"><v:paragraph v:indentLeft="1.44" v:spAfter="-6"
							v:horizAlign="1"/><v:tabList/>3.24</text>			</g>
		</g>
	</g>
</svg>
