<?xml version="1.0" encoding="UTF-8" standalone="no"?>
<!DOCTYPE svg PUBLIC "-//W3C//DTD SVG 1.1//EN" "http://www.w3.org/Graphics/SVG/1.1/DTD/svg11.dtd">
<!-- Generated by Microsoft Visio, SVG Export SplittingModel.svg Page-1 -->
<svg xmlns="http://www.w3.org/2000/svg" xmlns:xlink="http://www.w3.org/1999/xlink" xmlns:ev="http://www.w3.org/2001/xml-events"
		xmlns:v="http://schemas.microsoft.com/visio/2003/SVGExtensions/" width="2.22209in" height="0.7429in"
		viewBox="0 0 159.99 53.4888" xml:space="preserve" color-interpolation-filters="sRGB" class="st6">
	<v:documentProperties v:langID="1031" v:viewMarkup="false"/>

	<style type="text/css">
	<![CDATA[
		.st1 {fill:none;stroke:none;stroke-linecap:round;stroke-linejoin:round;stroke-width:0.5}
		.st2 {fill:#000000;font-family:Times New Roman;font-size:0.666664em;font-style:italic}
		.st3 {stroke:#000000;stroke-width:1}
		.st4 {stroke:#000000;stroke-width:0.5}
		.st5 {stroke:#000000;stroke-linecap:round;stroke-linejoin:round;stroke-width:0.5}
		.st6 {fill:none;fill-rule:evenodd;font-size:12px;overflow:visible;stroke-linecap:square;stroke-miterlimit:3}
	]]>
	</style>

	<g v:mID="0" v:index="1" v:groupContext="foregroundPage">
		<title>Page-1</title>
		<v:pageProperties v:drawingScale="0.0393701" v:pageScale="0.0393701" v:drawingUnits="24" v:shadowOffsetX="8.50394"
				v:shadowOffsetY="-8.50394"/>
		<g id="group763-1" transform="translate(0.25,-0.5)" v:mID="763" v:groupContext="group">
			<title>Sheet.763</title>
			<g id="shape696-2" v:mID="696" v:groupContext="shape" transform="translate(2.9976E-14,-44.6457)">
				<title>Sheet.696</title>
				<desc>1</desc>
				<v:textBlock v:margins="rect(4,4,4,4)" v:tabSpace="42.5197"/>
				<v:textRect cx="10.6299" cy="49.9455" width="21.26" height="7.08661"/>
				<rect x="0" y="46.4022" width="21.2598" height="7.08661" class="st1"/>
				<text x="8.63" y="52.35" class="st2" v:langID="1033"><v:paragraph v:horizAlign="1"/><v:tabList/>1</text>			</g>
			<g id="shape697-5" v:mID="697" v:groupContext="shape" transform="translate(-5.9952E-15,-30.4724)">
				<title>Sheet.697</title>
				<desc>2</desc>
				<v:textBlock v:margins="rect(4,4,4,4)" v:tabSpace="42.5197"/>
				<v:textRect cx="10.6299" cy="49.9455" width="21.26" height="7.08661"/>
				<rect x="0" y="46.4022" width="21.2598" height="7.08661" class="st1"/>
				<text x="8.63" y="52.35" class="st2" v:langID="1033"><v:paragraph v:horizAlign="1"/><v:tabList/>2</text>			</g>
			<g id="shape698-8" v:mID="698" v:groupContext="shape" transform="translate(-5.9952E-15,-2.12598)">
				<title>Sheet.698</title>
				<desc>δ(n)</desc>
				<v:textBlock v:margins="rect(4,4,4,4)" v:tabSpace="42.5197"/>
				<v:textRect cx="10.6299" cy="49.9455" width="21.26" height="7.08661"/>
				<rect x="0" y="46.4022" width="21.2598" height="7.08661" class="st1"/>
				<text x="4.11" y="52.35" class="st2" v:langID="1033"><v:paragraph v:horizAlign="1"/><v:tabList/>δ(n)</text>			</g>
			<g id="shape702-11" v:mID="702" v:groupContext="shape" transform="translate(25.5118,-45.3543)">
				<title>Sheet.702</title>
				<path d="M0 53.49 L48.19 53.49" class="st3"/>
			</g>
			<g id="shape706-14" v:mID="706" v:groupContext="shape" transform="translate(25.5118,-31.1811)">
				<title>Sheet.706</title>
				<path d="M0 53.49 L48.19 53.49" class="st3"/>
			</g>
			<g id="shape710-17" v:mID="710" v:groupContext="shape" transform="translate(25.5118,-2.83465)">
				<title>Sheet.710</title>
				<path d="M0 53.49 L48.19 53.49" class="st3"/>
			</g>
			<g id="shape711-20" v:mID="711" v:groupContext="shape" transform="translate(55.9132,30.3495) rotate(90)">
				<title>Sheet.711</title>
				<desc>...</desc>
				<v:textBlock v:margins="rect(0,0,0,0)" v:tabSpace="42.5197"/>
				<v:textRect cx="3.54331" cy="42.8589" width="7.09" height="21.2599"/>
				<rect x="0" y="32.229" width="7.08661" height="21.2599" class="st1"/>
				<text x="0.54" y="45.26" class="st2" v:langID="1033"><v:paragraph v:horizAlign="1"/><v:tabList/>...</text>			</g>
			<g id="shape732-23" v:mID="732" v:groupContext="shape" transform="translate(19.8425,-28.3465)">
				<title>Sheet.732</title>
				<path d="M11.34 53.49 L11.34 47.82 L0 47.82" class="st4"/>
			</g>
			<g id="shape749-26" v:mID="749" v:groupContext="shape" transform="translate(19.8425,-42.5197)">
				<title>Sheet.749</title>
				<path d="M0 47.82 L11.34 47.82 L11.34 53.49" class="st4"/>
			</g>
			<g id="shape751-29" v:mID="751" v:groupContext="shape" transform="translate(19.8425,-1.07408E-05)">
				<title>Sheet.751</title>
				<path d="M11.34 53.49 L11.34 47.82 L0 47.82" class="st4"/>
			</g>
			<g id="shape752-32" v:mID="752" v:groupContext="shape" transform="translate(85.0394,-44.6456)">
				<title>Sheet.752</title>
				<desc>1</desc>
				<v:textBlock v:margins="rect(4,4,4,4)" v:tabSpace="42.5197"/>
				<v:textRect cx="10.6299" cy="49.9455" width="21.26" height="7.08661"/>
				<rect x="0" y="46.4022" width="21.2598" height="7.08661" class="st1"/>
				<text x="8.63" y="52.35" class="st2" v:langID="1033"><v:paragraph v:horizAlign="1"/><v:tabList/>1</text>			</g>
			<g id="shape753-35" v:mID="753" v:groupContext="shape" transform="translate(85.0394,-30.4724)">
				<title>Sheet.753</title>
				<desc>2</desc>
				<v:textBlock v:margins="rect(4,4,4,4)" v:tabSpace="42.5197"/>
				<v:textRect cx="10.6299" cy="49.9455" width="21.26" height="7.08661"/>
				<rect x="0" y="46.4022" width="21.2598" height="7.08661" class="st1"/>
				<text x="8.63" y="52.35" class="st2" v:langID="1033"><v:paragraph v:horizAlign="1"/><v:tabList/>2</text>			</g>
			<g id="shape754-38" v:mID="754" v:groupContext="shape" transform="translate(85.0394,-2.12597)">
				<title>Sheet.754</title>
				<desc>δ(n)</desc>
				<v:textBlock v:margins="rect(4,4,4,4)" v:tabSpace="42.5197"/>
				<v:textRect cx="10.6299" cy="49.9455" width="21.26" height="7.08661"/>
				<rect x="0" y="46.4022" width="21.2598" height="7.08661" class="st1"/>
				<text x="4.11" y="52.35" class="st2" v:langID="1033"><v:paragraph v:horizAlign="1"/><v:tabList/>δ(n)</text>			</g>
			<g id="shape755-41" v:mID="755" v:groupContext="shape" transform="translate(110.551,-45.3543)">
				<title>Sheet.755</title>
				<path d="M0 53.49 L48.19 53.49" class="st3"/>
			</g>
			<g id="shape756-44" v:mID="756" v:groupContext="shape" transform="translate(110.551,-31.1811)">
				<title>Sheet.756</title>
				<path d="M0 53.49 L48.19 53.49" class="st3"/>
			</g>
			<g id="shape757-47" v:mID="757" v:groupContext="shape" transform="translate(110.551,-2.83463)">
				<title>Sheet.757</title>
				<path d="M0 53.49 L48.19 53.49" class="st3"/>
			</g>
			<g id="shape758-50" v:mID="758" v:groupContext="shape" transform="translate(140.953,30.3495) rotate(90)">
				<title>Sheet.758</title>
				<desc>...</desc>
				<v:textBlock v:margins="rect(0,0,0,0)" v:tabSpace="42.5197"/>
				<v:textRect cx="3.54331" cy="42.8589" width="7.09" height="21.2599"/>
				<rect x="0" y="32.229" width="7.08661" height="21.2599" class="st1"/>
				<text x="0.54" y="45.26" class="st2" v:langID="1033"><v:paragraph v:horizAlign="1"/><v:tabList/>...</text>			</g>
			<g id="shape759-53" v:mID="759" v:groupContext="shape" transform="translate(104.882,-28.3464)">
				<title>Sheet.759</title>
				<path d="M11.34 53.49 L11.34 47.82 L0 47.82" class="st4"/>
			</g>
			<g id="shape760-56" v:mID="760" v:groupContext="shape" transform="translate(104.882,-42.5197)">
				<title>Sheet.760</title>
				<path d="M0 47.82 L11.34 47.82 L11.34 53.49" class="st4"/>
			</g>
			<g id="shape761-59" v:mID="761" v:groupContext="shape" transform="translate(104.882,-3.55271E-14)">
				<title>Sheet.761</title>
				<path d="M11.34 53.49 L11.34 47.82 L0 47.82" class="st4"/>
			</g>
			<g id="shape762-62" v:mID="762" v:groupContext="shape" transform="translate(189.552,5.29985) rotate(90)">
				<title>Sheet.762</title>
				<path d="M0 53.49 L48.19 53.49" class="st5"/>
			</g>
		</g>
	</g>
</svg>
